<svg xmlns="http://www.w3.org/2000/svg" xmlns:xlink="http://www.w3.org/1999/xlink" width="296" height="405" viewBox="0 0 296 405">
  <defs>
    <filter id="Elipse_180" x="23.252" y="77.752" width="259.496" height="259.496" filterUnits="userSpaceOnUse">
      <feOffset dx="5" dy="5" input="SourceAlpha"/>
      <feGaussianBlur stdDeviation="12.5" result="blur"/>
      <feFlood flood-opacity="0.161"/>
      <feComposite operator="in" in2="blur"/>
      <feComposite in="SourceGraphic"/>
    </filter>
    <clipPath id="clip-path">
      <circle id="Elipse_7381" data-name="Elipse 7381" cx="81.582" cy="81.582" r="81.582" transform="translate(0 0)" fill="none" stroke="#707070" stroke-width="1"/>
    </clipPath>
  </defs>
  <g id="Grupo_878007" data-name="Grupo 878007" transform="translate(850 9133)">
    <path id="Trazado_599565" data-name="Trazado 599565" d="M11,0H285a11,11,0,0,1,11,11V394a11,11,0,0,1-11,11H11A11,11,0,0,1,0,394V11A11,11,0,0,1,11,0Z" transform="translate(-554 -8728) rotate(180)" fill="#7fd452" opacity="0.7"/>
    <path id="Trazado_599880" data-name="Trazado 599880" d="M85.172,11.57a6.867,6.867,0,0,1-.594,2.945,4.472,4.472,0,0,1-1.7,1.953,5.021,5.021,0,0,1-5.059.008A4.515,4.515,0,0,1,76.1,14.535a6.67,6.67,0,0,1-.617-2.9V11.07a6.831,6.831,0,0,1,.605-2.957A4.508,4.508,0,0,1,77.8,6.152a5.014,5.014,0,0,1,5.055,0,4.508,4.508,0,0,1,1.711,1.961,6.811,6.811,0,0,1,.605,2.949ZM82.8,11.055a4.787,4.787,0,0,0-.641-2.719,2.263,2.263,0,0,0-3.648-.012,4.732,4.732,0,0,0-.648,2.691v.555a4.847,4.847,0,0,0,.641,2.7,2.243,2.243,0,0,0,3.656.035,4.819,4.819,0,0,0,.641-2.7Zm11.539,1.8a5.07,5.07,0,0,1-.887,3.129,2.843,2.843,0,0,1-2.395,1.176,2.633,2.633,0,0,1-2.07-.891V20.25H86.727V8.547H88.82l.078.828a2.654,2.654,0,0,1,2.141-.984,2.862,2.862,0,0,1,2.43,1.156,5.207,5.207,0,0,1,.867,3.188Zm-2.258-.164a3.327,3.327,0,0,0-.418-1.82,1.361,1.361,0,0,0-1.215-.641,1.478,1.478,0,0,0-1.461.813V14.5a1.5,1.5,0,0,0,1.477.836Q92.078,15.336,92.078,12.688Zm3.3.008a5.013,5.013,0,0,1,.484-2.242A3.546,3.546,0,0,1,97.262,8.93a4.069,4.069,0,0,1,2.113-.539,3.849,3.849,0,0,1,2.793,1.047,4.2,4.2,0,0,1,1.207,2.844l.016.578A4.418,4.418,0,0,1,102.3,15.98a4.209,4.209,0,0,1-5.832,0,4.5,4.5,0,0,1-1.09-3.187Zm2.258.16a3.16,3.16,0,0,0,.453,1.843,1.628,1.628,0,0,0,2.578.008,3.457,3.457,0,0,0,.461-2.015,3.128,3.128,0,0,0-.461-1.831,1.5,1.5,0,0,0-1.3-.649,1.474,1.474,0,0,0-1.281.646A3.516,3.516,0,0,0,97.641,12.856Zm11.891-2.192a6.134,6.134,0,0,0-.812-.062,1.654,1.654,0,0,0-1.68.867V17h-2.258V8.547h2.133l.063,1.008a2.092,2.092,0,0,1,1.883-1.164,2.366,2.366,0,0,1,.7.1Zm4.18-4.2V8.547h1.445V10.2h-1.445v4.219a1.007,1.007,0,0,0,.18.672.9.9,0,0,0,.688.2,3.6,3.6,0,0,0,.664-.055v1.711a4.648,4.648,0,0,1-1.367.2,2.156,2.156,0,0,1-2.422-2.4V10.2h-1.234V8.547h1.234V6.469Zm7.766,9.672a2.831,2.831,0,0,1-2.312,1.016,2.67,2.67,0,0,1-2.074-.781,3.335,3.335,0,0,1-.73-2.289V8.547h2.258v5.467q0,1.322,1.2,1.322a1.63,1.63,0,0,0,1.578-.8V8.547h2.266V17h-2.125Zm5.969-7.594.07.977a2.951,2.951,0,0,1,2.43-1.133,2.453,2.453,0,0,1,2,.789,3.682,3.682,0,0,1,.672,2.359V17h-2.258V11.594a1.465,1.465,0,0,0-.312-1.043,1.4,1.4,0,0,0-1.039-.324,1.553,1.553,0,0,0-1.43.813V17H125.32V8.547ZM136.711,17h-2.266V8.547h2.266Zm-2.4-10.641a1.112,1.112,0,0,1,.34-.836,1.465,1.465,0,0,1,1.848,0,1.105,1.105,0,0,1,.344.836,1.109,1.109,0,0,1-.348.844,1.448,1.448,0,0,1-1.836,0A1.109,1.109,0,0,1,134.313,6.359Zm3.906,6.352a5.094,5.094,0,0,1,.887-3.148,2.877,2.877,0,0,1,2.426-1.172,2.589,2.589,0,0,1,2.039.922V5h2.266V17H143.8l-.109-.9a2.657,2.657,0,0,1-2.172,1.055,2.869,2.869,0,0,1-2.395-1.176A5.258,5.258,0,0,1,138.219,12.711Zm2.258.168a3.337,3.337,0,0,0,.414,1.823,1.349,1.349,0,0,0,1.2.634,1.511,1.511,0,0,0,1.477-.884V11.111a1.489,1.489,0,0,0-1.461-.884Q140.477,10.227,140.477,12.879ZM152.484,17a2.507,2.507,0,0,1-.227-.758,2.732,2.732,0,0,1-2.133.914,3,3,0,0,1-2.059-.719,2.312,2.312,0,0,1-.816-1.812,2.389,2.389,0,0,1,1-2.062,4.915,4.915,0,0,1,2.879-.727h1.039v-.484a1.393,1.393,0,0,0-.3-.937,1.183,1.183,0,0,0-.949-.352,1.345,1.345,0,0,0-.895.273.929.929,0,0,0-.324.75h-2.258a2.268,2.268,0,0,1,.453-1.359,3,3,0,0,1,1.281-.98,4.669,4.669,0,0,1,1.859-.355,3.689,3.689,0,0,1,2.48.785,2.747,2.747,0,0,1,.918,2.207v3.664a4.041,4.041,0,0,0,.336,1.82V17Zm-1.867-1.57a1.945,1.945,0,0,0,.922-.223,1.462,1.462,0,0,0,.625-.6V13.156h-.844q-1.7,0-1.8,1.172l-.008.133a.9.9,0,0,0,.3.7A1.153,1.153,0,0,0,150.617,15.43Zm5.2-2.719a5.094,5.094,0,0,1,.887-3.148,2.877,2.877,0,0,1,2.426-1.172,2.589,2.589,0,0,1,2.039.922V5h2.266V17h-2.039l-.109-.9a2.657,2.657,0,0,1-2.172,1.055,2.869,2.869,0,0,1-2.395-1.176A5.258,5.258,0,0,1,155.813,12.711Zm2.258.168a3.337,3.337,0,0,0,.414,1.823,1.349,1.349,0,0,0,1.2.634,1.511,1.511,0,0,0,1.477-.884V11.111a1.489,1.489,0,0,0-1.461-.884Q158.07,10.227,158.07,12.879Zm11,4.277a4.15,4.15,0,0,1-3.027-1.141,4.054,4.054,0,0,1-1.168-3.039v-.219a5.106,5.106,0,0,1,.492-2.277,3.612,3.612,0,0,1,1.395-1.547,3.914,3.914,0,0,1,2.059-.543,3.508,3.508,0,0,1,2.73,1.094,4.444,4.444,0,0,1,1,3.1v.922h-5.383a2.1,2.1,0,0,0,.66,1.328,2,2,0,0,0,1.395.5,2.437,2.437,0,0,0,2.039-.945l1.109,1.242a3.389,3.389,0,0,1-1.375,1.121A4.511,4.511,0,0,1,169.07,17.156Zm-.258-6.945a1.411,1.411,0,0,0-1.09.455,2.357,2.357,0,0,0-.535,1.3h3.141v-.181a1.681,1.681,0,0,0-.406-1.165A1.456,1.456,0,0,0,168.813,10.211Zm9.594,4.453a.727.727,0,0,0-.41-.652,4.659,4.659,0,0,0-1.316-.426q-3.016-.633-3.016-2.562a2.323,2.323,0,0,1,.934-1.879,3.766,3.766,0,0,1,2.441-.754,4.053,4.053,0,0,1,2.574.758,2.388,2.388,0,0,1,.965,1.969H178.32a1.092,1.092,0,0,0-.312-.8,1.322,1.322,0,0,0-.977-.316,1.351,1.351,0,0,0-.883.258.814.814,0,0,0-.312.656.7.7,0,0,0,.355.605,3.657,3.657,0,0,0,1.2.4,9.8,9.8,0,0,1,1.422.379A2.336,2.336,0,0,1,180.6,14.57a2.205,2.205,0,0,1-.992,1.871,4.28,4.28,0,0,1-2.562.715,4.47,4.47,0,0,1-1.887-.379,3.166,3.166,0,0,1-1.293-1.039,2.414,2.414,0,0,1-.469-1.426h2.141a1.179,1.179,0,0,0,.445.922,1.766,1.766,0,0,0,1.109.32,1.635,1.635,0,0,0,.98-.246A.766.766,0,0,0,178.406,14.664Z" transform="translate(-830 -9066)" fill="#12263f"/>
    <g id="Grupo_877584" data-name="Grupo 877584" transform="translate(-794.248 -9022.748)">
      <g id="Grupo_875625" data-name="Grupo 875625" transform="translate(0 0)">
        <g transform="matrix(1, 0, 0, 1, -55.75, -110.25)" filter="url(#Elipse_180)">
          <g id="Elipse_180-2" data-name="Elipse 180" transform="translate(55.75 110.25)" fill="#f7f7f7" stroke="#fff" stroke-width="8">
            <circle cx="92.248" cy="92.248" r="92.248" stroke="none"/>
            <circle cx="92.248" cy="92.248" r="88.248" fill="none"/>
          </g>
        </g>
      </g>
      <g id="Enmascarar_grupo_700350" data-name="Enmascarar grupo 700350" transform="translate(10.666 10.666)" clip-path="url(#clip-path)">
        <g id="Grupo_877585" data-name="Grupo 877585" transform="translate(24.729 35.822)">
          <path id="Trazado_598645" data-name="Trazado 598645" d="M399.288-1481.375c3.03.011,6.059-.017,9.087.054,1.121.026,1.6-.266,1.536-1.477a18.111,18.111,0,0,1,3.917-12.82,3.113,3.113,0,0,0,.434-2.106,26.844,26.844,0,0,1,.235-5.3,10.293,10.293,0,0,1,8.625-7.856,10.093,10.093,0,0,1,10.313,5.4c.7,1.367,1.173,2.852,1.75,4.282-2.068-.056-4.007-.823-6.038-1.136-2.112-.325-2.123.453-1.739,2,.94,3.777,1.87,7.557,2.757,11.347,1.405,6,2.772,12.016,4.154,18.025a26.76,26.76,0,0,0-17.394,8.139,27.43,27.43,0,0,0-7.018,14.939l-10.675-.026-.5-3.14c.837-.691.487-1.644.491-2.482Q399.287-1467.455,399.288-1481.375Z" transform="translate(-347.774 1510.97)" fill="#41414c"/>
          <path id="Trazado_598646" data-name="Trazado 598646" d="M423.825-1397.776a27.43,27.43,0,0,1,7.018-14.94,26.761,26.761,0,0,1,17.394-8.139c9.763-.046,17.471,3.884,23.06,11.912.142.037.372.032.412.117,2.868,6.127,4.8,12.533,2.981,19.243-1.2,4.424-2.714,8.942-6.362,12.19-3.341,2.975-6.816,5.83-11.257,6.956-5.933,1.5-11.978,1.691-17.6-.916-5.815-2.695-10.662-6.7-13.253-12.856a36.077,36.077,0,0,1-1.076-3.445l.1-.176-.1.18A26.989,26.989,0,0,1,423.825-1397.776Zm7.951-.575a7.112,7.112,0,0,0-.331,1.267c-.564,7.6,2.218,13.681,8.776,17.591,6.63,3.952,13.5,3.728,19.79-.752,6.167-4.39,8.706-10.548,7.3-18.138-.6-6.161-5.854-12.072-12.482-14.033a16.837,16.837,0,0,0-8.7-.547C438.887-1411.7,432.4-1405.127,431.776-1398.351Z" transform="translate(-361.69 1460.861)" fill="#e2e2ed"/>
          <path id="Trazado_598647" data-name="Trazado 598647" d="M334.9-1400.972l.5,3.14a28.258,28.258,0,0,1-5.115,18.209c-2.21,3.1-5.292,5.125-8.494,7.1-4.25,2.626-8.875,3.157-13.633,2.99a21.4,21.4,0,0,1-15.275-6.679c-2.427-2.52-5.3-4.605-6.58-8.049a4.71,4.71,0,0,1-.591-2.1l.1-.175-.1.179c-.518-.321-.425-.847-.447-1.335l.1-.177-.1.18c-2.212-5.6-1.329-11.176.186-16.737.113-.416.231-1.021.527-1.164,1.4-.674,1.631-1.686,1.226-3.061-.051-.173.435-.5.672-.763.191-.1.452-.141.564-.294,5.577-7.661,13.212-11.168,22.572-11.21,6.681.717,12.541,3.151,17.282,8.067C331.566-1409.455,333.455-1405.346,334.9-1400.972Zm-43,2.589a7.088,7.088,0,0,0-.33,1.268c-.564,7.6,2.216,13.682,8.774,17.591,6.629,3.952,13.5,3.73,19.79-.75,6.167-4.389,8.706-10.547,7.3-18.137-.586-6.152-5.846-12.068-12.48-14.036a16.829,16.829,0,0,0-8.7-.547C299.019-1411.728,292.54-1405.167,291.907-1398.383Z" transform="translate(-283.941 1460.89)" fill="#e2e2ed"/>
          <path id="Trazado_598648" data-name="Trazado 598648" d="M368.821-1440.009c-1.448-4.374-3.337-8.484-6.6-11.869-4.74-4.916-10.6-7.35-17.282-8.068,2.3-9.655,4.672-19.292,6.83-28.977.487-2.185,1.66-2.435,3.309-2.025a19.052,19.052,0,0,1,7.526,3.6c.726.588,1.172,1.574,2.283,1.622,1.169,2.41,2.944,4.478,3.7,7.141a33.537,33.537,0,0,1,.788,8.248q-.023,13.921-.061,27.841C369.309-1441.653,369.658-1440.7,368.821-1440.009Z" transform="translate(-317.859 1499.927)" fill="#5b5b68"/>
          <path id="Trazado_598649" data-name="Trazado 598649" d="M335.906-1496.736c-1.11-.049-1.557-1.034-2.283-1.622a19.052,19.052,0,0,0-7.526-3.6c-1.649-.41-2.822-.16-3.309,2.025-2.158,9.685-4.533,19.323-6.83,28.977-9.36.042-16.995,3.549-22.572,11.21-.112.153-.373.2-.564.294q4.514-11.167,9.032-22.333c1.276-3.143,2.592-6.269,3.9-9.4a16.227,16.227,0,0,1,6.838-8.185,7.476,7.476,0,0,0,3.412-4.345,10.24,10.24,0,0,1,7.245-6.86,10.123,10.123,0,0,1,12.692,9.195C336.023-1499.839,335.922-1498.286,335.906-1496.736Z" transform="translate(-288.88 1510.943)" fill="#41414d"/>
          <path id="Trazado_598650" data-name="Trazado 598650" d="M493.053-1448.326c-5.59-8.028-13.3-11.958-23.06-11.912-1.383-6.009-2.749-12.021-4.154-18.025-.887-3.79-1.817-7.57-2.757-11.347-.384-1.545-.373-2.324,1.738-2,2.031.313,3.97,1.079,6.038,1.136,1.089.749,2.194,1.476,3.263,2.253a17.148,17.148,0,0,1,5.88,7.339c4.274,10.275,8.494,20.571,12.746,30.854A2.626,2.626,0,0,1,493.053-1448.326Z" transform="translate(-383.446 1500.244)" fill="#5c5c69"/>
          <path id="Trazado_598651" data-name="Trazado 598651" d="M478.256-1401.847c6.628,1.961,11.886,7.872,12.482,14.034a12.348,12.348,0,0,0-.551,1.165,18.054,18.054,0,0,1-21.644,11.733l-.5-.342-.015.022c-.788-2.814-2.16-5.5-2.133-8.5C465.975-1392.507,470.272-1398.444,478.256-1401.847Z" transform="translate(-385.118 1450.291)" fill="#589bde"/>
          <path id="Trazado_598652" data-name="Trazado 598652" d="M454.65-1357.337a18.054,18.054,0,0,0,21.644-11.733,12.334,12.334,0,0,1,.551-1.165c1.407,7.59-1.131,13.748-7.3,18.138-6.293,4.48-13.161,4.7-19.79.751-6.558-3.909-9.34-9.991-8.776-17.591a7.093,7.093,0,0,1,.331-1.266c.309.732.6,1.471.928,2.194,2.393,5.253,6.006,9.109,11.894,10.352l.015-.022Z" transform="translate(-371.224 1432.713)" fill="#41424e"/>
          <path id="Trazado_598653" data-name="Trazado 598653" d="M454.638-1376.324c-5.888-1.243-9.5-5.1-11.894-10.352-.329-.722-.62-1.462-.928-2.193.623-6.777,7.111-13.349,14.347-14.613a16.835,16.835,0,0,1,8.7.547c-7.984,3.4-12.28,9.34-12.361,18.114C452.478-1381.824,453.85-1379.138,454.638-1376.324Z" transform="translate(-371.728 1451.38)" fill="#367fbb"/>
          <path id="Trazado_598654" data-name="Trazado 598654" d="M426.868-1346.283l.1-.18-.1.176Z" transform="translate(-363.415 1419.494)" fill="#f7f9fa"/>
          <path id="Trazado_598655" data-name="Trazado 598655" d="M338.313-1401.847c6.634,1.968,11.895,7.884,12.48,14.036a12.645,12.645,0,0,0-.55,1.166,18.052,18.052,0,0,1-21.644,11.729l-.5-.342-.015.022c.117-.722-.366-1.252-.59-1.867-1.142-3.141-1.93-6.3-1.371-9.716C327.328-1394.178,331.524-1399.048,338.313-1401.847Z" transform="translate(-307.294 1450.291)" fill="#589bde"/>
          <path id="Trazado_598656" data-name="Trazado 598656" d="M314.722-1357.334a18.052,18.052,0,0,0,21.644-11.73,12.679,12.679,0,0,1,.55-1.165c1.407,7.59-1.132,13.748-7.3,18.136-6.294,4.479-13.161,4.7-19.79.749-6.558-3.909-9.338-9.992-8.774-17.591a7.072,7.072,0,0,1,.33-1.267c.309.732.6,1.471.929,2.193,2.393,5.254,6.005,9.112,11.894,10.354l.015-.022Z" transform="translate(-293.416 1432.71)" fill="#41424e"/>
          <path id="Trazado_598657" data-name="Trazado 598657" d="M314.708-1376.325c-5.889-1.242-9.5-5.1-11.894-10.354-.329-.722-.621-1.461-.929-2.193.634-6.784,7.112-13.346,14.349-14.611a16.83,16.83,0,0,1,8.7.548c-6.789,2.8-10.985,7.668-12.19,15.027-.559,3.412.229,6.576,1.371,9.716C314.342-1377.577,314.825-1377.047,314.708-1376.325Z" transform="translate(-293.919 1451.38)" fill="#367fbb"/>
          <path id="Trazado_598658" data-name="Trazado 598658" d="M286.938-1346.284l.1-.18-.1.177Z" transform="translate(-285.606 1419.495)" fill="#f7f9fa"/>
          <path id="Trazado_598659" data-name="Trazado 598659" d="M287.937-1343.284l.1-.179-.1.176Z" transform="translate(-286.161 1417.827)" fill="#f7f9fa"/>
          <path id="Trazado_598660" data-name="Trazado 598660" d="M471.233-1341.61l-.5-.342Z" transform="translate(-387.808 1416.986)" fill="#367fbb"/>
          <path id="Trazado_598661" data-name="Trazado 598661" d="M331.305-1341.612l-.5-.342Z" transform="translate(-309.999 1416.987)" fill="#367fbb"/>
        </g>
      </g>
    </g>
  </g>
</svg>
