<svg xmlns="http://www.w3.org/2000/svg" xmlns:xlink="http://www.w3.org/1999/xlink" width="295" height="405" viewBox="0 0 295 405">
  <defs>
    <filter id="Elipse_180" x="22.752" y="77.752" width="259.496" height="259.496" filterUnits="userSpaceOnUse">
      <feOffset dx="5" dy="5" input="SourceAlpha"/>
      <feGaussianBlur stdDeviation="12.5" result="blur"/>
      <feFlood flood-opacity="0.161"/>
      <feComposite operator="in" in2="blur"/>
      <feComposite in="SourceGraphic"/>
    </filter>
    <clipPath id="clip-path">
      <circle id="Elipse_7381" data-name="Elipse 7381" cx="81.582" cy="81.582" r="81.582" transform="translate(0 0)" fill="none" stroke="#707070" stroke-width="1"/>
    </clipPath>
  </defs>
  <g id="Grupo_878008" data-name="Grupo 878008" transform="translate(-1020 -2567)">
    <path id="Trazado_599881" data-name="Trazado 599881" d="M5,0H290a5,5,0,0,1,5,5V400a5,5,0,0,1-5,5H5a5,5,0,0,1-5-5V5A5,5,0,0,1,5,0Z" transform="translate(1315 2972) rotate(180)" fill="#fa4861" opacity="0.7"/>
    <g id="Grupo_877453" data-name="Grupo 877453" transform="translate(1075.252 2677.252)">
      <g id="Grupo_875625" data-name="Grupo 875625" transform="translate(0 0)">
        <g transform="matrix(1, 0, 0, 1, -55.25, -110.25)" filter="url(#Elipse_180)">
          <g id="Elipse_180-2" data-name="Elipse 180" transform="translate(55.25 110.25)" fill="#f7f7f7" stroke="#fff" stroke-width="8">
            <circle cx="92.248" cy="92.248" r="92.248" stroke="none"/>
            <circle cx="92.248" cy="92.248" r="88.248" fill="none"/>
          </g>
        </g>
      </g>
      <g id="Enmascarar_grupo_700350" data-name="Enmascarar grupo 700350" transform="translate(10.666 10.666)" clip-path="url(#clip-path)">
        <g id="Grupo_877454" data-name="Grupo 877454" transform="translate(32.114 32.082)">
          <path id="Trazado_598662" data-name="Trazado 598662" d="M.867-1383.4c3.324.379,5.449,2.272,7.154,5.088,7.267,12,14.646,23.94,22.02,35.878,1.672,2.706,2.148,5.436.5,8.275-1.589,2.739-4.091,3.809-7.2,3.805-14.841-.023-29.682-.051-44.522.017-3.976.018-6.786-1.512-8.359-5.2a9.258,9.258,0,0,1,.964-6.741c2.447-3.322,4.422-6.944,6.582-10.446,5.408-8.768,10.751-17.577,16.12-26.369A8.931,8.931,0,0,1,.867-1383.4Zm3.447,21.574c0-2.462.048-4.925-.014-7.385-.058-2.339-1.477-3.832-3.475-3.811s-3.386,1.518-3.409,3.878q-.07,7.186,0,14.372c.019,2.337,1.409,3.888,3.38,3.937,2.027.051,3.474-1.561,3.514-4C4.346-1357.165,4.316-1359.495,4.314-1361.823ZM.93-1337.2a3.516,3.516,0,0,0,3.335-3.56,3.483,3.483,0,0,0-3.394-3.282,3.5,3.5,0,0,0-3.45,3.438A3.575,3.575,0,0,0,.93-1337.2Z" transform="translate(67.375 1429.333)" fill="#f1bb32"/>
          <path id="Trazado_598663" data-name="Trazado 598663" d="M-84.944-1398.318a9.255,9.255,0,0,0-.964,6.741c-10.243.007-20.485.042-30.728.009a6.75,6.75,0,0,1-7.085-7.019q-.052-35.615,0-71.231a6.671,6.671,0,0,1,6.928-6.94c3.923-.058,7.847,0,11.771.013q-.019,3.049-.036,6.1l-.413.563c-2.858.038-5.716.08-8.574.111-2.507.027-2.863.365-2.863,2.915q-.007,32.847,0,65.694c0,2.618.378,2.984,3.013,2.989Q-99.419-1398.342-84.944-1398.318Z" transform="translate(123.747 1485.381)" fill="#794b3c"/>
          <path id="Trazado_598664" data-name="Trazado 598664" d="M-77-1483.554q.018-3.049.036-6.1a2.466,2.466,0,0,1,3.022-1.882,2.526,2.526,0,0,0,3.131-1.851c1.185-3.187,3.924-4.677,7.106-4.884a8.036,8.036,0,0,1,7.939,4.607c.86,1.67,1.74,2.4,3.574,2.14a1.923,1.923,0,0,1,2.452,2.1q0,3.194,0,6.387c-.137,1.4-.956,1.885-2.3,1.881q-11.228-.035-22.456-.006a2.169,2.169,0,0,1-2.472-1.782Z" transform="translate(95.69 1498.289)" fill="#d1eaf5"/>
          <path id="Trazado_598665" data-name="Trazado 598665" d="M-8.824-1470.194q0-3.194,0-6.387c2.489-.581,5.013-.166,7.519-.244s5.045-.042,7.567-.012c4.437.054,7.183,2.794,7.2,7.25.026,10.024.009,20.049.009,30.073a8.931,8.931,0,0,0-6.737,4.311q-.041-15.916-.083-31.833c-.007-2.693-.287-2.941-2.958-2.991C-.481-1470.107-4.657-1469.805-8.824-1470.194Z" transform="translate(54.773 1485.45)" fill="#784a3b"/>
          <path id="Trazado_598666" data-name="Trazado 598666" d="M-67.536-1460.133c4.167.389,8.343.087,12.514.167,2.67.051,2.951.3,2.958,2.991q.044,15.917.083,31.833c-5.369,8.792-10.712,17.6-16.12,26.37-2.16,3.5-4.135,7.124-6.582,10.446q-14.474-.027-28.95-.056c-2.635-.005-3.012-.371-3.013-2.989q-.006-32.847,0-65.694c0-2.551.356-2.888,2.863-2.915,2.858-.031,5.716-.073,8.574-.111l.447.051a2.169,2.169,0,0,0,2.473,1.781q11.228-.015,22.456.006C-68.492-1458.248-67.673-1458.738-67.536-1460.133Zm-2.517,34.24c3.456,0,6.912-.013,10.368.007,1.229.007,2.37-.154,2.44-1.671s-1.074-1.862-2.286-1.866q-10.467-.034-20.935-.007c-1.291,0-2.3.525-2.251,1.942.047,1.378,1.124,1.607,2.3,1.6C-76.965-1425.9-73.509-1425.893-70.053-1425.893Zm-24.7,10.226a2.378,2.378,0,0,0,1.942-1.585q3.062-6.169,6.151-12.324c.555-1.105.879-2.246-.472-2.917s-2.063.261-2.614,1.379c-1.411,2.865-2.889,5.7-4.262,8.58-.671,1.407-1.17,2.634-2.74.73a1.6,1.6,0,0,0-2.487-.133c-.9.873-.642,1.8.169,2.624.982,1,1.975,1.979,2.965,2.967A2.143,2.143,0,0,0-94.752-1415.667Zm24.833-29c3.456,0,6.911-.011,10.367.006,1.169.006,2.251-.215,2.283-1.6s-1.006-1.683-2.2-1.681q-10.467.016-20.933,0c-1.151,0-2.3.161-2.281,1.573.018,1.44,1.11,1.739,2.4,1.722C-76.83-1444.694-73.374-1444.666-69.919-1444.666Zm-16.256-4.86a1.7,1.7,0,0,0-1.147-1.807c-1.087-.374-1.779.189-2.244,1.114-1.488,2.963-3.027,5.9-4.426,8.908-.735,1.58-1.315,2.581-2.873.694a1.534,1.534,0,0,0-2.453,0,1.638,1.638,0,0,0,.19,2.472q1.246,1.288,2.529,2.539c1.815,1.776,2.729,1.638,3.885-.645,2.008-3.964,3.984-7.943,5.964-11.921C-86.514-1448.639-86.336-1449.14-86.174-1449.526Zm-8.739,52.615a2.276,2.276,0,0,0,2.06-1.563q3.1-6.239,6.228-12.464c.533-1.056.778-2.108-.432-2.759-1.312-.7-2.081.117-2.644,1.259-1.438,2.916-2.953,5.793-4.334,8.734-.714,1.522-1.308,2.395-2.738.6a1.548,1.548,0,0,0-2.458-.092,1.6,1.6,0,0,0,.023,2.471q1.577,1.659,3.244,3.232A4.249,4.249,0,0,0-94.913-1396.91Zm19.765-13.754c-1.722,0-3.445.009-5.167,0-1.265-.009-2.346.385-2.4,1.788-.059,1.5,1.065,1.767,2.322,1.76q5.266-.028,10.532,0c1.272.006,2.308-.3,2.294-1.8-.013-1.413-1.1-1.693-2.215-1.724C-71.571-1410.7-73.36-1410.66-75.149-1410.664Zm-.843-27.2q2.4,0,4.791,0c1.155,0,2.011-.456,1.97-1.715-.036-1.143-.864-1.553-1.929-1.553q-4.791,0-9.583,0c-1.155,0-2.02.453-1.974,1.71.041,1.128.865,1.56,1.933,1.559Q-78.387-1437.868-75.991-1437.866Zm-.165,18.77c1.664,0,3.328.006,4.992,0,1.163-.005,1.981-.5,1.939-1.752-.039-1.16-.828-1.533-1.918-1.525-3.195.024-6.39.013-9.584.005-1.057,0-1.949.363-1.964,1.5a1.677,1.677,0,0,0,1.943,1.778C-79.218-1419.113-77.687-1419.1-76.156-1419.1Zm-1.633,18.765v.008c1.064,0,2.13-.037,3.193.01a1.762,1.762,0,0,0,2.05-1.473,1.617,1.617,0,0,0-1.581-1.926,31.29,31.29,0,0,0-7.156-.029,1.615,1.615,0,0,0-1.447,1.859,1.6,1.6,0,0,0,1.748,1.544C-79.918-1400.308-78.853-1400.331-77.789-1400.331Z" transform="translate(113.485 1475.389)" fill="#fcfcfc"/>
          <path id="Trazado_598667" data-name="Trazado 598667" d="M45.152-1346.246c0,2.329.031,4.658-.007,6.987-.04,2.443-1.487,4.055-3.514,4-1.971-.049-3.362-1.6-3.381-3.937q-.056-7.185,0-14.372c.023-2.36,1.41-3.856,3.409-3.878s3.417,1.472,3.475,3.811C45.2-1351.171,45.151-1348.708,45.152-1346.246Z" transform="translate(26.538 1413.756)" fill="#fdfcf8"/>
          <path id="Trazado_598668" data-name="Trazado 598668" d="M41.823-1278.12a3.576,3.576,0,0,1-3.509-3.4,3.5,3.5,0,0,1,3.45-3.438,3.483,3.483,0,0,1,3.394,3.282A3.516,3.516,0,0,1,41.823-1278.12Z" transform="translate(26.482 1370.255)" fill="#fdfbf7"/>
          <path id="Trazado_598669" data-name="Trazado 598669" d="M-77.587-1460.821l-.447-.051.413-.563Z" transform="translate(96.311 1476.17)" fill="#714131"/>
          <path id="Trazado_598670" data-name="Trazado 598670" d="M-34.132-1379.815c-3.456,0-6.912-.012-10.368.006-1.171.006-2.249-.223-2.3-1.6-.048-1.417.96-1.941,2.251-1.942q10.467-.012,20.935.007c1.212,0,2.357.339,2.286,1.865s-1.211,1.678-2.44,1.671C-27.22-1379.828-30.676-1379.815-34.132-1379.815Z" transform="translate(77.563 1429.311)" fill="#9fc3cf"/>
          <path id="Trazado_598671" data-name="Trazado 598671" d="M-84.471-1374.514a2.143,2.143,0,0,1-1.349-.68c-.99-.988-1.983-1.971-2.965-2.967-.81-.822-1.065-1.75-.169-2.624a1.6,1.6,0,0,1,2.487.133c1.57,1.9,2.069.677,2.74-.73,1.374-2.882,2.851-5.715,4.262-8.58.551-1.118,1.267-2.048,2.614-1.379s1.027,1.812.472,2.917q-3.089,6.156-6.151,12.324A2.379,2.379,0,0,1-84.471-1374.514Z" transform="translate(103.204 1434.236)" fill="#6dc57c"/>
          <path id="Trazado_598672" data-name="Trazado 598672" d="M-33.944-1426.371c-3.455,0-6.911-.029-10.367.015-1.288.016-2.379-.282-2.4-1.722-.018-1.412,1.13-1.575,2.281-1.573q10.467.014,20.933,0c1.194,0,2.232.292,2.2,1.681s-1.114,1.61-2.283,1.6C-27.033-1426.382-30.488-1426.371-33.944-1426.371Z" transform="translate(77.51 1457.095)" fill="#9ac0cd"/>
          <path id="Trazado_598673" data-name="Trazado 598673" d="M-75.893-1436.49c-.161.385-.339.886-.574,1.358-1.98,3.978-3.956,7.957-5.964,11.921-1.157,2.283-2.07,2.421-3.885.645q-1.281-1.253-2.529-2.539a1.638,1.638,0,0,1-.19-2.472,1.533,1.533,0,0,1,2.453,0c1.558,1.887,2.138.886,2.873-.694,1.4-3,2.937-5.944,4.426-8.908.465-.925,1.157-1.488,2.244-1.114A1.7,1.7,0,0,1-75.893-1436.49Z" transform="translate(103.204 1462.354)" fill="#6dc57c"/>
          <path id="Trazado_598674" data-name="Trazado 598674" d="M-84.638-1327.594a4.252,4.252,0,0,1-1.052-.578q-1.668-1.568-3.244-3.232a1.6,1.6,0,0,1-.023-2.471,1.548,1.548,0,0,1,2.458.092c1.43,1.793,2.023.92,2.738-.6,1.381-2.942,2.9-5.819,4.334-8.734.563-1.142,1.333-1.964,2.644-1.259,1.211.651.965,1.7.432,2.759q-3.137,6.22-6.228,12.464A2.276,2.276,0,0,1-84.638-1327.594Z" transform="translate(103.209 1406.073)" fill="#6dc57b"/>
          <path id="Trazado_598675" data-name="Trazado 598675" d="M-39.228-1336.417c1.788,0,3.578-.035,5.365.015,1.117.031,2.2.31,2.215,1.724.014,1.505-1.022,1.811-2.294,1.8q-5.266-.027-10.532,0c-1.257.007-2.381-.265-2.322-1.76.055-1.4,1.135-1.8,2.4-1.788C-42.672-1336.41-40.95-1336.419-39.228-1336.417Z" transform="translate(77.564 1401.144)" fill="#9fc3cf"/>
          <path id="Trazado_598676" data-name="Trazado 598676" d="M-40.068-1409.346q-2.4,0-4.791,0c-1.068,0-1.892-.431-1.933-1.559-.045-1.257.819-1.709,1.974-1.709q4.791,0,9.583,0c1.065,0,1.892.409,1.929,1.553.04,1.259-.816,1.714-1.97,1.715Q-37.672-1409.344-40.068-1409.346Z" transform="translate(77.561 1446.869)" fill="#9ac0cd"/>
          <path id="Trazado_598677" data-name="Trazado 598677" d="M-40.195-1362.417c-1.531,0-3.062-.017-4.592.005a1.677,1.677,0,0,1-1.943-1.778c.015-1.139.908-1.5,1.964-1.5,3.195.008,6.39.018,9.584-.005,1.09-.008,1.879.366,1.918,1.525.042,1.255-.776,1.747-1.939,1.753C-36.867-1362.411-38.531-1362.417-40.195-1362.417Z" transform="translate(77.523 1418.71)" fill="#9ac0cd"/>
          <path id="Trazado_598678" data-name="Trazado 598678" d="M-41.894-1315.964c-1.064,0-2.129.023-3.193-.006a1.6,1.6,0,0,1-1.748-1.544,1.616,1.616,0,0,1,1.447-1.859,31.29,31.29,0,0,1,7.156.029,1.617,1.617,0,0,1,1.581,1.926,1.763,1.763,0,0,1-2.05,1.473c-1.062-.047-2.128-.01-3.193-.01Z" transform="translate(77.59 1391.022)" fill="#9fc3cf"/>
        </g>
      </g>
    </g>
    <path id="Trazado_599882" data-name="Trazado 599882" d="M103.859,12.836h-1.867V17H99.648V5.625h4.227a4.778,4.778,0,0,1,3.109.9,3.1,3.1,0,0,1,1.094,2.539,3.5,3.5,0,0,1-.5,1.941,3.437,3.437,0,0,1-1.527,1.238l2.461,4.648V17h-2.516Zm-1.867-1.9h1.891a1.936,1.936,0,0,0,1.367-.449,1.606,1.606,0,0,0,.484-1.238,1.719,1.719,0,0,0-.457-1.266,1.9,1.9,0,0,0-1.4-.461h-1.883ZM112.094,17h-2.266V8.547h2.266ZM109.7,6.359a1.112,1.112,0,0,1,.34-.836,1.465,1.465,0,0,1,1.848,0,1.105,1.105,0,0,1,.344.836,1.108,1.108,0,0,1-.348.844,1.448,1.448,0,0,1-1.836,0A1.108,1.108,0,0,1,109.7,6.359Zm8.148,10.8a4.15,4.15,0,0,1-3.027-1.141,4.054,4.054,0,0,1-1.168-3.039v-.219a5.106,5.106,0,0,1,.492-2.277,3.612,3.612,0,0,1,1.395-1.547,3.914,3.914,0,0,1,2.059-.543,3.508,3.508,0,0,1,2.73,1.094,4.444,4.444,0,0,1,1,3.1v.922h-5.383a2.1,2.1,0,0,0,.66,1.328,2,2,0,0,0,1.395.5,2.437,2.437,0,0,0,2.039-.945l1.109,1.242a3.389,3.389,0,0,1-1.375,1.121A4.511,4.511,0,0,1,117.844,17.156Zm-.258-6.945a1.411,1.411,0,0,0-1.09.455,2.357,2.357,0,0,0-.535,1.3H119.1v-.181a1.681,1.681,0,0,0-.406-1.165A1.456,1.456,0,0,0,117.586,10.211Zm9.594,4.453a.727.727,0,0,0-.41-.652,4.659,4.659,0,0,0-1.316-.426q-3.016-.633-3.016-2.562a2.323,2.323,0,0,1,.934-1.879,3.766,3.766,0,0,1,2.441-.754,4.053,4.053,0,0,1,2.574.758,2.388,2.388,0,0,1,.965,1.969h-2.258a1.092,1.092,0,0,0-.312-.8A1.322,1.322,0,0,0,125.8,10a1.351,1.351,0,0,0-.883.258.814.814,0,0,0-.312.656.7.7,0,0,0,.355.605,3.657,3.657,0,0,0,1.2.4,9.8,9.8,0,0,1,1.422.379,2.336,2.336,0,0,1,1.789,2.273,2.205,2.205,0,0,1-.992,1.871,4.28,4.28,0,0,1-2.562.715,4.47,4.47,0,0,1-1.887-.379,3.166,3.166,0,0,1-1.293-1.039,2.414,2.414,0,0,1-.469-1.426h2.141a1.179,1.179,0,0,0,.445.922,1.766,1.766,0,0,0,1.109.32,1.635,1.635,0,0,0,.98-.246A.766.766,0,0,0,127.18,14.664Zm3.32-1.953a4.954,4.954,0,0,1,.926-3.133,3,3,0,0,1,2.5-1.187,2.631,2.631,0,0,1,2.164.953l.094-.8h2.047v8.172a3.613,3.613,0,0,1-.5,1.93A3.236,3.236,0,0,1,136.3,19.9a4.985,4.985,0,0,1-2.141.43,4.635,4.635,0,0,1-1.812-.371A3.217,3.217,0,0,1,131.016,19l1-1.375a2.645,2.645,0,0,0,2.047.945,1.936,1.936,0,0,0,1.4-.48,1.8,1.8,0,0,0,.5-1.363v-.453a2.612,2.612,0,0,1-2.055.883,2.992,2.992,0,0,1-2.465-1.191,4.953,4.953,0,0,1-.941-3.16Zm2.258.168a3.085,3.085,0,0,0,.461,1.8,1.466,1.466,0,0,0,1.266.653,1.568,1.568,0,0,0,1.477-.775V11a1.564,1.564,0,0,0-1.461-.775,1.476,1.476,0,0,0-1.277.665A3.477,3.477,0,0,0,132.758,12.879Zm6.852-.184a5.013,5.013,0,0,1,.484-2.242,3.546,3.546,0,0,1,1.395-1.523,4.069,4.069,0,0,1,2.113-.539,3.849,3.849,0,0,1,2.793,1.047,4.2,4.2,0,0,1,1.207,2.844l.016.578a4.418,4.418,0,0,1-1.086,3.121,4.209,4.209,0,0,1-5.832,0,4.5,4.5,0,0,1-1.09-3.187Zm2.258.16a3.16,3.16,0,0,0,.453,1.843,1.628,1.628,0,0,0,2.578.008,3.457,3.457,0,0,0,.461-2.015,3.128,3.128,0,0,0-.461-1.831,1.5,1.5,0,0,0-1.3-.649,1.474,1.474,0,0,0-1.281.646A3.516,3.516,0,0,0,141.867,12.856Zm11.719,1.808a.727.727,0,0,0-.41-.652,4.659,4.659,0,0,0-1.316-.426q-3.016-.633-3.016-2.562a2.323,2.323,0,0,1,.934-1.879,3.766,3.766,0,0,1,2.441-.754,4.053,4.053,0,0,1,2.574.758,2.388,2.388,0,0,1,.965,1.969H153.5a1.092,1.092,0,0,0-.312-.8,1.322,1.322,0,0,0-.977-.316,1.351,1.351,0,0,0-.883.258.814.814,0,0,0-.312.656.7.7,0,0,0,.355.605,3.657,3.657,0,0,0,1.2.4,9.8,9.8,0,0,1,1.422.379,2.336,2.336,0,0,1,1.789,2.273,2.205,2.205,0,0,1-.992,1.871,4.28,4.28,0,0,1-2.562.715,4.47,4.47,0,0,1-1.887-.379,3.166,3.166,0,0,1-1.293-1.039,2.414,2.414,0,0,1-.469-1.426h2.141a1.179,1.179,0,0,0,.445.922,1.766,1.766,0,0,0,1.109.32,1.635,1.635,0,0,0,.98-.246A.766.766,0,0,0,153.586,14.664Z" transform="translate(1040 2629)" fill="#12263f"/>
  </g>
</svg>
