<svg xmlns="http://www.w3.org/2000/svg" xmlns:xlink="http://www.w3.org/1999/xlink" width="634.27" height="294.228" viewBox="0 0 634.27 294.228">
  <defs>
    <filter id="Elipse_180" x="0" y="19.399" width="211.269" height="211.269" filterUnits="userSpaceOnUse">
      <feOffset dx="5" dy="5" input="SourceAlpha"/>
      <feGaussianBlur stdDeviation="12.5" result="blur"/>
      <feFlood flood-opacity="0.161"/>
      <feComposite operator="in" in2="blur"/>
      <feComposite in="SourceGraphic"/>
    </filter>
    <clipPath id="clip-path">
      <circle id="Elipse_7381" data-name="Elipse 7381" cx="60.257" cy="60.257" r="60.257" transform="translate(0 0)" fill="none" stroke="#707070" stroke-width="1"/>
    </clipPath>
    <filter id="Elipse_180-2" x="209" y="69.399" width="211.269" height="211.269" filterUnits="userSpaceOnUse">
      <feOffset dx="5" dy="5" input="SourceAlpha"/>
      <feGaussianBlur stdDeviation="12.5" result="blur-2"/>
      <feFlood flood-opacity="0.161"/>
      <feComposite operator="in" in2="blur-2"/>
      <feComposite in="SourceGraphic"/>
    </filter>
    <filter id="Elipse_180-3" x="417" y="19.399" width="211.269" height="211.269" filterUnits="userSpaceOnUse">
      <feOffset dx="5" dy="5" input="SourceAlpha"/>
      <feGaussianBlur stdDeviation="12.5" result="blur-3"/>
      <feFlood flood-opacity="0.161"/>
      <feComposite operator="in" in2="blur-3"/>
      <feComposite in="SourceGraphic"/>
    </filter>
  </defs>
  <g id="Grupo_878011" data-name="Grupo 878011" transform="translate(-175.73 -5705.772)">
    <path id="Trazado_599898" data-name="Trazado 599898" d="M0,0H630V130H0Z" transform="translate(180 5870)" fill="#fff3d3"/>
    <path id="Trazado_599893" data-name="Trazado 599893" d="M28.395,12.3a5.763,5.763,0,0,1-.977,3.609,3.409,3.409,0,0,1-2.859,1.25,3.433,3.433,0,0,1-2.844-1.227,5.594,5.594,0,0,1-1.008-3.516V10.32A5.687,5.687,0,0,1,21.7,6.7a3.434,3.434,0,0,1,2.848-1.234,3.437,3.437,0,0,1,2.844,1.223A5.576,5.576,0,0,1,28.395,10.2Zm-2.258-2.3a4.165,4.165,0,0,0-.387-2.061,1.307,1.307,0,0,0-1.207-.645,1.284,1.284,0,0,0-1.176.614,3.9,3.9,0,0,0-.4,1.92v2.768a4.373,4.373,0,0,0,.379,2.068,1.29,1.29,0,0,0,1.215.676,1.268,1.268,0,0,0,1.2-.649,4.268,4.268,0,0,0,.383-1.986ZM35.4,17H33.145V8.3l-2.7.836V7.3L35.16,5.609H35.4Zm3.906-1.109a1.137,1.137,0,0,1,.363-.875,1.412,1.412,0,0,1,1.828,0,1.137,1.137,0,0,1,.363.875,1.121,1.121,0,0,1-.359.863,1.435,1.435,0,0,1-1.836,0A1.121,1.121,0,0,1,39.309,15.891ZM56.9,13.211A4.025,4.025,0,0,1,55.547,16.1a4.76,4.76,0,0,1-3.223,1.055,4.28,4.28,0,0,1-3.441-1.473,6.038,6.038,0,0,1-1.254-4.043v-.7a6.819,6.819,0,0,1,.578-2.891,4.332,4.332,0,0,1,1.652-1.918,5.164,5.164,0,0,1,5.668.387,4.326,4.326,0,0,1,1.391,2.961H54.574a2.376,2.376,0,0,0-.613-1.6,2.271,2.271,0,0,0-1.605-.5,1.991,1.991,0,0,0-1.754.84,4.707,4.707,0,0,0-.6,2.605V11.7a5.038,5.038,0,0,0,.559,2.7,1.954,1.954,0,0,0,1.762.852,2.314,2.314,0,0,0,1.621-.5,2.241,2.241,0,0,0,.613-1.535ZM63.191,17a2.507,2.507,0,0,1-.227-.758,2.732,2.732,0,0,1-2.133.914,3,3,0,0,1-2.059-.719,2.312,2.312,0,0,1-.816-1.812,2.389,2.389,0,0,1,1-2.062,4.915,4.915,0,0,1,2.879-.727h1.039v-.484a1.393,1.393,0,0,0-.3-.937,1.183,1.183,0,0,0-.949-.352,1.345,1.345,0,0,0-.895.273.929.929,0,0,0-.324.75H58.145A2.268,2.268,0,0,1,58.6,9.727a3,3,0,0,1,1.281-.98,4.669,4.669,0,0,1,1.859-.355,3.689,3.689,0,0,1,2.48.785,2.747,2.747,0,0,1,.918,2.207v3.664a4.041,4.041,0,0,0,.336,1.82V17Zm-1.867-1.57a1.945,1.945,0,0,0,.922-.223,1.462,1.462,0,0,0,.625-.6V13.156h-.844q-1.7,0-1.8,1.172l-.008.133a.9.9,0,0,0,.3.7A1.153,1.153,0,0,0,61.324,15.43Zm7.664-6.883.07.945a2.971,2.971,0,0,1,2.43-1.1A2.255,2.255,0,0,1,73.73,9.68,2.9,2.9,0,0,1,76.27,8.391a2.521,2.521,0,0,1,2.047.8,3.681,3.681,0,0,1,.672,2.41V17H76.723V11.609a1.61,1.61,0,0,0-.281-1.051,1.246,1.246,0,0,0-.992-.332,1.409,1.409,0,0,0-1.406.969l.008,5.8H71.793V11.617a1.59,1.59,0,0,0-.289-1.062,1.259,1.259,0,0,0-.984-.328,1.463,1.463,0,0,0-1.391.8V17H66.871V8.547Zm19.352,4.3a5.119,5.119,0,0,1-.867,3.168,2.872,2.872,0,0,1-2.422,1.137,2.639,2.639,0,0,1-2.2-1.055l-.1.9H80.723V5H82.98V9.3a2.571,2.571,0,0,1,2.055-.914,2.9,2.9,0,0,1,2.426,1.137,5.126,5.126,0,0,1,.879,3.2Zm-2.258-.164a3.363,3.363,0,0,0-.406-1.871,1.374,1.374,0,0,0-1.211-.59,1.489,1.489,0,0,0-1.484.883v3.336a1.509,1.509,0,0,0,1.5.891,1.394,1.394,0,0,0,1.438-1.078A5.562,5.562,0,0,0,86.082,12.688ZM92.113,17H89.848V8.547h2.266Zm-2.4-10.641a1.112,1.112,0,0,1,.34-.836,1.465,1.465,0,0,1,1.848,0,1.105,1.105,0,0,1,.344.836A1.108,1.108,0,0,1,91.9,7.2a1.448,1.448,0,0,1-1.836,0A1.108,1.108,0,0,1,89.715,6.359ZM93.621,12.7a5.013,5.013,0,0,1,.484-2.242A3.546,3.546,0,0,1,95.5,8.93a4.069,4.069,0,0,1,2.113-.539,3.849,3.849,0,0,1,2.793,1.047,4.2,4.2,0,0,1,1.207,2.844l.016.578a4.418,4.418,0,0,1-1.086,3.121,4.209,4.209,0,0,1-5.832,0,4.5,4.5,0,0,1-1.09-3.187Zm2.258.16a3.16,3.16,0,0,0,.453,1.843,1.628,1.628,0,0,0,2.578.008,3.457,3.457,0,0,0,.461-2.015,3.128,3.128,0,0,0-.461-1.831,1.5,1.5,0,0,0-1.3-.649,1.474,1.474,0,0,0-1.281.646A3.516,3.516,0,0,0,95.879,12.856ZM107.6,14.664a.727.727,0,0,0-.41-.652,4.659,4.659,0,0,0-1.316-.426q-3.016-.633-3.016-2.562a2.323,2.323,0,0,1,.934-1.879,3.766,3.766,0,0,1,2.441-.754,4.053,4.053,0,0,1,2.574.758,2.388,2.388,0,0,1,.965,1.969h-2.258a1.092,1.092,0,0,0-.312-.8,1.322,1.322,0,0,0-.977-.316,1.351,1.351,0,0,0-.883.258.814.814,0,0,0-.312.656.7.7,0,0,0,.355.605,3.657,3.657,0,0,0,1.2.4A9.8,9.8,0,0,1,108,12.3a2.336,2.336,0,0,1,1.789,2.273,2.2,2.2,0,0,1-.992,1.871,4.28,4.28,0,0,1-2.562.715,4.47,4.47,0,0,1-1.887-.379,3.166,3.166,0,0,1-1.293-1.039,2.414,2.414,0,0,1-.469-1.426h2.141a1.179,1.179,0,0,0,.445.922,1.766,1.766,0,0,0,1.109.32,1.635,1.635,0,0,0,.98-.246A.766.766,0,0,0,107.6,14.664Zm15.25-1.812a5.119,5.119,0,0,1-.867,3.168,2.872,2.872,0,0,1-2.422,1.137,2.639,2.639,0,0,1-2.2-1.055l-.1.9H115.23V5h2.258V9.3a2.571,2.571,0,0,1,2.055-.914,2.9,2.9,0,0,1,2.426,1.137,5.126,5.126,0,0,1,.879,3.2Zm-2.258-.164a3.363,3.363,0,0,0-.406-1.871,1.374,1.374,0,0,0-1.211-.59,1.489,1.489,0,0,0-1.484.883v3.336a1.509,1.509,0,0,0,1.5.891,1.394,1.394,0,0,0,1.438-1.078A5.562,5.562,0,0,0,120.59,12.688ZM129.137,17a2.507,2.507,0,0,1-.227-.758,2.732,2.732,0,0,1-2.133.914,3,3,0,0,1-2.059-.719,2.312,2.312,0,0,1-.816-1.812,2.389,2.389,0,0,1,1-2.062,4.915,4.915,0,0,1,2.879-.727h1.039v-.484a1.393,1.393,0,0,0-.3-.937,1.183,1.183,0,0,0-.949-.352,1.345,1.345,0,0,0-.895.273.929.929,0,0,0-.324.75H124.09a2.268,2.268,0,0,1,.453-1.359,3,3,0,0,1,1.281-.98,4.669,4.669,0,0,1,1.859-.355,3.689,3.689,0,0,1,2.48.785,2.747,2.747,0,0,1,.918,2.207v3.664a4.041,4.041,0,0,0,.336,1.82V17Zm-1.867-1.57a1.945,1.945,0,0,0,.922-.223,1.462,1.462,0,0,0,.625-.6V13.156h-.844q-1.7,0-1.8,1.172l-.008.133a.9.9,0,0,0,.3.7A1.153,1.153,0,0,0,127.27,15.43ZM128.129,5h2.461l-2.164,2.422H126.59Zm9.266,9.664a.727.727,0,0,0-.41-.652,4.659,4.659,0,0,0-1.316-.426q-3.016-.633-3.016-2.562a2.323,2.323,0,0,1,.934-1.879,3.766,3.766,0,0,1,2.441-.754,4.053,4.053,0,0,1,2.574.758,2.388,2.388,0,0,1,.965,1.969h-2.258a1.092,1.092,0,0,0-.312-.8A1.322,1.322,0,0,0,136.02,10a1.351,1.351,0,0,0-.883.258.814.814,0,0,0-.312.656.7.7,0,0,0,.355.605,3.657,3.657,0,0,0,1.2.4,9.8,9.8,0,0,1,1.422.379,2.336,2.336,0,0,1,1.789,2.273,2.205,2.205,0,0,1-.992,1.871,4.28,4.28,0,0,1-2.562.715,4.47,4.47,0,0,1-1.887-.379,3.166,3.166,0,0,1-1.293-1.039,2.414,2.414,0,0,1-.469-1.426h2.141a1.179,1.179,0,0,0,.445.922,1.766,1.766,0,0,0,1.109.32,1.635,1.635,0,0,0,.98-.246A.766.766,0,0,0,137.395,14.664ZM143.426,17H141.16V8.547h2.266Zm-2.4-10.641a1.112,1.112,0,0,1,.34-.836,1.465,1.465,0,0,1,1.848,0,1.105,1.105,0,0,1,.344.836,1.109,1.109,0,0,1-.348.844,1.448,1.448,0,0,1-1.836,0A1.109,1.109,0,0,1,141.027,6.359Zm7.773,8.977a1.481,1.481,0,0,0,1.016-.344,1.2,1.2,0,0,0,.406-.914h2.117a2.9,2.9,0,0,1-.469,1.574,3.093,3.093,0,0,1-1.262,1.109,3.949,3.949,0,0,1-1.77.395A3.67,3.67,0,0,1,145.98,16a4.56,4.56,0,0,1-1.047-3.184v-.148a4.508,4.508,0,0,1,1.039-3.117,3.627,3.627,0,0,1,2.852-1.164,3.555,3.555,0,0,1,2.543.9,3.2,3.2,0,0,1,.973,2.4h-2.117a1.551,1.551,0,0,0-.406-1.072,1.51,1.51,0,0,0-2.223.163,3.333,3.333,0,0,0-.4,1.866v.235a3.375,3.375,0,0,0,.4,1.878A1.377,1.377,0,0,0,148.8,15.336Zm4.477-2.641a5.013,5.013,0,0,1,.484-2.242,3.546,3.546,0,0,1,1.395-1.523,4.069,4.069,0,0,1,2.113-.539,3.849,3.849,0,0,1,2.793,1.047,4.2,4.2,0,0,1,1.207,2.844l.016.578A4.418,4.418,0,0,1,160.2,15.98a4.209,4.209,0,0,1-5.832,0,4.5,4.5,0,0,1-1.09-3.187Zm2.258.16a3.16,3.16,0,0,0,.453,1.843,1.628,1.628,0,0,0,2.578.008,3.457,3.457,0,0,0,.461-2.015,3.128,3.128,0,0,0-.461-1.831,1.5,1.5,0,0,0-1.3-.649,1.474,1.474,0,0,0-1.281.646A3.516,3.516,0,0,0,155.535,12.856Zm11.719,1.808a.727.727,0,0,0-.41-.652,4.659,4.659,0,0,0-1.316-.426q-3.016-.633-3.016-2.562a2.323,2.323,0,0,1,.934-1.879,3.766,3.766,0,0,1,2.441-.754,4.053,4.053,0,0,1,2.574.758,2.388,2.388,0,0,1,.965,1.969h-2.258a1.092,1.092,0,0,0-.312-.8,1.322,1.322,0,0,0-.977-.316,1.351,1.351,0,0,0-.883.258.814.814,0,0,0-.312.656.7.7,0,0,0,.355.605,3.657,3.657,0,0,0,1.2.4,9.8,9.8,0,0,1,1.422.379,2.336,2.336,0,0,1,1.789,2.273,2.205,2.205,0,0,1-.992,1.871,4.28,4.28,0,0,1-2.562.715,4.47,4.47,0,0,1-1.887-.379,3.166,3.166,0,0,1-1.293-1.039,2.414,2.414,0,0,1-.469-1.426h2.141a1.179,1.179,0,0,0,.445.922,1.766,1.766,0,0,0,1.109.32,1.635,1.635,0,0,0,.98-.246A.766.766,0,0,0,167.254,14.664Z" transform="translate(180 5700.772)" fill="#12263f"/>
    <path id="Trazado_599894" data-name="Trazado 599894" d="M18.438,12.3a5.763,5.763,0,0,1-.977,3.609,3.409,3.409,0,0,1-2.859,1.25,3.433,3.433,0,0,1-2.844-1.227,5.594,5.594,0,0,1-1.008-3.516V10.32A5.687,5.687,0,0,1,11.738,6.7a3.434,3.434,0,0,1,2.848-1.234A3.437,3.437,0,0,1,17.43,6.691,5.576,5.576,0,0,1,18.438,10.2Zm-2.258-2.3a4.165,4.165,0,0,0-.387-2.061,1.307,1.307,0,0,0-1.207-.645A1.284,1.284,0,0,0,13.41,7.9a3.9,3.9,0,0,0-.4,1.92v2.768a4.372,4.372,0,0,0,.379,2.068,1.29,1.29,0,0,0,1.215.676,1.268,1.268,0,0,0,1.2-.649A4.268,4.268,0,0,0,16.18,12.7Zm6.078.318h1.2a1.7,1.7,0,0,0,1.273-.43,1.574,1.574,0,0,0,.414-1.141,1.392,1.392,0,0,0-.41-1.07,1.59,1.59,0,0,0-1.129-.383,1.666,1.666,0,0,0-1.086.355,1.137,1.137,0,0,0-.437.926H19.828a2.777,2.777,0,0,1,.48-1.6,3.2,3.2,0,0,1,1.344-1.105,4.485,4.485,0,0,1,1.9-.4,4.253,4.253,0,0,1,2.828.863,2.945,2.945,0,0,1,1.023,2.379,2.394,2.394,0,0,1-.477,1.438,3.1,3.1,0,0,1-1.25,1.008,2.826,2.826,0,0,1,1.434,1.031,2.8,2.8,0,0,1,.473,1.625,2.994,2.994,0,0,1-1.105,2.43,4.445,4.445,0,0,1-2.926.914,4.214,4.214,0,0,1-2.785-.9,2.934,2.934,0,0,1-1.082-2.375h2.258a1.308,1.308,0,0,0,.48,1.047,2,2,0,0,0,2.445-.02,1.47,1.47,0,0,0,.457-1.129q0-1.7-1.875-1.7h-1.2Zm7.094,5.578a1.137,1.137,0,0,1,.363-.875,1.412,1.412,0,0,1,1.828,0,1.137,1.137,0,0,1,.363.875,1.121,1.121,0,0,1-.359.863,1.435,1.435,0,0,1-1.836,0A1.121,1.121,0,0,1,29.352,15.891Zm17.594-2.68A4.025,4.025,0,0,1,45.59,16.1a4.76,4.76,0,0,1-3.223,1.055,4.28,4.28,0,0,1-3.441-1.473,6.038,6.038,0,0,1-1.254-4.043v-.7a6.819,6.819,0,0,1,.578-2.891A4.332,4.332,0,0,1,39.9,6.137a5.164,5.164,0,0,1,5.668.387,4.326,4.326,0,0,1,1.391,2.961H44.617A2.376,2.376,0,0,0,44,7.887a2.271,2.271,0,0,0-1.605-.5,1.991,1.991,0,0,0-1.754.84,4.707,4.707,0,0,0-.6,2.605V11.7a5.038,5.038,0,0,0,.559,2.7,1.954,1.954,0,0,0,1.762.852,2.314,2.314,0,0,0,1.621-.5,2.241,2.241,0,0,0,.613-1.535ZM53.234,17a2.507,2.507,0,0,1-.227-.758,2.732,2.732,0,0,1-2.133.914,3,3,0,0,1-2.059-.719A2.312,2.312,0,0,1,48,14.625a2.389,2.389,0,0,1,1-2.062,4.915,4.915,0,0,1,2.879-.727h1.039v-.484a1.393,1.393,0,0,0-.3-.937,1.183,1.183,0,0,0-.949-.352,1.345,1.345,0,0,0-.895.273.929.929,0,0,0-.324.75H48.188a2.268,2.268,0,0,1,.453-1.359,3,3,0,0,1,1.281-.98,4.669,4.669,0,0,1,1.859-.355,3.689,3.689,0,0,1,2.48.785,2.747,2.747,0,0,1,.918,2.207v3.664a4.041,4.041,0,0,0,.336,1.82V17Zm-1.867-1.57a1.945,1.945,0,0,0,.922-.223,1.462,1.462,0,0,0,.625-.6V13.156H52.07q-1.7,0-1.8,1.172l-.008.133a.9.9,0,0,0,.3.7A1.153,1.153,0,0,0,51.367,15.43Zm7.664-6.883.07.945a2.971,2.971,0,0,1,2.43-1.1A2.255,2.255,0,0,1,63.773,9.68a2.9,2.9,0,0,1,2.539-1.289,2.521,2.521,0,0,1,2.047.8,3.681,3.681,0,0,1,.672,2.41V17H66.766V11.609a1.61,1.61,0,0,0-.281-1.051,1.246,1.246,0,0,0-.992-.332,1.409,1.409,0,0,0-1.406.969l.008,5.8H61.836V11.617a1.59,1.59,0,0,0-.289-1.062,1.259,1.259,0,0,0-.984-.328,1.463,1.463,0,0,0-1.391.8V17H56.914V8.547Zm19.352,4.3a5.119,5.119,0,0,1-.867,3.168,2.872,2.872,0,0,1-2.422,1.137A2.639,2.639,0,0,1,72.9,16.1l-.1.9H70.766V5h2.258V9.3a2.571,2.571,0,0,1,2.055-.914A2.9,2.9,0,0,1,77.5,9.527a5.126,5.126,0,0,1,.879,3.2Zm-2.258-.164a3.363,3.363,0,0,0-.406-1.871,1.374,1.374,0,0,0-1.211-.59,1.489,1.489,0,0,0-1.484.883v3.336a1.509,1.509,0,0,0,1.5.891,1.394,1.394,0,0,0,1.438-1.078A5.562,5.562,0,0,0,76.125,12.688ZM82.156,17H79.891V8.547h2.266Zm-2.4-10.641a1.112,1.112,0,0,1,.34-.836,1.465,1.465,0,0,1,1.848,0,1.105,1.105,0,0,1,.344.836,1.108,1.108,0,0,1-.348.844,1.448,1.448,0,0,1-1.836,0A1.108,1.108,0,0,1,79.758,6.359ZM83.664,12.7a5.013,5.013,0,0,1,.484-2.242A3.546,3.546,0,0,1,85.543,8.93a4.069,4.069,0,0,1,2.113-.539,3.849,3.849,0,0,1,2.793,1.047,4.2,4.2,0,0,1,1.207,2.844l.016.578a4.418,4.418,0,0,1-1.086,3.121,4.209,4.209,0,0,1-5.832,0,4.5,4.5,0,0,1-1.09-3.187Zm2.258.16a3.16,3.16,0,0,0,.453,1.843,1.628,1.628,0,0,0,2.578.008,3.457,3.457,0,0,0,.461-2.015,3.128,3.128,0,0,0-.461-1.831,1.5,1.5,0,0,0-1.3-.649,1.474,1.474,0,0,0-1.281.646A3.516,3.516,0,0,0,85.922,12.856Zm11.719,1.808a.727.727,0,0,0-.41-.652,4.659,4.659,0,0,0-1.316-.426Q92.9,12.953,92.9,11.023a2.323,2.323,0,0,1,.934-1.879,3.766,3.766,0,0,1,2.441-.754,4.053,4.053,0,0,1,2.574.758,2.388,2.388,0,0,1,.965,1.969H97.555a1.092,1.092,0,0,0-.312-.8A1.322,1.322,0,0,0,96.266,10a1.351,1.351,0,0,0-.883.258.814.814,0,0,0-.312.656.7.7,0,0,0,.355.605,3.657,3.657,0,0,0,1.2.4,9.8,9.8,0,0,1,1.422.379,2.336,2.336,0,0,1,1.789,2.273,2.2,2.2,0,0,1-.992,1.871,4.28,4.28,0,0,1-2.562.715,4.47,4.47,0,0,1-1.887-.379A3.166,3.166,0,0,1,93.1,15.738a2.414,2.414,0,0,1-.469-1.426h2.141a1.179,1.179,0,0,0,.445.922,1.766,1.766,0,0,0,1.109.32,1.635,1.635,0,0,0,.98-.246A.766.766,0,0,0,97.641,14.664Zm11.148.672a1.481,1.481,0,0,0,1.016-.344,1.2,1.2,0,0,0,.406-.914h2.117a2.9,2.9,0,0,1-.469,1.574,3.093,3.093,0,0,1-1.262,1.109,3.949,3.949,0,0,1-1.77.395A3.67,3.67,0,0,1,105.969,16a4.56,4.56,0,0,1-1.047-3.184v-.148a4.508,4.508,0,0,1,1.039-3.117,3.627,3.627,0,0,1,2.852-1.164,3.555,3.555,0,0,1,2.543.9,3.2,3.2,0,0,1,.973,2.4h-2.117a1.551,1.551,0,0,0-.406-1.072,1.51,1.51,0,0,0-2.223.163,3.333,3.333,0,0,0-.4,1.866v.235a3.375,3.375,0,0,0,.4,1.878A1.377,1.377,0,0,0,108.789,15.336Zm4.477-2.641a5.013,5.013,0,0,1,.484-2.242,3.546,3.546,0,0,1,1.395-1.523,4.069,4.069,0,0,1,2.113-.539,3.849,3.849,0,0,1,2.793,1.047,4.2,4.2,0,0,1,1.207,2.844l.016.578a4.418,4.418,0,0,1-1.086,3.121,4.209,4.209,0,0,1-5.832,0,4.5,4.5,0,0,1-1.09-3.187Zm2.258.16a3.16,3.16,0,0,0,.453,1.843,1.628,1.628,0,0,0,2.578.008,3.457,3.457,0,0,0,.461-2.015,3.128,3.128,0,0,0-.461-1.831,1.5,1.5,0,0,0-1.3-.649,1.474,1.474,0,0,0-1.281.646A3.516,3.516,0,0,0,115.523,12.856Zm9.258-4.309.07.945a2.971,2.971,0,0,1,2.43-1.1,2.255,2.255,0,0,1,2.242,1.289,2.9,2.9,0,0,1,2.539-1.289,2.521,2.521,0,0,1,2.047.8,3.681,3.681,0,0,1,.672,2.41V17h-2.266V11.609a1.61,1.61,0,0,0-.281-1.051,1.246,1.246,0,0,0-.992-.332,1.409,1.409,0,0,0-1.406.969l.008,5.8h-2.258V11.617a1.59,1.59,0,0,0-.289-1.062,1.259,1.259,0,0,0-.984-.328,1.463,1.463,0,0,0-1.391.8V17h-2.258V8.547Zm19.344,4.3a5.07,5.07,0,0,1-.887,3.129,2.843,2.843,0,0,1-2.395,1.176,2.633,2.633,0,0,1-2.07-.891V20.25h-2.258V8.547h2.094l.078.828a2.654,2.654,0,0,1,2.141-.984,2.862,2.862,0,0,1,2.43,1.156,5.207,5.207,0,0,1,.867,3.188Zm-2.258-.164a3.327,3.327,0,0,0-.418-1.82,1.361,1.361,0,0,0-1.215-.641,1.479,1.479,0,0,0-1.461.813V14.5a1.5,1.5,0,0,0,1.477.836Q141.867,15.336,141.867,12.688ZM147.906,17h-2.266V5h2.266Zm5.75.156a4.15,4.15,0,0,1-3.027-1.141,4.054,4.054,0,0,1-1.168-3.039v-.219a5.106,5.106,0,0,1,.492-2.277,3.612,3.612,0,0,1,1.395-1.547,3.914,3.914,0,0,1,2.059-.543,3.508,3.508,0,0,1,2.73,1.094,4.444,4.444,0,0,1,1,3.1v.922H151.75a2.1,2.1,0,0,0,.66,1.328,2,2,0,0,0,1.395.5,2.437,2.437,0,0,0,2.039-.945l1.109,1.242a3.389,3.389,0,0,1-1.375,1.121A4.511,4.511,0,0,1,153.656,17.156Zm-.258-6.945a1.411,1.411,0,0,0-1.09.455,2.357,2.357,0,0,0-.535,1.3h3.141v-.181a1.681,1.681,0,0,0-.406-1.165A1.456,1.456,0,0,0,153.4,10.211Zm7.719-3.742V8.547h1.445V10.2h-1.445v4.219a1.007,1.007,0,0,0,.18.672.9.9,0,0,0,.688.2,3.6,3.6,0,0,0,.664-.055v1.711a4.648,4.648,0,0,1-1.367.2,2.156,2.156,0,0,1-2.422-2.4V10.2h-1.234V8.547h1.234V6.469Zm2.117,6.227a5.013,5.013,0,0,1,.484-2.242,3.546,3.546,0,0,1,1.395-1.523,4.069,4.069,0,0,1,2.113-.539,3.849,3.849,0,0,1,2.793,1.047,4.2,4.2,0,0,1,1.207,2.844l.016.578a4.418,4.418,0,0,1-1.086,3.121,4.209,4.209,0,0,1-5.832,0,4.5,4.5,0,0,1-1.09-3.187Zm2.258.16a3.16,3.16,0,0,0,.453,1.843,1.628,1.628,0,0,0,2.578.008,3.457,3.457,0,0,0,.461-2.015,3.128,3.128,0,0,0-.461-1.831,1.5,1.5,0,0,0-1.3-.649,1.474,1.474,0,0,0-1.281.646A3.516,3.516,0,0,0,165.492,12.856Zm11.719,1.808a.727.727,0,0,0-.41-.652,4.659,4.659,0,0,0-1.316-.426q-3.016-.633-3.016-2.562a2.323,2.323,0,0,1,.934-1.879,3.766,3.766,0,0,1,2.441-.754,4.053,4.053,0,0,1,2.574.758,2.388,2.388,0,0,1,.965,1.969h-2.258a1.092,1.092,0,0,0-.312-.8,1.322,1.322,0,0,0-.977-.316,1.351,1.351,0,0,0-.883.258.814.814,0,0,0-.312.656.7.7,0,0,0,.355.605,3.657,3.657,0,0,0,1.2.4,9.8,9.8,0,0,1,1.422.379,2.336,2.336,0,0,1,1.789,2.273,2.205,2.205,0,0,1-.992,1.871,4.28,4.28,0,0,1-2.562.715,4.47,4.47,0,0,1-1.887-.379,3.166,3.166,0,0,1-1.293-1.039,2.414,2.414,0,0,1-.469-1.426h2.141a1.179,1.179,0,0,0,.445.922,1.766,1.766,0,0,0,1.109.32,1.635,1.635,0,0,0,.98-.246A.766.766,0,0,0,177.211,14.664Z" transform="translate(600 5700.772)" fill="#12263f"/>
    <path id="Trazado_599895" data-name="Trazado 599895" d="M20.582,12.3a5.763,5.763,0,0,1-.977,3.609,3.409,3.409,0,0,1-2.859,1.25A3.433,3.433,0,0,1,13.9,15.93a5.594,5.594,0,0,1-1.008-3.516V10.32A5.687,5.687,0,0,1,13.883,6.7,3.434,3.434,0,0,1,16.73,5.469a3.437,3.437,0,0,1,2.844,1.223A5.576,5.576,0,0,1,20.582,10.2Zm-2.258-2.3a4.165,4.165,0,0,0-.387-2.061,1.307,1.307,0,0,0-1.207-.645,1.284,1.284,0,0,0-1.176.614,3.9,3.9,0,0,0-.4,1.92v2.768a4.372,4.372,0,0,0,.379,2.068,1.29,1.29,0,0,0,1.215.676,1.268,1.268,0,0,0,1.2-.649,4.268,4.268,0,0,0,.383-1.986ZM29.9,17h-7.8V15.453l3.68-3.922a9.078,9.078,0,0,0,1.121-1.445,2.322,2.322,0,0,0,.363-1.172,1.738,1.738,0,0,0-.383-1.191,1.382,1.382,0,0,0-1.094-.434,1.49,1.49,0,0,0-1.207.527A2.089,2.089,0,0,0,24.145,9.2H21.879a3.729,3.729,0,0,1,.5-1.9,3.5,3.5,0,0,1,1.4-1.348,4.262,4.262,0,0,1,2.055-.488,4.036,4.036,0,0,1,2.73.844A2.985,2.985,0,0,1,29.535,8.7a3.825,3.825,0,0,1-.437,1.719,9.551,9.551,0,0,1-1.5,2.039L25.012,15.18H29.9ZM31.5,15.891a1.137,1.137,0,0,1,.363-.875,1.412,1.412,0,0,1,1.828,0,1.137,1.137,0,0,1,.363.875,1.121,1.121,0,0,1-.359.863,1.435,1.435,0,0,1-1.836,0A1.121,1.121,0,0,1,31.5,15.891Zm17.594-2.68A4.025,4.025,0,0,1,47.734,16.1a4.76,4.76,0,0,1-3.223,1.055,4.28,4.28,0,0,1-3.441-1.473,6.038,6.038,0,0,1-1.254-4.043v-.7a6.819,6.819,0,0,1,.578-2.891,4.332,4.332,0,0,1,1.652-1.918,5.164,5.164,0,0,1,5.668.387,4.326,4.326,0,0,1,1.391,2.961H46.762a2.376,2.376,0,0,0-.613-1.6,2.271,2.271,0,0,0-1.605-.5,1.991,1.991,0,0,0-1.754.84,4.707,4.707,0,0,0-.6,2.605V11.7a5.038,5.038,0,0,0,.559,2.7,1.954,1.954,0,0,0,1.762.852,2.314,2.314,0,0,0,1.621-.5,2.241,2.241,0,0,0,.613-1.535ZM55.379,17a2.507,2.507,0,0,1-.227-.758,2.732,2.732,0,0,1-2.133.914,3,3,0,0,1-2.059-.719,2.312,2.312,0,0,1-.816-1.812,2.389,2.389,0,0,1,1-2.062,4.915,4.915,0,0,1,2.879-.727h1.039v-.484a1.393,1.393,0,0,0-.3-.937,1.183,1.183,0,0,0-.949-.352,1.345,1.345,0,0,0-.895.273.929.929,0,0,0-.324.75H50.332a2.268,2.268,0,0,1,.453-1.359,3,3,0,0,1,1.281-.98,4.669,4.669,0,0,1,1.859-.355,3.689,3.689,0,0,1,2.48.785,2.747,2.747,0,0,1,.918,2.207v3.664a4.041,4.041,0,0,0,.336,1.82V17Zm-1.867-1.57a1.945,1.945,0,0,0,.922-.223,1.462,1.462,0,0,0,.625-.6V13.156h-.844q-1.7,0-1.8,1.172l-.008.133a.9.9,0,0,0,.3.7A1.153,1.153,0,0,0,53.512,15.43Zm7.664-6.883.07.945a2.971,2.971,0,0,1,2.43-1.1A2.255,2.255,0,0,1,65.918,9.68a2.9,2.9,0,0,1,2.539-1.289,2.521,2.521,0,0,1,2.047.8,3.681,3.681,0,0,1,.672,2.41V17H68.91V11.609a1.61,1.61,0,0,0-.281-1.051,1.246,1.246,0,0,0-.992-.332,1.409,1.409,0,0,0-1.406.969l.008,5.8H63.98V11.617a1.59,1.59,0,0,0-.289-1.062,1.259,1.259,0,0,0-.984-.328,1.463,1.463,0,0,0-1.391.8V17H59.059V8.547Zm19.352,4.3a5.119,5.119,0,0,1-.867,3.168,2.872,2.872,0,0,1-2.422,1.137,2.639,2.639,0,0,1-2.2-1.055l-.1.9H72.91V5h2.258V9.3a2.571,2.571,0,0,1,2.055-.914,2.9,2.9,0,0,1,2.426,1.137,5.126,5.126,0,0,1,.879,3.2Zm-2.258-.164a3.363,3.363,0,0,0-.406-1.871,1.374,1.374,0,0,0-1.211-.59,1.489,1.489,0,0,0-1.484.883v3.336a1.509,1.509,0,0,0,1.5.891,1.394,1.394,0,0,0,1.438-1.078A5.562,5.562,0,0,0,78.27,12.688ZM84.3,17H82.035V8.547H84.3ZM81.9,6.359a1.112,1.112,0,0,1,.34-.836,1.465,1.465,0,0,1,1.848,0,1.105,1.105,0,0,1,.344.836,1.108,1.108,0,0,1-.348.844,1.448,1.448,0,0,1-1.836,0A1.108,1.108,0,0,1,81.9,6.359ZM85.809,12.7a5.013,5.013,0,0,1,.484-2.242A3.546,3.546,0,0,1,87.688,8.93,4.069,4.069,0,0,1,89.8,8.391a3.849,3.849,0,0,1,2.793,1.047A4.2,4.2,0,0,1,93.8,12.281l.016.578A4.418,4.418,0,0,1,92.73,15.98a4.209,4.209,0,0,1-5.832,0,4.5,4.5,0,0,1-1.09-3.187Zm2.258.16A3.16,3.16,0,0,0,88.52,14.7a1.628,1.628,0,0,0,2.578.008,3.457,3.457,0,0,0,.461-2.015A3.128,3.128,0,0,0,91.1,10.86a1.5,1.5,0,0,0-1.3-.649,1.474,1.474,0,0,0-1.281.646A3.516,3.516,0,0,0,88.066,12.856Zm10.773-.145a5.094,5.094,0,0,1,.887-3.148,2.877,2.877,0,0,1,2.426-1.172,2.589,2.589,0,0,1,2.039.922V5h2.266V17h-2.039l-.109-.9a2.657,2.657,0,0,1-2.172,1.055,2.869,2.869,0,0,1-2.395-1.176A5.258,5.258,0,0,1,98.84,12.711Zm2.258.168a3.337,3.337,0,0,0,.414,1.823,1.349,1.349,0,0,0,1.2.634,1.511,1.511,0,0,0,1.477-.884V11.111a1.489,1.489,0,0,0-1.461-.884Q101.1,10.227,101.1,12.879Zm11,4.277a4.15,4.15,0,0,1-3.027-1.141,4.054,4.054,0,0,1-1.168-3.039v-.219a5.106,5.106,0,0,1,.492-2.277,3.612,3.612,0,0,1,1.395-1.547,3.914,3.914,0,0,1,2.059-.543,3.508,3.508,0,0,1,2.73,1.094,4.444,4.444,0,0,1,1,3.1v.922h-5.383a2.1,2.1,0,0,0,.66,1.328,2,2,0,0,0,1.395.5,2.437,2.437,0,0,0,2.039-.945l1.109,1.242a3.389,3.389,0,0,1-1.375,1.121A4.511,4.511,0,0,1,112.1,17.156Zm-.258-6.945a1.411,1.411,0,0,0-1.09.455,2.357,2.357,0,0,0-.535,1.3h3.141v-.181a1.681,1.681,0,0,0-.406-1.165A1.456,1.456,0,0,0,111.84,10.211Zm16.609,2.641a5.07,5.07,0,0,1-.887,3.129,2.843,2.843,0,0,1-2.395,1.176,2.633,2.633,0,0,1-2.07-.891V20.25H120.84V8.547h2.094l.078.828a2.654,2.654,0,0,1,2.141-.984,2.862,2.862,0,0,1,2.43,1.156,5.207,5.207,0,0,1,.867,3.188Zm-2.258-.164a3.327,3.327,0,0,0-.418-1.82,1.361,1.361,0,0,0-1.215-.641,1.478,1.478,0,0,0-1.461.813V14.5a1.5,1.5,0,0,0,1.477.836Q126.191,15.336,126.191,12.688Zm8.406-2.023a6.134,6.134,0,0,0-.812-.062,1.654,1.654,0,0,0-1.68.867V17h-2.258V8.547h2.133l.063,1.008a2.092,2.092,0,0,1,1.883-1.164,2.366,2.366,0,0,1,.7.1Zm.453,2.031a5.013,5.013,0,0,1,.484-2.242A3.546,3.546,0,0,1,136.93,8.93a4.069,4.069,0,0,1,2.113-.539,3.849,3.849,0,0,1,2.793,1.047,4.2,4.2,0,0,1,1.207,2.844l.016.578a4.418,4.418,0,0,1-1.086,3.121,4.209,4.209,0,0,1-5.832,0,4.5,4.5,0,0,1-1.09-3.187Zm2.258.16a3.16,3.16,0,0,0,.453,1.843,1.628,1.628,0,0,0,2.578.008,3.457,3.457,0,0,0,.461-2.015,3.128,3.128,0,0,0-.461-1.831,1.5,1.5,0,0,0-1.3-.649,1.474,1.474,0,0,0-1.281.646A3.516,3.516,0,0,0,137.309,12.856Zm10.656,2.48a1.481,1.481,0,0,0,1.016-.344,1.2,1.2,0,0,0,.406-.914H151.5a2.9,2.9,0,0,1-.469,1.574,3.093,3.093,0,0,1-1.262,1.109,3.949,3.949,0,0,1-1.77.395A3.67,3.67,0,0,1,145.145,16,4.56,4.56,0,0,1,144.1,12.82v-.148a4.508,4.508,0,0,1,1.039-3.117,3.627,3.627,0,0,1,2.852-1.164,3.555,3.555,0,0,1,2.543.9,3.2,3.2,0,0,1,.973,2.4h-2.117a1.551,1.551,0,0,0-.406-1.072,1.51,1.51,0,0,0-2.223.163,3.333,3.333,0,0,0-.4,1.866v.235a3.375,3.375,0,0,0,.4,1.878A1.377,1.377,0,0,0,147.965,15.336Zm8.719,1.82a4.15,4.15,0,0,1-3.027-1.141,4.054,4.054,0,0,1-1.168-3.039v-.219a5.106,5.106,0,0,1,.492-2.277,3.612,3.612,0,0,1,1.395-1.547,3.914,3.914,0,0,1,2.059-.543,3.508,3.508,0,0,1,2.73,1.094,4.444,4.444,0,0,1,1,3.1v.922h-5.383a2.1,2.1,0,0,0,.66,1.328,2,2,0,0,0,1.395.5,2.437,2.437,0,0,0,2.039-.945l1.109,1.242a3.389,3.389,0,0,1-1.375,1.121A4.511,4.511,0,0,1,156.684,17.156Zm-.258-6.945a1.411,1.411,0,0,0-1.09.455,2.357,2.357,0,0,0-.535,1.3h3.141v-.181a1.681,1.681,0,0,0-.406-1.165A1.456,1.456,0,0,0,156.426,10.211Zm9.594,4.453a.727.727,0,0,0-.41-.652,4.659,4.659,0,0,0-1.316-.426q-3.016-.633-3.016-2.562a2.323,2.323,0,0,1,.934-1.879,3.766,3.766,0,0,1,2.441-.754,4.053,4.053,0,0,1,2.574.758,2.388,2.388,0,0,1,.965,1.969h-2.258a1.092,1.092,0,0,0-.312-.8,1.322,1.322,0,0,0-.977-.316,1.351,1.351,0,0,0-.883.258.814.814,0,0,0-.312.656.7.7,0,0,0,.355.605,3.657,3.657,0,0,0,1.2.4,9.8,9.8,0,0,1,1.422.379,2.336,2.336,0,0,1,1.789,2.273,2.205,2.205,0,0,1-.992,1.871,4.28,4.28,0,0,1-2.562.715,4.47,4.47,0,0,1-1.887-.379,3.166,3.166,0,0,1-1.293-1.039,2.414,2.414,0,0,1-.469-1.426h2.141a1.179,1.179,0,0,0,.445.922,1.766,1.766,0,0,0,1.109.32,1.635,1.635,0,0,0,.98-.246A.766.766,0,0,0,166.02,14.664Zm3.3-1.969a5.013,5.013,0,0,1,.484-2.242A3.546,3.546,0,0,1,171.2,8.93a4.069,4.069,0,0,1,2.113-.539A3.849,3.849,0,0,1,176.1,9.438a4.2,4.2,0,0,1,1.207,2.844l.016.578a4.418,4.418,0,0,1-1.086,3.121,4.209,4.209,0,0,1-5.832,0,4.5,4.5,0,0,1-1.09-3.187Zm2.258.16a3.16,3.16,0,0,0,.453,1.843,1.628,1.628,0,0,0,2.578.008,3.457,3.457,0,0,0,.461-2.015,3.128,3.128,0,0,0-.461-1.831,1.5,1.5,0,0,0-1.3-.649,1.474,1.474,0,0,0-1.281.646A3.516,3.516,0,0,0,171.574,12.856Z" transform="translate(390 5750.772)" fill="#12263f"/>
    <g id="Trazado_599896" data-name="Trazado 599896" transform="translate(392 5781.772)" fill="#fff">
      <path d="M 93.5 181 C 45.25232315063477 181 6 141.7476806640625 6 93.5 C 6 45.25232315063477 45.25232315063477 6 93.5 6 C 141.7476806640625 6 181 45.25232315063477 181 93.5 C 181 141.7476806640625 141.7476806640625 181 93.5 181 Z" stroke="none"/>
      <path d="M 93.5 12 C 48.56074523925781 12 12 48.56074523925781 12 93.5 C 12 138.4392547607422 48.56074523925781 175 93.5 175 C 138.4392547607422 175 175 138.4392547607422 175 93.5 C 175 48.56074523925781 138.4392547607422 12 93.5 12 M 93.5 0 C 145.1386108398438 0 187 41.86135864257812 187 93.5 C 187 145.1386108398438 145.1386108398438 187 93.5 187 C 41.86135864257812 187 0 145.1386108398438 0 93.5 C 0 41.86135864257812 41.86135864257812 0 93.5 0 Z" stroke="none" fill="#7fd452"/>
    </g>
    <g id="Trazado_599897" data-name="Trazado 599897" transform="translate(600 5731.772)" fill="#fff">
      <path d="M 93.5 181 C 45.25232315063477 181 6 141.7476806640625 6 93.5 C 6 45.25232315063477 45.25232315063477 6 93.5 6 C 141.7476806640625 6 181 45.25232315063477 181 93.5 C 181 141.7476806640625 141.7476806640625 181 93.5 181 Z" stroke="none"/>
      <path d="M 93.5 12 C 48.56074523925781 12 12 48.56074523925781 12 93.5 C 12 138.4392547607422 48.56074523925781 175 93.5 175 C 138.4392547607422 175 175 138.4392547607422 175 93.5 C 175 48.56074523925781 138.4392547607422 12 93.5 12 M 93.5 0 C 145.1386108398438 0 187 41.86135864257812 187 93.5 C 187 145.1386108398438 145.1386108398438 187 93.5 187 C 41.86135864257812 187 0 145.1386108398438 0 93.5 C 0 41.86135864257812 41.86135864257812 0 93.5 0 Z" stroke="none" fill="#f7cc54"/>
    </g>
    <g id="Trazado_598730" data-name="Trazado 598730" transform="translate(183 5732.306)" fill="#fff">
      <path d="M 93.5 181 C 45.25232315063477 181 6 141.7476806640625 6 93.5 C 6 45.25232315063477 45.25232315063477 6 93.5 6 C 141.7476806640625 6 181 45.25232315063477 181 93.5 C 181 141.7476806640625 141.7476806640625 181 93.5 181 Z" stroke="none"/>
      <path d="M 93.5 12 C 48.56074523925781 12 12 48.56074523925781 12 93.5 C 12 138.4392547607422 48.56074523925781 175 93.5 175 C 138.4392547607422 175 175 138.4392547607422 175 93.5 C 175 48.56074523925781 138.4392547607422 12 93.5 12 M 93.5 0 C 145.1386108398438 0 187 41.86135864257812 187 93.5 C 187 145.1386108398438 145.1386108398438 187 93.5 187 C 41.86135864257812 187 0 145.1386108398438 0 93.5 C 0 41.86135864257812 41.86135864257812 0 93.5 0 Z" stroke="none" fill="#fa4861"/>
    </g>
    <g id="Grupo_877463" data-name="Grupo 877463" transform="translate(208.23 5757.671)">
      <g id="Grupo_875625" data-name="Grupo 875625" transform="translate(0 0)">
        <g transform="matrix(1, 0, 0, 1, -32.5, -51.9)" filter="url(#Elipse_180)">
          <circle id="Elipse_180-4" data-name="Elipse 180" cx="68.134" cy="68.134" r="68.134" transform="translate(32.5 51.9)" fill="#fff"/>
        </g>
      </g>
      <g id="Enmascarar_grupo_700350" data-name="Enmascarar grupo 700350" transform="translate(7.878 7.878)" clip-path="url(#clip-path)">
        <g id="Grupo_877461" data-name="Grupo 877461" transform="translate(420.221 1578.178)">
          <path id="Trazado_598679" data-name="Trazado 598679" d="M-314.248-1537.1c-.006,3.756-.069,7.514-.005,11.269.14,8.209-3.28,14.432-10.547,18.218a4.369,4.369,0,0,0,0,7.5c7.267,3.784,10.687,10.008,10.547,18.217-.064,3.755,0,7.513.005,11.27l-3.28-.006a15.219,15.219,0,0,0-12.449-15.639c-1.289-.214-1.479-.7-1.469-1.819.039-3.916-.019-7.833-.04-11.75l.169-.612c1.864-.4,2.213-1.886,2.214-3.41s-.35-3.008-2.213-3.41l-.168-.613c-.043-1.013.542-1.224,1.444-1.387a14.831,14.831,0,0,0,10.224-6.96c.479-.752.6-1.165-.557-1.158-6.6.041-13.21.046-19.815.063a2.28,2.28,0,0,1-.294-.145,20.714,20.714,0,0,1-1.348-6.844c-.058-4.255-.009-8.511-.005-12.766Zm-1.694,53.068c-.123-.8-.209-1.513-.348-2.22a16.614,16.614,0,0,0-8.686-12.033c-.667-.361-1.348-.751-1.856.164-.561,1.009.339,1.231.943,1.572,4.914,2.776,7.374,7.094,7.92,12.61.065.653-.105,1.546.844,1.527S-315.91-1483.25-315.942-1484.037Zm-18.174-48.52a3.1,3.1,0,0,0-3.066-2.943,3.114,3.114,0,0,0-2.985,3.027,3.1,3.1,0,0,0,3.153,3.025A3.1,3.1,0,0,0-334.116-1532.557Z" transform="translate(-27.193 -14.052)" fill="#fee9ce"/>
          <path id="Trazado_598680" data-name="Trazado 598680" d="M-360.439-1537.293c0,4.255-.053,8.511.005,12.766a20.719,20.719,0,0,0,1.348,6.845c-1.561.031-3.121.074-4.682.088-.762.007-1.263.088-.666,1.011,2.7,4.173,6.354,6.8,11.434,7.17l.269.264q.022,5.067.044,10.133l-.068.683a2.519,2.519,0,0,0-.749.3,18.22,18.22,0,0,0-6.044,8.981c-.439,1.6-1.062,3.215-.511,4.933l-.422.5a3,3,0,0,0-1.334.958,15.368,15.368,0,0,0-4.827,11.805l-3.267,0c.013-4.088,0-8.175.045-12.263.078-7.653,3.455-13.388,10.164-17.071a4.258,4.258,0,0,0,2.569-3.969,4.285,4.285,0,0,0-2.565-3.806c-6.684-3.7-10.1-9.407-10.17-17.071-.036-4.088-.031-8.175-.044-12.263l6.081-.118Z" transform="translate(-8.589 -13.848)" fill="#fdd49a"/>
          <path id="Trazado_598681" data-name="Trazado 598681" d="M-350.6-1551.084l-3.388-.12a6.16,6.16,0,0,1,0-6.979q16.477-.015,32.954-.022c1.693,0,2.382.672,2.376,2.331-.014,4.076.632,4.79-4.351,4.774Z" transform="translate(-18.428 -0.056)" fill="#bf6d0f"/>
          <path id="Trazado_598682" data-name="Trazado 598682" d="M-326.287-1339.74l3.28.007c4.975-.015,4.338.686,4.351,4.773.005,1.66-.683,2.331-2.377,2.332q-16.477.01-32.954-.022a6.2,6.2,0,0,1,.007-7l3.4-.059Z" transform="translate(-18.433 -144.951)" fill="#bf6d0f"/>
          <path id="Trazado_598683" data-name="Trazado 598683" d="M-372.415-1558.24a6.16,6.16,0,0,0,0,6.979l-6.081.118c-4.96,0-4.3-.563-4.354-4.879a1.99,1.99,0,0,1,2.248-2.27C-377.87-1558.294-375.143-1558.259-372.415-1558.24Z" transform="translate(-0.005 0)" fill="#a56122"/>
          <path id="Trazado_598684" data-name="Trazado 598684" d="M-372.414-1339.671a6.2,6.2,0,0,0-.007,7c-2.727.019-5.455.055-8.182.05a1.983,1.983,0,0,1-2.246-2.271c0-.056,0-.111,0-.167.013-4.226-.5-4.7,4.352-4.709l3.268,0Z" transform="translate(0 -144.927)" fill="#a56122"/>
          <path id="Trazado_598685" data-name="Trazado 598685" d="M-317.563-1397.262l-24.3.035q-.027-6.4-.052-12.81l.422-.5a15.389,15.389,0,0,1,6.359-2.436c.982-.1.99-.654.985-1.375-.024-3.467-.029-6.933-.04-10.4l.068-.683,2.6-1.035c.021,3.917.079,7.834.04,11.75-.011,1.122.18,1.6,1.469,1.819A15.218,15.218,0,0,1-317.563-1397.262Zm-16.589-4a3.1,3.1,0,0,0-3.032-2.978,3.109,3.109,0,0,0-3.02,2.991,3.108,3.108,0,0,0,3.118,3.063A3.1,3.1,0,0,0-334.152-1401.259Z" transform="translate(-27.158 -87.429)" fill="#f8ba32"/>
          <path id="Trazado_598686" data-name="Trazado 598686" d="M-330.838-1470.132l-.269-.264c-.954-1.005-1.962-1.964-2.847-3.026-1.269-1.523-2.63-3.014-2.944-5.1,6.6-.017,13.21-.022,19.815-.063,1.158-.007,1.036.406.557,1.158a14.831,14.831,0,0,1-10.224,6.96c-.9.163-1.486.374-1.444,1.387Z" transform="translate(-30.483 -52.865)" fill="#f8ba32"/>
          <path id="Trazado_598687" data-name="Trazado 598687" d="M-348.529-1478.68c.314,2.084,1.676,3.575,2.944,5.1.885,1.062,1.893,2.021,2.847,3.026-5.079-.366-8.735-3-11.433-7.17-.6-.923-.1-1,.666-1.011,1.561-.013,3.121-.057,4.682-.088A2.33,2.33,0,0,0-348.529-1478.68Z" transform="translate(-18.851 -52.706)" fill="#da9c2e"/>
          <path id="Trazado_598688" data-name="Trazado 598688" d="M-286.7-1408.384c.033.788-.221,1.6-1.182,1.62s-.779-.874-.844-1.527c-.546-5.516-3.006-9.834-7.92-12.61-.6-.341-1.5-.563-.943-1.572.508-.914,1.188-.525,1.856-.163a16.613,16.613,0,0,1,8.686,12.033C-286.907-1409.9-286.821-1409.18-286.7-1408.384Z" transform="translate(-56.438 -89.705)" fill="#faf6dc"/>
          <path id="Trazado_598689" data-name="Trazado 598689" d="M-330.786-1529.4a3.1,3.1,0,0,1-2.9,3.109,3.1,3.1,0,0,1-3.153-3.025,3.114,3.114,0,0,1,2.985-3.027A3.1,3.1,0,0,1-330.786-1529.4Z" transform="translate(-30.523 -17.211)" fill="#fed49a"/>
          <path id="Trazado_598690" data-name="Trazado 598690" d="M-318.9-1453.487l2.643,1.053q.084.306.168.613a45.6,45.6,0,0,0,0,6.82l-.169.612-2.6,1.035Q-318.88-1448.42-318.9-1453.487Z" transform="translate(-42.418 -69.51)" fill="#da9c2e"/>
          <path id="Trazado_598691" data-name="Trazado 598691" d="M-310.807-1441.719a45.6,45.6,0,0,1,0-6.82c1.863.4,2.215,1.885,2.214,3.41S-308.943-1442.121-310.807-1441.719Z" transform="translate(-47.702 -72.791)" fill="#fdd49a"/>
          <path id="Trazado_598692" data-name="Trazado 598692" d="M-333.782-1421.37c.011,3.467.016,6.934.04,10.4.005.721,0,1.279-.985,1.375a15.388,15.388,0,0,0-6.359,2.436c-.551-1.717.072-3.329.51-4.932a18.222,18.222,0,0,1,6.044-8.981A2.514,2.514,0,0,1-333.782-1421.37Z" transform="translate(-27.561 -90.811)" fill="#fee8cc"/>
          <path id="Trazado_598693" data-name="Trazado 598693" d="M-354.048-1377.676q.026,6.405.052,12.81l-3.4.059-2.815-.106a15.367,15.367,0,0,1,4.826-11.806A3,3,0,0,1-354.048-1377.676Z" transform="translate(-15.021 -119.791)" fill="#da9b2e"/>
          <path id="Trazado_598694" data-name="Trazado 598694" d="M-330.791-1357.471a3.1,3.1,0,0,1-2.934,3.076,3.108,3.108,0,0,1-3.118-3.063,3.109,3.109,0,0,1,3.02-2.991A3.1,3.1,0,0,1-330.791-1357.471Z" transform="translate(-30.519 -131.216)" fill="#da9c2d"/>
        </g>
      </g>
    </g>
    <g id="Grupo_877460" data-name="Grupo 877460" transform="translate(417.23 5807.671)">
      <g id="Grupo_875625-2" data-name="Grupo 875625" transform="translate(0 0)">
        <g transform="matrix(1, 0, 0, 1, -241.5, -101.9)" filter="url(#Elipse_180-2)">
          <circle id="Elipse_180-5" data-name="Elipse 180" cx="68.134" cy="68.134" r="68.134" transform="translate(241.5 101.9)" fill="#fff"/>
        </g>
      </g>
      <g id="Enmascarar_grupo_700350-2" data-name="Enmascarar grupo 700350" transform="translate(7.878 7.878)" clip-path="url(#clip-path)">
        <g id="Grupo_877464" data-name="Grupo 877464" transform="translate(794.226 1639.138)">
          <path id="Trazado_598695" data-name="Trazado 598695" d="M-631.5-1503.46A21.345,21.345,0,0,1-618.8-1491a21.178,21.178,0,0,1-16.037,28.412,35.93,35.93,0,0,1-6.289.259,24.763,24.763,0,0,1-10.882-4.71c-.377-.381-.749-.767-1.132-1.141a21.063,21.063,0,0,1,2.372-32.5,21.662,21.662,0,0,1,14.573-3.872Zm2.925,15.449a2.307,2.307,0,0,0-1.325-1.888,2.27,2.27,0,0,0-2.707.412c-3,2.505-6.048,4.961-8.987,7.539-1.093.958-1.8,1.107-2.821-.081a2.357,2.357,0,0,0-3.507-.245,2.446,2.446,0,0,0,.2,3.53c1.118,1.163,2.316,2.251,3.4,3.442.66.724,1.135.789,1.918.127,4.217-3.567,8.478-7.081,12.726-10.611A2.745,2.745,0,0,0-628.577-1488.01Z" transform="translate(-78.992 -78.986)" fill="#49c7ee"/>
          <path id="Trazado_598696" data-name="Trazado 598696" d="M-731-1540.446a24.761,24.761,0,0,0,10.882,4.71q-23.416.017-46.833.021c-2.733,0-4.606-2.1-4.608-5.01q-.011-16,0-32.006,0-15.269,0-30.538c0-3.449,1.808-5.258,5.247-5.267q6.753-.017,13.506-.028,0,2.376,0,4.753c-4.2-.009-8.4.022-12.6-.052-1.161-.02-1.48.325-1.477,1.48q.055,22.562.029,45.125c0,.47-.141.993.323,1.361-.036.523.386.759.685,1.059q6.7,6.718,13.422,13.423c.3.3.535.722,1.058.686.274.373.68.328,1.066.327Q-740.654-1540.422-731-1540.446Z" transform="translate(0 -5.583)" fill="#ebcd93"/>
          <path id="Trazado_598697" data-name="Trazado 598697" d="M-707.745-1609.394q0-2.377,0-4.753c.1-2.323.1-2.323,2.475-2.323h18.627c2.374,0,2.374,0,2.476,2.321q0,2.378,0,4.755c-.017.828-.013,1.658-.055,2.485a4.583,4.583,0,0,1-4.5,4.51q-7.242.1-14.486,0a4.583,4.583,0,0,1-4.5-4.51C-707.732-1607.736-707.729-1608.566-707.745-1609.394Z" transform="translate(-45.068)" fill="#e66e54"/>
          <path id="Trazado_598698" data-name="Trazado 598698" d="M-627.489-1603.816q0-2.377,0-4.755,6.824.015,13.647.031c3.245.011,5.1,1.863,5.1,5.11q0,13.281-.013,26.562l-4.7-1.1c0-8.146-.007-16.292.03-24.438,0-1.014-.16-1.486-1.34-1.464C-619-1603.792-623.246-1603.825-627.489-1603.816Z" transform="translate(-101.739 -5.578)" fill="#ebce93"/>
          <path id="Trazado_598699" data-name="Trazado 598699" d="M-717.988-1592.516c4.244-.009,8.488.024,12.73-.052,1.179-.021,1.344.45,1.34,1.464-.037,8.146-.026,16.292-.03,24.438a21.662,21.662,0,0,0-14.573,3.872,21.063,21.063,0,0,0-2.372,32.5c.383.375.755.761,1.132,1.141q-9.652.022-19.3.043c-.385,0-.792.046-1.066-.327.007-4.679-.007-9.359.037-14.038.008-.9-.269-1.173-1.164-1.165-4.679.044-9.359.03-14.038.036-.464-.368-.322-.891-.323-1.361q-.01-22.562-.029-45.125c0-1.156.316-1.5,1.477-1.48,4.2.074,8.4.043,12.6.052.016.828.013,1.658.054,2.485a4.583,4.583,0,0,0,4.5,4.51q7.242.1,14.486,0a4.583,4.583,0,0,0,4.5-4.51C-718-1590.859-718.005-1591.688-717.988-1592.516Zm-7.105,16.421c3.031,0,6.061.015,9.092-.006,1.631-.011,2.631-.905,2.658-2.3.029-1.446-1-2.389-2.709-2.393q-9.018-.021-18.037,0c-1.72,0-2.747.924-2.732,2.37s1.04,2.314,2.783,2.322C-731.057-1576.084-728.075-1576.1-725.094-1576.1Zm-2.464,9.4c2.248,0,4.5.012,6.744,0,1.737-.013,2.762-.891,2.771-2.332s-1.019-2.356-2.74-2.361q-6.67-.022-13.341,0c-1.707.007-2.732.95-2.7,2.4.033,1.388,1.034,2.272,2.667,2.289C-731.956-1566.68-729.757-1566.7-727.558-1566.7Zm-4.579,4.7c-.781,0-1.564-.035-2.343.008a2.308,2.308,0,0,0-2.343,2.309,2.283,2.283,0,0,0,2.282,2.363c1.609.061,3.223.062,4.832,0a2.28,2.28,0,0,0,2.27-2.373,2.31,2.31,0,0,0-2.354-2.3C-730.573-1562.032-731.356-1562-732.137-1562Zm-9.39-16.33c-.041-2.8.345-2.445-1.867-2.463-2.835-.024-2.835-.007-2.836,1.935,0,2.762,0,2.762,2.014,2.762C-741.527-1576.094-741.527-1576.094-741.527-1578.328Zm0,9.421c-.04-2.8.345-2.469-1.845-2.486-2.856-.023-2.856-.007-2.857,1.913,0,2.784,0,2.784,1.991,2.784C-741.527-1566.7-741.527-1566.7-741.527-1568.907Zm-2.259,11.609c2.487-.034,2.244.313,2.256-1.785.017-2.917.006-2.917-1.855-2.917-2.844,0-2.844,0-2.844,1.931C-746.23-1557.3-746.23-1557.3-743.786-1557.3Zm2.259,7.18c-.04-2.8.342-2.461-1.852-2.479-2.849-.023-2.85-.007-2.85,1.92,0,2.777,0,2.777,2,2.777C-741.527-1547.9-741.527-1547.9-741.527-1550.118Z" transform="translate(-11.24 -16.878)" fill="#eee"/>
          <path id="Trazado_598700" data-name="Trazado 598700" d="M-601.851-1453.314a2.746,2.746,0,0,1-1.1,2.226c-4.248,3.53-8.51,7.044-12.726,10.611-.783.662-1.258.6-1.918-.127-1.086-1.191-2.284-2.279-3.4-3.442a2.446,2.446,0,0,1-.2-3.53,2.357,2.357,0,0,1,3.507.245c1.023,1.188,1.729,1.039,2.821.081,2.939-2.578,5.984-5.034,8.987-7.539a2.27,2.27,0,0,1,2.707-.412A2.307,2.307,0,0,1-601.851-1453.314Z" transform="translate(-105.718 -113.683)" fill="#fafdfd"/>
          <path id="Trazado_598701" data-name="Trazado 598701" d="M-754.456-1429.413c4.68-.006,9.359.007,14.038-.036.9-.008,1.173.268,1.164,1.165-.044,4.679-.03,9.359-.037,14.038-.523.036-.759-.387-1.058-.686q-6.718-6.7-13.422-13.422C-754.07-1428.654-754.492-1428.89-754.456-1429.413Z" transform="translate(-12.081 -132.067)" fill="#e67157"/>
          <path id="Trazado_598702" data-name="Trazado 598702" d="M-679.847-1547.814c-2.982,0-5.963.011-8.945,0-1.743-.008-2.768-.884-2.783-2.322s1.012-2.367,2.732-2.37q9.018-.019,18.037,0c1.707,0,2.738.947,2.709,2.393-.028,1.392-1.027,2.286-2.658,2.3C-673.786-1547.8-676.817-1547.814-679.847-1547.814Z" transform="translate(-56.486 -45.159)" fill="#78959e"/>
          <path id="Trazado_598703" data-name="Trazado 598703" d="M-682.314-1515.833c-2.2,0-4.4.016-6.6-.006-1.634-.016-2.635-.9-2.667-2.289-.034-1.452.991-2.4,2.7-2.4q6.67-.025,13.341,0c1.721.006,2.75.919,2.74,2.361s-1.034,2.319-2.771,2.332C-677.818-1515.821-680.066-1515.833-682.314-1515.833Z" transform="translate(-56.484 -67.741)" fill="#78959e"/>
          <path id="Trazado_598704" data-name="Trazado 598704" d="M-686.894-1488.559c.781,0,1.564-.034,2.343.007a2.311,2.311,0,0,1,2.354,2.3,2.28,2.28,0,0,1-2.27,2.373c-1.609.062-3.223.061-4.832,0a2.283,2.283,0,0,1-2.282-2.363,2.307,2.307,0,0,1,2.343-2.309C-688.458-1488.594-687.675-1488.559-686.894-1488.559Z" transform="translate(-56.483 -90.316)" fill="#79969f"/>
          <path id="Trazado_598705" data-name="Trazado 598705" d="M-718.889-1550.036c0,2.234,0,2.234-2.688,2.234-2.015,0-2.015,0-2.014-2.762,0-1.942,0-1.959,2.835-1.935C-718.544-1552.481-718.93-1552.834-718.889-1550.036Z" transform="translate(-33.878 -45.17)" fill="#78959e"/>
          <path id="Trazado_598706" data-name="Trazado 598706" d="M-718.889-1518.027c0,2.211,0,2.211-2.711,2.211-1.992,0-1.992,0-1.991-2.784,0-1.92,0-1.936,2.857-1.913C-718.544-1520.5-718.929-1520.83-718.889-1518.027Z" transform="translate(-33.878 -67.758)" fill="#78959e"/>
          <path id="Trazado_598707" data-name="Trazado 598707" d="M-721.148-1483.834c-2.444,0-2.444,0-2.443-2.771,0-1.933,0-1.933,2.844-1.931,1.861,0,1.871,0,1.855,2.917C-718.9-1483.52-718.661-1483.867-721.148-1483.834Z" transform="translate(-33.878 -90.342)" fill="#78959e"/>
          <path id="Trazado_598708" data-name="Trazado 598708" d="M-718.889-1454.066c0,2.219,0,2.219-2.7,2.219-2,0-2,0-2-2.777,0-1.927,0-1.944,2.85-1.92C-718.547-1456.527-718.929-1456.869-718.889-1454.066Z" transform="translate(-33.878 -112.93)" fill="#78959e"/>
        </g>
      </g>
    </g>
    <g id="Grupo_877462" data-name="Grupo 877462" transform="translate(625.23 5757.671)">
      <g id="Grupo_875625-3" data-name="Grupo 875625" transform="translate(0 0)">
        <g transform="matrix(1, 0, 0, 1, -449.5, -51.9)" filter="url(#Elipse_180-3)">
          <circle id="Elipse_180-6" data-name="Elipse 180" cx="68.134" cy="68.134" r="68.134" transform="translate(449.5 51.9)" fill="#fff"/>
        </g>
      </g>
      <g id="Enmascarar_grupo_700350-3" data-name="Enmascarar grupo 700350" transform="translate(7.878 7.878)" clip-path="url(#clip-path)">
        <g id="Grupo_877465" data-name="Grupo 877465" transform="translate(1154.758 1591.647)">
          <path id="Trazado_598709" data-name="Trazado 598709" d="M-1060.835-1547.042c8.325.871,14.857,4.764,19.17,11.937a24.6,24.6,0,0,1-5.485,32.062,10.548,10.548,0,0,0-3.862,8.156c-.045,1.615-.015,3.231-.019,4.846l-6.507-.015c.008-2.4-.109-4.8.058-7.185.159-2.263-.428-4-2.511-5.074-.021-1.614.069-3.239-.092-4.839a3.3,3.3,0,0,1,1.965-3.74,4.48,4.48,0,0,0,2.727-4.792c-.089-.849.332-1.19,1.043-1.6a1.328,1.328,0,0,0-.2-2.544,1.215,1.215,0,0,1-.894-1.121,1.417,1.417,0,0,0-1.3-1.3,1.355,1.355,0,0,0-1.435,1.328c-.1,1.051-.75,1.036-1.507,1.031-2.033-.014-4.067-.033-6.1.007-1.019.02-1.9.059-2.009-1.343a1.194,1.194,0,0,0-1.294-1.028,1.283,1.283,0,0,0-1.259,1.1,1.525,1.525,0,0,1-1.273,1.42c-.751.225-1.415,1.417-.593,1.776,2.055.9,1.606,2.634,1.9,4.161a3.066,3.066,0,0,0,1.768,2.359c2.629,1.013,3.071,2.977,2.744,5.422a9.628,9.628,0,0,0-.007,1.792,2.843,2.843,0,0,1-1.375,2.885,2.474,2.474,0,0,0-1.151,2.3c-1.776-2.569-4.146-4.589-6.3-6.81-6.089-6.286-7.985-17.826-4.377-25.811a25.428,25.428,0,0,1,17.212-14.779C-1061.394-1546.544-1060.915-1546.465-1060.835-1547.042Z" transform="translate(-31.575 -19.427)" fill="#fde45a"/>
          <path id="Trazado_598710" data-name="Trazado 598710" d="M-1073.406-1547.325c-.08.577-.559.5-.951.606a25.428,25.428,0,0,0-17.212,14.779c-3.609,7.984-1.712,19.524,4.377,25.811,2.152,2.222,4.523,4.241,6.3,6.81q0,4.483,0,8.966l-1.777.111-4.732-.093c-.016-1.256-.085-2.514-.038-3.767a11.616,11.616,0,0,0-4.285-9.6c-7.583-6.773-10.379-15.319-7.783-25.14s9.252-15.806,19.148-18.093A19.152,19.152,0,0,1-1073.406-1547.325Z" transform="translate(-19.004 -19.144)" fill="#fed304"/>
          <path id="Trazado_598711" data-name="Trazado 598711" d="M-1031.332-1372.573a4.2,4.2,0,0,1,.765,2.3c.03,2.689-.587,3.363-3.265,3.392-.413,0-.826.02-1.238.031l-13.821-.028-3.576-.1a5.238,5.238,0,0,1,0-5.663Z" transform="translate(-49.197 -131.108)" fill="#b1dbfb"/>
          <path id="Trazado_598712" data-name="Trazado 598712" d="M-1031.232-1382.819l-21.135-.062a3.035,3.035,0,0,0-.33-.047c-.477-1.9-.822-3.791.323-5.6l1.777-.111,3.953.008h2.884l3.946.006,6.507.015a1.7,1.7,0,0,1,2.054,1.711A13.239,13.239,0,0,1-1031.232-1382.819Z" transform="translate(-49.298 -120.862)" fill="#deeaf6"/>
          <path id="Trazado_598713" data-name="Trazado 598713" d="M-1042.394-1356.615l13.821.029c.922,1.272.659,2.734.51,4.108-.141,1.3-1.292,1.529-2.4,1.636l-9.792-.007-2.068-.1A5.445,5.445,0,0,1-1042.394-1356.615Z" transform="translate(-55.694 -141.366)" fill="#5eb7fd"/>
          <path id="Trazado_598714" data-name="Trazado 598714" d="M-1049.476-1340.867l2.067.1c-.078,2.338,1.63,3.592,3.062,5,.414.408,1.041.646.885,1.4a8.489,8.489,0,0,1-10.873-6.379Z" transform="translate(-48.535 -151.45)" fill="#0494f9"/>
          <path id="Trazado_598715" data-name="Trazado 598715" d="M-1031.135-1334.185c.156-.755-.471-.993-.885-1.4-1.432-1.409-3.14-2.663-3.062-5l9.792.007A8.5,8.5,0,0,1-1031.135-1334.185Z" transform="translate(-60.862 -151.63)" fill="#24a8fd"/>
          <path id="Trazado_598716" data-name="Trazado 598716" d="M-1064.972-1372.764a3.028,3.028,0,0,1,.331.046,5.239,5.239,0,0,0,0,5.663l-3.114.114c-.238-.006-.477-.007-.715-.019-1.267-.063-2.871.433-3.454-1.139a4.345,4.345,0,0,1,.553-4.551Z" transform="translate(-37.023 -131.025)" fill="#8ecbfd"/>
          <path id="Trazado_598717" data-name="Trazado 598717" d="M-1064.835-1382.894l-6.4.114a5.633,5.633,0,0,1-.857-3.032c.14-2.083.684-2.689,2.846-2.772l4.732.092C-1065.657-1386.686-1065.313-1384.794-1064.835-1382.894Z" transform="translate(-37.16 -120.895)" fill="#b1dbfb"/>
          <path id="Trazado_598718" data-name="Trazado 598718" d="M-1061-1356.774l3.114-.114,3.576.1a5.445,5.445,0,0,0,.076,5.665l-4.858.122C-1061.752-1351.523-1062.5-1353.775-1061-1356.774Z" transform="translate(-43.779 -141.192)" fill="#24a8fd"/>
          <path id="Trazado_598719" data-name="Trazado 598719" d="M-1097.921-1423.512a1.3,1.3,0,0,1,1.253,1.958,18.927,18.927,0,0,1-3.717,3.811,1.224,1.224,0,0,1-1.639-.078,1.117,1.117,0,0,1-.372-1.571,18.281,18.281,0,0,1,4.019-3.987A1.3,1.3,0,0,1-1097.921-1423.512Z" transform="translate(-17.633 -98.528)" fill="#fde75d"/>
          <path id="Trazado_598720" data-name="Trazado 598720" d="M-1032.195-1573.682c0,.775.037,1.552-.01,2.324a1.366,1.366,0,0,1-1.329,1.422,1.284,1.284,0,0,1-1.434-1.288c-.076-1.606-.069-3.219-.006-4.826a1.291,1.291,0,0,1,1.4-1.33,1.333,1.333,0,0,1,1.364,1.373c.058.771.012,1.549.012,2.324Z" transform="translate(-60.902 0)" fill="#fde865"/>
          <path id="Trazado_598721" data-name="Trazado 598721" d="M-1100.731-1549.367a2.813,2.813,0,0,1,.8.416c1.125,1.067,2.238,2.15,3.305,3.275a1.291,1.291,0,0,1-.017,1.927,1.226,1.226,0,0,1-1.9-.022c-1.121-1.073-2.207-2.183-3.293-3.292a1.414,1.414,0,0,1-.233-1.665A1.2,1.2,0,0,1-1100.731-1549.367Z" transform="translate(-17.864 -17.934)" fill="#fde75d"/>
          <path id="Trazado_598722" data-name="Trazado 598722" d="M-975.246-1543.406a1.316,1.316,0,0,1-1.208-.712,1.188,1.188,0,0,1,.111-1.5c1.154-1.2,2.34-2.381,3.565-3.515a1.209,1.209,0,0,1,1.647-.065,1.179,1.179,0,0,1,.35,1.608,21.615,21.615,0,0,1-4,4.053A1.16,1.16,0,0,1-975.246-1543.406Z" transform="translate(-98.271 -17.86)" fill="#fde75d"/>
          <path id="Trazado_598723" data-name="Trazado 598723" d="M-970.671-1418.842c-.021,1.135-1.114,1.8-1.973,1.073-1.356-1.155-2.566-2.484-3.8-3.771a1.041,1.041,0,0,1,.015-1.33,1.231,1.231,0,0,1,1.182-.654C-974.2-1423.479-970.652-1419.851-970.671-1418.842Z" transform="translate(-98.259 -98.52)" fill="#fde75d"/>
          <path id="Trazado_598724" data-name="Trazado 598724" d="M-1126.591-1479.08c-.773,0-1.547.023-2.319-.007a1.157,1.157,0,0,1-1.219-1.251,1.124,1.124,0,0,1,1.142-1.312q2.5-.062,4.995,0a1.124,1.124,0,0,1,1.133,1.321,1.162,1.162,0,0,1-1.233,1.241C-1124.924-1479.058-1125.758-1479.08-1126.591-1479.08Z" transform="translate(0 -61.28)" fill="#fde75d"/>
          <path id="Trazado_598725" data-name="Trazado 598725" d="M-948.451-1481.656c.773,0,1.548-.028,2.319.008a1.143,1.143,0,0,1,1.184,1.28,1.138,1.138,0,0,1-1.18,1.284c-1.665.032-3.332.045-5-.015-.781-.028-1.122-.6-1.094-1.357a1.1,1.1,0,0,1,1.092-1.179c.889-.052,1.783-.013,2.675-.013Z" transform="translate(-113.924 -61.29)" fill="#fde75d"/>
          <path id="Trazado_598726" data-name="Trazado 598726" d="M-1049.7-1445.927l-3.953-.008,0-8.966a2.473,2.473,0,0,1,1.151-2.3,2.843,2.843,0,0,0,1.375-2.885,9.638,9.638,0,0,1,.007-1.792c.327-2.446-.115-4.41-2.744-5.423a3.066,3.066,0,0,1-1.768-2.359c-.3-1.528.151-3.263-1.9-4.161-.822-.359-.158-1.551.593-1.776a1.525,1.525,0,0,0,1.274-1.42,1.283,1.283,0,0,1,1.258-1.1,1.194,1.194,0,0,1,1.294,1.028c.111,1.4.989,1.364,2.009,1.344,2.032-.04,4.066-.022,6.1-.007.757.005,1.4.02,1.507-1.031a1.356,1.356,0,0,1,1.435-1.328,1.417,1.417,0,0,1,1.3,1.3,1.215,1.215,0,0,0,.894,1.121,1.328,1.328,0,0,1,.2,2.544c-.711.408-1.131.75-1.043,1.6a4.479,4.479,0,0,1-2.726,4.792,3.3,3.3,0,0,0-1.966,3.74c.161,1.6.071,3.226.092,4.84-1.231.811-2.645,1.478-2.584,3.3-1.334.132-1.787.961-1.782,2.2C-1049.681-1450.43-1049.7-1448.178-1049.7-1445.927Zm1.532-27.271c-.956,0-1.914-.048-2.865.017-.65.044-1.647-.4-1.828.573-.175.943-.5,2.133.408,2.876,3.048,2.484,5.238,2.7,8.274.144,1-.84.7-2.02.523-3.019-.169-.976-1.175-.528-1.825-.576C-1046.375-1473.246-1047.274-1473.2-1048.17-1473.2Z" transform="translate(-46.241 -63.563)" fill="#fec20d"/>
          <path id="Trazado_598727" data-name="Trazado 598727" d="M-1030.09-1419.379c-.061-1.822,1.353-2.489,2.584-3.3,2.083,1.076,2.67,2.81,2.511,5.073-.167,2.385-.051,4.789-.058,7.185l-3.946-.006c-.006-2.243-.063-4.488,0-6.729A2.3,2.3,0,0,0-1030.09-1419.379Z" transform="translate(-64.059 -99.062)" fill="#fed201"/>
          <path id="Trazado_598728" data-name="Trazado 598728" d="M-1033.28-1413.5a2.3,2.3,0,0,1,1.1,2.223c-.067,2.241-.011,4.486,0,6.729h-2.884c.005-2.252.021-4.5.011-6.755C-1035.067-1412.542-1034.613-1413.371-1033.28-1413.5Z" transform="translate(-60.869 -104.938)" fill="#fde255"/>
          <path id="Trazado_598729" data-name="Trazado 598729" d="M-1039.534-1464.523c.9,0,1.795-.049,2.686.016.65.048,1.656-.4,1.825.576.173,1,.473,2.179-.522,3.019-3.036,2.559-5.226,2.34-8.274-.144-.913-.744-.583-1.933-.408-2.876.181-.975,1.178-.53,1.828-.574C-1041.448-1464.571-1040.49-1464.523-1039.534-1464.523Z" transform="translate(-54.876 -72.237)" fill="#fde357"/>
        </g>
      </g>
    </g>
  </g>
</svg>
