<svg xmlns="http://www.w3.org/2000/svg" width="397" height="399" viewBox="0 0 397 399">
  <g id="Grupo_877996" data-name="Grupo 877996" transform="translate(-223 -7547.095)">
    <g id="Grupo_877295" data-name="Grupo 877295" transform="translate(-1240.343 8340.217)">
      <path id="Trazado_238867" data-name="Trazado 238867" d="M1824.012-589.5c-.721,80.2-65.8,145.279-146,146v-86.563a60.844,60.844,0,0,0,59.436-59.435Z" transform="translate(-4.013 -4.013)" fill="#002ed9" opacity="0.5"/>
      <path id="Trazado_238868" data-name="Trazado 238868" d="M1671.342-530.062V-443.5c-80.2-.72-145.278-65.8-146-146h86.563A60.844,60.844,0,0,0,1671.342-530.062Z" transform="translate(0 -4.013)" fill="#f7cc54" opacity="0.75"/>
      <path id="Trazado_238869" data-name="Trazado 238869" d="M1824.012-596.169h-86.563a60.845,60.845,0,0,0-59.436-59.444v-86.554C1758.208-741.447,1823.291-676.364,1824.012-596.169Z" transform="translate(-4.013)" fill="#fa4861" opacity="0.5"/>
      <path id="Trazado_238870" data-name="Trazado 238870" d="M1671.342-742.168v86.554a60.845,60.845,0,0,0-59.435,59.444h-86.563C1526.064-676.364,1591.147-741.447,1671.342-742.168Z" fill="#7fd452" opacity="0.5"/>
    </g>
    <path id="Trazado_599840" data-name="Trazado 599840" d="M25.754,14.656H21.645L20.863,17H18.371L22.605,5.625h2.172L29.035,17H26.543Zm-3.477-1.9h2.844L23.691,8.5Zm11.188,2.578a1.481,1.481,0,0,0,1.016-.344,1.2,1.2,0,0,0,.406-.914H37a2.9,2.9,0,0,1-.469,1.574,3.093,3.093,0,0,1-1.262,1.109,3.949,3.949,0,0,1-1.77.395A3.67,3.67,0,0,1,30.645,16,4.56,4.56,0,0,1,29.6,12.82v-.148a4.508,4.508,0,0,1,1.039-3.117,3.627,3.627,0,0,1,2.852-1.164,3.555,3.555,0,0,1,2.543.9A3.2,3.2,0,0,1,37,11.7H34.887a1.551,1.551,0,0,0-.406-1.072,1.51,1.51,0,0,0-2.223.163,3.333,3.333,0,0,0-.4,1.866v.235a3.375,3.375,0,0,0,.4,1.878A1.377,1.377,0,0,0,33.465,15.336ZM41,6.469V8.547h1.445V10.2H41v4.219a1.007,1.007,0,0,0,.18.672.9.9,0,0,0,.688.2,3.6,3.6,0,0,0,.664-.055v1.711a4.648,4.648,0,0,1-1.367.2,2.156,2.156,0,0,1-2.422-2.4V10.2H37.5V8.547h1.234V6.469Zm7.766,9.672a2.831,2.831,0,0,1-2.312,1.016,2.67,2.67,0,0,1-2.074-.781,3.335,3.335,0,0,1-.73-2.289V8.547H45.9v5.467q0,1.322,1.2,1.322a1.63,1.63,0,0,0,1.578-.8V8.547h2.266V17H48.824ZM57.551,17a2.507,2.507,0,0,1-.227-.758,2.732,2.732,0,0,1-2.133.914,3,3,0,0,1-2.059-.719,2.312,2.312,0,0,1-.816-1.812,2.389,2.389,0,0,1,1-2.062,4.915,4.915,0,0,1,2.879-.727H57.23v-.484a1.393,1.393,0,0,0-.3-.937,1.183,1.183,0,0,0-.949-.352,1.345,1.345,0,0,0-.895.273.929.929,0,0,0-.324.75H52.5a2.268,2.268,0,0,1,.453-1.359,3,3,0,0,1,1.281-.98A4.669,4.669,0,0,1,56.1,8.391a3.689,3.689,0,0,1,2.48.785,2.747,2.747,0,0,1,.918,2.207v3.664a4.041,4.041,0,0,0,.336,1.82V17Zm-1.867-1.57a1.945,1.945,0,0,0,.922-.223,1.462,1.462,0,0,0,.625-.6V13.156h-.844q-1.7,0-1.8,1.172l-.008.133a.9.9,0,0,0,.3.7A1.153,1.153,0,0,0,55.684,15.43Zm10.3-4.766a6.134,6.134,0,0,0-.812-.062,1.654,1.654,0,0,0-1.68.867V17H61.23V8.547h2.133l.063,1.008a2.092,2.092,0,0,1,1.883-1.164,2.366,2.366,0,0,1,.7.1Z" transform="translate(323.656 7656)" fill="#12263f"/>
    <path id="Trazado_599842" data-name="Trazado 599842" d="M9.738,14.18l2.578-8.555h2.609L10.965,17H8.52L4.574,5.625h2.6Zm10,2.977a4.15,4.15,0,0,1-3.027-1.141,4.054,4.054,0,0,1-1.168-3.039v-.219a5.106,5.106,0,0,1,.492-2.277A3.612,3.612,0,0,1,17.43,8.934a3.914,3.914,0,0,1,2.059-.543,3.508,3.508,0,0,1,2.73,1.094,4.444,4.444,0,0,1,1,3.1v.922H17.832a2.1,2.1,0,0,0,.66,1.328,2,2,0,0,0,1.395.5,2.437,2.437,0,0,0,2.039-.945l1.109,1.242a3.389,3.389,0,0,1-1.375,1.121A4.511,4.511,0,0,1,19.738,17.156Zm-.258-6.945a1.411,1.411,0,0,0-1.09.455,2.357,2.357,0,0,0-.535,1.3H21v-.181a1.681,1.681,0,0,0-.406-1.165A1.456,1.456,0,0,0,19.48,10.211Zm9.766.453a6.134,6.134,0,0,0-.812-.062,1.654,1.654,0,0,0-1.68.867V17H24.5V8.547h2.133l.063,1.008a2.092,2.092,0,0,1,1.883-1.164,2.366,2.366,0,0,1,.7.1ZM32.715,17H30.449V8.547h2.266Zm-2.4-10.641a1.112,1.112,0,0,1,.34-.836,1.465,1.465,0,0,1,1.848,0,1.105,1.105,0,0,1,.344.836A1.108,1.108,0,0,1,32.5,7.2a1.448,1.448,0,0,1-1.836,0A1.108,1.108,0,0,1,30.316,6.359ZM35.121,17V10.2H33.863V8.547h1.258V8.156A3.17,3.17,0,0,1,36.1,5.7a3.945,3.945,0,0,1,2.723-.863,9.031,9.031,0,0,1,2.563.461l-.328,1.867a10,10,0,0,0-1.187-.293,5.835,5.835,0,0,0-.906-.066q-1.578,0-1.578,1.4v.344h1.664V10.2H37.387V17Zm7.32,0H40.176V8.547h2.266Zm5.383-1.664a1.481,1.481,0,0,0,1.016-.344,1.2,1.2,0,0,0,.406-.914h2.117a2.9,2.9,0,0,1-.469,1.574,3.093,3.093,0,0,1-1.262,1.109,3.949,3.949,0,0,1-1.77.395A3.67,3.67,0,0,1,45,16a4.56,4.56,0,0,1-1.047-3.184v-.148A4.508,4.508,0,0,1,45,9.555a3.627,3.627,0,0,1,2.852-1.164,3.555,3.555,0,0,1,2.543.9,3.2,3.2,0,0,1,.973,2.4H49.246a1.551,1.551,0,0,0-.406-1.072,1.51,1.51,0,0,0-2.223.163,3.333,3.333,0,0,0-.4,1.866v.235a3.375,3.375,0,0,0,.4,1.878A1.377,1.377,0,0,0,47.824,15.336ZM57.551,17a2.507,2.507,0,0,1-.227-.758,2.732,2.732,0,0,1-2.133.914,3,3,0,0,1-2.059-.719,2.312,2.312,0,0,1-.816-1.812,2.389,2.389,0,0,1,1-2.062,4.915,4.915,0,0,1,2.879-.727H57.23v-.484a1.393,1.393,0,0,0-.3-.937,1.183,1.183,0,0,0-.949-.352,1.345,1.345,0,0,0-.895.273.929.929,0,0,0-.324.75H52.5a2.268,2.268,0,0,1,.453-1.359,3,3,0,0,1,1.281-.98A4.669,4.669,0,0,1,56.1,8.391a3.689,3.689,0,0,1,2.48.785,2.747,2.747,0,0,1,.918,2.207v3.664a4.041,4.041,0,0,0,.336,1.82V17Zm-1.867-1.57a1.945,1.945,0,0,0,.922-.223,1.462,1.462,0,0,0,.625-.6V13.156h-.844q-1.7,0-1.8,1.172l-.008.133a.9.9,0,0,0,.3.7A1.153,1.153,0,0,0,55.684,15.43Zm10.3-4.766a6.134,6.134,0,0,0-.812-.062,1.654,1.654,0,0,0-1.68.867V17H61.23V8.547h2.133l.063,1.008a2.092,2.092,0,0,1,1.883-1.164,2.366,2.366,0,0,1,.7.1Z" transform="translate(323.656 7814)" fill="#12263f"/>
    <path id="Trazado_599841" data-name="Trazado 599841" d="M3.359,12.992V17H1.016V5.625H5.453a5.134,5.134,0,0,1,2.254.469A3.454,3.454,0,0,1,9.2,7.426a3.714,3.714,0,0,1,.523,1.965,3.266,3.266,0,0,1-1.145,2.637,4.767,4.767,0,0,1-3.168.965Zm0-1.9H5.453a2.059,2.059,0,0,0,1.418-.437,1.591,1.591,0,0,0,.488-1.25,1.876,1.876,0,0,0-.492-1.352,1.839,1.839,0,0,0-1.359-.531H3.359ZM13.57,17H11.3V5H13.57Zm6.758,0a2.507,2.507,0,0,1-.227-.758,2.732,2.732,0,0,1-2.133.914,3,3,0,0,1-2.059-.719,2.312,2.312,0,0,1-.816-1.812,2.389,2.389,0,0,1,1-2.062,4.915,4.915,0,0,1,2.879-.727h1.039v-.484a1.393,1.393,0,0,0-.3-.937,1.183,1.183,0,0,0-.949-.352,1.345,1.345,0,0,0-.895.273.929.929,0,0,0-.324.75H15.281a2.268,2.268,0,0,1,.453-1.359,3,3,0,0,1,1.281-.98,4.669,4.669,0,0,1,1.859-.355,3.689,3.689,0,0,1,2.48.785,2.747,2.747,0,0,1,.918,2.207v3.664a4.041,4.041,0,0,0,.336,1.82V17Zm-1.867-1.57a1.945,1.945,0,0,0,.922-.223,1.462,1.462,0,0,0,.625-.6V13.156h-.844q-1.7,0-1.8,1.172l-.008.133a.9.9,0,0,0,.3.7A1.153,1.153,0,0,0,18.461,15.43Zm7.625-6.883.07.977a2.951,2.951,0,0,1,2.43-1.133,2.453,2.453,0,0,1,2,.789,3.682,3.682,0,0,1,.672,2.359V17H29V11.594a1.465,1.465,0,0,0-.312-1.043,1.4,1.4,0,0,0-1.039-.324,1.553,1.553,0,0,0-1.43.813V17H23.961V8.547Zm10.773,8.609a4.15,4.15,0,0,1-3.027-1.141,4.054,4.054,0,0,1-1.168-3.039v-.219a5.106,5.106,0,0,1,.492-2.277,3.612,3.612,0,0,1,1.395-1.547,3.914,3.914,0,0,1,2.059-.543,3.508,3.508,0,0,1,2.73,1.094,4.444,4.444,0,0,1,1,3.1v.922H34.953a2.1,2.1,0,0,0,.66,1.328,2,2,0,0,0,1.395.5,2.437,2.437,0,0,0,2.039-.945l1.109,1.242a3.389,3.389,0,0,1-1.375,1.121A4.511,4.511,0,0,1,36.859,17.156ZM36.6,10.211a1.411,1.411,0,0,0-1.09.455,2.357,2.357,0,0,0-.535,1.3h3.141v-.181a1.681,1.681,0,0,0-.406-1.165A1.456,1.456,0,0,0,36.6,10.211ZM46.516,17a2.507,2.507,0,0,1-.227-.758,2.732,2.732,0,0,1-2.133.914,3,3,0,0,1-2.059-.719,2.312,2.312,0,0,1-.816-1.812,2.389,2.389,0,0,1,1-2.062,4.915,4.915,0,0,1,2.879-.727H46.2v-.484a1.393,1.393,0,0,0-.3-.937,1.183,1.183,0,0,0-.949-.352,1.345,1.345,0,0,0-.895.273.929.929,0,0,0-.324.75H41.469a2.268,2.268,0,0,1,.453-1.359,3,3,0,0,1,1.281-.98,4.669,4.669,0,0,1,1.859-.355,3.689,3.689,0,0,1,2.48.785,2.747,2.747,0,0,1,.918,2.207v3.664a4.041,4.041,0,0,0,.336,1.82V17Zm-1.867-1.57a1.945,1.945,0,0,0,.922-.223,1.462,1.462,0,0,0,.625-.6V13.156h-.844q-1.7,0-1.8,1.172l-.008.133a.9.9,0,0,0,.3.7A1.153,1.153,0,0,0,44.648,15.43Zm10.3-4.766a6.134,6.134,0,0,0-.812-.062,1.654,1.654,0,0,0-1.68.867V17H50.2V8.547h2.133l.063,1.008a2.092,2.092,0,0,1,1.883-1.164,2.366,2.366,0,0,1,.7.1Z" transform="translate(475 7656)" fill="#12263f"/>
    <path id="Trazado_599843" data-name="Trazado 599843" d="M10.273,17H7.93V12.125H3.359V17H1.016V5.625H3.359v4.609H7.93V5.625h2.344Zm6.8,0a2.507,2.507,0,0,1-.227-.758,2.732,2.732,0,0,1-2.133.914,3,3,0,0,1-2.059-.719,2.312,2.312,0,0,1-.816-1.812,2.389,2.389,0,0,1,1-2.062,4.915,4.915,0,0,1,2.879-.727H16.75v-.484a1.393,1.393,0,0,0-.3-.937,1.183,1.183,0,0,0-.949-.352,1.345,1.345,0,0,0-.895.273.929.929,0,0,0-.324.75H12.023a2.268,2.268,0,0,1,.453-1.359,3,3,0,0,1,1.281-.98,4.669,4.669,0,0,1,1.859-.355,3.689,3.689,0,0,1,2.48.785,2.747,2.747,0,0,1,.918,2.207v3.664a4.041,4.041,0,0,0,.336,1.82V17ZM15.2,15.43a1.945,1.945,0,0,0,.922-.223,1.462,1.462,0,0,0,.625-.6V13.156h-.844q-1.7,0-1.8,1.172l-.008.133a.9.9,0,0,0,.3.7A1.153,1.153,0,0,0,15.2,15.43Zm9.063-.094a1.481,1.481,0,0,0,1.016-.344,1.2,1.2,0,0,0,.406-.914H27.8a2.9,2.9,0,0,1-.469,1.574,3.093,3.093,0,0,1-1.262,1.109,3.949,3.949,0,0,1-1.77.395A3.67,3.67,0,0,1,21.445,16,4.56,4.56,0,0,1,20.4,12.82v-.148a4.508,4.508,0,0,1,1.039-3.117,3.627,3.627,0,0,1,2.852-1.164,3.555,3.555,0,0,1,2.543.9,3.2,3.2,0,0,1,.973,2.4H25.688a1.551,1.551,0,0,0-.406-1.072,1.51,1.51,0,0,0-2.223.163,3.333,3.333,0,0,0-.4,1.866v.235a3.375,3.375,0,0,0,.4,1.878A1.377,1.377,0,0,0,24.266,15.336Zm8.719,1.82a4.15,4.15,0,0,1-3.027-1.141,4.054,4.054,0,0,1-1.168-3.039v-.219a5.106,5.106,0,0,1,.492-2.277,3.612,3.612,0,0,1,1.395-1.547,3.914,3.914,0,0,1,2.059-.543,3.508,3.508,0,0,1,2.73,1.094,4.444,4.444,0,0,1,1,3.1v.922H31.078a2.1,2.1,0,0,0,.66,1.328,2,2,0,0,0,1.395.5,2.437,2.437,0,0,0,2.039-.945l1.109,1.242a3.389,3.389,0,0,1-1.375,1.121A4.511,4.511,0,0,1,32.984,17.156Zm-.258-6.945a1.411,1.411,0,0,0-1.09.455,2.357,2.357,0,0,0-.535,1.3h3.141v-.181a1.681,1.681,0,0,0-.406-1.165A1.456,1.456,0,0,0,32.727,10.211Zm9.766.453a6.134,6.134,0,0,0-.812-.062,1.654,1.654,0,0,0-1.68.867V17H37.742V8.547h2.133l.063,1.008A2.092,2.092,0,0,1,41.82,8.391a2.366,2.366,0,0,1,.7.1Z" transform="translate(475 7814)" fill="#12263f"/>
    <path id="Trazado_599844" data-name="Trazado 599844" d="M0,0H167V69H0Z" transform="translate(453 7877.095)" fill="#d4ddff"/>
    <path id="Trazado_599837" data-name="Trazado 599837" d="M0,0H167V70H0Z" transform="translate(453 7547.095)" fill="#fbe4e7"/>
    <path id="Trazado_599845" data-name="Trazado 599845" d="M0,0H167V69H0Z" transform="translate(223 7877.095)" fill="#fff2cf"/>
    <path id="Trazado_599836" data-name="Trazado 599836" d="M0,0H167V69H0Z" transform="translate(223 7547.095)" fill="#ebffe1"/>
    <path id="Trazado_599846" data-name="Trazado 599846" d="M2.93,17H1.43V5.625h1.5ZM6.8,8.547l.039.938A3.122,3.122,0,0,1,9.352,8.391,2.417,2.417,0,0,1,11.766,9.75a3.2,3.2,0,0,1,1.1-.984,3.242,3.242,0,0,1,1.6-.375q2.781,0,2.828,2.945V17H15.844V11.422a1.941,1.941,0,0,0-.414-1.355,1.823,1.823,0,0,0-1.391-.449,1.916,1.916,0,0,0-1.336.48,1.949,1.949,0,0,0-.617,1.293V17H10.633V11.461a1.613,1.613,0,0,0-1.8-1.844,1.934,1.934,0,0,0-1.945,1.211V17H5.438V8.547Zm19.8,4.32a5.062,5.062,0,0,1-.883,3.109,2.829,2.829,0,0,1-2.391,1.18,3.1,3.1,0,0,1-2.422-.977v4.07H19.469V8.547h1.32l.07.938a2.977,2.977,0,0,1,2.453-1.094,2.882,2.882,0,0,1,2.41,1.148,5.117,5.117,0,0,1,.887,3.2ZM25.164,12.7a3.735,3.735,0,0,0-.609-2.258,1.963,1.963,0,0,0-1.672-.828,2.125,2.125,0,0,0-1.969,1.164V14.82A2.129,2.129,0,0,0,22.9,15.977a1.954,1.954,0,0,0,1.652-.824A4.077,4.077,0,0,0,25.164,12.7ZM30.016,17H28.57V5h1.445Zm5.82.156a3.693,3.693,0,0,1-2.8-1.129,4.19,4.19,0,0,1-1.078-3.02v-.266a5.073,5.073,0,0,1,.48-2.246,3.748,3.748,0,0,1,1.344-1.547,3.378,3.378,0,0,1,1.871-.559,3.166,3.166,0,0,1,2.563,1.086,4.7,4.7,0,0,1,.914,3.109v.6H33.406a3,3,0,0,0,.73,2.02,2.3,2.3,0,0,0,1.777.77,2.517,2.517,0,0,0,1.3-.312,3.259,3.259,0,0,0,.93-.828l.883.688A3.55,3.55,0,0,1,35.836,17.156Zm-.18-7.578a1.928,1.928,0,0,0-1.469.637A3.1,3.1,0,0,0,33.453,12h4.234v-.109a2.753,2.753,0,0,0-.594-1.707A1.815,1.815,0,0,0,35.656,9.578Zm6.508-1.031.039.938a3.122,3.122,0,0,1,2.508-1.094A2.417,2.417,0,0,1,47.125,9.75a3.2,3.2,0,0,1,1.1-.984,3.242,3.242,0,0,1,1.6-.375q2.781,0,2.828,2.945V17H51.2V11.422a1.941,1.941,0,0,0-.414-1.355A1.823,1.823,0,0,0,49.4,9.617a1.917,1.917,0,0,0-1.336.48,1.949,1.949,0,0,0-.617,1.293V17H45.992V11.461a1.613,1.613,0,0,0-1.8-1.844,1.934,1.934,0,0,0-1.945,1.211V17H40.8V8.547Zm16.172,8.609a3.693,3.693,0,0,1-2.8-1.129,4.19,4.19,0,0,1-1.078-3.02v-.266a5.073,5.073,0,0,1,.48-2.246,3.748,3.748,0,0,1,1.344-1.547,3.378,3.378,0,0,1,1.871-.559,3.166,3.166,0,0,1,2.563,1.086,4.7,4.7,0,0,1,.914,3.109v.6H55.906a3,3,0,0,0,.73,2.02,2.3,2.3,0,0,0,1.777.77,2.517,2.517,0,0,0,1.3-.312,3.259,3.259,0,0,0,.93-.828l.883.688A3.55,3.55,0,0,1,58.336,17.156Zm-.18-7.578a1.928,1.928,0,0,0-1.469.637A3.1,3.1,0,0,0,55.953,12h4.234v-.109a2.753,2.753,0,0,0-.594-1.707A1.815,1.815,0,0,0,58.156,9.578Zm6.516-1.031.047,1.063A3.08,3.08,0,0,1,67.25,8.391q2.68,0,2.7,3.023V17H68.508V11.406a1.946,1.946,0,0,0-.418-1.352,1.675,1.675,0,0,0-1.277-.437,2.086,2.086,0,0,0-1.234.375,2.546,2.546,0,0,0-.828.984V17H63.3V8.547ZM74.094,6.5V8.547h1.578V9.664H74.094v5.249a1.173,1.173,0,0,0,.211.763.888.888,0,0,0,.719.254,3.5,3.5,0,0,0,.688-.094V17a4.215,4.215,0,0,1-1.109.155,1.8,1.8,0,0,1-1.461-.586,2.517,2.517,0,0,1-.492-1.664V9.664H71.109V8.547h1.539V6.5ZM82.578,17a3.036,3.036,0,0,1-.2-.891,3.225,3.225,0,0,1-2.406,1.047,2.984,2.984,0,0,1-2.051-.707,2.288,2.288,0,0,1-.8-1.793,2.39,2.39,0,0,1,1-2.051,4.733,4.733,0,0,1,2.824-.73h1.406v-.664A1.623,1.623,0,0,0,81.9,10a1.821,1.821,0,0,0-1.336-.449,2.108,2.108,0,0,0-1.3.391,1.151,1.151,0,0,0-.523.945H77.289a2,2,0,0,1,.449-1.223,3.066,3.066,0,0,1,1.219-.934,4.1,4.1,0,0,1,1.691-.344,3.342,3.342,0,0,1,2.289.73,2.635,2.635,0,0,1,.859,2.012v3.891a4.757,4.757,0,0,0,.3,1.852V17Zm-2.4-1.1a2.54,2.54,0,0,0,1.289-.352,2.127,2.127,0,0,0,.883-.914V12.9H81.219q-2.656,0-2.656,1.555a1.316,1.316,0,0,0,.453,1.063A1.742,1.742,0,0,0,80.18,15.9Zm9.273.078a2.082,2.082,0,0,0,1.352-.469,1.649,1.649,0,0,0,.641-1.172h1.367a2.621,2.621,0,0,1-.5,1.383,3.293,3.293,0,0,1-1.23,1.047,3.55,3.55,0,0,1-1.629.391A3.482,3.482,0,0,1,86.707,16a4.59,4.59,0,0,1-1.02-3.152v-.242a5.089,5.089,0,0,1,.453-2.2,3.451,3.451,0,0,1,1.3-1.492,3.7,3.7,0,0,1,2-.531,3.39,3.39,0,0,1,2.363.852,3.043,3.043,0,0,1,1,2.211H91.445a1.992,1.992,0,0,0-.621-1.348,1.932,1.932,0,0,0-1.379-.527,2.023,2.023,0,0,0-1.707.793,3.724,3.724,0,0,0-.605,2.293v.273a3.65,3.65,0,0,0,.6,2.25A2.033,2.033,0,0,0,89.453,15.977ZM96.008,17H94.563V8.547h1.445ZM94.445,6.3a.863.863,0,0,1,.215-.594.807.807,0,0,1,.637-.242.819.819,0,0,1,.641.242.854.854,0,0,1,.219.594.826.826,0,0,1-.219.586.834.834,0,0,1-.641.234.821.821,0,0,1-.637-.234A.834.834,0,0,1,94.445,6.3ZM97.938,12.7a4.993,4.993,0,0,1,.488-2.234A3.643,3.643,0,0,1,99.785,8.93a3.7,3.7,0,0,1,1.988-.539,3.565,3.565,0,0,1,2.793,1.2,4.6,4.6,0,0,1,1.066,3.18v.1a5.036,5.036,0,0,1-.473,2.215,3.589,3.589,0,0,1-1.352,1.527,3.743,3.743,0,0,1-2.02.547A3.556,3.556,0,0,1,99,15.961,4.575,4.575,0,0,1,97.938,12.8Zm1.453.172a3.616,3.616,0,0,0,.652,2.258,2.211,2.211,0,0,0,3.5-.012,3.955,3.955,0,0,0,.648-2.418,3.61,3.61,0,0,0-.66-2.254,2.1,2.1,0,0,0-1.754-.863,2.075,2.075,0,0,0-1.727.852A3.925,3.925,0,0,0,99.391,12.867ZM102.43,5h1.75l-2.094,2.3-1.164,0Zm6.383,3.547.047,1.063a3.08,3.08,0,0,1,2.531-1.219q2.68,0,2.7,3.023V17h-1.445V11.406a1.946,1.946,0,0,0-.418-1.352,1.675,1.675,0,0,0-1.277-.437,2.086,2.086,0,0,0-1.234.375,2.546,2.546,0,0,0-.828.984V17h-1.445V8.547ZM3.859,38.883l1.969-6.336H7.375L3.977,42.3q-.789,2.109-2.508,2.109L1.2,44.391l-.539-.1V43.117l.391.031a1.923,1.923,0,0,0,1.145-.3,2.148,2.148,0,0,0,.676-1.086l.32-.859L.172,32.547H1.75ZM13.336,41V33.664H12V32.547h1.336V31.68a2.878,2.878,0,0,1,.727-2.1,2.745,2.745,0,0,1,2.055-.742,3.816,3.816,0,0,1,.992.132l-.078,1.165a4.151,4.151,0,0,0-.781-.07,1.41,1.41,0,0,0-1.086.411,1.669,1.669,0,0,0-.383,1.18v.893h1.8v1.117h-1.8V41ZM23.4,40.164a3.07,3.07,0,0,1-2.477.992,2.628,2.628,0,0,1-2.059-.785,3.4,3.4,0,0,1-.715-2.324v-5.5h1.445v5.461q0,1.922,1.563,1.922a2.163,2.163,0,0,0,2.2-1.234V32.547H24.8V41H23.43Zm4.969-7.617.047,1.063a3.08,3.08,0,0,1,2.531-1.219q2.68,0,2.7,3.023V41H32.2V35.406a1.946,1.946,0,0,0-.418-1.352,1.675,1.675,0,0,0-1.277-.437,2.086,2.086,0,0,0-1.234.375,2.546,2.546,0,0,0-.828.984V41H27V32.547Zm10.852,7.43a2.082,2.082,0,0,0,1.352-.469,1.649,1.649,0,0,0,.641-1.172h1.367a2.621,2.621,0,0,1-.5,1.383,3.293,3.293,0,0,1-1.23,1.047,3.55,3.55,0,0,1-1.629.391A3.482,3.482,0,0,1,36.473,40a4.59,4.59,0,0,1-1.02-3.152v-.242a5.089,5.089,0,0,1,.453-2.2,3.451,3.451,0,0,1,1.3-1.492,3.7,3.7,0,0,1,2-.531,3.39,3.39,0,0,1,2.363.852,3.043,3.043,0,0,1,1,2.211H41.211a1.992,1.992,0,0,0-.621-1.348,1.932,1.932,0,0,0-1.379-.527,2.023,2.023,0,0,0-1.707.793,3.724,3.724,0,0,0-.605,2.293v.273a3.65,3.65,0,0,0,.6,2.25A2.033,2.033,0,0,0,39.219,39.977ZM45.773,41H44.328V32.547h1.445ZM44.211,30.3a.863.863,0,0,1,.215-.594.807.807,0,0,1,.637-.242.819.819,0,0,1,.641.242.854.854,0,0,1,.219.594.826.826,0,0,1-.219.586.834.834,0,0,1-.641.234.821.821,0,0,1-.637-.234A.834.834,0,0,1,44.211,30.3ZM47.7,36.7a4.993,4.993,0,0,1,.488-2.234,3.643,3.643,0,0,1,1.359-1.531,3.7,3.7,0,0,1,1.988-.539,3.565,3.565,0,0,1,2.793,1.2,4.6,4.6,0,0,1,1.066,3.18v.1a5.036,5.036,0,0,1-.473,2.215,3.589,3.589,0,0,1-1.352,1.527,3.743,3.743,0,0,1-2.02.547,3.556,3.556,0,0,1-2.785-1.2A4.575,4.575,0,0,1,47.7,36.8Zm1.453.172a3.616,3.616,0,0,0,.652,2.258,2.211,2.211,0,0,0,3.5-.012,3.955,3.955,0,0,0,.648-2.418,3.61,3.61,0,0,0-.66-2.254,2.1,2.1,0,0,0-1.754-.863,2.075,2.075,0,0,0-1.727.852A3.925,3.925,0,0,0,49.156,36.867Zm9.422-4.32.047,1.063a3.08,3.08,0,0,1,2.531-1.219q2.68,0,2.7,3.023V41H62.414V35.406A1.946,1.946,0,0,0,62,34.055a1.675,1.675,0,0,0-1.277-.437,2.086,2.086,0,0,0-1.234.375,2.546,2.546,0,0,0-.828.984V41H57.211V32.547ZM71.258,41a3.036,3.036,0,0,1-.2-.891,3.225,3.225,0,0,1-2.406,1.047,2.984,2.984,0,0,1-2.051-.707,2.288,2.288,0,0,1-.8-1.793,2.39,2.39,0,0,1,1-2.051,4.733,4.733,0,0,1,2.824-.73h1.406v-.664A1.623,1.623,0,0,0,70.578,34a1.821,1.821,0,0,0-1.336-.449,2.107,2.107,0,0,0-1.3.391,1.151,1.151,0,0,0-.523.945H65.969a2,2,0,0,1,.449-1.223,3.066,3.066,0,0,1,1.219-.934,4.1,4.1,0,0,1,1.691-.344,3.342,3.342,0,0,1,2.289.73,2.635,2.635,0,0,1,.859,2.012v3.891a4.757,4.757,0,0,0,.3,1.852V41Zm-2.4-1.1a2.54,2.54,0,0,0,1.289-.352,2.127,2.127,0,0,0,.883-.914V36.9H69.9q-2.656,0-2.656,1.555a1.316,1.316,0,0,0,.453,1.063A1.742,1.742,0,0,0,68.859,39.9ZM76.1,32.547l.039.938a3.122,3.122,0,0,1,2.508-1.094,2.417,2.417,0,0,1,2.414,1.359,3.2,3.2,0,0,1,1.1-.984,3.242,3.242,0,0,1,1.6-.375q2.781,0,2.828,2.945V41H85.141V35.422a1.941,1.941,0,0,0-.414-1.355,1.823,1.823,0,0,0-1.391-.449A1.916,1.916,0,0,0,82,34.1a1.949,1.949,0,0,0-.617,1.293V41H79.93V35.461a1.613,1.613,0,0,0-1.8-1.844,1.934,1.934,0,0,0-1.945,1.211V41H74.734V32.547ZM90.336,41H88.891V32.547h1.445ZM88.773,30.3a.863.863,0,0,1,.215-.594.807.807,0,0,1,.637-.242.819.819,0,0,1,.641.242.854.854,0,0,1,.219.594.826.826,0,0,1-.219.586.834.834,0,0,1-.641.234.821.821,0,0,1-.637-.234A.834.834,0,0,1,88.773,30.3Zm7.383,10.852a3.693,3.693,0,0,1-2.8-1.129,4.19,4.19,0,0,1-1.078-3.02v-.266a5.073,5.073,0,0,1,.48-2.246,3.748,3.748,0,0,1,1.344-1.547,3.378,3.378,0,0,1,1.871-.559,3.166,3.166,0,0,1,2.563,1.086,4.7,4.7,0,0,1,.914,3.109v.6H93.727a3,3,0,0,0,.73,2.02,2.3,2.3,0,0,0,1.777.77,2.517,2.517,0,0,0,1.3-.312,3.259,3.259,0,0,0,.93-.828l.883.688A3.55,3.55,0,0,1,96.156,41.156Zm-.18-7.578a1.928,1.928,0,0,0-1.469.637A3.1,3.1,0,0,0,93.773,36h4.234v-.109a2.753,2.753,0,0,0-.594-1.707A1.815,1.815,0,0,0,95.977,33.578Zm6.516-1.031.047,1.063a3.08,3.08,0,0,1,2.531-1.219q2.68,0,2.7,3.023V41h-1.445V35.406a1.946,1.946,0,0,0-.418-1.352,1.675,1.675,0,0,0-1.277-.437,2.086,2.086,0,0,0-1.234.375,2.546,2.546,0,0,0-.828.984V41h-1.445V32.547Zm9.422-2.047v2.047h1.578v1.117h-1.578v5.249a1.173,1.173,0,0,0,.211.763.888.888,0,0,0,.719.254,3.5,3.5,0,0,0,.688-.094V41a4.215,4.215,0,0,1-1.109.155,1.8,1.8,0,0,1-1.461-.586,2.517,2.517,0,0,1-.492-1.664V33.664H108.93V32.547h1.539V30.5Zm2.727,6.2a4.993,4.993,0,0,1,.488-2.234,3.643,3.643,0,0,1,1.359-1.531,3.7,3.7,0,0,1,1.988-.539,3.565,3.565,0,0,1,2.793,1.2,4.6,4.6,0,0,1,1.066,3.18v.1a5.036,5.036,0,0,1-.473,2.215,3.589,3.589,0,0,1-1.352,1.527,3.743,3.743,0,0,1-2.02.547,3.556,3.556,0,0,1-2.785-1.2,4.575,4.575,0,0,1-1.066-3.164Zm1.453.172a3.616,3.616,0,0,0,.652,2.258,2.211,2.211,0,0,0,3.5-.012,3.955,3.955,0,0,0,.648-2.418,3.61,3.61,0,0,0-.66-2.254,2.1,2.1,0,0,0-1.754-.863,2.075,2.075,0,0,0-1.727.852A3.925,3.925,0,0,0,116.094,36.867Z" transform="translate(475 7889.704)" fill="#12263f"/>
    <path id="Trazado_599838" data-name="Trazado 599838" d="M7.75,11.742H2.82v4.031H8.547V17H1.32V5.625H8.469V6.852H2.82v3.664H7.75Zm7.359,3.016a1.064,1.064,0,0,0-.441-.91,4.249,4.249,0,0,0-1.539-.559,7.277,7.277,0,0,1-1.742-.562,2.479,2.479,0,0,1-.953-.781,1.869,1.869,0,0,1-.309-1.078A2.193,2.193,0,0,1,11,9.109a3.432,3.432,0,0,1,2.246-.719,3.532,3.532,0,0,1,2.332.742,2.357,2.357,0,0,1,.895,1.9H15.023a1.3,1.3,0,0,0-.5-1.023,1.888,1.888,0,0,0-1.27-.43,1.976,1.976,0,0,0-1.234.344,1.082,1.082,0,0,0-.445.9.877.877,0,0,0,.414.789,5.1,5.1,0,0,0,1.5.508,7.8,7.8,0,0,1,1.754.578,2.558,2.558,0,0,1,1,.809,1.988,1.988,0,0,1,.324,1.152,2.163,2.163,0,0,1-.906,1.816,3.8,3.8,0,0,1-2.352.684,4.257,4.257,0,0,1-1.8-.359,2.922,2.922,0,0,1-1.223-1A2.42,2.42,0,0,1,9.836,14.4h1.445a1.5,1.5,0,0,0,.582,1.152,2.258,2.258,0,0,0,1.434.426,2.331,2.331,0,0,0,1.316-.332A1.02,1.02,0,0,0,15.109,14.758ZM20.4,6.5V8.547h1.578V9.664H20.4v5.249a1.173,1.173,0,0,0,.211.763.888.888,0,0,0,.719.254,3.5,3.5,0,0,0,.688-.094V17a4.215,4.215,0,0,1-1.109.155,1.8,1.8,0,0,1-1.461-.586,2.517,2.517,0,0,1-.492-1.664V9.664H17.414V8.547h1.539V6.5ZM28.883,17a3.036,3.036,0,0,1-.2-.891,3.225,3.225,0,0,1-2.406,1.047,2.984,2.984,0,0,1-2.051-.707,2.287,2.287,0,0,1-.8-1.793,2.39,2.39,0,0,1,1-2.051,4.733,4.733,0,0,1,2.824-.73h1.406v-.664A1.623,1.623,0,0,0,28.2,10a1.821,1.821,0,0,0-1.336-.449,2.107,2.107,0,0,0-1.3.391,1.151,1.151,0,0,0-.523.945H23.594a2,2,0,0,1,.449-1.223,3.066,3.066,0,0,1,1.219-.934,4.1,4.1,0,0,1,1.691-.344,3.342,3.342,0,0,1,2.289.73,2.635,2.635,0,0,1,.859,2.012v3.891a4.757,4.757,0,0,0,.3,1.852V17Zm-2.4-1.1a2.54,2.54,0,0,0,1.289-.352,2.127,2.127,0,0,0,.883-.914V12.9H27.523q-2.656,0-2.656,1.555a1.316,1.316,0,0,0,.453,1.063A1.742,1.742,0,0,0,26.484,15.9Zm13.039-3.031a5.026,5.026,0,0,1-.891,3.113,2.846,2.846,0,0,1-2.391,1.176,2.947,2.947,0,0,1-2.477-1.133L33.7,17H32.367V5h1.445V9.477a2.93,2.93,0,0,1,2.414-1.086,2.863,2.863,0,0,1,2.418,1.164,5.177,5.177,0,0,1,.879,3.188ZM38.078,12.7a3.906,3.906,0,0,0-.57-2.281,1.888,1.888,0,0,0-1.641-.8,2.122,2.122,0,0,0-2.055,1.328V14.6a2.181,2.181,0,0,0,2.07,1.328,1.878,1.878,0,0,0,1.617-.8A4.153,4.153,0,0,0,38.078,12.7ZM42.914,17H41.469V5h1.445Zm5.82.156a3.693,3.693,0,0,1-2.8-1.129,4.19,4.19,0,0,1-1.078-3.02v-.266a5.073,5.073,0,0,1,.48-2.246,3.748,3.748,0,0,1,1.344-1.547,3.378,3.378,0,0,1,1.871-.559,3.166,3.166,0,0,1,2.563,1.086,4.7,4.7,0,0,1,.914,3.109v.6H46.3a3,3,0,0,0,.73,2.02,2.3,2.3,0,0,0,1.777.77,2.517,2.517,0,0,0,1.3-.312,3.259,3.259,0,0,0,.93-.828l.883.688A3.55,3.55,0,0,1,48.734,17.156Zm-.18-7.578a1.928,1.928,0,0,0-1.469.637A3.1,3.1,0,0,0,46.352,12h4.234v-.109a2.753,2.753,0,0,0-.594-1.707A1.815,1.815,0,0,0,48.555,9.578Zm8.539,6.4a2.082,2.082,0,0,0,1.352-.469,1.649,1.649,0,0,0,.641-1.172h1.367a2.621,2.621,0,0,1-.5,1.383,3.293,3.293,0,0,1-1.23,1.047,3.55,3.55,0,0,1-1.629.391A3.482,3.482,0,0,1,54.348,16a4.59,4.59,0,0,1-1.02-3.152v-.242a5.089,5.089,0,0,1,.453-2.2,3.451,3.451,0,0,1,1.3-1.492,3.7,3.7,0,0,1,2-.531,3.39,3.39,0,0,1,2.363.852,3.043,3.043,0,0,1,1,2.211H59.086a1.992,1.992,0,0,0-.621-1.348,1.932,1.932,0,0,0-1.379-.527,2.023,2.023,0,0,0-1.707.793,3.724,3.724,0,0,0-.605,2.293v.273a3.65,3.65,0,0,0,.6,2.25A2.033,2.033,0,0,0,57.094,15.977Zm8.492,1.18a3.693,3.693,0,0,1-2.8-1.129,4.19,4.19,0,0,1-1.078-3.02v-.266a5.073,5.073,0,0,1,.48-2.246,3.748,3.748,0,0,1,1.344-1.547,3.378,3.378,0,0,1,1.871-.559,3.166,3.166,0,0,1,2.563,1.086,4.7,4.7,0,0,1,.914,3.109v.6H63.156a3,3,0,0,0,.73,2.02,2.3,2.3,0,0,0,1.777.77,2.517,2.517,0,0,0,1.3-.312,3.259,3.259,0,0,0,.93-.828l.883.688A3.55,3.55,0,0,1,65.586,17.156Zm-.18-7.578a1.928,1.928,0,0,0-1.469.637A3.1,3.1,0,0,0,63.2,12h4.234v-.109a2.753,2.753,0,0,0-.594-1.707A1.815,1.815,0,0,0,65.406,9.578Zm9.234.266a4.331,4.331,0,0,0-.711-.055A1.9,1.9,0,0,0,72,11v6H70.555V8.547h1.406l.023.977A2.251,2.251,0,0,1,74,8.391a1.477,1.477,0,0,1,.641.109Zm8.8,7.313a3.693,3.693,0,0,1-2.8-1.129,4.19,4.19,0,0,1-1.078-3.02v-.266a5.073,5.073,0,0,1,.48-2.246,3.748,3.748,0,0,1,1.344-1.547,3.378,3.378,0,0,1,1.871-.559A3.166,3.166,0,0,1,85.82,9.477a4.7,4.7,0,0,1,.914,3.109v.6H81.008a3,3,0,0,0,.73,2.02,2.3,2.3,0,0,0,1.777.77,2.517,2.517,0,0,0,1.3-.312,3.259,3.259,0,0,0,.93-.828l.883.688A3.55,3.55,0,0,1,83.438,17.156Zm-.18-7.578a1.928,1.928,0,0,0-1.469.637A3.1,3.1,0,0,0,81.055,12h4.234v-.109a2.753,2.753,0,0,0-.594-1.707A1.815,1.815,0,0,0,83.258,9.578ZM89.977,17H88.531V5h1.445ZM4.672,35.93a7.053,7.053,0,0,1-2.809-1.363,2.6,2.6,0,0,1-.879-2,2.751,2.751,0,0,1,1.074-2.223,4.269,4.269,0,0,1,2.793-.879,4.66,4.66,0,0,1,2.09.453,3.436,3.436,0,0,1,1.422,1.25,3.2,3.2,0,0,1,.5,1.742H7.359A2.08,2.08,0,0,0,6.7,31.287,2.669,2.669,0,0,0,4.852,30.7a2.732,2.732,0,0,0-1.73.489A1.632,1.632,0,0,0,2.5,32.542a1.468,1.468,0,0,0,.59,1.178A5.786,5.786,0,0,0,5.1,34.6a9.316,9.316,0,0,1,2.219.88A3.367,3.367,0,0,1,8.5,36.6a2.861,2.861,0,0,1,.387,1.508,2.658,2.658,0,0,1-1.078,2.215,4.6,4.6,0,0,1-2.883.832,5.347,5.347,0,0,1-2.187-.449,3.681,3.681,0,0,1-1.566-1.23A3,3,0,0,1,.625,37.7H2.133a1.959,1.959,0,0,0,.762,1.629,3.207,3.207,0,0,0,2.035.6,2.948,2.948,0,0,0,1.82-.484,1.573,1.573,0,0,0,.633-1.32A1.545,1.545,0,0,0,6.8,36.832,6.755,6.755,0,0,0,4.672,35.93Zm14.539,3.578A3.465,3.465,0,0,1,17.6,40.746a6.517,6.517,0,0,1-2.41.41,4.674,4.674,0,0,1-2.469-.652,4.346,4.346,0,0,1-1.668-1.855,6.408,6.408,0,0,1-.605-2.789v-.992a5.982,5.982,0,0,1,1.2-3.984,4.179,4.179,0,0,1,3.371-1.414,4.316,4.316,0,0,1,2.867.91,3.965,3.965,0,0,1,1.328,2.582h-1.5A2.48,2.48,0,0,0,15.023,30.7a2.655,2.655,0,0,0-2.285,1.06,5.173,5.173,0,0,0-.785,3.069v.93a4.848,4.848,0,0,0,.875,3.046A2.836,2.836,0,0,0,15.2,39.93a5.229,5.229,0,0,0,1.477-.187,2.283,2.283,0,0,0,1.047-.631V36.563H15.086V35.336h4.125Zm10.867-2.117a4.185,4.185,0,0,1-1.332,2.785,4.365,4.365,0,0,1-2.98.98,4.008,4.008,0,0,1-3.23-1.445,5.815,5.815,0,0,1-1.215-3.867V34.75a6.481,6.481,0,0,1,.566-2.789,4.231,4.231,0,0,1,1.605-1.848,4.47,4.47,0,0,1,2.406-.645A4.11,4.11,0,0,1,28.8,30.48a4.235,4.235,0,0,1,1.273,2.8H28.57a3.268,3.268,0,0,0-.848-1.975A2.565,2.565,0,0,0,25.9,30.7a2.684,2.684,0,0,0-2.254,1.063,4.882,4.882,0,0,0-.816,3.026v1.1a5.018,5.018,0,0,0,.773,2.948,2.5,2.5,0,0,0,2.164,1.095,2.886,2.886,0,0,0,1.918-.566,3.143,3.143,0,0,0,.887-1.973ZM40.867,41H39.359l-5.727-8.766V41H32.125V29.625h1.508l5.742,8.8v-8.8h1.492Z" transform="translate(475 7559.095)" fill="#12263f"/>
    <path id="Trazado_599847" data-name="Trazado 599847" d="M22.645,11.93a7.053,7.053,0,0,1-2.809-1.363,2.6,2.6,0,0,1-.879-2,2.751,2.751,0,0,1,1.074-2.223,4.269,4.269,0,0,1,2.793-.879,4.66,4.66,0,0,1,2.09.453,3.436,3.436,0,0,1,1.422,1.25,3.2,3.2,0,0,1,.5,1.742H25.332a2.08,2.08,0,0,0-.656-1.627A2.669,2.669,0,0,0,22.824,6.7a2.732,2.732,0,0,0-1.73.489,1.632,1.632,0,0,0-.621,1.358,1.468,1.468,0,0,0,.59,1.178,5.785,5.785,0,0,0,2.008.88,9.316,9.316,0,0,1,2.219.88A3.367,3.367,0,0,1,26.477,12.6a2.861,2.861,0,0,1,.387,1.508,2.658,2.658,0,0,1-1.078,2.215,4.6,4.6,0,0,1-2.883.832,5.347,5.347,0,0,1-2.187-.449,3.681,3.681,0,0,1-1.566-1.23A3,3,0,0,1,18.6,13.7h1.508a1.959,1.959,0,0,0,.762,1.629,3.207,3.207,0,0,0,2.035.6,2.948,2.948,0,0,0,1.82-.484,1.573,1.573,0,0,0,.633-1.32,1.545,1.545,0,0,0-.586-1.293A6.755,6.755,0,0,0,22.645,11.93Zm9.422,5.227a3.693,3.693,0,0,1-2.8-1.129,4.19,4.19,0,0,1-1.078-3.02v-.266a5.073,5.073,0,0,1,.48-2.246,3.748,3.748,0,0,1,1.344-1.547,3.378,3.378,0,0,1,1.871-.559,3.166,3.166,0,0,1,2.563,1.086,4.7,4.7,0,0,1,.914,3.109v.6H29.637a3,3,0,0,0,.73,2.02,2.3,2.3,0,0,0,1.777.77,2.517,2.517,0,0,0,1.3-.312,3.259,3.259,0,0,0,.93-.828l.883.688A3.55,3.55,0,0,1,32.066,17.156Zm-.18-7.578a1.928,1.928,0,0,0-1.469.637A3.1,3.1,0,0,0,29.684,12h4.234v-.109a2.753,2.753,0,0,0-.594-1.707A1.815,1.815,0,0,0,31.887,9.578Zm4.8,3.125a4.968,4.968,0,0,1,.914-3.145,3.151,3.151,0,0,1,4.836-.074l.07-.937h1.32V16.8a3.439,3.439,0,0,1-.973,2.586,3.589,3.589,0,0,1-2.613.945,4.348,4.348,0,0,1-1.789-.391,3.08,3.08,0,0,1-1.336-1.07l.75-.867a2.826,2.826,0,0,0,2.273,1.148,2.214,2.214,0,0,0,1.645-.594,2.269,2.269,0,0,0,.59-1.672v-.727a2.971,2.971,0,0,1-2.367,1,2.887,2.887,0,0,1-2.4-1.2A5.224,5.224,0,0,1,36.691,12.7Zm1.453.164a3.79,3.79,0,0,0,.586,2.246,1.9,1.9,0,0,0,1.641.816,2.117,2.117,0,0,0,2.008-1.242V10.828a2.142,2.142,0,0,0-1.992-1.211,1.921,1.921,0,0,0-1.648.82A4.128,4.128,0,0,0,38.145,12.867Zm13.086,3.3a3.07,3.07,0,0,1-2.477.992,2.628,2.628,0,0,1-2.059-.785,3.4,3.4,0,0,1-.715-2.324v-5.5h1.445v5.461q0,1.922,1.563,1.922a2.163,2.163,0,0,0,2.2-1.234V8.547h1.445V17H51.262ZM56.4,17H54.957V8.547H56.4ZM54.84,6.3a.863.863,0,0,1,.215-.594.807.807,0,0,1,.637-.242.819.819,0,0,1,.641.242.854.854,0,0,1,.219.594.826.826,0,0,1-.219.586.834.834,0,0,1-.641.234.821.821,0,0,1-.637-.234A.834.834,0,0,1,54.84,6.3Zm5.234,2.242.039.938a3.122,3.122,0,0,1,2.508-1.094A2.417,2.417,0,0,1,65.035,9.75a3.2,3.2,0,0,1,1.1-.984,3.242,3.242,0,0,1,1.6-.375q2.781,0,2.828,2.945V17H69.113V11.422a1.941,1.941,0,0,0-.414-1.355,1.823,1.823,0,0,0-1.391-.449,1.916,1.916,0,0,0-1.336.48,1.949,1.949,0,0,0-.617,1.293V17H63.9V11.461a1.613,1.613,0,0,0-1.8-1.844,1.934,1.934,0,0,0-1.945,1.211V17H58.707V8.547ZM74.309,17H72.863V8.547h1.445ZM72.746,6.3a.863.863,0,0,1,.215-.594.807.807,0,0,1,.637-.242.819.819,0,0,1,.641.242.854.854,0,0,1,.219.594.826.826,0,0,1-.219.586.834.834,0,0,1-.641.234.821.821,0,0,1-.637-.234A.834.834,0,0,1,72.746,6.3Zm7.383,10.852a3.693,3.693,0,0,1-2.8-1.129,4.19,4.19,0,0,1-1.078-3.02v-.266a5.073,5.073,0,0,1,.48-2.246,3.748,3.748,0,0,1,1.344-1.547,3.378,3.378,0,0,1,1.871-.559,3.166,3.166,0,0,1,2.563,1.086,4.7,4.7,0,0,1,.914,3.109v.6H77.7a3,3,0,0,0,.73,2.02,2.3,2.3,0,0,0,1.777.77,2.517,2.517,0,0,0,1.3-.312,3.259,3.259,0,0,0,.93-.828l.883.688A3.55,3.55,0,0,1,80.129,17.156Zm-.18-7.578a1.928,1.928,0,0,0-1.469.637A3.1,3.1,0,0,0,77.746,12H81.98v-.109a2.753,2.753,0,0,0-.594-1.707A1.815,1.815,0,0,0,79.949,9.578Zm6.516-1.031.047,1.063a3.08,3.08,0,0,1,2.531-1.219q2.68,0,2.7,3.023V17H90.3V11.406a1.946,1.946,0,0,0-.418-1.352,1.675,1.675,0,0,0-1.277-.437,2.086,2.086,0,0,0-1.234.375,2.546,2.546,0,0,0-.828.984V17H85.1V8.547ZM95.887,6.5V8.547h1.578V9.664H95.887v5.249a1.173,1.173,0,0,0,.211.763.888.888,0,0,0,.719.254,3.5,3.5,0,0,0,.688-.094V17a4.215,4.215,0,0,1-1.109.155,1.8,1.8,0,0,1-1.461-.586,2.517,2.517,0,0,1-.492-1.664V9.664H92.9V8.547h1.539V6.5Zm2.727,6.2a4.993,4.993,0,0,1,.488-2.234,3.643,3.643,0,0,1,1.359-1.531,3.7,3.7,0,0,1,1.988-.539,3.565,3.565,0,0,1,2.793,1.2,4.6,4.6,0,0,1,1.066,3.18v.1a5.036,5.036,0,0,1-.473,2.215,3.589,3.589,0,0,1-1.352,1.527,3.743,3.743,0,0,1-2.02.547,3.556,3.556,0,0,1-2.785-1.2A4.575,4.575,0,0,1,98.613,12.8Zm1.453.172a3.616,3.616,0,0,0,.652,2.258,2.211,2.211,0,0,0,3.5-.012,3.955,3.955,0,0,0,.648-2.418,3.61,3.61,0,0,0-.66-2.254,2.1,2.1,0,0,0-1.754-.863,2.075,2.075,0,0,0-1.727.852A3.925,3.925,0,0,0,100.066,12.867Z" transform="translate(245 7901.095)" fill="#12263f"/>
    <path id="Trazado_599839" data-name="Trazado 599839" d="M41.16,5.625l3.719,9.281L48.6,5.625h1.945V17h-1.5V12.57l.141-4.781L45.449,17H44.3L40.574,7.813l.148,4.758V17h-1.5V5.625ZM56.473,17.156a3.693,3.693,0,0,1-2.8-1.129,4.19,4.19,0,0,1-1.078-3.02v-.266a5.073,5.073,0,0,1,.48-2.246,3.748,3.748,0,0,1,1.344-1.547,3.378,3.378,0,0,1,1.871-.559,3.166,3.166,0,0,1,2.563,1.086,4.7,4.7,0,0,1,.914,3.109v.6H54.043a3,3,0,0,0,.73,2.02,2.3,2.3,0,0,0,1.777.77,2.517,2.517,0,0,0,1.3-.312,3.259,3.259,0,0,0,.93-.828l.883.688A3.55,3.55,0,0,1,56.473,17.156Zm-.18-7.578a1.928,1.928,0,0,0-1.469.637A3.1,3.1,0,0,0,54.09,12h4.234v-.109a2.753,2.753,0,0,0-.594-1.707A1.815,1.815,0,0,0,56.293,9.578Zm6.641-1.031v9.43q0,2.438-2.211,2.438a2.7,2.7,0,0,1-.883-.14V19.125a2.794,2.794,0,0,0,.656.063.982.982,0,0,0,.738-.262,1.3,1.3,0,0,0,.254-.911V8.547ZM61.34,6.3a.867.867,0,0,1,.215-.59.79.79,0,0,1,.629-.246.819.819,0,0,1,.641.242.854.854,0,0,1,.219.594.826.826,0,0,1-.219.586.834.834,0,0,1-.641.234.808.808,0,0,1-.633-.234A.843.843,0,0,1,61.34,6.3ZM64.879,12.7a4.993,4.993,0,0,1,.488-2.234A3.643,3.643,0,0,1,66.727,8.93a3.7,3.7,0,0,1,1.988-.539,3.565,3.565,0,0,1,2.793,1.2,4.6,4.6,0,0,1,1.066,3.18v.1a5.036,5.036,0,0,1-.473,2.215,3.589,3.589,0,0,1-1.352,1.527,3.743,3.743,0,0,1-2.02.547,3.556,3.556,0,0,1-2.785-1.2A4.575,4.575,0,0,1,64.879,12.8Zm1.453.172a3.616,3.616,0,0,0,.652,2.258,2.211,2.211,0,0,0,3.5-.012,3.955,3.955,0,0,0,.648-2.418,3.61,3.61,0,0,0-.66-2.254,2.1,2.1,0,0,0-1.754-.863,2.075,2.075,0,0,0-1.727.852A3.925,3.925,0,0,0,66.332,12.867ZM78.473,9.844a4.331,4.331,0,0,0-.711-.055A1.9,1.9,0,0,0,75.832,11v6H74.387V8.547h1.406l.023.977a2.251,2.251,0,0,1,2.016-1.133,1.477,1.477,0,0,1,.641.109ZM84.707,17a3.036,3.036,0,0,1-.2-.891A3.225,3.225,0,0,1,82.1,17.156a2.984,2.984,0,0,1-2.051-.707,2.288,2.288,0,0,1-.8-1.793,2.39,2.39,0,0,1,1-2.051,4.733,4.733,0,0,1,2.824-.73H84.48v-.664A1.623,1.623,0,0,0,84.027,10a1.821,1.821,0,0,0-1.336-.449,2.108,2.108,0,0,0-1.3.391,1.151,1.151,0,0,0-.523.945H79.418a2,2,0,0,1,.449-1.223,3.066,3.066,0,0,1,1.219-.934,4.1,4.1,0,0,1,1.691-.344,3.342,3.342,0,0,1,2.289.73,2.635,2.635,0,0,1,.859,2.012v3.891a4.757,4.757,0,0,0,.3,1.852V17Zm-2.4-1.1a2.54,2.54,0,0,0,1.289-.352,2.127,2.127,0,0,0,.883-.914V12.9H83.348q-2.656,0-2.656,1.555a1.316,1.316,0,0,0,.453,1.063A1.742,1.742,0,0,0,82.309,15.9Z" transform="translate(245 7571.095)" fill="#12263f"/>
    <g id="Grupo_877564" data-name="Grupo 877564" transform="translate(344 554.826)">
      <circle id="Elipse_7513" data-name="Elipse 7513" cx="21" cy="21" r="21" transform="translate(203 7103)" fill="#fff3d3"/>
      <circle id="Elipse_7514" data-name="Elipse 7514" cx="13" cy="13" r="13" transform="translate(211 7111)" fill="#f7cc54"/>
    </g>
    <g id="Grupo_877565" data-name="Grupo 877565" transform="translate(335 700.826)">
      <circle id="Elipse_7513-2" data-name="Elipse 7513" cx="21" cy="21" r="21" transform="translate(203 7103)" fill="#fff3d3"/>
      <circle id="Elipse_7514-2" data-name="Elipse 7514" cx="13" cy="13" r="13" transform="translate(211 7111)" fill="#f7cc54"/>
    </g>
    <g id="Grupo_877566" data-name="Grupo 877566" transform="translate(76 700.826)">
      <circle id="Elipse_7513-3" data-name="Elipse 7513" cx="21" cy="21" r="21" transform="translate(203 7103)" fill="#fff3d3"/>
      <circle id="Elipse_7514-3" data-name="Elipse 7514" cx="13" cy="13" r="13" transform="translate(211 7111)" fill="#f7cc54"/>
    </g>
    <g id="Grupo_877567" data-name="Grupo 877567" transform="translate(76 555.826)">
      <circle id="Elipse_7513-4" data-name="Elipse 7513" cx="21" cy="21" r="21" transform="translate(203 7103)" fill="#fff3d3"/>
      <circle id="Elipse_7514-4" data-name="Elipse 7514" cx="13" cy="13" r="13" transform="translate(211 7111)" fill="#f7cc54"/>
    </g>
    <g id="Grupo_877840" data-name="Grupo 877840" transform="translate(-3039.299 8239.415)">
      <path id="Trazado_599339" data-name="Trazado 599339" d="M3453.728-452.687a38.44,38.44,0,0,1-14.369-17.454c-9.181-22.817,6.547-48.256,31.1-50.269,1-.082,2-.029,3.006-.039q.01,5.589.019,11.18c-.375.027-.748.063-1.124.078a25.5,25.5,0,0,0-23.356,32.378,25.6,25.6,0,0,0,24.474,18.536q-.007,5.589-.014,11.177c-.687.009-1.374.054-2.059.022a44.534,44.534,0,0,1-12.031-2.634l-5.075-2.617Z" transform="translate(0 -18.772)" fill="#fc9002"/>
      <path id="Trazado_599340" data-name="Trazado 599340" d="M3534.168-409.431l.013-11.177-.04-.129c9.107.546,18.989-5.631,23.033-14.46,3.643-7.956,3.172-15.8-.779-23.518,2.933,0,5.866.018,8.8-.016.619-.007,1.431.351,1.754-.6.413-.22.822-.44,1.234-.66,6.561,14.981,1.406,33.42-12.148,43.445l-2.111,1.561a.49.49,0,0,1-.157.143l-.394.191-5.07,2.629c-.654.21-1.307.418-1.96.63A33.1,33.1,0,0,1,3534.168-409.431Z" transform="translate(-60.698 -56.441)" fill="#fe651c"/>
      <path id="Trazado_599341" data-name="Trazado 599341" d="M3569.84-536.594c3.853-4.092,7.727-8.163,11.542-12.291,1.034-1.119,2.071-2.106,3.693-1.539,1.68.588,2.038,2.037,2.046,3.639q.035,6.566.088,13.131c-3.83,3.766-7.685,7.505-11.476,11.311a58.989,58.989,0,0,0-5.579,5.792c-1.139-.72-.987-1.918-1.115-3.012q.009-2.475.023-4.95c.015-3.012.063-6.024.028-9.035A5.558,5.558,0,0,1,3569.84-536.594Z" transform="translate(-82.439 0)" fill="#77e1f7"/>
      <path id="Trazado_599342" data-name="Trazado 599342" d="M3572-488.572a59.142,59.142,0,0,1,5.58-5.792c3.79-3.805,7.646-7.544,11.476-11.311,4.381,0,8.764.028,13.146,0,1.572-.011,2.861.335,3.439,1.982.556,1.589-.347,2.6-1.394,3.577q-6.245,5.824-12.478,11.665l-1.235.661-10.749.088a.178.178,0,0,0-.2.02l-4.831.084c-.879-.36-1.922-.073-2.735-.7A2.137,2.137,0,0,1,3572-488.572Z" transform="translate(-84.281 -27.978)" fill="#4bb9eb"/>
      <path id="Trazado_599343" data-name="Trazado 599343" d="M3554.156-309.791c2.634,0,5.269-.025,7.9-.006,2.015.015,3.288,1.129,3.292,2.817s-1.278,2.833-3.277,2.831q-13.923-.009-27.848-.054v-5.532l14.129-.13Z" transform="translate(-60.751 -149.969)" fill="#4b5358"/>
      <path id="Trazado_599344" data-name="Trazado 599344" d="M3482.849-309.688v5.532c-9.35.02-18.7.054-28.051.046a2.828,2.828,0,0,1-3.039-2.885,2.839,2.839,0,0,1,2.992-2.746c2.76-.058,5.522-.036,8.284-.048l5.825.047Z" transform="translate(-9.374 -150.016)" fill="#5a6267"/>
      <path id="Trazado_599345" data-name="Trazado 599345" d="M3548.108-517.862a5.552,5.552,0,0,0-.752,3.045c.034,3.011-.012,6.024-.026,9.035-.618-.284-1.24-.559-1.853-.853a22.867,22.867,0,0,0-11.324-2.542l.039-.132q-.01-5.59-.018-11.18A33.433,33.433,0,0,1,3548.108-517.862Z" transform="translate(-60.706 -18.732)" fill="#fe651c"/>
      <path id="Trazado_599346" data-name="Trazado 599346" d="M3577.5-328.949l-5.8-.074q0-4.315,0-8.631l5.071-2.629.4-.192a.476.476,0,0,0,.156-.143Q3577.408-334.783,3577.5-328.949Z" transform="translate(-84.093 -130.811)" fill="#373b40"/>
      <path id="Trazado_599347" data-name="Trazado 599347" d="M3487.494-328.408l-5.825-.047q.075-5.639.15-11.279l.494-.017,5.074,2.617Q3487.44-332.77,3487.494-328.408Z" transform="translate(-28.009 -131.35)" fill="#485054"/>
      <path id="Trazado_599348" data-name="Trazado 599348" d="M3482.424-340.342l-.493.017-.084-.375Z" transform="translate(-28.119 -130.759)" fill="#5a6267"/>
      <path id="Trazado_599349" data-name="Trazado 599349" d="M3492.2-439.79a25.6,25.6,0,0,1-24.475-18.536A25.5,25.5,0,0,1,3491.08-490.7c.375-.016.749-.052,1.124-.079l-.041.132q.017,5.582.034,11.165c-7.814.691-13.343,5.625-14.01,12.5-.835,8.631,4.832,15.065,14.007,15.9q-.019,5.582-.037,11.164Z" transform="translate(-18.716 -37.259)" fill="#feefee"/>
      <path id="Trazado_599350" data-name="Trazado 599350" d="M3534.141-419.467q.016-5.582.036-11.164l-.032-.151a5.86,5.86,0,0,0,2.237-.064c10.25-1.844,14.98-12.435,9.69-21.707l5.094-5.317,4.829-.083.242.427.157.08c3.951,7.717,4.423,15.563.779,23.519C3553.13-425.1,3543.248-418.92,3534.141-419.467Z" transform="translate(-60.698 -57.712)" fill="#eadcd7"/>
      <path id="Trazado_599351" data-name="Trazado 599351" d="M3592.645-458.153l10.75-.088c-.323.951-1.136.593-1.754.6-2.933.034-5.865.016-8.8.016,0,0-.158-.079-.157-.078C3592.674-457.852,3592.659-458,3592.645-458.153Z" transform="translate(-97.145 -57.532)" fill="#fd641b"/>
      <path id="Trazado_599352" data-name="Trazado 599352" d="M3585.538-340.238l-.395.192Z" transform="translate(-92.472 -131.047)" fill="#4b5358"/>
      <path id="Trazado_599353" data-name="Trazado 599353" d="M3534.186-479.318q-.016-5.583-.034-11.165a22.861,22.861,0,0,1,11.325,2.542c.613.294,1.235.569,1.853.853q-.013,2.476-.025,4.951l-5.45,5.194a11.762,11.762,0,0,0-7.7-2.224Z" transform="translate(-60.705 -37.426)" fill="#eadcd7"/>
      <path id="Trazado_599354" data-name="Trazado 599354" d="M3537.19-463.1l5.448-5.194c.129,1.094-.023,2.292,1.115,3.012a2.229,2.229,0,0,0,.017.273c-.866.032-1.261.751-1.776,1.262q-6.436,6.4-12.85,12.829a4.66,4.66,0,0,1-1.719,1.408c-1.232-1.4-.847-2.7.25-3.948.61-.691,1.256-1.349,1.887-2.022Z" transform="translate(-56.039 -51.269)" fill="#4c5053"/>
      <path id="Trazado_599355" data-name="Trazado 599355" d="M3528.691-444.08a4.66,4.66,0,0,0,1.717-1.408q6.431-6.408,12.851-12.829c.515-.511.91-1.23,1.776-1.262.813.624,1.856.336,2.735.7l-5.093,5.317c-3.069,3.032-6.148,6.054-9.2,9.1a4.331,4.331,0,0,1-2.712,1.518A2.576,2.576,0,0,1,3528.691-444.08Z" transform="translate(-57.303 -56.698)" fill="#373b40"/>
      <path id="Trazado_599356" data-name="Trazado 599356" d="M3592.311-458.044c.014.15.029.3.041.45l-.242-.429A.175.175,0,0,1,3592.311-458.044Z" transform="translate(-96.812 -57.641)" fill="#a98e80"/>
      <path id="Trazado_599357" data-name="Trazado 599357" d="M3508.865-444.851a2.576,2.576,0,0,0,2.077,1.136q-.009,5.575-.018,11.149l.032.151c-9.175-.834-14.843-7.268-14.007-15.9.668-6.878,6.195-11.812,14.01-12.5l-.033.151q.037,4.922.077,9.844c-.631.673-1.278,1.331-1.887,2.022C3508.017-447.557,3507.633-446.25,3508.865-444.851Z" transform="translate(-37.477 -55.927)" fill="#fc9002"/>
      <path id="Trazado_599358" data-name="Trazado 599358" d="M3534.151-421.858q.008-5.574.016-11.149a4.327,4.327,0,0,0,2.712-1.518c3.052-3.049,6.131-6.071,9.2-9.1,5.291,9.272.561,19.863-9.69,21.707A5.86,5.86,0,0,1,3534.151-421.858Z" transform="translate(-60.704 -66.635)" fill="#fd641b"/>
      <path id="Trazado_599359" data-name="Trazado 599359" d="M3534.232-450.627q-.038-4.922-.076-9.844a11.762,11.762,0,0,1,7.7,2.224Z" transform="translate(-60.708 -56.121)" fill="#fd641b"/>
    </g>
  </g>
</svg>
