<svg xmlns="http://www.w3.org/2000/svg" xmlns:xlink="http://www.w3.org/1999/xlink" width="295" height="264.182" viewBox="0 0 295 264.182">
  <defs>
    <clipPath id="clip-path">
      <rect id="Rect치ngulo_297748" data-name="Rect치ngulo 297748" width="167.436" height="217.729" fill="none"/>
    </clipPath>
    <clipPath id="clip-path-3">
      <rect id="Rect치ngulo_297753" data-name="Rect치ngulo 297753" width="58.953" height="137.58" fill="none"/>
    </clipPath>
  </defs>
  <g id="Grupo_878000" data-name="Grupo 878000" transform="translate(-1125 -8177.145)">
    <path id="Trazado_599851" data-name="Trazado 599851" d="M12,0H283a12,12,0,0,1,12,12V220.5a12,12,0,0,1-12,12H12a12,12,0,0,1-12-12V12A12,12,0,0,1,12,0Z" transform="translate(1420 8441.326) rotate(180)" fill="#ebfee1"/>
    <g id="Grupo_877856" data-name="Grupo 877856" transform="translate(630 -43)">
      <g id="Grupo_877849" data-name="Grupo 877849" transform="translate(520.775 8264.985)">
        <path id="Trazado_599605" data-name="Trazado 599605" d="M567.963,172.892S608.871,157.65,605,129.339C599.682,90.463,568.262,87.2,567.015,67c-1.38-22.371,4.794-49.1-21.345-62.394-36.194-18.4-65.64,25.152-95.7,12.883-55.777-22.766-90.807,47.991-57.62,91.448,25.134,35,12.865,63.359,12.865,63.359Z" transform="translate(-361.809 -0.004)" fill="#fff"/>
      </g>
      <g id="Grupo_877852" data-name="Grupo 877852" transform="translate(558.782 8220.145)">
        <g id="Grupo_877842" data-name="Grupo 877842" transform="translate(0 0)">
          <g id="Grupo_877841" data-name="Grupo 877841" transform="translate(0 0)" clip-path="url(#clip-path)">
            <path id="Trazado_599577" data-name="Trazado 599577" d="M360.7,11.326c-1.731-10.254-17.522-14.883-17.212-8.191L271.1,3.559c-5.014.029-9.079,4.54-9.084,10.08l-.15,190.381c0,5.739,4.132,10.431,9.242,10.475l73.9.634a5.914,5.914,0,0,0,2.67,2.571c8.475.181,12.539-4,14.024-8.736a11.393,11.393,0,0,0,.735-4.153c-.3-2.478-1.2-191.081-1.732-193.485" transform="translate(-221.044 -0.002)" fill="#9bb0ff"/>
            <path id="Trazado_599578" data-name="Trazado 599578" d="M296.14,217.877l-84.823-.547c-5.293-.034-9.574-4.853-9.565-10.758l.318-195.79c.009-5.694,4.223-10.32,9.414-10.337l83.175-.27c5.232-.017,9.51,4.6,9.554,10.322l1.508,196.695c.046,5.933-4.245,10.719-9.581,10.685" transform="translate(-170.304 -0.149)" fill="#fff"/>
            <path id="Trazado_599579" data-name="Trazado 599579" d="M305.066,223.522a7.647,7.647,0,0,1-1.072.067l-84.8-.641c-4.548-.034-8.266-4.259-8.258-9.414l.293-195.575c.007-4.971,3.666-9.028,8.127-9.047l83.169-.362c.13,0,.262,0,.391.008a7.87,7.87,0,0,1,5.511,2.682,9.4,9.4,0,0,1,2.343,6.227l1.488,196.894c.035,4.667-3.047,8.6-7.2,9.161" transform="translate(-178.059 -7.217)"/>
            <path id="Trazado_599580" data-name="Trazado 599580" d="M323.135,72.106l1.43,196.209-95.527-.572.244-195.637Z" transform="translate(-193.337 -60.866)" fill="#7fd452"/>
            <path id="Trazado_599581" data-name="Trazado 599581" d="M459.691,662.9H434.117a3.934,3.934,0,1,1,0-7.868h25.573a3.934,3.934,0,1,1,0,7.868" transform="translate(-363.128 -552.928)" fill="#002ed9"/>
            <path id="Trazado_599582" data-name="Trazado 599582" d="M364.9,475.528H298.771a3.934,3.934,0,1,1,0-7.868H364.9a3.934,3.934,0,1,1,0,7.868" transform="translate(-248.879 -394.764)" fill="#fff"/>
            <path id="Trazado_599583" data-name="Trazado 599583" d="M364.9,556.821H298.771a3.934,3.934,0,1,1,0-7.868H364.9a3.934,3.934,0,1,1,0,7.868" transform="translate(-248.879 -463.385)" fill="#fff"/>
            <g id="Grupo_877846" data-name="Grupo 877846" transform="translate(59.469 88.465)">
              <path id="Trazado_599584" data-name="Trazado 599584" d="M384.288,568.928a1.385,1.385,0,1,1-1.385-1.385,1.385,1.385,0,0,1,1.385,1.385" transform="translate(-381.518 -567.543)" fill="#e5e5e5"/>
              <path id="Trazado_599585" data-name="Trazado 599585" d="M414.755,568.928a1.385,1.385,0,1,1-1.385-1.385,1.385,1.385,0,0,1,1.385,1.385" transform="translate(-407.236 -567.543)" fill="#e5e5e5"/>
              <path id="Trazado_599586" data-name="Trazado 599586" d="M445.221,568.928a1.385,1.385,0,1,1-1.385-1.385,1.385,1.385,0,0,1,1.385,1.385" transform="translate(-432.954 -567.543)" fill="#e5e5e5"/>
              <path id="Trazado_599587" data-name="Trazado 599587" d="M475.688,568.928a1.385,1.385,0,1,1-1.385-1.385,1.385,1.385,0,0,1,1.385,1.385" transform="translate(-458.671 -567.543)" fill="#e5e5e5"/>
              <path id="Trazado_599588" data-name="Trazado 599588" d="M506.155,568.928a1.385,1.385,0,1,1-1.385-1.385,1.385,1.385,0,0,1,1.385,1.385" transform="translate(-484.389 -567.543)" fill="#e5e5e5"/>
              <path id="Trazado_599589" data-name="Trazado 599589" d="M536.622,568.928a1.385,1.385,0,1,1-1.385-1.385,1.385,1.385,0,0,1,1.385,1.385" transform="translate(-510.107 -567.543)" fill="#e5e5e5"/>
              <path id="Trazado_599590" data-name="Trazado 599590" d="M567.088,568.928a1.385,1.385,0,1,1-1.385-1.385,1.385,1.385,0,0,1,1.385,1.385" transform="translate(-535.825 -567.543)" fill="#e5e5e5"/>
              <path id="Trazado_599591" data-name="Trazado 599591" d="M597.555,568.928a1.385,1.385,0,1,1-1.385-1.385,1.385,1.385,0,0,1,1.385,1.385" transform="translate(-561.542 -567.543)" fill="#e5e5e5"/>
              <path id="Trazado_599592" data-name="Trazado 599592" d="M628.022,568.928a1.385,1.385,0,1,1-1.385-1.385,1.385,1.385,0,0,1,1.385,1.385" transform="translate(-587.26 -567.543)" fill="#e5e5e5"/>
            </g>
            <path id="Trazado_599593" data-name="Trazado 599593" d="M465.212,217.2a15.2,15.2,0,1,1-15.2-15.2,15.2,15.2,0,0,1,15.2,15.2" transform="translate(-367.035 -170.511)" fill="#fff"/>
            <path id="Trazado_599594" data-name="Trazado 599594" d="M506.5,243.657a4.8,4.8,0,0,0,3.729-1.827,4.68,4.68,0,0,0,1.028-2.968,4.776,4.776,0,1,0-9.552,0,4.676,4.676,0,0,0,1.028,2.968,4.818,4.818,0,0,0,3.767,1.827" transform="translate(-423.504 -197.582)" fill="#002ed9"/>
            <path id="Trazado_599595" data-name="Trazado 599595" d="M495.014,311.314c0,3.026-16.9,3.026-16.9,0l.005-3.526c.668-4.82,15.519-5.023,16.9,0Z" transform="translate(-403.591 -256.696)" fill="#002ed9"/>
            <path id="Trazado_599596" data-name="Trazado 599596" d="M323.077,560.013V559.8a1.548,1.548,0,1,0-3.1,0v.211h-.235v2.79c0,.482,3.576.482,3.576,0v-2.79Zm-2.544-.211a1,1,0,1,1,2,0v.211h-2Zm1.26,1.616v.806a.256.256,0,0,1-.269.248.238.238,0,0,1-.248-.248v-.806a.47.47,0,0,1-.248-.414.5.5,0,1,1,.765.414" transform="translate(-269.906 -471.237)" fill="#4d4d4d"/>
            <path id="Trazado_599597" data-name="Trazado 599597" d="M325.731,480.109a1.013,1.013,0,0,0,.787-.385.987.987,0,0,0,.217-.626,1.008,1.008,0,1,0-2.016,0,.986.986,0,0,0,.217.626,1.017,1.017,0,0,0,.795.385" transform="translate(-274.103 -403.565)" fill="#4d4d4d"/>
            <path id="Trazado_599598" data-name="Trazado 599598" d="M323.208,494.387c0,.638-3.584.638-3.584,0l.019-.744c.141-1.017,3.275-1.06,3.565,0Z" transform="translate(-269.803 -416.039)" fill="#4d4d4d"/>
            <g id="Grupo_877847" data-name="Grupo 877847" transform="translate(59.144 75.676)">
              <path id="Trazado_599599" data-name="Trazado 599599" d="M395.077,487.8H380.587a1.154,1.154,0,1,1,0-2.309h14.491a1.154,1.154,0,1,1,0,2.309" transform="translate(-379.432 -485.492)" fill="#e5e5e5"/>
              <path id="Trazado_599600" data-name="Trazado 599600" d="M517.689,487.8H503.2a1.154,1.154,0,1,1,0-2.309h14.491a1.154,1.154,0,1,1,0,2.309" transform="translate(-482.932 -485.492)" fill="#e5e5e5"/>
            </g>
            <path id="Trazado_599660" data-name="Trazado 599660" d="M318.583,460.69l-.115,26.511c-.013,2.951,36.2,3.106,36.211.155l.115-26.511Zm19.876,14.164-.033,7.514a1.832,1.832,0,1,1-3.663-.016l.033-7.531a4.454,4.454,0,1,1,3.663.033" transform="translate(-253.676 -313.413)" fill="#fff"/>
            <path id="Trazado_599661" data-name="Trazado 599661" d="M359.938,412.391l-3.666-.016.008-1.785a11.269,11.269,0,0,0-22.538-.1l-.008,1.785-3.666-.016.008-1.785a14.935,14.935,0,0,1,29.869.127Z" transform="translate(-261.982 -266.862)" fill="#fff"/>
          </g>
        </g>
        <g id="Grupo_877844" data-name="Grupo 877844" transform="translate(0 0)">
          <g id="Grupo_877843" data-name="Grupo 877843" transform="translate(0 0)" clip-path="url(#clip-path)">
            <path id="Trazado_599603" data-name="Trazado 599603" d="M42.383,670.691A10.921,10.921,0,0,0,21.5,664.966a7.626,7.626,0,0,0-12.7,5.7H7.371a7.371,7.371,0,1,0,0,14.743H41.839a7.367,7.367,0,0,0,.544-14.715" transform="translate(0 -555.68)" fill="#b3d0ff"/>
            <path id="Trazado_599604" data-name="Trazado 599604" d="M765.294,112.738a10.921,10.921,0,0,1,20.882-5.725,7.626,7.626,0,0,1,12.7,5.7h1.425a7.371,7.371,0,1,1,0,14.743H765.839a7.367,7.367,0,0,1-.544-14.715" transform="translate(-640.241 -84.697)" fill="#b3d0ff"/>
          </g>
        </g>
      </g>
      <path id="Trazado_599657" data-name="Trazado 599657" d="M.632,1121.59H242.817a.632.632,0,0,0,0-1.263H.632a.632.632,0,1,0,0,1.263" transform="translate(520.776 7317.547)" fill="#0c3066"/>
    </g>
    <g id="Grupo_877858" data-name="Grupo 877858" transform="translate(1306.499 8258.558)">
      <g id="Grupo_877857" data-name="Grupo 877857" transform="translate(-7 -1)" clip-path="url(#clip-path-3)">
        <path id="Trazado_599662" data-name="Trazado 599662" d="M226.521,145.236l1.468,5.9.267,1.1c.3,1.393,9.5.8,8.848-.83l-.548-1.2-2.831-6.21Z" transform="translate(-206.783 -125.812)" fill="#f7a58e"/>
        <path id="Trazado_599663" data-name="Trazado 599663" d="M219.94,22.845c-.094,6.4,2.875,11.6,7.522,11.575s9.142-3.965,9.3-11.656a8.572,8.572,0,0,0-8.456-8.834c-4.646.022-8.3,4.014-8.37,8.915" transform="translate(-205.583 -12.172)" fill="#f7a58e"/>
        <path id="Trazado_599664" data-name="Trazado 599664" d="M188.984,0s-9.258.457-10.028,7.469c-1.028,6.154,3.589,1.63,5.474,5.76,2.159,4.73-.041,8.192-2.848,9.132,2.495,3.483,16.76,3.358,20.431-2.753C204.527,11.943,200.97.427,188.984,0" transform="translate(-166.397 -0.002)"/>
        <path id="Trazado_599665" data-name="Trazado 599665" d="M312.179,91.8a1.725,1.725,0,1,0,1.859-1.579,1.725,1.725,0,0,0-1.859,1.579" transform="translate(-296.084 -78.828)" fill="#f7a58e"/>
        <path id="Trazado_599666" data-name="Trazado 599666" d="M330.2,1043.014c-.434-.46-2.481-.467-2.668.213s.174,1.165-.69,2.243a8.752,8.752,0,0,0,2.8,0c.54-.157.992-2,.558-2.456" transform="translate(-312.69 -911.045)" fill="#fff"/>
        <path id="Trazado_599667" data-name="Trazado 599667" d="M227.7,516.136h-4.989c-.466-21.11-.377-44.09-.209-61.4.06-6.2.231-9.333,1.355-13.054,2.271-7.514,12.945-5.2,13.7,1.61.316,3.779.547,11.153-6.44,36.206,3.026,11.031-2.253,24.256-3.42,36.635" transform="translate(-206.804 -381.844)" fill="#00050d"/>
        <path id="Trazado_599668" data-name="Trazado 599668" d="M294.7,1055.669a5.421,5.421,0,0,0,2.774-1.235,3.039,3.039,0,0,0,2.668.5c1.416-.211,1.6-.869,2.618-.781.428,1.19,1.471,3.862.465,4.481H292.736c-.936-.855-.912-2.68,1.964-2.966" transform="translate(-281.586 -921.055)" fill="#fa4861"/>
        <path id="Trazado_599669" data-name="Trazado 599669" d="M128.723,1047.6c-.365-.386-2.085-.392-2.242.179s.146.979-.58,1.885a7.352,7.352,0,0,0,2.353,0c.454-.132.833-1.677.469-2.064" transform="translate(-85.811 -915.099)" fill="#fff"/>
        <path id="Trazado_599670" data-name="Trazado 599670" d="M98.256,446.709c1.02-7.783,14.866-6.983,15.786-.188.333,3.657,1.348,9.16-1.254,36.32,5.489,10.365,3.938,25.237,5.577,36.185.181,1.666-4.537,2.066-4.9.581-5.029-20.311-12.055-43.1-14.667-60-.948-6.126-1.043-9.046-.539-12.9" transform="translate(-71.786 -385.449)" fill="#00050d"/>
        <path id="Trazado_599671" data-name="Trazado 599671" d="M94.074,1053.392a3.861,3.861,0,0,0,2.142-1.484,2.944,2.944,0,0,0,2.585,1.072c1.416-.211,1.6-.869,2.618-.781.428,1.19,1.471,3.861.465,4.481h-10.2c-.936-.855-.483-3,2.392-3.288" transform="translate(-54.875 -919.099)" fill="#fa4861"/>
        <path id="Trazado_599672" data-name="Trazado 599672" d="M423.236,158.934l2.582.573c-.059,1.359.1,3.529,0,5.925l-4.343-.572c.661-2.413,1.3-4.528,1.761-5.926" transform="translate(-420.115 -138.868)" fill="#f7a58e"/>
        <path id="Trazado_599673" data-name="Trazado 599673" d="M278.095,206.442c.1,4.749.223,6.783.262,8.654l12.886-8.264c3.927-1.192,8.505,6.58,3.541,10.087,0,0-17.161,9.69-21.021,6.9-2.088-1.51-1.547-12.341-.011-17.947Z" transform="translate(-272.391 -179.878)" fill="#f7cc54"/>
        <path id="Trazado_599674" data-name="Trazado 599674" d="M420.061,132.1c1.193-1.4,3.813-.911,4.012-.873l-.252,3.87c-.059,1.911-2.429,1.976-3.394.329,0,0-1.4-1.947-.366-3.325" transform="translate(-418.106 -114.564)" fill="#f7a58e"/>
        <path id="Trazado_599675" data-name="Trazado 599675" d="M415.891,109.469c.869-4.216,1.747-3.651,1.747-3.651s-.141,1.489-.534,4.118c-.294,1.489-1.321.591-1.214-.468" transform="translate(-411.193 -92.436)" fill="#f7a58e"/>
        <path id="Trazado_599676" data-name="Trazado 599676" d="M132.82,211.034c-.875-4.258-1.344-8.463,3.045-11.106,2.6-1.567,10.967-2.687,14.878-1.393,3.941,1.761,3.089,9.443,3.827,21.573,2.716,6.053,3.9,8.042,4.7,13.938,0,0-1.453,4.443-11.688,4.448-4.648,0-11.493-.411-14.607-2.781.31-4.021,1.992-7.895,2.693-13.587,0,0-2.784-10.6-2.847-11.092" transform="translate(-117.013 -172.974)" fill="#f7cc54"/>
        <path id="Trazado_599677" data-name="Trazado 599677" d="M34.889,202.1a65.857,65.857,0,0,1,11.7,12.5c2.214,3.063,7.95,15.372,7.95,15.372l-3.65,2.691L41.019,219.2,28.956,209.31c-4.186-4.272,1.254-10.785,5.933-7.213" transform="translate(0.943 -175.68)" fill="#f7cc54"/>
        <path id="Trazado_599678" data-name="Trazado 599678" d="M21.754,420.871l-2.366-4.889c-.557,1.47-3.265,2.811-4.043,2.783,0,0,2.544,3.661,3.166,4.283s3.192-.431,3.243-2.178" transform="translate(35.261 -363.462)" fill="#f7a58e"/>
        <path id="Trazado_599679" data-name="Trazado 599679" d="M0,452.355c.009.036,0,.086.008.122A3.513,3.513,0,0,0,1.866,455.3a.212.212,0,0,0,.1.037C.675,455.078.29,456.8.945,457.2c1.893,1.281,4.591-.481,4.819-1.55.232-1.085-1.925-4.675-1.925-4.675-1.1-.888-3.915-.75-3.837,1.381" transform="translate(53.172 -393.586)" fill="#f7a58e"/>
        <path id="Trazado_599680" data-name="Trazado 599680" d="M11.089,463.265a3.392,3.392,0,0,0,1.921,2.845c1.06-.029,1.438-.093,2.45-.091a2.334,2.334,0,0,1-1.49-2.842c-1.037-.794-2.6-.1-2.88.088" transform="translate(42.093 -404.373)" fill="#e6856a"/>
        <path id="Trazado_599681" data-name="Trazado 599681" d="M20.875,451.879a12.264,12.264,0,0,0,.234,5.066s1.018.053.922-1.868c-.025-.5.047-1.586.542-1.948,1.523-1.007,1.769-1.93,1.21-2.688-.745-1.01-2.849.015-2.908,1.438" transform="translate(32.28 -393.216)" fill="#f7a58e"/>
        <path id="Trazado_599682" data-name="Trazado 599682" d="M10.2,493.552c-.826.573-3.014,1.684-3.36,1.41s1.4-2.136,2.533-2.383,1.25.679.826.973" transform="translate(47.667 -430.353)" fill="#f7a58e"/>
      </g>
    </g>
  </g>
</svg>
