<svg xmlns="http://www.w3.org/2000/svg" xmlns:xlink="http://www.w3.org/1999/xlink" width="295" height="264.182" viewBox="0 0 295 264.182">
  <defs>
    <clipPath id="clip-path">
      <rect id="Rectángulo_297748" data-name="Rectángulo 297748" width="167.436" height="217.729" fill="none"/>
    </clipPath>
  </defs>
  <g id="Grupo_877997" data-name="Grupo 877997" transform="translate(-180 -8177.145)">
    <path id="Trazado_599848" data-name="Trazado 599848" d="M12,0H283a12,12,0,0,1,12,12V220.5a12,12,0,0,1-12,12H12a12,12,0,0,1-12-12V12A12,12,0,0,1,12,0Z" transform="translate(475 8441.326) rotate(180)" fill="#ebfee1"/>
    <g id="Grupo_877848" data-name="Grupo 877848" transform="translate(205.775 8221.985)">
      <path id="Trazado_599605" data-name="Trazado 599605" d="M567.963,172.892S608.871,157.65,605,129.339C599.682,90.463,568.262,87.2,567.015,67c-1.38-22.371,4.794-49.1-21.345-62.394-36.194-18.4-65.64,25.152-95.7,12.883-55.777-22.766-90.807,47.991-57.62,91.448,25.134,35,12.865,63.359,12.865,63.359Z" transform="translate(-361.809 -0.004)" fill="#fff"/>
    </g>
    <g id="Grupo_877845" data-name="Grupo 877845" transform="translate(243.232 8177.145)">
      <g id="Grupo_877842" data-name="Grupo 877842" transform="translate(0 0)">
        <g id="Grupo_877841" data-name="Grupo 877841" transform="translate(0 0)" clip-path="url(#clip-path)">
          <path id="Trazado_599577" data-name="Trazado 599577" d="M360.7,11.326c-1.731-10.254-17.522-14.883-17.212-8.191L271.1,3.559c-5.014.029-9.079,4.54-9.084,10.08l-.15,190.381c0,5.739,4.132,10.431,9.242,10.475l73.9.634a5.914,5.914,0,0,0,2.67,2.571c8.475.181,12.539-4,14.024-8.736a11.393,11.393,0,0,0,.735-4.153c-.3-2.478-1.2-191.081-1.732-193.485" transform="translate(-221.044 -0.002)" fill="#ffbec7"/>
          <path id="Trazado_599578" data-name="Trazado 599578" d="M296.14,217.877l-84.823-.547c-5.293-.034-9.574-4.853-9.565-10.758l.318-195.79c.009-5.694,4.223-10.32,9.414-10.337l83.175-.27c5.232-.017,9.51,4.6,9.554,10.322l1.508,196.695c.046,5.933-4.245,10.719-9.581,10.685" transform="translate(-170.304 -0.149)" fill="#fff"/>
          <path id="Trazado_599579" data-name="Trazado 599579" d="M305.066,223.522a7.647,7.647,0,0,1-1.072.067l-84.8-.641c-4.548-.034-8.266-4.259-8.258-9.414l.293-195.575c.007-4.971,3.666-9.028,8.127-9.047l83.169-.362c.13,0,.262,0,.391.008a7.87,7.87,0,0,1,5.511,2.682,9.4,9.4,0,0,1,2.343,6.227l1.488,196.894c.035,4.667-3.047,8.6-7.2,9.161" transform="translate(-178.059 -7.217)"/>
          <path id="Trazado_599580" data-name="Trazado 599580" d="M323.135,72.106l1.43,196.209-95.527-.572.244-195.637Z" transform="translate(-193.337 -60.866)" fill="#f7cc54"/>
          <path id="Trazado_599581" data-name="Trazado 599581" d="M459.691,662.9H434.117a3.934,3.934,0,1,1,0-7.868h25.573a3.934,3.934,0,1,1,0,7.868" transform="translate(-363.128 -552.928)" fill="#002ed9"/>
          <path id="Trazado_599582" data-name="Trazado 599582" d="M364.9,475.528H298.771a3.934,3.934,0,1,1,0-7.868H364.9a3.934,3.934,0,1,1,0,7.868" transform="translate(-248.879 -394.764)" fill="#fff"/>
          <path id="Trazado_599583" data-name="Trazado 599583" d="M364.9,556.821H298.771a3.934,3.934,0,1,1,0-7.868H364.9a3.934,3.934,0,1,1,0,7.868" transform="translate(-248.879 -463.385)" fill="#fff"/>
          <g id="Grupo_877846" data-name="Grupo 877846" transform="translate(59.469 88.465)">
            <path id="Trazado_599584" data-name="Trazado 599584" d="M384.288,568.928a1.385,1.385,0,1,1-1.385-1.385,1.385,1.385,0,0,1,1.385,1.385" transform="translate(-381.518 -567.543)" fill="#e5e5e5"/>
            <path id="Trazado_599585" data-name="Trazado 599585" d="M414.755,568.928a1.385,1.385,0,1,1-1.385-1.385,1.385,1.385,0,0,1,1.385,1.385" transform="translate(-407.236 -567.543)" fill="#e5e5e5"/>
            <path id="Trazado_599586" data-name="Trazado 599586" d="M445.221,568.928a1.385,1.385,0,1,1-1.385-1.385,1.385,1.385,0,0,1,1.385,1.385" transform="translate(-432.954 -567.543)" fill="#e5e5e5"/>
            <path id="Trazado_599587" data-name="Trazado 599587" d="M475.688,568.928a1.385,1.385,0,1,1-1.385-1.385,1.385,1.385,0,0,1,1.385,1.385" transform="translate(-458.671 -567.543)" fill="#e5e5e5"/>
            <path id="Trazado_599588" data-name="Trazado 599588" d="M506.155,568.928a1.385,1.385,0,1,1-1.385-1.385,1.385,1.385,0,0,1,1.385,1.385" transform="translate(-484.389 -567.543)" fill="#e5e5e5"/>
            <path id="Trazado_599589" data-name="Trazado 599589" d="M536.622,568.928a1.385,1.385,0,1,1-1.385-1.385,1.385,1.385,0,0,1,1.385,1.385" transform="translate(-510.107 -567.543)" fill="#e5e5e5"/>
            <path id="Trazado_599590" data-name="Trazado 599590" d="M567.088,568.928a1.385,1.385,0,1,1-1.385-1.385,1.385,1.385,0,0,1,1.385,1.385" transform="translate(-535.825 -567.543)" fill="#e5e5e5"/>
            <path id="Trazado_599591" data-name="Trazado 599591" d="M597.555,568.928a1.385,1.385,0,1,1-1.385-1.385,1.385,1.385,0,0,1,1.385,1.385" transform="translate(-561.542 -567.543)" fill="#e5e5e5"/>
            <path id="Trazado_599592" data-name="Trazado 599592" d="M628.022,568.928a1.385,1.385,0,1,1-1.385-1.385,1.385,1.385,0,0,1,1.385,1.385" transform="translate(-587.26 -567.543)" fill="#e5e5e5"/>
          </g>
          <path id="Trazado_599593" data-name="Trazado 599593" d="M465.212,217.2a15.2,15.2,0,1,1-15.2-15.2,15.2,15.2,0,0,1,15.2,15.2" transform="translate(-367.035 -170.511)" fill="#fff"/>
          <path id="Trazado_599594" data-name="Trazado 599594" d="M506.5,243.657a4.8,4.8,0,0,0,3.729-1.827,4.68,4.68,0,0,0,1.028-2.968,4.776,4.776,0,1,0-9.552,0,4.676,4.676,0,0,0,1.028,2.968,4.818,4.818,0,0,0,3.767,1.827" transform="translate(-423.504 -197.582)" fill="#002ed9"/>
          <path id="Trazado_599595" data-name="Trazado 599595" d="M495.014,311.314c0,3.026-16.9,3.026-16.9,0l.005-3.526c.668-4.82,15.519-5.023,16.9,0Z" transform="translate(-403.591 -256.696)" fill="#002ed9"/>
          <path id="Trazado_599596" data-name="Trazado 599596" d="M323.077,560.013V559.8a1.548,1.548,0,1,0-3.1,0v.211h-.235v2.79c0,.482,3.576.482,3.576,0v-2.79Zm-2.544-.211a1,1,0,1,1,2,0v.211h-2Zm1.26,1.616v.806a.256.256,0,0,1-.269.248.238.238,0,0,1-.248-.248v-.806a.47.47,0,0,1-.248-.414.5.5,0,1,1,.765.414" transform="translate(-269.906 -471.237)" fill="#4d4d4d"/>
          <path id="Trazado_599597" data-name="Trazado 599597" d="M325.731,480.109a1.013,1.013,0,0,0,.787-.385.987.987,0,0,0,.217-.626,1.008,1.008,0,1,0-2.016,0,.986.986,0,0,0,.217.626,1.017,1.017,0,0,0,.795.385" transform="translate(-274.103 -403.565)" fill="#4d4d4d"/>
          <path id="Trazado_599598" data-name="Trazado 599598" d="M323.208,494.387c0,.638-3.584.638-3.584,0l.019-.744c.141-1.017,3.275-1.06,3.565,0Z" transform="translate(-269.803 -416.039)" fill="#4d4d4d"/>
          <g id="Grupo_877847" data-name="Grupo 877847" transform="translate(59.144 75.676)">
            <path id="Trazado_599599" data-name="Trazado 599599" d="M395.077,487.8H380.587a1.154,1.154,0,1,1,0-2.309h14.491a1.154,1.154,0,1,1,0,2.309" transform="translate(-379.432 -485.492)" fill="#e5e5e5"/>
            <path id="Trazado_599600" data-name="Trazado 599600" d="M517.689,487.8H503.2a1.154,1.154,0,1,1,0-2.309h14.491a1.154,1.154,0,1,1,0,2.309" transform="translate(-482.932 -485.492)" fill="#e5e5e5"/>
          </g>
          <path id="Trazado_599601" data-name="Trazado 599601" d="M504.25,844.5l-8.834-.057-1.986-39.562,13.17.084Z" transform="translate(-416.517 -679.422)" fill="#fff3d3"/>
          <path id="Trazado_599602" data-name="Trazado 599602" d="M510.717,1095.293a5.192,5.192,0,1,1-5.158-5.225,5.192,5.192,0,0,1,5.158,5.225" transform="translate(-422.345 -920.154)" fill="#fff3d3"/>
        </g>
      </g>
      <g id="Grupo_877844" data-name="Grupo 877844" transform="translate(0 0)">
        <g id="Grupo_877843" data-name="Grupo 877843" transform="translate(0 0)" clip-path="url(#clip-path)">
          <path id="Trazado_599603" data-name="Trazado 599603" d="M42.383,670.691A10.921,10.921,0,0,0,21.5,664.966a7.626,7.626,0,0,0-12.7,5.7H7.371a7.371,7.371,0,1,0,0,14.743H41.839a7.367,7.367,0,0,0,.544-14.715" transform="translate(0 -555.68)" fill="#b3d0ff"/>
          <path id="Trazado_599604" data-name="Trazado 599604" d="M765.294,112.738a10.921,10.921,0,0,1,20.882-5.725,7.626,7.626,0,0,1,12.7,5.7h1.425a7.371,7.371,0,1,1,0,14.743H765.839a7.367,7.367,0,0,1-.544-14.715" transform="translate(-640.241 -84.697)" fill="#b3d0ff"/>
        </g>
      </g>
    </g>
    <path id="Trazado_599656" data-name="Trazado 599656" d="M.632,1121.59H242.817a.632.632,0,0,0,0-1.263H.632a.632.632,0,1,0,0,1.263" transform="translate(205.776 7274.547)" fill="#0c3066"/>
  </g>
</svg>
