<svg xmlns="http://www.w3.org/2000/svg" xmlns:xlink="http://www.w3.org/1999/xlink" width="1011.445" height="474" viewBox="0 0 1011.445 474">
  <defs>
    <clipPath id="clip-path">
      <rect id="Rect치ngulo_284100" data-name="Rect치ngulo 284100" width="82.197" height="82.197" fill="#fff"/>
    </clipPath>
    <clipPath id="clip-path-2">
      <rect id="Rect치ngulo_284100-2" data-name="Rect치ngulo 284100" width="105" height="105" fill="#fff"/>
    </clipPath>
    <filter id="Elipse_180" x="561.5" y="20.709" width="180.709" height="180.709" filterUnits="userSpaceOnUse">
      <feOffset dx="5" dy="5" input="SourceAlpha"/>
      <feGaussianBlur stdDeviation="12.5" result="blur"/>
      <feFlood flood-opacity="0.161"/>
      <feComposite operator="in" in2="blur"/>
      <feComposite in="SourceGraphic"/>
    </filter>
    <clipPath id="clip-path-3">
      <circle id="Elipse_7381" data-name="Elipse 7381" cx="46.744" cy="46.744" r="46.744" transform="translate(0 0)" fill="none" stroke="#707070" stroke-width="1"/>
    </clipPath>
    <filter id="Elipse_180-2" x="665.5" y="105.709" width="180.709" height="180.709" filterUnits="userSpaceOnUse">
      <feOffset dx="5" dy="5" input="SourceAlpha"/>
      <feGaussianBlur stdDeviation="12.5" result="blur-2"/>
      <feFlood flood-opacity="0.161"/>
      <feComposite operator="in" in2="blur-2"/>
      <feComposite in="SourceGraphic"/>
    </filter>
    <filter id="Elipse_180-3" x="299.209" y="20.709" width="180.709" height="180.709" filterUnits="userSpaceOnUse">
      <feOffset dx="5" dy="5" input="SourceAlpha"/>
      <feGaussianBlur stdDeviation="12.5" result="blur-3"/>
      <feFlood flood-opacity="0.161"/>
      <feComposite operator="in" in2="blur-3"/>
      <feComposite in="SourceGraphic"/>
    </filter>
    <filter id="Elipse_180-4" x="429.646" y="0" width="180.709" height="180.709" filterUnits="userSpaceOnUse">
      <feOffset dx="5" dy="5" input="SourceAlpha"/>
      <feGaussianBlur stdDeviation="12.5" result="blur-4"/>
      <feFlood flood-opacity="0.161"/>
      <feComposite operator="in" in2="blur-4"/>
      <feComposite in="SourceGraphic"/>
    </filter>
    <filter id="Elipse_180-5" x="193.5" y="105.709" width="180.709" height="180.709" filterUnits="userSpaceOnUse">
      <feOffset dx="5" dy="5" input="SourceAlpha"/>
      <feGaussianBlur stdDeviation="12.5" result="blur-5"/>
      <feFlood flood-opacity="0.161"/>
      <feComposite operator="in" in2="blur-5"/>
      <feComposite in="SourceGraphic"/>
    </filter>
    <filter id="Elipse_180-6" x="725.645" y="227.709" width="180.709" height="180.709" filterUnits="userSpaceOnUse">
      <feOffset dx="5" dy="5" input="SourceAlpha"/>
      <feGaussianBlur stdDeviation="12.5" result="blur-6"/>
      <feFlood flood-opacity="0.161"/>
      <feComposite operator="in" in2="blur-6"/>
      <feComposite in="SourceGraphic"/>
    </filter>
    <filter id="Elipse_180-7" x="137.646" y="227.709" width="180.709" height="180.709" filterUnits="userSpaceOnUse">
      <feOffset dx="5" dy="5" input="SourceAlpha"/>
      <feGaussianBlur stdDeviation="12.5" result="blur-7"/>
      <feFlood flood-opacity="0.161"/>
      <feComposite operator="in" in2="blur-7"/>
      <feComposite in="SourceGraphic"/>
    </filter>
  </defs>
  <g id="Grupo_878002" data-name="Grupo 878002" transform="translate(-285 -9606.726)">
    <path id="Trazado_599860" data-name="Trazado 599860" d="M0,0H1011.445V274.473H0Z" transform="translate(285 9806.253)" fill="#fff2cf"/>
    <path id="Trazado_597999" data-name="Trazado 597999" d="M5169.612-149.074H4936.061A116.765,116.765,0,0,1,5052.835-265.85,116.767,116.767,0,0,1,5169.612-149.074Z" transform="translate(-4252.836 10132.784)" fill="#fff"/>
    <g id="Grupo_877339" data-name="Grupo 877339" transform="translate(1107.755 9822.103)">
      <g id="Grupo_852467" data-name="Grupo 852467" clip-path="url(#clip-path)">
        <path id="Trazado_597841" data-name="Trazado 597841" d="M0,41.1A41.1,41.1,0,1,0,41.1,0,41.1,41.1,0,0,0,0,41.1m20.651,0A20.448,20.448,0,1,1,41.1,61.546,20.447,20.447,0,0,1,20.651,41.1" transform="translate(0 0)" fill="#fff"/>
      </g>
    </g>
    <g id="Grupo_877341" data-name="Grupo 877341" transform="translate(390 9873.048)">
      <g id="Grupo_852467-2" data-name="Grupo 852467" clip-path="url(#clip-path-2)">
        <path id="Trazado_597841-2" data-name="Trazado 597841" d="M0,52.5A52.5,52.5,0,1,0,52.5,0,52.5,52.5,0,0,0,0,52.5m26.38,0A26.12,26.12,0,1,1,52.5,78.62,26.12,26.12,0,0,1,26.38,52.5" fill="#fff"/>
      </g>
    </g>
    <path id="Trazado_597992" data-name="Trazado 597992" d="M5196.653-286.593a307.111,307.111,0,0,1,28.988,127.1H5046.432a126.823,126.823,0,0,0-11.249-49.368Z" transform="translate(-4120.643 10143.202)" fill="#aeed8c"/>
    <path id="Trazado_597993" data-name="Trazado 597993" d="M5130.052-339.622a306.885,306.885,0,0,1,81.3,101.942L5049.9-159.929a126.908,126.908,0,0,0-31.549-39.591Z" transform="translate(-4137.738 10089.333)" fill="#d2f0c2"/>
    <path id="Trazado_597994" data-name="Trazado 597994" d="M5033.486-369.383a307.056,307.056,0,0,1,117.443,56.565l-111.7,140.1a127.164,127.164,0,0,0-45.659-21.953Z" transform="translate(-4162.912 10059.1)" fill="#aeed8c"/>
    <path id="Trazado_597995" data-name="Trazado 597995" d="M5011.206-373.512a304.4,304.4,0,0,1,65.213,7.116L5036.5-191.7a125.176,125.176,0,0,0-25.3-2.619,125.612,125.612,0,0,0-25.3,2.619L4946.034-366.4A304.163,304.163,0,0,1,5011.206-373.512Z" transform="translate(-4211.207 10054.905)" fill="#d2f0c2"/>
    <path id="Trazado_597996" data-name="Trazado 597996" d="M5002.577-369.383l39.873,174.714a126.317,126.317,0,0,0-45.618,21.953l-111.739-140.1A307.015,307.015,0,0,1,5002.577-369.383Z" transform="translate(-4273.113 10059.1)" fill="#aeed8c"/>
    <path id="Trazado_597997" data-name="Trazado 597997" d="M4923.922-339.622l111.739,140.1a126.888,126.888,0,0,0-31.547,39.591L4842.643-237.68A307.044,307.044,0,0,1,4923.922-339.622Z" transform="translate(-4316.234 10089.333)" fill="#d2f0c2"/>
    <path id="Trazado_597998" data-name="Trazado 597998" d="M4856.091-286.593l161.451,77.733a125.959,125.959,0,0,0-11.27,49.368H4827.063A306.885,306.885,0,0,1,4856.091-286.593Z" transform="translate(-4332.063 10143.202)" fill="#aeed8c"/>
    <g id="Grupo_877330" data-name="Grupo 877330" transform="translate(279 5885.935)">
      <g id="Grupo_875625" data-name="Grupo 875625" transform="translate(600 3774)">
        <g transform="matrix(1, 0, 0, 1, -594, -53.21)" filter="url(#Elipse_180)">
          <circle id="Elipse_180-8" data-name="Elipse 180" cx="52.855" cy="52.855" r="52.855" transform="translate(594 53.21)" fill="#fff"/>
        </g>
      </g>
      <g id="Enmascarar_grupo_700350" data-name="Enmascarar grupo 700350" transform="translate(606.111 3780.111)" clip-path="url(#clip-path-3)">
        <g id="Grupo_877560" data-name="Grupo 877560" transform="translate(-4827.603 613.768)">
          <path id="Trazado_599426" data-name="Trazado 599426" d="M4879.446-487.807l7.575-7.591c1.049-1.021,2.074-2.068,3.158-3.051.51-.463.424-.748-.039-1.151-.756-.66-1.47-1.367-2.355-2.2l9.32-2.828,4.187-1.167c-.987,4.781-1.956,9.476-2.937,14.228-.57-.187-.777-.741-1.231-.967-.407-.43-.829-.848-1.217-1.295-.3-.341-.521-.34-.843-.012q-4.044,4.11-8.11,8.2-3.018,2.979-6.038,5.955c-.5.488-1.02.949-1.531,1.422a3.747,3.747,0,0,1-4.535-1.079c-1.788-1.867-3.669-3.644-5.511-5.46-1.611-1.888-1.616-1.893-3.4-.177-1.425,1.374-2.836,2.76-4.254,4.141q-5.145,4.748-10.1,9.69c-1.109,1.19-2.547.549-3.844.672-.43.041-.323-.371-.324-.622-.01-1.571.016-3.142-.018-4.712a1.365,1.365,0,0,1,.54-1.064c1.241-1.222,2.473-2.455,3.708-3.683,3.428-3.231,6.81-6.509,10.111-9.87,1.03-.979,2.094-1.924,3.079-2.946a3.657,3.657,0,0,1,4.438-.966c2.384,2.1,4.524,4.449,6.79,6.67C4877.835-485.936,4877.821-485.921,4879.446-487.807Z" transform="translate(0 -69.631)" fill="#ee4237"/>
          <path id="Trazado_599427" data-name="Trazado 599427" d="M5045.4-574.256l-9.32,2.828c.886.831,1.6,1.539,2.356,2.2.462.4.549.688.039,1.151-1.084.983-2.109,2.03-3.158,3.051q-.018-10.255-.035-20.511c0-2.525.022-5.05-.015-7.574-.01-.682.177-.893.874-.884,2.77.038,5.541.053,8.309-.007.844-.018.955.287.953,1.022C5045.378-586.739,5045.394-580.5,5045.4-574.256Z" transform="translate(-148.294)" fill="#2c7fc8"/>
          <path id="Trazado_599428" data-name="Trazado 599428" d="M5035.18-441.761q4.057-4.1,8.11-8.2c.322-.328.547-.328.843.012.389.447.81.865,1.217,1.3-.01,6.969-.043,13.939-.006,20.907,0,.98-.272,1.213-1.213,1.19q-3.884-.1-7.773,0c-.89.02-1.18-.162-1.17-1.129C5035.235-432.376,5035.191-437.069,5035.18-441.761Z" transform="translate(-148.227 -113.51)" fill="#2b7fc8"/>
          <path id="Trazado_599429" data-name="Trazado 599429" d="M4961.424-491.18c-1.626,1.885-1.612,1.871-3.382.136-2.267-2.221-4.407-4.569-6.79-6.67.009-3.745.046-7.49.009-11.234-.009-.863.208-1.134,1.1-1.114,2.588.06,5.18.067,7.768,0,.984-.026,1.3.195,1.289,1.246-.059,5.424-.028,10.85-.025,16.275C4961.389-492.089,4961.411-491.635,4961.424-491.18Z" transform="translate(-81.977 -66.257)" fill="#60b0d6"/>
          <path id="Trazado_599430" data-name="Trazado 599430" d="M4877.528-455.886c-3.3,3.361-6.684,6.639-10.111,9.87-.008-5.05,0-10.1-.04-15.148-.005-.723.266-.873.921-.866q4.155.043,8.311,0c.68-.008.916.187.9.887C4877.477-459.393,4877.518-457.639,4877.528-455.886Z" transform="translate(-15.77 -104.173)" fill="#6ee0ee"/>
          <path id="Trazado_599431" data-name="Trazado 599431" d="M4951.391-406.147c1.841,1.816,3.723,3.594,5.511,5.46a3.746,3.746,0,0,0,4.534,1.079c.008,2.345,0,4.69.036,7.035.009.589-.174.789-.773.783-2.87-.025-5.74-.02-8.61,0-.524,0-.746-.135-.742-.7C4951.375-397.047,4951.379-401.6,4951.391-406.147Z" transform="translate(-82.052 -148.287)" fill="#5fb0d6"/>
          <path id="Trazado_599432" data-name="Trazado 599432" d="M4867.269-377.638q4.959-4.942,10.1-9.69c.012,3.227.015,6.453.046,9.679.005.569-.224.714-.749.711q-4.314-.024-8.628,0C4867.507-376.931,4867.255-377.1,4867.269-377.638Z" transform="translate(-15.683 -163.142)" fill="#6edfed"/>
        </g>
      </g>
    </g>
    <g id="Grupo_877558" data-name="Grupo 877558" transform="translate(383 5970.935)">
      <g id="Grupo_875625-2" data-name="Grupo 875625" transform="translate(600 3774)">
        <g transform="matrix(1, 0, 0, 1, -698, -138.21)" filter="url(#Elipse_180-2)">
          <circle id="Elipse_180-9" data-name="Elipse 180" cx="52.855" cy="52.855" r="52.855" transform="translate(698 138.21)" fill="#fff"/>
        </g>
      </g>
      <g id="Enmascarar_grupo_700350-2" data-name="Enmascarar grupo 700350" transform="translate(606.111 3780.111)" clip-path="url(#clip-path-3)">
        <g id="Grupo_877557" data-name="Grupo 877557" transform="translate(-4092.008 572.741)">
          <path id="Trazado_599383" data-name="Trazado 599383" d="M4152.761-479.015c-.415.02-.83.056-1.245.056q-18.494,0-36.988,0c-2.721,0-3.6-.877-3.6-3.576q0-24.806,0-49.612c0-2.664.922-3.571,3.619-3.577l9.872-.023c-.053,1.247.3,2.515-.187,3.741l-.1-.053.1.06a1.513,1.513,0,0,1,.019.169c-2.417-.018-4.834-.044-7.251-.05-1.946-.005-2.237.294-2.238,2.249q0,21.763,0,43.526c0,3.308,0,3.31,3.325,3.311q16.509,0,33.017,0c.458,0,.915-.037,1.372-.057l.324-.023a.1.1,0,0,1-.029.131Q4152.761-480.879,4152.761-479.015Z" transform="translate(0 -15.979)" fill="#837683"/>
          <path id="Trazado_599384" data-name="Trazado 599384" d="M4164.063-547.806a1.639,1.639,0,0,0-.02-.169l.008-.007c.486-1.226.134-2.494.187-3.741-.068-1.232.558-1.749,1.743-1.7.332.013.667-.02,1,0,1.829.132,3.248-.055,4.5-1.922,1.754-2.622,5.868-2.117,7.461.666a2.249,2.249,0,0,0,2.3,1.277,11.126,11.126,0,0,1,3.34.117c-.534,1.283-.2,2.626-.251,3.939-.063,1.708-.171,1.869-1.854,1.869q-9.092,0-18.185,0Zm10.946-3.885a1.373,1.373,0,0,0,1.293-1.433,1.288,1.288,0,0,0-1.437-1.355,1.241,1.241,0,0,0-1.317,1.335C4173.528-552.255,4174.035-551.793,4175.008-551.692Z" transform="translate(-39.821)" fill="#e3a871"/>
          <path id="Trazado_599385" data-name="Trazado 599385" d="M4267.313-485.3a5.266,5.266,0,0,0,.723-.986c1.135-2.659,3.47-3.06,5.708-.863q-4.5,7.75-9,15.5-3,5.157-6.031,10.3l-3.757-2.035a17.017,17.017,0,0,1,1.51-2.828c1.456-2.73,3.227-5.283,4.534-8.1a26.966,26.966,0,0,0,2.485-4.249A49.319,49.319,0,0,0,4267.313-485.3Z" transform="translate(-107.974 -51.348)" fill="#fde077"/>
          <path id="Trazado_599386" data-name="Trazado 599386" d="M4278.051-393.067v-3.727a1.509,1.509,0,0,0,.2-.136c1.826.217,2.5-.138,2.5-1.495.017-5.361-.018-10.723-.034-16.084a70.532,70.532,0,0,1,3.825-6.586c.012,8.444.041,16.888.024,25.332a2.651,2.651,0,0,1-2.778,2.745C4280.545-393,4279.3-393.048,4278.051-393.067Z" transform="translate(-125.29 -101.928)" fill="#685e68"/>
          <path id="Trazado_599387" data-name="Trazado 599387" d="M4285.386-520.634a49.3,49.3,0,0,1-3.831,6.742q-.015-7.78-.029-15.559c0-2.2-.256-2.434-2.456-2.3l-.006-.092q0-1.911,0-3.822c1.118-.014,2.237-.063,3.355-.035a2.775,2.775,0,0,1,2.923,3C4285.374-528.675,4285.373-524.655,4285.386-520.634Z" transform="translate(-126.047 -16.01)" fill="#685e68"/>
          <path id="Trazado_599388" data-name="Trazado 599388" d="M4278.479-467.421a70.393,70.393,0,0,0-3.825,6.587l-2.649,4.505-.33.3-1.716-1.065q3.016-5.15,6.031-10.3,4.51-7.744,9-15.5a2.583,2.583,0,0,1,.335,3.374c-2.1,3.665-4.213,7.32-6.314,10.982C4278.811-468.177,4278.657-467.793,4278.479-467.421Z" transform="translate(-119.224 -55.602)" fill="#fdcf65"/>
          <path id="Trazado_599389" data-name="Trazado 599389" d="M4165.025-536.161q9.092,0,18.185,0c1.683,0,1.791-.161,1.854-1.869.049-1.313-.283-2.656.251-3.939.9.129,1.039.789,1.051,1.531q-.005,2.017-.008,4.035c.045,1.2-.606,1.619-1.721,1.572-.789-.033-1.58-.006-2.37-.006q-7.8,0-15.6,0C4165.758-534.835,4164.966-534.966,4165.025-536.161Z" transform="translate(-40.555 -11.313)" fill="#c58b5a"/>
          <path id="Trazado_599390" data-name="Trazado 599390" d="M4250.257-531.818q0-2.018.007-4.035l7.2.081q0,1.911,0,3.822Z" transform="translate(-104.454 -15.898)" fill="#867a86"/>
          <path id="Trazado_599391" data-name="Trazado 599391" d="M4157.261-520.157l7.214-.132,0,.092q0,11.052,0,22.1c-1.307,2.814-3.078,5.367-4.534,8.1a17.016,17.016,0,0,0-1.51,2.828c-.031,1.654-.079,3.307-.085,4.96,0,.836.418,1.188,1.195.744,1.47-.841,2.911-1.734,4.363-2.6l.33-.3c.248.222.213.52.213.807q-.015,6.134-.032,12.267a1.514,1.514,0,0,1-.2.136.1.1,0,0,0,.029-.131c-.018-.048-.036-.1-.054-.143-.082-.1-.158-.094-.228.012a1.132,1.132,0,0,0-.042.154c-.458.02-.914.057-1.372.057q-16.509,0-33.018,0c-3.325,0-3.325,0-3.325-3.311q0-21.763,0-43.526c0-1.955.292-2.255,2.238-2.249,2.417.007,4.833.033,7.251.051l.229.332c-.059,1.194.733,1.325,1.644,1.325q7.8,0,15.6,0c.79,0,1.582-.027,2.37.006C4156.655-518.538,4157.306-518.955,4157.261-520.157Zm-5.137,28.373a1.113,1.113,0,0,0-.566-.932.985.985,0,0,0-1.155.15c-.637.457-1,1.507-1.726,1.492s-1.128-1.008-1.74-1.5a.905.905,0,0,0-1.341.013c-.4.407-.539.993-.066,1.324,1.782,1.25,1.675,2.373-.014,3.611-.448.328-.333.919.081,1.328a.8.8,0,0,0,1.229.06c1.292-1.783,2.467-1.721,3.739.019.3.416.842.271,1.217-.1a.886.886,0,0,0,.072-1.332,6.075,6.075,0,0,0-.965-.973c-.8-.589-.66-1.059.027-1.645A2.877,2.877,0,0,0,4152.124-491.784Zm-12.658-18.445c0-2.8-.048-2.844-2.855-2.843-.415,0-.832-.021-1.245.014a1.366,1.366,0,0,0-1.428,1.527c.013.871-.007,1.743.005,2.614a1.34,1.34,0,0,0,1.488,1.456c.83.018,1.66.011,2.49,0a1.363,1.363,0,0,0,1.544-1.526C4139.463-509.4,4139.465-509.814,4139.466-510.229Zm-.012,31.469c0-3.1,0-3.106-3.077-3.1a5.727,5.727,0,0,0-1.239.06c-.643.146-1.171.49-1.187,1.243-.022,1.038-.007,2.076,0,3.115a.972.972,0,0,0,.542.923,5.875,5.875,0,0,0,4.122.136C4139.868-476.757,4139.34-477.966,4139.454-478.761Zm-2.869-18.363c.375,0,.749,0,1.124,0,1.489-.017,1.734-.26,1.746-1.756.006-.791.018-1.582-.007-2.372a1.291,1.291,0,0,0-1.669-1.36c-1.318.239-3.132-.948-3.829,1.23a.437.437,0,0,0,0,.124c0,.916-.021,1.832.006,2.747a1.263,1.263,0,0,0,1.51,1.39C4135.834-497.144,4136.21-497.125,4136.584-497.124Zm2.868,7.809c0-.541.016-1.083,0-1.623a1.1,1.1,0,0,0-1.15-1.21c-4.658,0-4.385-.654-4.356,4.031a1.179,1.179,0,0,0,0,.125,1.313,1.313,0,0,0,1.365,1.331c.956.034,1.916.038,2.872,0a1.225,1.225,0,0,0,1.265-1.275C4139.475-488.4,4139.452-488.857,4139.452-489.315Zm14.717-13.038a1.022,1.022,0,0,0-.576-.9.928.928,0,0,0-1.142.2c-.962.856-1.91,1.728-2.868,2.588-.556.5-1.049,1.233-1.7,1.423-.853.249-1.175-.827-1.772-1.27a1.008,1.008,0,0,0-1.454,0,.936.936,0,0,0,.024,1.438c.594.638,1.25,1.219,1.831,1.869a1.356,1.356,0,0,0,2.237.051c1.578-1.474,3.183-2.921,4.774-4.381A1.5,1.5,0,0,0,4154.169-502.354Zm-.007,20.86a1.037,1.037,0,0,0-.558-.909,1.018,1.018,0,0,0-1.247.261q-1.44,1.291-2.865,2.6c-1.625,1.487-1.625,1.494-3.314.137-.466-.375-.948-.589-1.442-.117a.991.991,0,0,0,.016,1.541c.6.635,1.251,1.22,1.84,1.864.719.787,1.365.739,2.123.024,1.573-1.484,3.19-2.92,4.794-4.372A1.654,1.654,0,0,0,4154.162-481.493Zm-8.725-29.535a1.007,1.007,0,0,0-.937.554.994.994,0,0,0,.176,1.16c.665.688,1.363,1.345,2.013,2.046s1.263.621,1.929.007c1.622-1.494,3.267-2.962,4.9-4.447.523-.477.975-1.03.371-1.706s-1.184-.3-1.717.192c-1.257,1.153-2.539,2.28-3.778,3.453-.539.51-.936.511-1.446-.046C4146.508-510.292,4146.13-510.887,4145.438-511.028Z" transform="translate(-11.458 -27.559)" fill="#ebedef"/>
          <path id="Trazado_599392" data-name="Trazado 599392" d="M4163.757-520.954l-.1-.06.1.053Z" transform="translate(-39.535 -27.022)" fill="#7b6d7a"/>
          <path id="Trazado_599393" data-name="Trazado 599393" d="M4276.87-324.945a1.193,1.193,0,0,1,.042-.154l.115.008.113-.02c.019.048.037.1.054.143Z" transform="translate(-124.405 -173.885)" fill="#ceced3"/>
          <path id="Trazado_599394" data-name="Trazado 599394" d="M4203.47-543.969c-.973-.1-1.479-.563-1.46-1.453a1.242,1.242,0,0,1,1.318-1.335,1.288,1.288,0,0,1,1.436,1.355A1.373,1.373,0,0,1,4203.47-543.969Z" transform="translate(-68.284 -7.722)" fill="#ebedef"/>
          <path id="Trazado_599395" data-name="Trazado 599395" d="M4279.1-497.887q0-11.052,0-22.1c2.2-.138,2.453.1,2.457,2.3q.014,7.779.029,15.559A27.035,27.035,0,0,1,4279.1-497.887Z" transform="translate(-126.074 -27.765)" fill="#ceced3"/>
          <path id="Trazado_599396" data-name="Trazado 599396" d="M4260.169-384.856c-1.453.871-2.893,1.764-4.363,2.6-.777.444-1.2.092-1.2-.744.007-1.653.055-3.307.086-4.96l3.756,2.035Z" transform="translate(-107.718 -126.772)" fill="#685e68"/>
          <path id="Trazado_599397" data-name="Trazado 599397" d="M4278.312-377.205q.017-6.134.032-12.267c0-.286.035-.585-.213-.807l2.649-4.505c.016,5.361.05,10.723.033,16.084C4280.809-377.343,4280.138-376.988,4278.312-377.205Z" transform="translate(-125.35 -121.653)" fill="#ceced3"/>
          <path id="Trazado_599398" data-name="Trazado 599398" d="M4209.085-409.621a2.877,2.877,0,0,1-1.208,1.52c-.687.586-.829,1.056-.027,1.645a6.073,6.073,0,0,1,.965.973.886.886,0,0,1-.072,1.332c-.375.368-.913.513-1.217.1-1.272-1.741-2.447-1.8-3.739-.019a.8.8,0,0,1-1.229-.06c-.414-.409-.529-1-.081-1.328,1.689-1.238,1.8-2.361.013-3.611-.472-.331-.331-.917.067-1.324a.905.905,0,0,1,1.341-.013c.612.491,1.025,1.484,1.74,1.5s1.088-1.036,1.726-1.492a.985.985,0,0,1,1.155-.15A1.114,1.114,0,0,1,4209.085-409.621Z" transform="translate(-68.419 -109.722)" fill="#fc6671"/>
          <path id="Trazado_599399" data-name="Trazado 599399" d="M4162.612-488.607c0,.415,0,.83,0,1.245a1.363,1.363,0,0,1-1.544,1.525c-.83.009-1.66.016-2.49,0a1.339,1.339,0,0,1-1.487-1.456c-.012-.871.007-1.743-.006-2.614a1.366,1.366,0,0,1,1.428-1.527c.413-.035.83-.014,1.245-.014C4162.565-491.451,4162.613-491.4,4162.612-488.607Z" transform="translate(-34.605 -49.181)" fill="#fc6671"/>
          <path id="Trazado_599400" data-name="Trazado 599400" d="M4162.6-363.657c-.113.795.415,2-.842,2.378a5.876,5.876,0,0,1-4.122-.136.974.974,0,0,1-.542-.923c0-1.038-.019-2.077,0-3.115.017-.753.545-1.1,1.188-1.243a5.723,5.723,0,0,1,1.239-.06C4162.6-366.763,4162.6-366.761,4162.6-363.657Z" transform="translate(-34.605 -142.662)" fill="#8cc9fc"/>
          <path id="Trazado_599401" data-name="Trazado 599401" d="M4159.728-444.495c-.375,0-.75-.02-1.124,0a1.263,1.263,0,0,1-1.51-1.39c-.027-.915-.006-1.831-.006-2.747a.419.419,0,0,1,0-.124c.7-2.178,2.51-.991,3.828-1.23a1.291,1.291,0,0,1,1.668,1.359c.026.79.014,1.582.008,2.372-.012,1.5-.256,1.74-1.746,1.756C4160.477-444.491,4160.1-444.494,4159.728-444.495Z" transform="translate(-34.601 -80.188)" fill="#fde077"/>
          <path id="Trazado_599402" data-name="Trazado 599402" d="M4162.575-405.106c0,.458.022.917-.005,1.374a1.225,1.225,0,0,1-1.264,1.275c-.956.042-1.916.038-2.872,0a1.313,1.313,0,0,1-1.365-1.331c0-.041,0-.083,0-.125-.029-4.684-.3-4.03,4.356-4.031a1.1,1.1,0,0,1,1.15,1.21C4162.591-406.189,4162.575-405.647,4162.575-405.106Z" transform="translate(-34.581 -111.768)" fill="#6df4c2"/>
          <path id="Trazado_599403" data-name="Trazado 599403" d="M4208.45-451.65a1.49,1.49,0,0,1-.642,1.025c-1.592,1.46-3.2,2.907-4.775,4.381a1.356,1.356,0,0,1-2.237-.051c-.58-.65-1.236-1.232-1.831-1.869a.936.936,0,0,1-.024-1.438,1.008,1.008,0,0,1,1.454,0c.6.443.919,1.519,1.772,1.27.65-.19,1.143-.923,1.7-1.423.958-.861,1.906-1.733,2.868-2.588a.928.928,0,0,1,1.142-.2A1.017,1.017,0,0,1,4208.45-451.65Z" transform="translate(-65.74 -78.261)" fill="#867a86"/>
          <path id="Trazado_599404" data-name="Trazado 599404" d="M4208.567-368.363a1.651,1.651,0,0,1-.653,1.025c-1.6,1.452-3.221,2.888-4.793,4.372-.758.716-1.4.764-2.124-.023-.588-.644-1.241-1.23-1.84-1.864a.992.992,0,0,1-.017-1.541c.495-.472.976-.258,1.442.117,1.688,1.356,1.69,1.35,3.314-.137q1.426-1.306,2.865-2.6a1.018,1.018,0,0,1,1.247-.261A1.036,1.036,0,0,1,4208.567-368.363Z" transform="translate(-65.864 -140.688)" fill="#837683"/>
          <path id="Trazado_599405" data-name="Trazado 599405" d="M4199.888-491.508c.691.141,1.071.736,1.508,1.213.51.557.907.555,1.446.046,1.239-1.172,2.521-2.3,3.777-3.453.534-.49,1.112-.87,1.718-.192s.153,1.23-.371,1.706c-1.63,1.485-3.275,2.953-4.9,4.447-.667.614-1.269.706-1.929-.007s-1.348-1.358-2.013-2.046a1,1,0,0,1-.176-1.16A1.008,1.008,0,0,1,4199.888-491.508Z" transform="translate(-65.908 -47.078)" fill="#837683"/>
          <path id="Trazado_599406" data-name="Trazado 599406" d="M4277.265-325.329l-.113.02-.115-.008C4277.108-325.423,4277.184-325.433,4277.265-325.329Z" transform="translate(-124.53 -173.667)" fill="#f7f9fa"/>
        </g>
      </g>
    </g>
    <g id="Grupo_877335" data-name="Grupo 877335" transform="translate(16.709 5885.935)">
      <g id="Grupo_875625-3" data-name="Grupo 875625" transform="translate(600 3774)">
        <g transform="matrix(1, 0, 0, 1, -331.71, -53.21)" filter="url(#Elipse_180-3)">
          <circle id="Elipse_180-10" data-name="Elipse 180" cx="52.855" cy="52.855" r="52.855" transform="translate(331.71 53.21)" fill="#fff"/>
        </g>
      </g>
      <g id="Enmascarar_grupo_700350-3" data-name="Enmascarar grupo 700350" transform="translate(606.111 3780.111)" clip-path="url(#clip-path-3)">
        <g id="Grupo_877555" data-name="Grupo 877555" transform="translate(-3415.119 568.724)">
          <path id="Trazado_599339" data-name="Trazado 599339" d="M3446.8-480.264a22.8,22.8,0,0,1-8.521-10.352,21.837,21.837,0,0,1,18.447-29.814c.591-.049,1.189-.017,1.783-.023q.006,3.315.011,6.63c-.222.016-.444.037-.667.047a15.123,15.123,0,0,0-13.852,19.2,15.185,15.185,0,0,0,14.515,10.993q0,3.314-.008,6.629c-.407.006-.815.032-1.221.013a26.412,26.412,0,0,1-7.135-1.562l-3.01-1.552Z" transform="translate(0 -23.394)" fill="#fc9002"/>
          <path id="Trazado_599340" data-name="Trazado 599340" d="M3534.156-430.005l.008-6.629-.024-.077c5.4.324,11.262-3.34,13.661-8.576a15.251,15.251,0,0,0-.462-13.948c1.74,0,3.479.011,5.218-.009.367,0,.849.208,1.04-.356l.732-.392c3.891,8.885.833,19.821-7.205,25.766l-1.252.926a.289.289,0,0,1-.093.085l-.234.114-3.007,1.559c-.388.125-.775.248-1.163.373A19.632,19.632,0,0,1,3534.156-430.005Z" transform="translate(-75.645 -70.339)" fill="#fe651c"/>
          <path id="Trazado_599341" data-name="Trazado 599341" d="M3569.514-542.289c2.285-2.427,4.583-4.842,6.845-7.289.613-.664,1.229-1.249,2.19-.913,1,.349,1.209,1.208,1.213,2.158q.021,3.894.052,7.788c-2.271,2.234-4.558,4.451-6.806,6.708a35,35,0,0,0-3.309,3.435c-.675-.427-.585-1.138-.661-1.786q.006-1.468.014-2.936c.009-1.786.037-3.573.016-5.359A3.3,3.3,0,0,1,3569.514-542.289Z" transform="translate(-102.74)" fill="#77e1f7"/>
          <path id="Trazado_599342" data-name="Trazado 599342" d="M3572-495.533a35.1,35.1,0,0,1,3.31-3.435c2.248-2.257,4.535-4.474,6.806-6.708,2.6,0,5.2.016,7.8,0,.932-.007,1.7.2,2.039,1.175.33.942-.206,1.543-.826,2.122q-3.7,3.454-7.4,6.918l-.733.392-6.375.052a.106.106,0,0,0-.12.012l-2.865.05c-.522-.214-1.14-.043-1.622-.413A1.244,1.244,0,0,1,3572-495.533Z" transform="translate(-105.035 -34.868)" fill="#4bb9eb"/>
          <path id="Trazado_599343" data-name="Trazado 599343" d="M3546.046-309.821c1.562,0,3.125-.015,4.688,0,1.195.009,1.949.669,1.952,1.67a1.716,1.716,0,0,1-1.943,1.679q-8.258-.005-16.516-.032v-3.281l8.38-.077Z" transform="translate(-75.711 -186.898)" fill="#4b5358"/>
          <path id="Trazado_599344" data-name="Trazado 599344" d="M3470.2-309.729v3.281c-5.545.012-11.092.032-16.636.027a1.677,1.677,0,0,1-1.8-1.711,1.684,1.684,0,0,1,1.774-1.629c1.637-.034,3.275-.021,4.913-.029l3.455.028Z" transform="translate(-11.682 -186.957)" fill="#5a6267"/>
          <path id="Trazado_599345" data-name="Trazado 599345" d="M3542.429-518.944a3.3,3.3,0,0,0-.446,1.806c.021,1.786-.007,3.572-.015,5.358-.366-.169-.735-.332-1.1-.506a13.561,13.561,0,0,0-6.716-1.508l.023-.078q-.005-3.315-.01-6.631A19.825,19.825,0,0,1,3542.429-518.944Z" transform="translate(-75.655 -23.345)" fill="#fe651c"/>
          <path id="Trazado_599346" data-name="Trazado 599346" d="M3575.137-333.7l-3.44-.044q0-2.559,0-5.119l3.007-1.559.234-.114a.284.284,0,0,0,.093-.085Q3575.083-337.156,3575.137-333.7Z" transform="translate(-104.801 -163.023)" fill="#373b40"/>
          <path id="Trazado_599347" data-name="Trazado 599347" d="M3485.124-333.023l-3.455-.028q.044-3.345.089-6.689l.293-.01,3.01,1.552Q3485.092-335.611,3485.124-333.023Z" transform="translate(-34.906 -163.695)" fill="#485054"/>
          <path id="Trazado_599348" data-name="Trazado 599348" d="M3482.189-340.487l-.292.01-.05-.222Z" transform="translate(-35.044 -162.959)" fill="#5a6267"/>
          <path id="Trazado_599349" data-name="Trazado 599349" d="M3481.845-460.54a15.184,15.184,0,0,1-14.515-10.993,15.123,15.123,0,0,1,13.852-19.2c.222-.009.444-.031.666-.047l-.024.078q.01,3.311.02,6.622c-4.635.41-7.913,3.336-8.309,7.415-.5,5.119,2.865,8.935,8.308,9.429q-.011,3.31-.022,6.621Z" transform="translate(-23.325 -46.434)" fill="#feefee"/>
          <path id="Trazado_599350" data-name="Trazado 599350" d="M3534.14-435.127q.01-3.311.021-6.621l-.019-.089a3.474,3.474,0,0,0,1.327-.038c6.08-1.093,8.885-7.375,5.748-12.874l3.021-3.154,2.864-.049.144.254.093.047a15.251,15.251,0,0,1,.462,13.948C3545.4-438.467,3539.542-434.8,3534.14-435.127Z" transform="translate(-75.645 -71.923)" fill="#eadcd7"/>
          <path id="Trazado_599351" data-name="Trazado 599351" d="M3592.645-458.189l6.376-.052c-.192.564-.674.352-1.041.356-1.74.02-3.479.009-5.218.009l-.093-.046C3592.662-458.01,3592.653-458.1,3592.645-458.189Z" transform="translate(-121.068 -71.699)" fill="#fd641b"/>
          <path id="Trazado_599352" data-name="Trazado 599352" d="M3585.377-340.238l-.234.114Z" transform="translate(-115.244 -163.317)" fill="#4b5358"/>
          <path id="Trazado_599353" data-name="Trazado 599353" d="M3534.172-483.874q-.01-3.311-.02-6.622a13.559,13.559,0,0,1,6.717,1.508c.363.174.733.337,1.1.506q-.008,1.469-.015,2.936l-3.232,3.08a6.976,6.976,0,0,0-4.567-1.319Z" transform="translate(-75.654 -46.642)" fill="#eadcd7"/>
          <path id="Trazado_599354" data-name="Trazado 599354" d="M3532.907-465.214l3.231-3.081c.077.649-.014,1.36.661,1.787a1.245,1.245,0,0,0,.01.162c-.514.019-.748.445-1.053.748q-3.817,3.8-7.621,7.609a2.764,2.764,0,0,1-1.019.835,1.585,1.585,0,0,1,.148-2.342c.362-.41.745-.8,1.119-1.2Z" transform="translate(-69.839 -63.894)" fill="#4c5053"/>
          <path id="Trazado_599355" data-name="Trazado 599355" d="M3528.691-450.387a2.763,2.763,0,0,0,1.019-.835q3.814-3.8,7.622-7.609c.3-.3.54-.73,1.053-.748.482.37,1.1.2,1.622.413l-3.021,3.153c-1.82,1.8-3.646,3.591-5.456,5.4a2.569,2.569,0,0,1-1.608.9A1.528,1.528,0,0,1,3528.691-450.387Z" transform="translate(-71.414 -70.66)" fill="#373b40"/>
          <path id="Trazado_599356" data-name="Trazado 599356" d="M3592.229-458.053c.008.089.018.179.024.267l-.144-.255A.1.1,0,0,1,3592.229-458.053Z" transform="translate(-120.653 -71.835)" fill="#a98e80"/>
          <path id="Trazado_599357" data-name="Trazado 599357" d="M3503.983-451.348a1.528,1.528,0,0,0,1.231.674q-.005,3.306-.01,6.612l.019.089c-5.442-.495-8.8-4.311-8.307-9.429.4-4.079,3.674-7.006,8.309-7.415l-.019.089q.022,2.919.045,5.839c-.374.4-.758.79-1.119,1.2A1.585,1.585,0,0,0,3503.983-451.348Z" transform="translate(-46.705 -69.699)" fill="#fc9002"/>
          <path id="Trazado_599358" data-name="Trazado 599358" d="M3534.151-430.717q0-3.306.01-6.612a2.567,2.567,0,0,0,1.608-.9c1.81-1.808,3.636-3.6,5.456-5.4,3.138,5.5.332,11.78-5.747,12.874A3.474,3.474,0,0,1,3534.151-430.717Z" transform="translate(-75.653 -83.044)" fill="#fd641b"/>
          <path id="Trazado_599359" data-name="Trazado 599359" d="M3534.2-454.647l-.045-5.839a6.976,6.976,0,0,1,4.567,1.319Z" transform="translate(-75.657 -69.941)" fill="#fd641b"/>
        </g>
      </g>
    </g>
    <g id="Grupo_877336" data-name="Grupo 877336" transform="translate(147.146 5865.226)">
      <g id="Grupo_875625-4" data-name="Grupo 875625" transform="translate(600 3774)">
        <g transform="matrix(1, 0, 0, 1, -462.15, -32.5)" filter="url(#Elipse_180-4)">
          <circle id="Elipse_180-11" data-name="Elipse 180" cx="52.855" cy="52.855" r="52.855" transform="translate(462.15 32.5)" fill="#fff"/>
        </g>
      </g>
      <g id="Enmascarar_grupo_700350-4" data-name="Enmascarar grupo 700350" transform="translate(606.111 3780.111)" clip-path="url(#clip-path-3)">
        <g id="Grupo_877556" data-name="Grupo 877556" transform="translate(-3746.992 589.502)">
          <path id="Trazado_599360" data-name="Trazado 599360" d="M3807.306-559.24a22.534,22.534,0,0,1,3.417,12.211,21.716,21.716,0,0,1-3.208,11.1c-.237.389-.46.787-.689,1.181a28.938,28.938,0,0,1-5.5,5.525,24.761,24.761,0,0,1-9.374,3.67,22.135,22.135,0,0,1-25.084-18.471A22.069,22.069,0,0,1,3789.58-569.4a21.665,21.665,0,0,1,16.228,8.144c.155.184.243.44.519.5A5.513,5.513,0,0,0,3807.306-559.24Zm-3.759,1.2a15.5,15.5,0,0,0-6.824-5.741,17.385,17.385,0,0,0-11.494-1.629,18.3,18.3,0,0,0-14.5,14.364,5.338,5.338,0,0,0-.286,1.866,16.774,16.774,0,0,0,.638,7.079,17.3,17.3,0,0,0,6.526,9.307,2.574,2.574,0,0,0,.287.3,18.5,18.5,0,0,0,19.784,1.151,18.1,18.1,0,0,0,9.333-14.964,16.445,16.445,0,0,0-2.42-10.105A4.365,4.365,0,0,0,3803.547-558.044Z" transform="translate(0 0)" fill="#265288"/>
          <path id="Trazado_599361" data-name="Trazado 599361" d="M3956.361-378.647c2.051,2.039,4.147,4.037,6.14,6.132a3.806,3.806,0,0,1-.078,5.433,3.778,3.778,0,0,1-5.355.069c-2.764-2.673-5.436-5.441-8.146-8.17l3.566-3.634a.81.81,0,0,0,.181-.024A36.335,36.335,0,0,1,3956.361-378.647Z" transform="translate(-143.668 -150.169)" fill="#255288"/>
          <path id="Trazado_599362" data-name="Trazado 599362" d="M3962.25-559.5a3.656,3.656,0,0,1,.378-4.237,3.5,3.5,0,0,1,3.593-1.23,3.932,3.932,0,0,1,2.854,2.685q-.006.89-.012,1.779c-1.205,2.642-2.839,3.318-5.564,2.3Zm3.176-3.733a1.856,1.856,0,0,0-1.817,1.815,1.8,1.8,0,0,0,1.879,1.836,1.777,1.777,0,0,0,1.755-1.844A1.837,1.837,0,0,0,3965.426-563.237Z" transform="translate(-153.778 -3.431)" fill="#2a558a"/>
          <path id="Trazado_599363" data-name="Trazado 599363" d="M3938.047-400.1a.807.807,0,0,1-.18.024,8.258,8.258,0,0,0-1.15.013c-1.749.258-3.495.544-5.241.82l-1.108-1.07a28.963,28.963,0,0,0,5.5-5.525l3.9,3.973Z" transform="translate(-129.045 -128.912)" fill="#b10e25"/>
          <path id="Trazado_599364" data-name="Trazado 599364" d="M3935.593-377.869c1.747-.276,3.492-.561,5.242-.82a8.25,8.25,0,0,1,1.15-.013l-3.567,3.634Z" transform="translate(-133.164 -150.284)" fill="#ee2a4b"/>
          <path id="Trazado_599365" data-name="Trazado 599365" d="M3996.252-550.292q.006-.89.012-1.779c1.613,0,3.227.028,4.838-.027.784-.027.712.425.716.932s.05.941-.729.91C3999.48-550.321,3997.865-550.286,3996.252-550.292Z" transform="translate(-180.967 -13.646)" fill="#ec2748"/>
          <path id="Trazado_599366" data-name="Trazado 599366" d="M3956.125-538.838l1.25,1.3-2.415,2.4a5.5,5.5,0,0,1-.98-1.514Z" transform="translate(-147.654 -24.097)" fill="#ee2a4b"/>
          <path id="Trazado_599367" data-name="Trazado 599367" d="M3966.6-385.326l1.722-1.765a14.311,14.311,0,0,1,1.97,1.96A36.337,36.337,0,0,0,3966.6-385.326Z" transform="translate(-157.601 -143.684)" fill="#1a3768"/>
          <path id="Trazado_599368" data-name="Trazado 599368" d="M3786-537.324a18.3,18.3,0,0,1,14.5-14.364,17.385,17.385,0,0,1,11.494,1.629c-.013.669.587.908.938,1.312a15.559,15.559,0,0,1,3.7,6.565l-.685.752a4.244,4.244,0,0,0-2.537-.427,3.743,3.743,0,0,0-2.536,5.553l-5.943,5.908a4.493,4.493,0,0,0-3.856-.062l-4-4a4.178,4.178,0,0,0,.1-3.465,3.539,3.539,0,0,0-3.363-2.127,3.725,3.725,0,0,0-3.586,2.75Z" transform="translate(-15.271 -13.727)" fill="#b6e3fd"/>
          <path id="Trazado_599369" data-name="Trazado 599369" d="M3791.337-462.845a17.3,17.3,0,0,1-6.526-9.307,16.774,16.774,0,0,1-.638-7.079l4.514-.019c1.15,2.584,2.793,3.263,5.539,2.29l4.046,4.042c-.124.4-.278.8-.364,1.21a3.62,3.62,0,0,0,1.723,3.888,3.64,3.64,0,0,0,4.157-.31c1.388-1.113,1.673-2.63.9-4.791l5.857-5.849c2.87.79,4.14.348,5.412-1.879a7.061,7.061,0,0,1-.151,4.026,17.8,17.8,0,0,1-9.338,12.64,17.6,17.6,0,0,1-10.914,2.02C3794.117-462.15,3792.759-462.635,3791.337-462.845Z" transform="translate(-13.733 -69.955)" fill="#b6e3fd"/>
          <path id="Trazado_599370" data-name="Trazado 599370" d="M3818.453-484.456c1.422.209,2.78.695,4.217.883a17.6,17.6,0,0,0,10.913-2.02,17.8,17.8,0,0,0,9.339-12.64,7.065,7.065,0,0,0,.151-4.026,4.142,4.142,0,0,0-.273-3.292l2.637-2.52a16.452,16.452,0,0,1,2.42,10.106A18.1,18.1,0,0,1,3838.524-483a18.5,18.5,0,0,1-19.784-1.151A2.531,2.531,0,0,1,3818.453-484.456Z" transform="translate(-40.85 -48.344)" fill="#98c6de"/>
          <path id="Trazado_599371" data-name="Trazado 599371" d="M3913.3-534.973a15.565,15.565,0,0,0-3.7-6.565c-.351-.4-.951-.644-.937-1.312a15.5,15.5,0,0,1,6.824,5.741l-2,2.1A1.721,1.721,0,0,1,3913.3-534.973Z" transform="translate(-111.941 -20.936)" fill="#98c6de"/>
          <path id="Trazado_599372" data-name="Trazado 599372" d="M3789.143-480.916l-4.514.019a5.361,5.361,0,0,1,.285-1.866l4.229.022Z" transform="translate(-14.19 -68.288)" fill="#e93051"/>
          <path id="Trazado_599373" data-name="Trazado 599373" d="M3931.413-513.663l2-2.1a4.368,4.368,0,0,1,1.041,1.63l-2.637,2.52a.146.146,0,0,1,.042-.1A7.443,7.443,0,0,0,3931.413-513.663Z" transform="translate(-129.87 -42.284)" fill="#b10e25"/>
          <path id="Trazado_599374" data-name="Trazado 599374" d="M3805.948-491.059v-1.825a3.726,3.726,0,0,1,3.586-2.75,3.539,3.539,0,0,1,3.363,2.127,4.176,4.176,0,0,1-.1,3.466l-1.308,1.271C3808.741-487.8,3807.1-488.474,3805.948-491.059Zm5.432-.977a1.783,1.783,0,0,0-1.849-1.747,1.767,1.767,0,0,0-1.779,1.811,1.814,1.814,0,0,0,1.893,1.82A1.846,1.846,0,0,0,3811.38-492.036Z" transform="translate(-30.995 -58.145)" fill="#275389"/>
          <path id="Trazado_599375" data-name="Trazado 599375" d="M3907.959-502.665a4.146,4.146,0,0,1,.273,3.292c-1.272,2.227-2.542,2.668-5.412,1.879l-1.207-1.306a3.742,3.742,0,0,1,2.536-5.553,4.25,4.25,0,0,1,2.538.427l1.314,1.16A.144.144,0,0,0,3907.959-502.665Zm-1.358,1.924a1.789,1.789,0,0,0-1.79-1.813,1.852,1.852,0,0,0-1.854,1.879,1.846,1.846,0,0,0,1.868,1.75A1.766,1.766,0,0,0,3906.6-500.741Z" transform="translate(-106.008 -51.23)" fill="#265288"/>
          <path id="Trazado_599376" data-name="Trazado 599376" d="M3855.939-450.558c.773,2.162.488,3.679-.9,4.791a3.64,3.64,0,0,1-4.157.31,3.619,3.619,0,0,1-1.723-3.888c.086-.411.241-.807.364-1.211l1.267-1.313a4.5,4.5,0,0,1,3.856.062Zm-3.174,3.746a1.754,1.754,0,0,0,1.779-1.809,1.793,1.793,0,0,0-1.779-1.823,1.855,1.855,0,0,0-1.856,1.878A1.807,1.807,0,0,0,3852.765-446.812Z" transform="translate(-64.985 -92.317)" fill="#265288"/>
          <path id="Trazado_599377" data-name="Trazado 599377" d="M3876.639-470.792l-1.293-1.248,5.943-5.907,1.207,1.306Z" transform="translate(-85.685 -72.083)" fill="#ec2748"/>
          <path id="Trazado_599378" data-name="Trazado 599378" d="M3837.4-465.243l-1.267,1.313-4.046-4.042,1.308-1.272Z" transform="translate(-51.59 -78.942)" fill="#e93051"/>
          <path id="Trazado_599379" data-name="Trazado 599379" d="M3928.642-503.916l-1.314-1.16.684-.752a1.68,1.68,0,0,0,.182-.039A7.426,7.426,0,0,1,3928.642-503.916Z" transform="translate(-126.65 -50.081)" fill="#ec2748"/>
          <path id="Trazado_599380" data-name="Trazado 599380" d="M3818.088-485.153a1.846,1.846,0,0,1-1.736,1.884,1.814,1.814,0,0,1-1.893-1.82,1.767,1.767,0,0,1,1.779-1.811A1.783,1.783,0,0,1,3818.088-485.153Z" transform="translate(-37.702 -65.028)" fill="#b3e0fa"/>
          <path id="Trazado_599381" data-name="Trazado 599381" d="M3913.369-493.846a1.766,1.766,0,0,1-1.775,1.816,1.847,1.847,0,0,1-1.868-1.75,1.852,1.852,0,0,1,1.854-1.879A1.789,1.789,0,0,1,3913.369-493.846Z" transform="translate(-112.777 -58.125)" fill="#b3e0fa"/>
          <path id="Trazado_599382" data-name="Trazado 599382" d="M3859.564-440.016a1.806,1.806,0,0,1-1.856-1.755,1.854,1.854,0,0,1,1.855-1.878,1.793,1.793,0,0,1,1.78,1.823A1.754,1.754,0,0,1,3859.564-440.016Z" transform="translate(-71.784 -99.112)" fill="#b3e0fa"/>
        </g>
      </g>
    </g>
    <g id="Grupo_877334" data-name="Grupo 877334" transform="translate(-89 5970.935)">
      <g id="Grupo_875625-5" data-name="Grupo 875625" transform="translate(600 3774)">
        <g transform="matrix(1, 0, 0, 1, -226, -138.21)" filter="url(#Elipse_180-5)">
          <circle id="Elipse_180-12" data-name="Elipse 180" cx="52.855" cy="52.855" r="52.855" transform="translate(226 138.21)" fill="#fff"/>
        </g>
      </g>
      <g id="Enmascarar_grupo_700350-5" data-name="Enmascarar grupo 700350" transform="translate(606.111 3780.111)" clip-path="url(#clip-path-3)">
        <g id="Grupo_877554" data-name="Grupo 877554" transform="translate(-3041.256 551.461)">
          <path id="Trazado_599329" data-name="Trazado 599329" d="M3224.112-503.624c2.785-.005,5.572-.059,8.356-.007a12.127,12.127,0,0,1,12.28,12.6c-.211,6.315-5.56,11.318-12.264,11.483a4.171,4.171,0,0,0-1.547.1c-.042.268.173.344.283.481.47.586,1.595,1.11,1.4,1.648-.294.816-1.224,1.408-1.9,2.078-.451.446-.673-.051-.913-.286q-2.859-2.8-5.7-5.625v-.271c1.867-1.847,3.759-3.67,5.587-5.555.571-.589.887-.54,1.436.019,1.658,1.69,1.682,1.667.021,3.414-.1.1-.186.209-.305.344a8.73,8.73,0,0,0,10.405-7.366,8.555,8.555,0,0,0-7.772-9.511c-3.114-.181-6.245-.074-9.368-.1A17.236,17.236,0,0,1,3224.112-503.624Z" transform="translate(-127.452 -23.474)" fill="#06cdb3"/>
          <path id="Trazado_599330" data-name="Trazado 599330" d="M3079.335-410.351c-3.091.019-6.189-.093-9.27.093a8.1,8.1,0,0,0-7.135,4.989,7.928,7.928,0,0,0,.844,8.444c2.151,2.965,5.183,3.919,8.736,3.555.025-.375-.275-.475-.431-.668-.429-.526-1.463-1.086-1.27-1.477a7.953,7.953,0,0,1,2.008-2.149c.441-.39.66.181.894.41,1.884,1.836,3.749,3.692,5.62,5.542v.29c-1.87,1.849-3.759,3.68-5.6,5.56-.513.525-.89.656-1.341.015-.483-.688-1.72-1.06-1.508-1.916.167-.674,1.149-1.147,1.883-1.812a2.9,2.9,0,0,0-1.7-.243,12.2,12.2,0,0,1-12.184-10.024,12.012,12.012,0,0,1,10.392-13.924,99.963,99.963,0,0,1,10.062-.132A17.049,17.049,0,0,1,3079.335-410.351Z" transform="translate(0 -92.694)" fill="#06dec3"/>
          <path id="Trazado_599331" data-name="Trazado 599331" d="M3148.764-345.02v-.29c.019-2.437.072-4.874.037-7.31-.012-.853.148-1.223,1.112-1.177,2.507.121,5.022-.1,7.53.118q0,8.59-.007,17.18c-2.586.013-5.173,0-7.759.054-.743.016-.874-.277-.871-.933C3148.82-339.925,3148.783-342.472,3148.764-345.02Z" transform="translate(-69.433 -138.996)" fill="#506e73"/>
          <path id="Trazado_599332" data-name="Trazado 599332" d="M3148.783-525.524c.019-2.471.071-4.942.038-7.412-.011-.847.146-1.2,1.1-1.166,2.507.085,5.017.049,7.526.062q0,8.59.008,17.179c-2.657.209-5.318.035-7.977.094-.721.016-.64-.471-.643-.93q-.026-3.765-.057-7.529Z" transform="translate(-69.448 0)" fill="#fe7919"/>
          <path id="Trazado_599333" data-name="Trazado 599333" d="M3186.631-516.814q0-8.59-.008-17.179c2.587-.012,5.175-.005,7.762-.049.646-.011.848.181.842.831-.017,2.053.029,4.107.051,6.16a17.311,17.311,0,0,0,0,3.444c-.022,2.012-.058,4.023-.057,6.035,0,.542-.093.847-.736.836C3191.868-516.782,3189.249-516.792,3186.631-516.814Z" transform="translate(-98.618 -0.047)" fill="#fd4c01"/>
          <path id="Trazado_599334" data-name="Trazado 599334" d="M3186.62-336.433q0-8.59.007-17.18c2.736-.143,5.472-.127,8.209-.009.024.22.035.447.305.524.024,4.377.066,8.755.061,13.132,0,1.166.516,2.728-.237,3.388-.655.575-2.179.174-3.319.176C3189.97-336.4,3188.3-336.421,3186.62-336.433Z" transform="translate(-98.616 -139.062)" fill="#3e5959"/>
          <path id="Trazado_599335" data-name="Trazado 599335" d="M3195.219-435.187v.271c-.019,2.427-.063,4.855-.044,7.282.006.828-.186,1.233-1.125,1.2-2.5-.1-5,.105-7.5-.106q0-8.508,0-17.016c2.65-.206,5.3-.051,7.955-.082.715-.008.639.5.644.943C3195.179-440.194,3195.2-437.691,3195.219-435.187Z" transform="translate(-98.563 -69.717)" fill="#fe9f01"/>
          <path id="Trazado_599336" data-name="Trazado 599336" d="M3157.432-443.445q0,8.508,0,17.016c-2.591.019-5.182.019-7.772.068-.716.014-.783-.342-.793-.917-.035-1.978.131-3.96-.088-5.936a17.033,17.033,0,0,0,0-3.447,51.576,51.576,0,0,0,.077-5.822c0-.8.227-1.057,1.033-1.036C3152.4-443.457,3154.918-443.465,3157.432-443.445Z" transform="translate(-69.444 -69.831)" fill="#fbbf01"/>
          <path id="Trazado_599337" data-name="Trazado 599337" d="M3085.39-516.428v.3c-1.869,1.847-3.757,3.677-5.6,5.552-.5.513-.8.6-1.356.042-1.758-1.757-1.783-1.731-.086-3.5.095-.1.184-.2.443-.494h-3.5c-2.592,0-5.185-.022-7.776.013-.731.01-.973-.185-.97-.958.008-2.546-.028-2.546,2.456-2.546h9.557l.119-.243c-.326-.3-.663-.588-.977-.9-1.053-1.045-1.05-1.048.018-2.115,1.374-1.373,1.37-1.368,2.788.038Q3082.943-518.829,3085.39-516.428Z" transform="translate(-6.054 -9.096)" fill="#09dfc4"/>
          <path id="Trazado_599338" data-name="Trazado 599338" d="M3222.785-352.8c-.27-.077-.281-.3-.305-.524C3222.974-353.382,3222.9-353.108,3222.785-352.8Z" transform="translate(-126.26 -139.355)" fill="#506e73"/>
        </g>
      </g>
    </g>
    <g id="Grupo_877332" data-name="Grupo 877332" transform="translate(443.145 6092.935)">
      <g id="Grupo_875625-6" data-name="Grupo 875625" transform="translate(600 3774)">
        <g transform="matrix(1, 0, 0, 1, -758.14, -260.21)" filter="url(#Elipse_180-6)">
          <circle id="Elipse_180-13" data-name="Elipse 180" cx="52.855" cy="52.855" r="52.855" transform="translate(758.14 260.21)" fill="#fff"/>
        </g>
      </g>
      <g id="Enmascarar_grupo_700350-6" data-name="Enmascarar grupo 700350" transform="translate(606.111 3780.111)" clip-path="url(#clip-path-3)">
        <g id="Grupo_877559" data-name="Grupo 877559" transform="translate(-4470.02 580.236)">
          <path id="Trazado_599407" data-name="Trazado 599407" d="M4581.894-559.273q10.474-.013,20.948-.02a1.818,1.818,0,0,1,1.956,1.97c.011,7.32,0,14.641.016,21.961a2.383,2.383,0,0,1-1.294,2.016c-2.627-.007-5.255-.023-7.882-.015a1.727,1.727,0,0,1-1.827-1.143,2.033,2.033,0,0,1,.489-2.321c.17-.162.366-.3.54-.457a4.424,4.424,0,0,0,1.391-4.853,4.31,4.31,0,0,0-3.787-3.179,4.49,4.49,0,0,0-4.791,2.531,4.614,4.614,0,0,0,1.3,5.628c1.447,1.246,1.417,2.565-.081,3.742l-6.971.013a2.535,2.535,0,0,1-1.216-2.471c.037-2.256.02-4.513.008-6.77a1.778,1.778,0,0,0-2.644-1.628,2.451,2.451,0,0,0-3.1.951,3.6,3.6,0,0,1-2.35,1.453l-.2.111-.61.044c-.082-.455-.511-.5-.819-.667a4.6,4.6,0,0,1-1.037-7.115c.562-.6,1.456-.708,1.855-1.464l.611.045.2.111a3.625,3.625,0,0,1,2.351,1.453,2.441,2.441,0,0,0,3.1.946,1.775,1.775,0,0,0,2.646-1.62c.012-2.258.031-4.516-.009-6.774A2.573,2.573,0,0,1,4581.894-559.273Z" transform="translate(-62.098 -0.125)" fill="#fed682"/>
          <path id="Trazado_599408" data-name="Trazado 599408" d="M4524.036-406.935a2.45,2.45,0,0,1-2.473,1.36c-6.814-.05-13.628-.039-20.442-.049a2.526,2.526,0,0,1-1.213-2.371q.03-10.605,0-21.21a2.121,2.121,0,0,1,1.415-2.286l-.008-.071,6.809.07c1.468,1.3,1.472,2.462.02,3.788a7.483,7.483,0,0,0-.775.794,4.616,4.616,0,0,0-.278,5.214c.9,1.447,2.947,2.57,4.562,2.107a3.847,3.847,0,0,0,2.372-1.013,4.54,4.54,0,0,0-.147-7.143,2.222,2.222,0,0,1-.875-2.577c.368-1.09,1.277-1.233,2.3-1.218,2.43.034,4.862.011,7.292.01a2.953,2.953,0,0,1,1.419,1.411l.01,7.281c0,1.954.577,2.494,2.572,2.417.76.015,1.625.286,2.227-.267.941-.864,1.922-1.673,2.906-2.482l.655.1a.257.257,0,0,0,.135.039,4.469,4.469,0,0,1,3.521,4.464,4.485,4.485,0,0,1-3.518,4.47.25.25,0,0,0-.137.036l-.655.108c-.407-.741-1.4-.746-1.828-1.47-.761-1.3-1.967-1.463-3.3-1.285-2.025-.075-2.574.458-2.574,2.507Q4524.027-410.567,4524.036-406.935Z" transform="translate(-7.256 -101.963)" fill="#a4ea78"/>
          <path id="Trazado_599409" data-name="Trazado 599409" d="M4634.488-460.954a4.485,4.485,0,0,0,3.519-4.47,4.469,4.469,0,0,0-3.521-4.464l-.06-.06-.076.021-.654-.1a4.364,4.364,0,0,0-3.907,1.683c-.33.375-.595.832-1.159.907a3.1,3.1,0,0,1-.831-2.486c.054-2.022.038-4.046.007-6.069a2.408,2.408,0,0,1,1.233-2.356l-.019-.072,6.971-.013c.167.014.335.036.5.041,1.315.039,2.053-.352,2.377-1.255.348-.967.037-1.682-.987-2.574a4.418,4.418,0,0,1-1.608-4.279,4.9,4.9,0,0,1,3.289-3.835,4.309,4.309,0,0,1,3.787,3.179,4.424,4.424,0,0,1-1.391,4.853c-.173.16-.369.3-.54.457a2.033,2.033,0,0,0-.489,2.321,1.727,1.727,0,0,0,1.827,1.144c2.627-.008,5.255.009,7.883.015a2.39,2.39,0,0,1,1.3,2.4c-.033,7.045-.016,14.09-.018,21.135,0,1.74-.634,2.376-2.372,2.375q-10.263-.011-20.528-.031a2.52,2.52,0,0,1-1.222-2.469c.04-1.988.05-3.979-.005-5.966a3.113,3.113,0,0,1,.833-2.484c.564.076.827.535,1.156.911a4.371,4.371,0,0,0,3.909,1.687l.655-.108.076.024Z" transform="translate(-109.219 -55.103)" fill="#18bcf5"/>
          <path id="Trazado_599410" data-name="Trazado 599410" d="M4522.6-533.4c-2.432,0-4.862.024-7.293-.01-1.021-.014-1.931.129-2.3,1.218a2.221,2.221,0,0,0,.874,2.577,4.54,4.54,0,0,1,.147,7.143,3.845,3.845,0,0,1-2.372,1.013,18.144,18.144,0,0,1-1.649-.923,4.667,4.667,0,0,1,.246-7.383,1.984,1.984,0,0,0,.715-2.338,1.787,1.787,0,0,0-1.935-1.3c-.3.016-.6.025-.905.037l-6.809-.07a2.22,2.22,0,0,1-1.408-2.4q.026-10.5,0-21.006a2.562,2.562,0,0,1,1.221-2.467q10.465-.015,20.932-.033a2.022,2.022,0,0,1,1.936,1.356c.011,2.455.007,4.91.04,7.366a2.724,2.724,0,0,1-.833,2.178,2.441,2.441,0,0,1-3.1-.946,3.624,3.624,0,0,0-2.35-1.452l-.2-.111-.611-.045a4.615,4.615,0,0,0-5.033,4.676,4.616,4.616,0,0,0,5.034,4.57l.609-.044.2-.112a3.6,3.6,0,0,0,2.35-1.453,2.451,2.451,0,0,1,3.1-.951,2.828,2.828,0,0,1,.832,2.267c-.027,2.408-.011,4.817-.012,7.225A2.541,2.541,0,0,1,4522.6-533.4Z" transform="translate(-7.258 -0.092)" fill="#fe6464"/>
          <path id="Trazado_599411" data-name="Trazado 599411" d="M4493.872-559.394a2.564,2.564,0,0,0-1.221,2.467q.035,10.5,0,21.006a2.221,2.221,0,0,0,1.408,2.4l.008.07-1.874-.047a2.233,2.233,0,0,1-1.377-2.328c.034-6.9.075-13.8-.013-20.695C4490.774-559.058,4491.779-559.655,4493.872-559.394Z" transform="translate(0)" fill="#d1555a"/>
          <path id="Trazado_599412" data-name="Trazado 599412" d="M4492.233-431.448l1.873.047a2.122,2.122,0,0,0-1.415,2.286q.017,10.605,0,21.21a2.528,2.528,0,0,0,1.213,2.371c-.3.01-.607.03-.91.027a1.873,1.873,0,0,1-2.114-2.117q-.01-7.648,0-15.3c0-2.026.05-4.053-.019-6.077A2.323,2.323,0,0,1,4492.233-431.448Z" transform="translate(-0.035 -102.054)" fill="#8cd66e"/>
          <path id="Trazado_599413" data-name="Trazado 599413" d="M4614.822-548.521a2.724,2.724,0,0,0,.833-2.178c-.033-2.455-.029-4.911-.04-7.365.627-1.344,1.778-1.484,3.057-1.327a2.572,2.572,0,0,0-1.213,2.477c.04,2.257.021,4.516.009,6.774A1.775,1.775,0,0,1,4614.822-548.521Z" transform="translate(-98.875 -0.005)" fill="#fec26e"/>
          <path id="Trazado_599414" data-name="Trazado 599414" d="M4621.533-358.141a3.113,3.113,0,0,0-.833,2.485c.056,1.987.045,3.978.006,5.966a2.519,2.519,0,0,0,1.222,2.469c-1.26.147-2.432.091-3.026-1.307q-.005-3.632-.009-7.263c0-2.049.549-2.581,2.574-2.507C4621.49-358.247,4621.513-358.194,4621.533-358.141Z" transform="translate(-102.121 -160.369)" fill="#24a0e9"/>
          <path id="Trazado_599415" data-name="Trazado 599415" d="M4665.171-490.608a4.9,4.9,0,0,0-3.288,3.835,4.418,4.418,0,0,0,1.608,4.279c1.023.892,1.334,1.607.987,2.574-.325.9-1.062,1.294-2.377,1.255-.168,0-.335-.027-.5-.041,1.5-1.178,1.527-2.5.081-3.743a4.613,4.613,0,0,1-1.3-5.628A4.49,4.49,0,0,1,4665.171-490.608Z" transform="translate(-134.826 -54.831)" fill="#25a0e9"/>
          <path id="Trazado_599416" data-name="Trazado 599416" d="M4615.652-476.479c0-2.408-.016-4.817.012-7.225a2.827,2.827,0,0,0-.833-2.267,1.779,1.779,0,0,1,2.644,1.628c.012,2.257.029,4.514-.008,6.77a2.535,2.535,0,0,0,1.216,2.471l.019.072-1.661-.043A2.583,2.583,0,0,1,4615.652-476.479Z" transform="translate(-98.883 -58.423)" fill="#fec26e"/>
          <path id="Trazado_599417" data-name="Trazado 599417" d="M4564.151-508.954a4.616,4.616,0,0,1-5.034-4.57,4.615,4.615,0,0,1,5.033-4.676c-.4.756-1.293.866-1.855,1.465a4.6,4.6,0,0,0,1.037,7.115C4563.641-509.451,4564.069-509.409,4564.151-508.954Z" transform="translate(-54.462 -32.881)" fill="#fec06e"/>
          <path id="Trazado_599418" data-name="Trazado 599418" d="M4586.964-517.946l.2.111Z" transform="translate(-76.665 -33.09)" fill="#fec06e"/>
          <path id="Trazado_599419" data-name="Trazado 599419" d="M4587.164-473.321l-.2.112Z" transform="translate(-76.663 -68.669)" fill="#fec06e"/>
          <path id="Trazado_599420" data-name="Trazado 599420" d="M4533.742-431.379c.3-.012.6-.021.906-.037a1.787,1.787,0,0,1,1.935,1.3,1.986,1.986,0,0,1-.716,2.338,4.667,4.667,0,0,0-.246,7.383,18.087,18.087,0,0,0,1.65.923c-1.615.463-3.662-.659-4.561-2.107a4.616,4.616,0,0,1,.277-5.214,7.441,7.441,0,0,1,.775-.794C4535.213-428.916,4535.21-430.08,4533.742-431.379Z" transform="translate(-32.87 -102.076)" fill="#d1575a"/>
          <path id="Trazado_599421" data-name="Trazado 599421" d="M4620.236-431.422l1.661.043a2.409,2.409,0,0,0-1.233,2.356c.031,2.023.046,4.047-.007,6.069a3.1,3.1,0,0,0,.831,2.486c-.021.054-.044.107-.067.159-2,.076-2.57-.463-2.573-2.417q0-3.64-.01-7.281A2.546,2.546,0,0,1,4620.236-431.422Z" transform="translate(-102.078 -102.074)" fill="#24a0e9"/>
          <path id="Trazado_599422" data-name="Trazado 599422" d="M4631.656-358.348c-.021-.053-.042-.106-.066-.157,1.337-.178,2.543-.013,3.3,1.285.424.723,1.42.729,1.827,1.47a4.37,4.37,0,0,1-3.908-1.687C4632.483-357.814,4632.221-358.272,4631.656-358.348Z" transform="translate(-112.244 -160.162)" fill="#8ad673"/>
          <path id="Trazado_599423" data-name="Trazado 599423" d="M4631.578-387.524c.023-.053.046-.106.068-.159.564-.075.829-.532,1.158-.907a4.365,4.365,0,0,1,3.908-1.683c-.985.809-1.966,1.618-2.907,2.482C4633.2-387.238,4632.338-387.509,4631.578-387.524Z" transform="translate(-112.235 -134.859)" fill="#8ad673"/>
          <path id="Trazado_599424" data-name="Trazado 599424" d="M4660.131-389.74l.075-.021.06.06A.256.256,0,0,1,4660.131-389.74Z" transform="translate(-135 -135.29)" fill="#8ad673"/>
          <path id="Trazado_599425" data-name="Trazado 599425" d="M4660.271-345.394l-.062.06-.075-.024A.249.249,0,0,1,4660.271-345.394Z" transform="translate(-135.003 -170.663)" fill="#8ad673"/>
        </g>
      </g>
    </g>
    <g id="Grupo_877333" data-name="Grupo 877333" transform="translate(-144.854 6092.935)">
      <g id="Grupo_875625-7" data-name="Grupo 875625" transform="translate(600 3774)">
        <g transform="matrix(1, 0, 0, 1, -170.15, -260.21)" filter="url(#Elipse_180-7)">
          <circle id="Elipse_180-14" data-name="Elipse 180" cx="52.855" cy="52.855" r="52.855" transform="translate(170.15 260.21)" fill="#fff"/>
        </g>
      </g>
      <g id="Enmascarar_grupo_700350-7" data-name="Enmascarar grupo 700350" transform="translate(606.111 3780.111)" clip-path="url(#clip-path-3)">
        <g id="Grupo_877553" data-name="Grupo 877553" transform="translate(-2691.408 558.528)">
          <path id="Trazado_599283" data-name="Trazado 599283" d="M2782.383-480.325a5.816,5.816,0,0,1-1.628-4.74,31.9,31.9,0,0,1,.179-5.067,4.17,4.17,0,0,1,1.189-2.366,11.733,11.733,0,0,0,3.106-3.943,2.555,2.555,0,0,0,1.377.241c1.538-.006,3.076-.011,4.615,0a8.3,8.3,0,0,1,7.318,5.1c1.034,2.6.684,5.247.465,7.9-.038.461-.328.33-.59.3-.864-.114-1.086.34-1.083,1.117.024,5.4.025,10.806.034,16.209-.619,1.071-1.194,1.171-2.634.454q0-8,0-16a4.664,4.664,0,0,0-.051-1.06.881.881,0,0,0-.839-.718.884.884,0,0,0-.954.721,4.305,4.305,0,0,0-.051,1.06q0,9.065,0,18.129a1.326,1.326,0,0,1-.979.475,2.46,2.46,0,0,1-1.628-.48q0-9.3,0-18.609c0-.576.137-1.269-.774-1.306-.986-.039-.888.678-.887,1.313q0,8.119.009,16.238a1.786,1.786,0,0,1-2.336.442,2.089,2.089,0,0,1-1.242-2.1c.007-4.186-.007-8.371-.013-12.556.007-1.371.019-2.742.02-4.112,0-.632-.28-1.1-.948-1.1s-.961.474-.938,1.105a13.3,13.3,0,0,0,.231,3.845C2782.915-479.784,2782.71-480.173,2782.383-480.325Z" transform="translate(-55.647 -34.313)" fill="#fddec4"/>
          <path id="Trazado_599284" data-name="Trazado 599284" d="M2853.958-403.46c-.873-.473-1.33-1.462-2.28-1.841a2.874,2.874,0,0,0-.765-.3c-3.944-.3-5.692-3.59-8.134-5.934,2.815.02,4.331-1.339,4.459-4.155.038-.835.569-.828,1.064-.962,2.461-.665,3.465-1.949,3.466-4.479q0-2.923,0-5.845l.436-.29c.654.776,1.272,1.587,1.977,2.314a.846.846,0,0,0,1.266.134.964.964,0,0,0,.116-1.382c-.216-.324-.523-.586-.757-.9-.538-.723-1.457-1.069-1.878-1.9,1.625-.653,2.943.005,4.085,1.069,1.387,1.29,2.7,2.662,4.03,4.011a4.9,4.9,0,0,1,1.386,3.769c-.019.591.006,1.184.01,1.776a2.781,2.781,0,0,0,.249,1.66c.171,1.125,1.159,1.737,1.664,2.651a1.661,1.661,0,0,1-.234.52Q2859.048-408.5,2853.958-403.46Z" transform="translate(-102.959 -85.543)" fill="#fdcbaa"/>
          <path id="Trazado_599285" data-name="Trazado 599285" d="M2737.6-414.787a3.009,3.009,0,0,0,1.2-2.661,18.634,18.634,0,0,1,.2-3.87,3.086,3.086,0,0,1,.506-1.178,40.062,40.062,0,0,1,5.564-5.569,2.216,2.216,0,0,1,1.532-.509,1.423,1.423,0,0,1-.322,2.206,4.231,4.231,0,0,0-.574.745.863.863,0,0,0,.019,1.268.782.782,0,0,0,1.165.044c.408-.3.747-.7,1.145-1.023s.65-1.047,1.151-.864c.542.2.267.917.271,1.4.02,3.162.007,6.323.011,9.485a3.826,3.826,0,0,0,2.85,4.021c1.18.357,2.408.457,3.2,1.614.262.384.845.375,1.33.356-.937.957-1.872,1.918-2.814,2.87a3.391,3.391,0,0,1-2.2,1.061,5.619,5.619,0,0,0-4.067,2.112,2.807,2.807,0,0,1-.473.345l-10.656-10.61c.256-.2.526-.4.5-.778l-.006.006.245-.244-.008.008.243-.245Z" transform="translate(-22.006 -86.069)" fill="#fdcbaa"/>
          <path id="Trazado_599286" data-name="Trazado 599286" d="M2811.776-473.666c-.009-5.4-.01-10.806-.034-16.209,0-.777.219-1.231,1.083-1.117.262.034.552.165.59-.3.219-2.656.57-5.3-.465-7.9a8.3,8.3,0,0,0-7.318-5.1c-1.538-.012-3.076-.007-4.615,0a2.555,2.555,0,0,1-1.377-.241q.017-1.259.035-2.517h15.146a6.554,6.554,0,0,0,1.56,5.264,3.2,3.2,0,0,1,.607,2.236c-.019,3.076,0,6.153-.016,9.229a4.7,4.7,0,0,0,.458,2.17c-.661.129-.444.661-.447,1.049-.018,2.37.012,4.741-.018,7.112a2.116,2.116,0,0,1-2.8,2.1c-.555-.161-.827-.7-1.47-.89a16.612,16.612,0,0,1-.04,2.9C2812.516-475.116,2812.917-474.051,2811.776-473.666Z" transform="translate(-70.06 -26.223)" fill="#fccbaa"/>
          <path id="Trazado_599287" data-name="Trazado 599287" d="M2714.625-368.373l10.656,10.609a1.033,1.033,0,0,0,.921.631c.011.159.021.319.031.48a1.693,1.693,0,0,1-.584,1.477c-1.258,1.25-2.517,2.5-3.76,3.764a1.178,1.178,0,0,1-1.928.02q-5.842-5.861-11.7-11.7a1.169,1.169,0,0,1,.042-1.921q1.943-1.9,3.845-3.846a1.257,1.257,0,0,1,1.591-.336l.077.047Zm6.493,11.56a.72.72,0,0,0-.78.822c0,.6.3.857.881.838a.722.722,0,0,0,.782-.821C2722.006-356.569,2721.7-356.832,2721.119-356.813Z" transform="translate(0 -131.236)" fill="#fe86a8"/>
          <path id="Trazado_599288" data-name="Trazado 599288" d="M2886.854-357.264q5.084-5.041,10.162-10.09a1.66,1.66,0,0,0,.234-.52.682.682,0,0,0,.231-.044c1.821-1.1,1.82-1.1,3.4.482.92.921,1.845,1.837,2.76,2.763.967.979.98,1.307.042,2.248-3.788,3.8-7.594,7.579-11.369,11.391-.774.782-1.418.841-2.19.018-.971-1.035-2-2.016-3-3.02C2885.558-355.6,2885.558-355.6,2886.854-357.264Zm13.247-6.4c.021-.536-.162-.917-.759-.954-.552-.033-.9.2-.926.787a.739.739,0,0,0,.7.888C2899.649-362.889,2900.033-363.066,2900.1-363.664Z" transform="translate(-135.855 -131.739)" fill="#fcd55b"/>
          <path id="Trazado_599289" data-name="Trazado 599289" d="M2808.641-533.271H2793.5l-1.92-.094.008.005c-.012-2.21,0-4.421-.046-6.631-.019-1,.372-1.445,1.392-1.441q8.117.026,16.235,0c1,0,1.443.407,1.421,1.417-.032,1.54-.008,3.081-.009,4.622C2810.577-533.449,2810.576-533.449,2808.641-533.271Zm-12.33-4.05a.917.917,0,0,0-.852-.976.861.861,0,0,0-1,.919.855.855,0,0,0,.891.912A.915.915,0,0,0,2796.311-537.321Z" transform="translate(-63.879)" fill="#83d8fe"/>
          <path id="Trazado_599290" data-name="Trazado 599290" d="M2785.13-409.865c-.484.019-1.068.028-1.33-.356-.789-1.157-2.017-1.257-3.2-1.614a3.826,3.826,0,0,1-2.85-4.021c0-3.162.009-6.324-.012-9.485,0-.487.271-1.207-.27-1.4-.5-.183-.766.554-1.151.864s-.737.718-1.145,1.023a.782.782,0,0,1-1.165-.044.863.863,0,0,1-.019-1.268,4.24,4.24,0,0,1,.574-.745,1.423,1.423,0,0,0,.322-2.206c.715-.465,1.427.18,2.142,0,.327.152.532.541.961.5.417.889,1.12-.013,1.635.261.006,4.185.02,8.371.013,12.556a2.088,2.088,0,0,0,1.241,2.1,1.785,1.785,0,0,0,2.336-.442c.323-.164.649-.662.753.24.086.75.076,1.645.9,2.123a2.458,2.458,0,0,0,1.628.48A5.928,5.928,0,0,1,2785.13-409.865Z" transform="translate(-50.293 -85.522)" fill="#fdaf86"/>
          <path id="Trazado_599291" data-name="Trazado 599291" d="M2839.258-413.511c1.141-.385.739-1.45.879-2.208a16.612,16.612,0,0,0,.04-2.9c.643.186.915.729,1.47.89a2.116,2.116,0,0,0,2.8-2.1c.03-2.37,0-4.741.018-7.112,0-.388-.213-.921.447-1.049a1.069,1.069,0,0,0,1.749.141,2.567,2.567,0,0,1,.851-.319c.421.836,1.339,1.182,1.878,1.905.234.314.541.576.757.9a.964.964,0,0,1-.116,1.382.846.846,0,0,1-1.266-.134c-.7-.727-1.323-1.538-1.977-2.314l-.436.29q0,2.923,0,5.845c0,2.53-1.005,3.815-3.466,4.479-.495.134-1.026.127-1.064.962-.128,2.816-1.645,4.175-4.459,4.155l-1.686-1.432v-1.706l.948.782C2838.064-412.34,2838.64-412.439,2839.258-413.511Z" transform="translate(-97.542 -86.378)" fill="#fdaf86"/>
          <path id="Trazado_599292" data-name="Trazado 599292" d="M2833.556-421.611l-.947-.782v1.706a1.994,1.994,0,0,1-.949,1.212q0-9.065,0-18.129a4.329,4.329,0,0,1,.051-1.06.884.884,0,0,1,.954-.721.881.881,0,0,1,.839.718,4.664,4.664,0,0,1,.051,1.06Q2833.558-429.609,2833.556-421.611Z" transform="translate(-94.474 -77.824)" fill="#fdcbaa"/>
          <path id="Trazado_599293" data-name="Trazado 599293" d="M2732.846-374.556l-.077-.047c0-.114-.009-.23-.01-.346-.006-.634-.243-1.436.77-1.488.958-.049,1.106.647,1.1,1.411l.006-.006-.243.245.008-.008-.245.244.006-.006Z" transform="translate(-19.031 -125.831)" fill="#afced9"/>
          <path id="Trazado_599294" data-name="Trazado 599294" d="M2890.571-495.17c-.005.792-.417,1.108-.969,1.1a.87.87,0,0,1-.914-.886.884.884,0,0,1,.908-1.01A.865.865,0,0,1,2890.571-495.17Z" transform="translate(-137.969 -34.674)" fill="#afced9"/>
          <path id="Trazado_599295" data-name="Trazado 599295" d="M2930.745-414.185c-.06.607-.335,1.017-.875,1.015a.946.946,0,0,1-.98-.986.938.938,0,0,1,.963-1C2930.468-415.159,2930.709-414.693,2930.745-414.185Z" transform="translate(-168.63 -96.303)" fill="#afced9"/>
          <path id="Trazado_599296" data-name="Trazado 599296" d="M2912.159-472.563c-.159.505-.328,1.039-.979.974a.99.99,0,0,1-.984-.975.847.847,0,0,1,.907-.878A.979.979,0,0,1,2912.159-472.563Z" transform="translate(-154.374 -51.852)" fill="#afced9"/>
          <path id="Trazado_599297" data-name="Trazado 599297" d="M2749.566-479.386a.8.8,0,0,1,.654.877.879.879,0,0,1-.834.964.985.985,0,0,1-1.087-.981C2748.294-479,2748.62-479.406,2749.566-479.386Z" transform="translate(-30.904 -47.318)" fill="#afced9"/>
          <path id="Trazado_599298" data-name="Trazado 599298" d="M2734.578-452.057a1.015,1.015,0,0,1-.945,1.024c-.6.033-.889-.4-.917-.98a.868.868,0,0,1,.841-.949C2734.163-453.035,2734.445-452.6,2734.578-452.057Z" transform="translate(-19.018 -67.465)" fill="#afced9"/>
          <path id="Trazado_599299" data-name="Trazado 599299" d="M2729.719-437.1a.9.9,0,0,1-.951,1.017.931.931,0,0,1-.911-1.019.831.831,0,0,1,.9-.878A.871.871,0,0,1,2729.719-437.1Z" transform="translate(-15.314 -78.897)" fill="#aeccd8"/>
          <path id="Trazado_599300" data-name="Trazado 599300" d="M2862.6-317.09c-.532-.124-.946-.356-.932-1.009a.872.872,0,0,1,.892-.916.884.884,0,0,1,.948.98A.963.963,0,0,1,2862.6-317.09Z" transform="translate(-117.363 -169.624)" fill="#aeccd8"/>
          <path id="Trazado_599301" data-name="Trazado 599301" d="M2816.661-311.609c-.64-.117-.99-.43-.99-1.042a.753.753,0,0,1,.894-.843.907.907,0,0,1,.963.973C2817.519-311.964,2817.107-311.724,2816.661-311.609Z" transform="translate(-82.285 -173.833)" fill="#b1ceda"/>
          <path id="Trazado_599302" data-name="Trazado 599302" d="M2928.745-428.553c-.593-.1-.964-.387-.964-.934a.9.9,0,0,1,.981-.949.755.755,0,0,1,.873.865A1.011,1.011,0,0,1,2928.745-428.553Z" transform="translate(-167.785 -84.649)" fill="#b1ceda"/>
          <path id="Trazado_599303" data-name="Trazado 599303" d="M2726.673-422.449a.9.9,0,0,1,.909.942.849.849,0,0,1-.888.91.894.894,0,0,1-.961-.966C2725.71-422.14,2726-422.443,2726.673-422.449Z" transform="translate(-13.693 -90.742)" fill="#afced9"/>
          <path id="Trazado_599304" data-name="Trazado 599304" d="M2929.638-398.339c-.036.666-.39.913-.946.863a.89.89,0,0,1-.912-1.013.854.854,0,0,1,.965-.833A.919.919,0,0,1,2929.638-398.339Z" transform="translate(-167.78 -108.376)" fill="#b1ceda"/>
          <path id="Trazado_599305" data-name="Trazado 599305" d="M2919.573-458.432c-.665,0-.969-.287-.957-.864a.907.907,0,0,1,.932-.991c.589-.024.844.441.89.912C2920.5-458.754,2920.054-458.495,2919.573-458.432Z" transform="translate(-160.795 -61.884)" fill="#afced9"/>
          <path id="Trazado_599306" data-name="Trazado 599306" d="M2800.949-316.5c.74.009.992.322,1.012.886a.849.849,0,0,1-.915.971.827.827,0,0,1-.885-.891A.859.859,0,0,1,2800.949-316.5Z" transform="translate(-70.456 -171.543)" fill="#aeccd8"/>
          <path id="Trazado_599307" data-name="Trazado 599307" d="M2848.561-313.743a.971.971,0,0,1-1.023,1.024c-.53.011-.828-.387-.855-.929a.76.76,0,0,1,.832-.9A1.013,1.013,0,0,1,2848.561-313.743Z" transform="translate(-105.934 -173.033)" fill="#afced9"/>
          <path id="Trazado_599308" data-name="Trazado 599308" d="M2726.625-407.105a.946.946,0,0,1,.915.9.935.935,0,0,1-.918,1.019.846.846,0,0,1-.911-.875C2725.676-406.71,2726.073-406.96,2726.625-407.105Z" transform="translate(-13.675 -102.444)" fill="#aeccd8"/>
          <path id="Trazado_599309" data-name="Trazado 599309" d="M2729.756-390.569c-.081.643-.384,1.026-.978,1.016a.853.853,0,0,1-.892-.887.869.869,0,0,1,.945-.951C2729.378-391.391,2729.625-391,2729.756-390.569Z" transform="translate(-15.336 -114.428)" fill="#b1ceda"/>
          <path id="Trazado_599310" data-name="Trazado 599310" d="M2741.558-466.023c-.134.545-.425,1-.987,1a.86.86,0,0,1-.892-.894.874.874,0,0,1,.8-.983C2741.092-466.99,2741.33-466.489,2741.558-466.023Z" transform="translate(-24.329 -56.832)" fill="#aeccd8"/>
          <path id="Trazado_599311" data-name="Trazado 599311" d="M2773.659-499.347c-.106.554-.411.941-1.01.9a.852.852,0,0,1-.851-.925.865.865,0,0,1,.984-.907A.931.931,0,0,1,2773.659-499.347Z" transform="translate(-48.824 -31.38)" fill="#b1ceda"/>
          <path id="Trazado_599312" data-name="Trazado 599312" d="M2902.5-484.577c-.17.631-.5,1.036-1.081.967a.9.9,0,0,1-.784-1.1c.057-.608.47-.77.99-.714A.963.963,0,0,1,2902.5-484.577Z" transform="translate(-147.074 -42.705)" fill="#afced9"/>
          <path id="Trazado_599313" data-name="Trazado 599313" d="M2877.622-503.358c-.109.521-.4.883-.936.874a.867.867,0,0,1-.927-.968.855.855,0,0,1,.911-.868C2877.267-504.318,2877.558-503.928,2877.622-503.358Z" transform="translate(-128.11 -28.303)" fill="#b1ceda"/>
          <path id="Trazado_599314" data-name="Trazado 599314" d="M2877.66-324.477c-.062.577-.361.957-.956.958a.852.852,0,0,1-.905-.872.866.866,0,0,1,.931-.963C2877.264-325.358,2877.555-325,2877.66-324.477Z" transform="translate(-128.14 -164.79)" fill="#b1ceda"/>
          <path id="Trazado_599315" data-name="Trazado 599315" d="M2785.438-320.262c-.01-.161-.021-.321-.031-.48.145-.812.652-1.081,1.371-.766a.769.769,0,0,1,.353,1.264C2786.573-319.468,2786-319.776,2785.438-320.262Z" transform="translate(-59.204 -167.626)" fill="#afced9"/>
          <path id="Trazado_599316" data-name="Trazado 599316" d="M2832.807-312.192a.776.776,0,0,1-.928.83.854.854,0,0,1-.912-.862.928.928,0,0,1,.973-.959C2832.529-313.176,2832.8-312.734,2832.807-312.192Z" transform="translate(-93.951 -174.072)" fill="#aeccd8"/>
          <path id="Trazado_599317" data-name="Trazado 599317" d="M2925.4-445.509a.871.871,0,0,1,.968.94.928.928,0,0,1-.927.892c-.532.013-.83-.381-.858-.922A.764.764,0,0,1,2925.4-445.509Z" transform="translate(-165.343 -73.155)" fill="#aeccd8"/>
          <path id="Trazado_599318" data-name="Trazado 599318" d="M2787.084-507.457c.167.474.7.923.085,1.447a1.022,1.022,0,0,1-1.091.157c-.384-.146-.454-.5-.424-.869a.717.717,0,0,1,.741-.733c.231-.014.465,0,.7,0Z" transform="translate(-59.387 -25.908)" fill="#aeccd8"/>
          <path id="Trazado_599319" data-name="Trazado 599319" d="M2760.206-490.487a.761.761,0,0,1,.791.921c-.034.6-.407.8-.947.759-.479-.036-.87-.3-.842-.781A.872.872,0,0,1,2760.206-490.487Z" transform="translate(-39.223 -38.85)" fill="#aeccd8"/>
          <path id="Trazado_599320" data-name="Trazado 599320" d="M2925.821-382.364a2.781,2.781,0,0,1-.249-1.66.908.908,0,0,1,1.319.217.726.726,0,0,1,.166.834C2926.814-382.383,2926.34-382.346,2925.821-382.364Z" transform="translate(-166.089 -119.9)" fill="#aeccd8"/>
          <path id="Trazado_599321" data-name="Trazado 599321" d="M2815.333-419.51c-.829-.478-.818-1.373-.9-2.123-.1-.9-.431-.4-.753-.24q0-8.119-.009-16.238c0-.635-.1-1.352.887-1.313.911.037.774.729.774,1.306Q2815.337-428.815,2815.333-419.51Z" transform="translate(-80.754 -77.794)" fill="#fdcaa9"/>
          <path id="Trazado_599322" data-name="Trazado 599322" d="M2792.515-442.1c-.515-.274-1.218.628-1.635-.261a13.3,13.3,0,0,1-.231-3.845c-.022-.631.271-1.1.938-1.105s.948.467.948,1.1C2792.534-444.845,2792.522-443.475,2792.515-442.1Z" transform="translate(-63.183 -71.778)" fill="#fdcbaa"/>
          <path id="Trazado_599323" data-name="Trazado 599323" d="M2733.217-368.507h1.312c.024.383-.245.576-.5.778Z" transform="translate(-19.402 -131.88)" fill="#f7f9fa"/>
          <path id="Trazado_599324" data-name="Trazado 599324" d="M2739.716-370.264l.243-.245Z" transform="translate(-24.358 -130.353)" fill="#f7f9fa"/>
          <path id="Trazado_599325" data-name="Trazado 599325" d="M2738.717-369.265l.245-.244Z" transform="translate(-23.596 -131.116)" fill="#f7f9fa"/>
          <path id="Trazado_599326" data-name="Trazado 599326" d="M2761.483-316.525c.58-.02.887.243.883.839a.722.722,0,0,1-.782.821c-.581.018-.885-.243-.881-.838A.72.72,0,0,1,2761.483-316.525Z" transform="translate(-40.363 -171.523)" fill="#ee6085"/>
          <path id="Trazado_599327" data-name="Trazado 599327" d="M2940.262-350.584c-.067.6-.451.775-.984.721a.739.739,0,0,1-.7-.888c.028-.586.375-.82.926-.787C2940.1-351.5,2940.282-351.121,2940.262-350.584Z" transform="translate(-176.016 -144.819)" fill="#fd8a14"/>
          <path id="Trazado_599328" data-name="Trazado 599328" d="M2805.708-527.26a.915.915,0,0,1-.959.855.855.855,0,0,1-.891-.912.861.861,0,0,1,1-.919A.917.917,0,0,1,2805.708-527.26Z" transform="translate(-73.275 -10.061)" fill="#548bfe"/>
        </g>
      </g>
    </g>
    <path id="Trazado_599866" data-name="Trazado 599866" d="M17.836,14.491V19H15.2V6.2h4.992a5.776,5.776,0,0,1,2.536.527,3.886,3.886,0,0,1,1.683,1.5A4.178,4.178,0,0,1,25,10.439a3.674,3.674,0,0,1-1.288,2.966,5.363,5.363,0,0,1-3.564,1.085Zm0-2.136h2.355a2.316,2.316,0,0,0,1.6-.492,1.79,1.79,0,0,0,.549-1.406,2.111,2.111,0,0,0-.554-1.521,2.068,2.068,0,0,0-1.529-.6H17.836Zm14.15-.483a6.9,6.9,0,0,0-.914-.07,1.86,1.86,0,0,0-1.89.976V19h-2.54V9.49h2.4l.07,1.134a2.354,2.354,0,0,1,2.118-1.31,2.662,2.662,0,0,1,.791.114Zm.51,2.285a5.64,5.64,0,0,1,.545-2.522A3.989,3.989,0,0,1,34.61,9.921a4.577,4.577,0,0,1,2.377-.606,4.33,4.33,0,0,1,3.142,1.178,4.727,4.727,0,0,1,1.358,3.2l.018.65a4.97,4.97,0,0,1-1.222,3.511A4.247,4.247,0,0,1,37,19.176a4.268,4.268,0,0,1-3.283-1.318A5.058,5.058,0,0,1,32.5,14.271Zm2.54.18a3.555,3.555,0,0,0,.51,2.073,1.831,1.831,0,0,0,2.9.009,3.89,3.89,0,0,0,.519-2.267,3.519,3.519,0,0,0-.519-2.06,1.686,1.686,0,0,0-1.459-.731,1.658,1.658,0,0,0-1.441.726A3.955,3.955,0,0,0,35.036,14.338Zm16.594,0a5.7,5.7,0,0,1-1,3.52,3.2,3.2,0,0,1-2.694,1.323,2.963,2.963,0,0,1-2.329-1v4.482h-2.54V9.49h2.355l.088.932a2.985,2.985,0,0,1,2.408-1.107,3.22,3.22,0,0,1,2.733,1.3A5.858,5.858,0,0,1,51.63,14.2Zm-2.54-.185a3.743,3.743,0,0,0-.47-2.048,1.532,1.532,0,0,0-1.367-.721,1.663,1.663,0,0,0-1.644.914v3.894a1.692,1.692,0,0,0,1.661.94Q49.09,17.128,49.09,14.148Zm3.718.009a5.64,5.64,0,0,1,.545-2.522,3.989,3.989,0,0,1,1.569-1.714A4.577,4.577,0,0,1,57.3,9.314a4.33,4.33,0,0,1,3.142,1.178,4.727,4.727,0,0,1,1.358,3.2l.018.65a4.97,4.97,0,0,1-1.222,3.511,4.735,4.735,0,0,1-6.561,0,5.058,5.058,0,0,1-1.226-3.586Zm2.54.18a3.555,3.555,0,0,0,.51,2.073,1.831,1.831,0,0,0,2.9.009,3.89,3.89,0,0,0,.519-2.267,3.519,3.519,0,0,0-.519-2.06,1.686,1.686,0,0,0-1.459-.731,1.658,1.658,0,0,0-1.441.726A3.955,3.955,0,0,0,55.348,14.338ZM57.8,5.5h2.769L58.134,8.225H56.068ZM68.531,16.372a.818.818,0,0,0-.461-.734,5.241,5.241,0,0,0-1.481-.479Q63.2,14.447,63.2,12.276a2.613,2.613,0,0,1,1.05-2.114,4.237,4.237,0,0,1,2.747-.848,4.56,4.56,0,0,1,2.9.853,2.687,2.687,0,0,1,1.085,2.215h-2.54a1.229,1.229,0,0,0-.352-.9,1.488,1.488,0,0,0-1.1-.356,1.52,1.52,0,0,0-.993.29.916.916,0,0,0-.352.738.783.783,0,0,0,.4.681,4.114,4.114,0,0,0,1.349.448,11.019,11.019,0,0,1,1.6.426A2.628,2.628,0,0,1,71,16.267a2.481,2.481,0,0,1-1.116,2.1,4.815,4.815,0,0,1-2.883.8,5.029,5.029,0,0,1-2.123-.426,3.561,3.561,0,0,1-1.455-1.169,2.716,2.716,0,0,1-.527-1.6h2.408a1.326,1.326,0,0,0,.5,1.037,1.987,1.987,0,0,0,1.248.36,1.839,1.839,0,0,0,1.1-.277A.861.861,0,0,0,68.531,16.372ZM75.316,19H72.768V9.49h2.549Zm-2.7-11.971A1.251,1.251,0,0,1,73,6.089a1.648,1.648,0,0,1,2.079,0,1.244,1.244,0,0,1,.387.94,1.247,1.247,0,0,1-.391.949,1.629,1.629,0,0,1-2.065,0A1.247,1.247,0,0,1,72.618,7.029Zm7.831.123V9.49h1.626v1.863H80.449V16.1a1.133,1.133,0,0,0,.2.756,1.015,1.015,0,0,0,.773.229,4.051,4.051,0,0,0,.747-.062v1.925a5.229,5.229,0,0,1-1.538.229,2.425,2.425,0,0,1-2.725-2.7V11.354H76.521V9.49h1.389V7.152Zm2.382,7a5.64,5.64,0,0,1,.545-2.522,3.989,3.989,0,0,1,1.569-1.714,4.577,4.577,0,0,1,2.377-.606,4.33,4.33,0,0,1,3.142,1.178,4.727,4.727,0,0,1,1.358,3.2l.018.65a4.97,4.97,0,0,1-1.222,3.511,4.735,4.735,0,0,1-6.561,0,5.058,5.058,0,0,1-1.226-3.586Zm2.54.18a3.555,3.555,0,0,0,.51,2.073,1.831,1.831,0,0,0,2.9.009,3.89,3.89,0,0,0,.519-2.267,3.519,3.519,0,0,0-.519-2.06,1.686,1.686,0,0,0-1.459-.731,1.658,1.658,0,0,0-1.441.726A3.955,3.955,0,0,0,85.371,14.338Zm13.184,2.035a.818.818,0,0,0-.461-.734,5.241,5.241,0,0,0-1.481-.479q-3.393-.712-3.393-2.883a2.613,2.613,0,0,1,1.05-2.114,4.237,4.237,0,0,1,2.747-.848,4.56,4.56,0,0,1,2.9.853A2.687,2.687,0,0,1,101,12.382h-2.54a1.229,1.229,0,0,0-.352-.9,1.488,1.488,0,0,0-1.1-.356,1.52,1.52,0,0,0-.993.29.916.916,0,0,0-.352.738.783.783,0,0,0,.4.681,4.114,4.114,0,0,0,1.349.448,11.019,11.019,0,0,1,1.6.426,2.628,2.628,0,0,1,2.013,2.558,2.481,2.481,0,0,1-1.116,2.1,4.815,4.815,0,0,1-2.883.8A5.029,5.029,0,0,1,94.9,18.75a3.561,3.561,0,0,1-1.455-1.169,2.716,2.716,0,0,1-.527-1.6h2.408a1.326,1.326,0,0,0,.5,1.037,1.987,1.987,0,0,0,1.248.36,1.839,1.839,0,0,0,1.1-.277A.861.861,0,0,0,98.555,16.372Zm8.191-2.2a5.731,5.731,0,0,1,1-3.542,3.237,3.237,0,0,1,2.729-1.318,2.913,2.913,0,0,1,2.294,1.037V5.5h2.549V19h-2.294l-.123-1.011a2.989,2.989,0,0,1-2.443,1.187,3.228,3.228,0,0,1-2.694-1.323A5.916,5.916,0,0,1,106.746,14.175Zm2.54.189a3.754,3.754,0,0,0,.466,2.051,1.517,1.517,0,0,0,1.354.713,1.7,1.7,0,0,0,1.661-.995V12.375a1.675,1.675,0,0,0-1.644-.995Q109.286,11.38,109.286,14.364Zm12.375,4.812a4.668,4.668,0,0,1-3.406-1.283,4.561,4.561,0,0,1-1.314-3.419v-.246a5.745,5.745,0,0,1,.554-2.562,4.064,4.064,0,0,1,1.569-1.74,4.4,4.4,0,0,1,2.316-.611,3.947,3.947,0,0,1,3.072,1.23,5,5,0,0,1,1.121,3.489v1.037h-6.056a2.36,2.36,0,0,0,.743,1.494,2.245,2.245,0,0,0,1.569.563,2.742,2.742,0,0,0,2.294-1.063l1.248,1.4a3.813,3.813,0,0,1-1.547,1.261A5.075,5.075,0,0,1,121.661,19.176Zm-.29-7.813a1.587,1.587,0,0,0-1.226.512,2.651,2.651,0,0,0-.6,1.466h3.533v-.2a1.891,1.891,0,0,0-.457-1.311A1.638,1.638,0,0,0,121.371,11.362ZM134.177,19h-2.549V5.5h2.549Zm7.6,0a2.821,2.821,0,0,1-.255-.853,3.073,3.073,0,0,1-2.4,1.028,3.376,3.376,0,0,1-2.316-.809,2.6,2.6,0,0,1-.918-2.039,2.687,2.687,0,0,1,1.121-2.32,5.529,5.529,0,0,1,3.239-.817h1.169v-.545a1.567,1.567,0,0,0-.338-1.055,1.331,1.331,0,0,0-1.068-.4,1.513,1.513,0,0,0-1.006.308,1.045,1.045,0,0,0-.365.844H136.1a2.551,2.551,0,0,1,.51-1.529,3.37,3.37,0,0,1,1.441-1.1,5.253,5.253,0,0,1,2.092-.4,4.15,4.15,0,0,1,2.791.883,3.09,3.09,0,0,1,1.033,2.483V16.8a4.546,4.546,0,0,0,.378,2.048V19Zm-2.1-1.767a2.188,2.188,0,0,0,1.037-.25,1.645,1.645,0,0,0,.7-.672V14.676h-.949q-1.907,0-2.03,1.318l-.009.149a1.017,1.017,0,0,0,.334.782A1.3,1.3,0,0,0,139.679,17.233ZM12.114,33.49l.079,1.1a3.32,3.32,0,0,1,2.733-1.274,2.759,2.759,0,0,1,2.25.888,4.142,4.142,0,0,1,.756,2.654V43h-2.54V36.918a1.648,1.648,0,0,0-.352-1.173,1.574,1.574,0,0,0-1.169-.365,1.747,1.747,0,0,0-1.608.914V43H9.724V33.49Zm7.348,4.667a5.64,5.64,0,0,1,.545-2.522,3.989,3.989,0,0,1,1.569-1.714,4.577,4.577,0,0,1,2.377-.606A4.33,4.33,0,0,1,27.1,34.492a4.727,4.727,0,0,1,1.358,3.2l.018.65a4.97,4.97,0,0,1-1.222,3.511,4.247,4.247,0,0,1-3.278,1.323,4.268,4.268,0,0,1-3.283-1.318,5.058,5.058,0,0,1-1.226-3.586Zm2.54.18a3.555,3.555,0,0,0,.51,2.073,1.831,1.831,0,0,0,2.9.009,3.89,3.89,0,0,0,.519-2.267,3.519,3.519,0,0,0-.519-2.06,1.686,1.686,0,0,0-1.459-.731,1.658,1.658,0,0,0-1.441.726A3.955,3.955,0,0,0,22,38.338Zm13.377-2.465a6.9,6.9,0,0,0-.914-.07,1.86,1.86,0,0,0-1.89.976V43h-2.54V33.49h2.4l.07,1.134a2.354,2.354,0,0,1,2.118-1.31,2.662,2.662,0,0,1,.791.114Zm3.6-2.382.079,1.063a3.342,3.342,0,0,1,2.733-1.239,2.536,2.536,0,0,1,2.522,1.45,3.265,3.265,0,0,1,2.856-1.45,2.836,2.836,0,0,1,2.3.9,4.141,4.141,0,0,1,.756,2.711V43H47.684V36.936a1.811,1.811,0,0,0-.316-1.182,1.4,1.4,0,0,0-1.116-.374,1.585,1.585,0,0,0-1.582,1.09L44.678,43h-2.54V36.944a1.789,1.789,0,0,0-.325-1.2,1.416,1.416,0,0,0-1.107-.369,1.646,1.646,0,0,0-1.564.9V43H36.6V33.49ZM57.694,43a2.821,2.821,0,0,1-.255-.853,3.073,3.073,0,0,1-2.4,1.028,3.376,3.376,0,0,1-2.316-.809,2.6,2.6,0,0,1-.918-2.039,2.687,2.687,0,0,1,1.121-2.32,5.529,5.529,0,0,1,3.239-.817h1.169v-.545A1.567,1.567,0,0,0,57,35.591a1.331,1.331,0,0,0-1.068-.4,1.513,1.513,0,0,0-1.006.308,1.045,1.045,0,0,0-.365.844h-2.54a2.551,2.551,0,0,1,.51-1.529,3.37,3.37,0,0,1,1.441-1.1,5.253,5.253,0,0,1,2.092-.4,4.15,4.15,0,0,1,2.791.883,3.09,3.09,0,0,1,1.033,2.483V40.8a4.546,4.546,0,0,0,.378,2.048V43Zm-2.1-1.767a2.188,2.188,0,0,0,1.037-.25,1.645,1.645,0,0,0,.7-.672V38.676h-.949q-1.907,0-2.03,1.318l-.009.149a1.017,1.017,0,0,0,.334.782A1.3,1.3,0,0,0,55.594,41.233ZM69.287,43H66.65V30.2h2.637Zm9.079-3.357a1.353,1.353,0,0,0-.527-1.147,6.917,6.917,0,0,0-1.9-.844,13.458,13.458,0,0,1-2.171-.875A3.547,3.547,0,0,1,71.59,33.6a3.09,3.09,0,0,1,.584-1.85,3.812,3.812,0,0,1,1.679-1.27,6.318,6.318,0,0,1,2.457-.457,5.751,5.751,0,0,1,2.443.5,3.891,3.891,0,0,1,1.666,1.4,3.668,3.668,0,0,1,.593,2.057H78.375a1.726,1.726,0,0,0-.554-1.367,2.276,2.276,0,0,0-1.556-.488,2.432,2.432,0,0,0-1.5.409,1.289,1.289,0,0,0-.536,1.077,1.235,1.235,0,0,0,.628,1.046,7.1,7.1,0,0,0,1.85.791,7.994,7.994,0,0,1,3.278,1.679,3.343,3.343,0,0,1,1.028,2.5,3.08,3.08,0,0,1-1.257,2.606,5.5,5.5,0,0,1-3.384.945,6.534,6.534,0,0,1-2.689-.541,4.256,4.256,0,0,1-1.85-1.481,3.793,3.793,0,0,1-.637-2.18H73.84q0,2.118,2.531,2.118a2.462,2.462,0,0,0,1.468-.382A1.244,1.244,0,0,0,78.366,39.643Zm14.941-2.751a7.725,7.725,0,0,1-.668,3.313,5.03,5.03,0,0,1-1.912,2.2,5.649,5.649,0,0,1-5.691.009A5.08,5.08,0,0,1,83.1,40.227a7.5,7.5,0,0,1-.694-3.265v-.633A7.685,7.685,0,0,1,83.09,33,5.072,5.072,0,0,1,85.015,30.8a5.64,5.64,0,0,1,5.687,0A5.072,5.072,0,0,1,92.626,33a7.663,7.663,0,0,1,.681,3.318Zm-2.672-.58a5.385,5.385,0,0,0-.721-3.059,2.546,2.546,0,0,0-4.1-.013,5.324,5.324,0,0,0-.729,3.028v.624a5.453,5.453,0,0,0,.721,3.041,2.524,2.524,0,0,0,4.113.04,5.421,5.421,0,0,0,.721-3.037ZM108.205,43H99.434V41.26l4.14-4.412a10.212,10.212,0,0,0,1.261-1.626,2.612,2.612,0,0,0,.409-1.318,1.955,1.955,0,0,0-.431-1.34,1.555,1.555,0,0,0-1.23-.488,1.677,1.677,0,0,0-1.358.593,2.35,2.35,0,0,0-.5,1.56H99.179a4.2,4.2,0,0,1,.558-2.136,3.934,3.934,0,0,1,1.578-1.516,4.8,4.8,0,0,1,2.312-.549,4.54,4.54,0,0,1,3.072.949,3.358,3.358,0,0,1,1.094,2.681,4.3,4.3,0,0,1-.492,1.934,10.745,10.745,0,0,1-1.687,2.294L102.7,40.952h5.5Zm10.327,0h-8.771V41.26l4.14-4.412a10.212,10.212,0,0,0,1.261-1.626,2.612,2.612,0,0,0,.409-1.318,1.955,1.955,0,0,0-.431-1.34,1.555,1.555,0,0,0-1.23-.488,1.677,1.677,0,0,0-1.358.593,2.35,2.35,0,0,0-.5,1.56h-2.549a4.2,4.2,0,0,1,.558-2.136,3.934,3.934,0,0,1,1.578-1.516,4.8,4.8,0,0,1,2.312-.549,4.54,4.54,0,0,1,3.072.949,3.358,3.358,0,0,1,1.094,2.681,4.3,4.3,0,0,1-.492,1.934,10.745,10.745,0,0,1-1.687,2.294l-2.909,3.067h5.5Zm4.14-7.523h1.354a1.907,1.907,0,0,0,1.433-.483,1.771,1.771,0,0,0,.466-1.283,1.566,1.566,0,0,0-.461-1.2,1.788,1.788,0,0,0-1.27-.431,1.874,1.874,0,0,0-1.222.4,1.279,1.279,0,0,0-.492,1.042h-2.54a3.124,3.124,0,0,1,.541-1.8,3.6,3.6,0,0,1,1.512-1.244,5.045,5.045,0,0,1,2.14-.448,4.785,4.785,0,0,1,3.182.971,3.314,3.314,0,0,1,1.151,2.676,2.693,2.693,0,0,1-.536,1.617,3.483,3.483,0,0,1-1.406,1.134,3.18,3.18,0,0,1,1.613,1.16,3.147,3.147,0,0,1,.532,1.828,3.369,3.369,0,0,1-1.244,2.733,5,5,0,0,1-3.292,1.028A4.741,4.741,0,0,1,121,42.165a3.3,3.3,0,0,1-1.217-2.672h2.54a1.472,1.472,0,0,0,.541,1.178,2.255,2.255,0,0,0,2.751-.022,1.654,1.654,0,0,0,.514-1.27q0-1.916-2.109-1.916h-1.345Zm16.356,2.232a6.483,6.483,0,0,1-1.1,4.061,4.39,4.39,0,0,1-6.416.026,6.293,6.293,0,0,1-1.134-3.955V35.485a6.4,6.4,0,0,1,1.112-4.069,4.4,4.4,0,0,1,6.4-.013,6.273,6.273,0,0,1,1.134,3.951Zm-2.54-2.59a4.686,4.686,0,0,0-.435-2.318,1.47,1.47,0,0,0-1.358-.726,1.444,1.444,0,0,0-1.323.691,4.385,4.385,0,0,0-.453,2.16V38.04a4.919,4.919,0,0,0,.426,2.327,1.451,1.451,0,0,0,1.367.761,1.426,1.426,0,0,0,1.345-.73,4.8,4.8,0,0,0,.431-2.235ZM146.912,43h-2.54V33.209l-3.032.94V32.084l5.3-1.9h.272Z" transform="translate(720.5 9910.404)" fill="#12263f"/>
    <path id="Trazado_599867" data-name="Trazado 599867" d="M18.156,13.709a6.483,6.483,0,0,1-1.1,4.061,3.835,3.835,0,0,1-3.217,1.406,3.862,3.862,0,0,1-3.2-1.38,6.293,6.293,0,0,1-1.134-3.955V11.485A6.4,6.4,0,0,1,10.62,7.416a3.864,3.864,0,0,1,3.2-1.389,3.867,3.867,0,0,1,3.2,1.375,6.273,6.273,0,0,1,1.134,3.951Zm-2.54-2.59A4.686,4.686,0,0,0,15.181,8.8a1.47,1.47,0,0,0-1.358-.726,1.444,1.444,0,0,0-1.323.691,4.385,4.385,0,0,0-.453,2.16V14.04a4.919,4.919,0,0,0,.426,2.327,1.451,1.451,0,0,0,1.367.761,1.426,1.426,0,0,0,1.345-.73,4.8,4.8,0,0,0,.431-2.235ZM26.04,19H23.5V9.209l-3.032.94V8.084l5.3-1.9h.272Z" transform="translate(584.917 9930.469)" fill="#12263f"/>
    <path id="Trazado_599868" data-name="Trazado 599868" d="M18.156,13.709a6.483,6.483,0,0,1-1.1,4.061,3.835,3.835,0,0,1-3.217,1.406,3.862,3.862,0,0,1-3.2-1.38,6.293,6.293,0,0,1-1.134-3.955V11.485A6.4,6.4,0,0,1,10.62,7.416a3.864,3.864,0,0,1,3.2-1.389,3.867,3.867,0,0,1,3.2,1.375,6.273,6.273,0,0,1,1.134,3.951Zm-2.54-2.59A4.686,4.686,0,0,0,15.181,8.8a1.47,1.47,0,0,0-1.358-.726,1.444,1.444,0,0,0-1.323.691,4.385,4.385,0,0,0-.453,2.16V14.04a4.919,4.919,0,0,0,.426,2.327,1.451,1.451,0,0,0,1.367.761,1.426,1.426,0,0,0,1.345-.73,4.8,4.8,0,0,0,.431-2.235Zm12.955-3.5L23.623,19H20.942L25.9,8.251H19.536V6.2h9.035Z" transform="translate(965.709 9930.469)" fill="#12263f"/>
    <path id="Trazado_599864" data-name="Trazado 599864" d="M18.156,13.709a6.483,6.483,0,0,1-1.1,4.061,3.835,3.835,0,0,1-3.217,1.406,3.862,3.862,0,0,1-3.2-1.38,6.293,6.293,0,0,1-1.134-3.955V11.485A6.4,6.4,0,0,1,10.62,7.416a3.864,3.864,0,0,1,3.2-1.389,3.867,3.867,0,0,1,3.2,1.375,6.273,6.273,0,0,1,1.134,3.951Zm-2.54-2.59A4.686,4.686,0,0,0,15.181,8.8a1.47,1.47,0,0,0-1.358-.726,1.444,1.444,0,0,0-1.323.691,4.385,4.385,0,0,0-.453,2.16V14.04a4.919,4.919,0,0,0,.426,2.327,1.451,1.451,0,0,0,1.367.761,1.426,1.426,0,0,0,1.345-.73,4.8,4.8,0,0,0,.431-2.235ZM28.642,19H19.87V17.26l4.14-4.412a10.212,10.212,0,0,0,1.261-1.626A2.612,2.612,0,0,0,25.68,9.9a1.955,1.955,0,0,0-.431-1.34,1.555,1.555,0,0,0-1.23-.488,1.677,1.677,0,0,0-1.358.593,2.35,2.35,0,0,0-.5,1.56H19.615a4.2,4.2,0,0,1,.558-2.136,3.934,3.934,0,0,1,1.578-1.516,4.8,4.8,0,0,1,2.312-.549,4.54,4.54,0,0,1,3.072.949,3.358,3.358,0,0,1,1.094,2.681,4.3,4.3,0,0,1-.492,1.934,10.745,10.745,0,0,1-1.687,2.294L23.14,16.952h5.5Z" transform="translate(622.917 9862.384)" fill="#12263f"/>
    <path id="Trazado_599865" data-name="Trazado 599865" d="M18.156,13.709a6.483,6.483,0,0,1-1.1,4.061,3.835,3.835,0,0,1-3.217,1.406,3.862,3.862,0,0,1-3.2-1.38,6.293,6.293,0,0,1-1.134-3.955V11.485A6.4,6.4,0,0,1,10.62,7.416a3.864,3.864,0,0,1,3.2-1.389,3.867,3.867,0,0,1,3.2,1.375,6.273,6.273,0,0,1,1.134,3.951Zm-2.54-2.59A4.686,4.686,0,0,0,15.181,8.8a1.47,1.47,0,0,0-1.358-.726,1.444,1.444,0,0,0-1.323.691,4.385,4.385,0,0,0-.453,2.16V14.04a4.919,4.919,0,0,0,.426,2.327,1.451,1.451,0,0,0,1.367.761,1.426,1.426,0,0,0,1.345-.73,4.8,4.8,0,0,0,.431-2.235ZM26.761,6.071V8.163h-.246a4.315,4.315,0,0,0-2.773.9,3.642,3.642,0,0,0-1.261,2.417,3.46,3.46,0,0,1,2.575-1.037,3.26,3.26,0,0,1,2.654,1.2,4.792,4.792,0,0,1,.984,3.146,4.713,4.713,0,0,1-.541,2.259,3.877,3.877,0,0,1-1.529,1.573,4.443,4.443,0,0,1-2.237.563,4.15,4.15,0,0,1-3.265-1.406,5.459,5.459,0,0,1-1.244-3.753V13.1a8.215,8.215,0,0,1,.787-3.678,5.768,5.768,0,0,1,2.259-2.47,6.619,6.619,0,0,1,3.415-.883Zm-2.479,6.416a2.029,2.029,0,0,0-1.116.32,1.929,1.929,0,0,0-.738.847v.772a3.42,3.42,0,0,0,.5,1.987,1.619,1.619,0,0,0,1.406.715,1.6,1.6,0,0,0,1.323-.645,2.63,2.63,0,0,0,.505-1.671,2.625,2.625,0,0,0-.51-1.684A1.661,1.661,0,0,0,24.282,12.487Z" transform="translate(925.917 9862.384)" fill="#12263f"/>
    <path id="Trazado_599861" data-name="Trazado 599861" d="M18.156,13.709a6.483,6.483,0,0,1-1.1,4.061,3.835,3.835,0,0,1-3.217,1.406,3.862,3.862,0,0,1-3.2-1.38,6.293,6.293,0,0,1-1.134-3.955V11.485A6.4,6.4,0,0,1,10.62,7.416a3.864,3.864,0,0,1,3.2-1.389,3.867,3.867,0,0,1,3.2,1.375,6.273,6.273,0,0,1,1.134,3.951Zm-2.54-2.59A4.686,4.686,0,0,0,15.181,8.8a1.47,1.47,0,0,0-1.358-.726,1.444,1.444,0,0,0-1.323.691,4.385,4.385,0,0,0-.453,2.16V14.04a4.919,4.919,0,0,0,.426,2.327,1.451,1.451,0,0,0,1.367.761,1.426,1.426,0,0,0,1.345-.73,4.8,4.8,0,0,0,.431-2.235Zm6.838.357h1.354a1.907,1.907,0,0,0,1.433-.483,1.771,1.771,0,0,0,.466-1.283,1.566,1.566,0,0,0-.461-1.2,1.788,1.788,0,0,0-1.27-.431,1.874,1.874,0,0,0-1.222.4,1.279,1.279,0,0,0-.492,1.042h-2.54a3.124,3.124,0,0,1,.541-1.8,3.6,3.6,0,0,1,1.512-1.244,5.045,5.045,0,0,1,2.14-.448A4.785,4.785,0,0,1,27.095,7a3.314,3.314,0,0,1,1.151,2.676,2.693,2.693,0,0,1-.536,1.617A3.483,3.483,0,0,1,26.3,12.426a3.18,3.18,0,0,1,1.613,1.16,3.147,3.147,0,0,1,.532,1.828A3.369,3.369,0,0,1,27.2,18.147a5,5,0,0,1-3.292,1.028,4.741,4.741,0,0,1-3.133-1.011,3.3,3.3,0,0,1-1.217-2.672H22.1a1.472,1.472,0,0,0,.541,1.178,2.255,2.255,0,0,0,2.751-.022,1.654,1.654,0,0,0,.514-1.27q0-1.916-2.109-1.916H22.454Z" transform="translate(700.426 9807.113)" fill="#12263f"/>
    <path id="Trazado_599863" data-name="Trazado 599863" d="M18.156,13.709a6.483,6.483,0,0,1-1.1,4.061,3.835,3.835,0,0,1-3.217,1.406,3.862,3.862,0,0,1-3.2-1.38,6.293,6.293,0,0,1-1.134-3.955V11.485A6.4,6.4,0,0,1,10.62,7.416a3.864,3.864,0,0,1,3.2-1.389,3.867,3.867,0,0,1,3.2,1.375,6.273,6.273,0,0,1,1.134,3.951Zm-2.54-2.59A4.686,4.686,0,0,0,15.181,8.8a1.47,1.47,0,0,0-1.358-.726,1.444,1.444,0,0,0-1.323.691,4.385,4.385,0,0,0-.453,2.16V14.04a4.919,4.919,0,0,0,.426,2.327,1.451,1.451,0,0,0,1.367.761,1.426,1.426,0,0,0,1.345-.73,4.8,4.8,0,0,0,.431-2.235Zm4.632,1.588.738-6.5h7.172V8.321H23.069l-.316,2.751a4.027,4.027,0,0,1,1.925-.483,3.689,3.689,0,0,1,2.865,1.134A4.529,4.529,0,0,1,28.58,14.9a4.64,4.64,0,0,1-.523,2.219,3.691,3.691,0,0,1-1.5,1.521,4.678,4.678,0,0,1-2.3.541,4.968,4.968,0,0,1-2.153-.47,3.819,3.819,0,0,1-1.569-1.323,3.605,3.605,0,0,1-.611-1.942h2.514a1.878,1.878,0,0,0,.558,1.244,1.769,1.769,0,0,0,1.252.444,1.562,1.562,0,0,0,1.327-.62,2.87,2.87,0,0,0,.466-1.753,2.374,2.374,0,0,0-.536-1.67,1.967,1.967,0,0,0-1.521-.58,2.2,2.2,0,0,0-1.468.475l-.246.229Z" transform="translate(861.574 9807.113)" fill="#12263f"/>
    <path id="Trazado_599862" data-name="Trazado 599862" d="M18.156,13.709a6.483,6.483,0,0,1-1.1,4.061,3.835,3.835,0,0,1-3.217,1.406,3.862,3.862,0,0,1-3.2-1.38,6.293,6.293,0,0,1-1.134-3.955V11.485A6.4,6.4,0,0,1,10.62,7.416a3.864,3.864,0,0,1,3.2-1.389,3.867,3.867,0,0,1,3.2,1.375,6.273,6.273,0,0,1,1.134,3.951Zm-2.54-2.59A4.686,4.686,0,0,0,15.181,8.8a1.47,1.47,0,0,0-1.358-.726,1.444,1.444,0,0,0-1.323.691,4.385,4.385,0,0,0-.453,2.16V14.04a4.919,4.919,0,0,0,.426,2.327,1.451,1.451,0,0,0,1.367.761,1.426,1.426,0,0,0,1.345-.73,4.8,4.8,0,0,0,.431-2.235Zm11.769,3.064h1.45v2.048h-1.45V19h-2.54V16.231H19.6l-.114-1.6L24.818,6.2h2.566Zm-5.37,0h2.83V9.666l-.167.29Z" transform="translate(781 9797.789)" fill="#12263f"/>
  </g>
</svg>
