<svg xmlns="http://www.w3.org/2000/svg" xmlns:xlink="http://www.w3.org/1999/xlink" width="295" height="264.182" viewBox="0 0 295 264.182">
  <defs>
    <clipPath id="clip-path">
      <rect id="Rectángulo_297748" data-name="Rectángulo 297748" width="167.436" height="217.729" fill="none"/>
    </clipPath>
    <clipPath id="clip-path-3">
      <rect id="Rectángulo_297752" data-name="Rectángulo 297752" width="102.543" height="146.048" transform="translate(0 0)" fill="none"/>
    </clipPath>
  </defs>
  <g id="Grupo_877999" data-name="Grupo 877999" transform="translate(-810 -8177.145)">
    <path id="Trazado_599850" data-name="Trazado 599850" d="M12,0H283a12,12,0,0,1,12,12V220.5a12,12,0,0,1-12,12H12a12,12,0,0,1-12-12V12A12,12,0,0,1,12,0Z" transform="translate(1105 8441.326) rotate(180)" fill="#ebfee1"/>
    <g id="Grupo_877855" data-name="Grupo 877855" transform="translate(315 -43)">
      <g id="Grupo_877849" data-name="Grupo 877849" transform="translate(520.775 8264.985)">
        <path id="Trazado_599605" data-name="Trazado 599605" d="M567.963,172.892S608.871,157.65,605,129.339C599.682,90.463,568.262,87.2,567.015,67c-1.38-22.371,4.794-49.1-21.345-62.394-36.194-18.4-65.64,25.152-95.7,12.883-55.777-22.766-90.807,47.991-57.62,91.448,25.134,35,12.865,63.359,12.865,63.359Z" transform="translate(-361.809 -0.004)" fill="#fff"/>
      </g>
      <g id="Grupo_877852" data-name="Grupo 877852" transform="translate(558.782 8220.145)">
        <g id="Grupo_877842" data-name="Grupo 877842" transform="translate(0 0)">
          <g id="Grupo_877841" data-name="Grupo 877841" transform="translate(0 0)" clip-path="url(#clip-path)">
            <path id="Trazado_599577" data-name="Trazado 599577" d="M360.7,11.326c-1.731-10.254-17.522-14.883-17.212-8.191L271.1,3.559c-5.014.029-9.079,4.54-9.084,10.08l-.15,190.381c0,5.739,4.132,10.431,9.242,10.475l73.9.634a5.914,5.914,0,0,0,2.67,2.571c8.475.181,12.539-4,14.024-8.736a11.393,11.393,0,0,0,.735-4.153c-.3-2.478-1.2-191.081-1.732-193.485" transform="translate(-221.044 -0.002)" fill="#9bb0ff"/>
            <path id="Trazado_599578" data-name="Trazado 599578" d="M296.14,217.877l-84.823-.547c-5.293-.034-9.574-4.853-9.565-10.758l.318-195.79c.009-5.694,4.223-10.32,9.414-10.337l83.175-.27c5.232-.017,9.51,4.6,9.554,10.322l1.508,196.695c.046,5.933-4.245,10.719-9.581,10.685" transform="translate(-170.304 -0.149)" fill="#fff"/>
            <path id="Trazado_599579" data-name="Trazado 599579" d="M305.066,223.522a7.647,7.647,0,0,1-1.072.067l-84.8-.641c-4.548-.034-8.266-4.259-8.258-9.414l.293-195.575c.007-4.971,3.666-9.028,8.127-9.047l83.169-.362c.13,0,.262,0,.391.008a7.87,7.87,0,0,1,5.511,2.682,9.4,9.4,0,0,1,2.343,6.227l1.488,196.894c.035,4.667-3.047,8.6-7.2,9.161" transform="translate(-178.059 -7.217)"/>
            <path id="Trazado_599580" data-name="Trazado 599580" d="M323.135,72.106l1.43,196.209-95.527-.572.244-195.637Z" transform="translate(-193.337 -60.866)" fill="#002ed9"/>
            <path id="Trazado_599581" data-name="Trazado 599581" d="M459.691,662.9H434.117a3.934,3.934,0,1,1,0-7.868h25.573a3.934,3.934,0,1,1,0,7.868" transform="translate(-363.128 -552.928)" fill="#f7cc54"/>
            <path id="Trazado_599582" data-name="Trazado 599582" d="M364.9,475.528H298.771a3.934,3.934,0,1,1,0-7.868H364.9a3.934,3.934,0,1,1,0,7.868" transform="translate(-248.879 -394.764)" fill="#fff"/>
            <path id="Trazado_599583" data-name="Trazado 599583" d="M364.9,556.821H298.771a3.934,3.934,0,1,1,0-7.868H364.9a3.934,3.934,0,1,1,0,7.868" transform="translate(-248.879 -463.385)" fill="#fff"/>
            <g id="Grupo_877846" data-name="Grupo 877846" transform="translate(59.469 88.465)">
              <path id="Trazado_599584" data-name="Trazado 599584" d="M384.288,568.928a1.385,1.385,0,1,1-1.385-1.385,1.385,1.385,0,0,1,1.385,1.385" transform="translate(-381.518 -567.543)" fill="#e5e5e5"/>
              <path id="Trazado_599585" data-name="Trazado 599585" d="M414.755,568.928a1.385,1.385,0,1,1-1.385-1.385,1.385,1.385,0,0,1,1.385,1.385" transform="translate(-407.236 -567.543)" fill="#e5e5e5"/>
              <path id="Trazado_599586" data-name="Trazado 599586" d="M445.221,568.928a1.385,1.385,0,1,1-1.385-1.385,1.385,1.385,0,0,1,1.385,1.385" transform="translate(-432.954 -567.543)" fill="#e5e5e5"/>
              <path id="Trazado_599587" data-name="Trazado 599587" d="M475.688,568.928a1.385,1.385,0,1,1-1.385-1.385,1.385,1.385,0,0,1,1.385,1.385" transform="translate(-458.671 -567.543)" fill="#e5e5e5"/>
              <path id="Trazado_599588" data-name="Trazado 599588" d="M506.155,568.928a1.385,1.385,0,1,1-1.385-1.385,1.385,1.385,0,0,1,1.385,1.385" transform="translate(-484.389 -567.543)" fill="#e5e5e5"/>
              <path id="Trazado_599589" data-name="Trazado 599589" d="M536.622,568.928a1.385,1.385,0,1,1-1.385-1.385,1.385,1.385,0,0,1,1.385,1.385" transform="translate(-510.107 -567.543)" fill="#e5e5e5"/>
              <path id="Trazado_599590" data-name="Trazado 599590" d="M567.088,568.928a1.385,1.385,0,1,1-1.385-1.385,1.385,1.385,0,0,1,1.385,1.385" transform="translate(-535.825 -567.543)" fill="#e5e5e5"/>
              <path id="Trazado_599591" data-name="Trazado 599591" d="M597.555,568.928a1.385,1.385,0,1,1-1.385-1.385,1.385,1.385,0,0,1,1.385,1.385" transform="translate(-561.542 -567.543)" fill="#e5e5e5"/>
              <path id="Trazado_599592" data-name="Trazado 599592" d="M628.022,568.928a1.385,1.385,0,1,1-1.385-1.385,1.385,1.385,0,0,1,1.385,1.385" transform="translate(-587.26 -567.543)" fill="#e5e5e5"/>
            </g>
            <path id="Trazado_599593" data-name="Trazado 599593" d="M465.212,217.2a15.2,15.2,0,1,1-15.2-15.2,15.2,15.2,0,0,1,15.2,15.2" transform="translate(-367.035 -170.511)" fill="#fff"/>
            <path id="Trazado_599594" data-name="Trazado 599594" d="M506.5,243.657a4.8,4.8,0,0,0,3.729-1.827,4.68,4.68,0,0,0,1.028-2.968,4.776,4.776,0,1,0-9.552,0,4.676,4.676,0,0,0,1.028,2.968,4.818,4.818,0,0,0,3.767,1.827" transform="translate(-423.504 -197.582)" fill="#002ed9"/>
            <path id="Trazado_599595" data-name="Trazado 599595" d="M495.014,311.314c0,3.026-16.9,3.026-16.9,0l.005-3.526c.668-4.82,15.519-5.023,16.9,0Z" transform="translate(-403.591 -256.696)" fill="#002ed9"/>
            <path id="Trazado_599596" data-name="Trazado 599596" d="M323.077,560.013V559.8a1.548,1.548,0,1,0-3.1,0v.211h-.235v2.79c0,.482,3.576.482,3.576,0v-2.79Zm-2.544-.211a1,1,0,1,1,2,0v.211h-2Zm1.26,1.616v.806a.256.256,0,0,1-.269.248.238.238,0,0,1-.248-.248v-.806a.47.47,0,0,1-.248-.414.5.5,0,1,1,.765.414" transform="translate(-269.906 -471.237)" fill="#4d4d4d"/>
            <path id="Trazado_599597" data-name="Trazado 599597" d="M325.731,480.109a1.013,1.013,0,0,0,.787-.385.987.987,0,0,0,.217-.626,1.008,1.008,0,1,0-2.016,0,.986.986,0,0,0,.217.626,1.017,1.017,0,0,0,.795.385" transform="translate(-274.103 -403.565)" fill="#4d4d4d"/>
            <path id="Trazado_599598" data-name="Trazado 599598" d="M323.208,494.387c0,.638-3.584.638-3.584,0l.019-.744c.141-1.017,3.275-1.06,3.565,0Z" transform="translate(-269.803 -416.039)" fill="#4d4d4d"/>
            <g id="Grupo_877847" data-name="Grupo 877847" transform="translate(59.144 75.676)">
              <path id="Trazado_599599" data-name="Trazado 599599" d="M395.077,487.8H380.587a1.154,1.154,0,1,1,0-2.309h14.491a1.154,1.154,0,1,1,0,2.309" transform="translate(-379.432 -485.492)" fill="#e5e5e5"/>
              <path id="Trazado_599600" data-name="Trazado 599600" d="M517.689,487.8H503.2a1.154,1.154,0,1,1,0-2.309h14.491a1.154,1.154,0,1,1,0,2.309" transform="translate(-482.932 -485.492)" fill="#e5e5e5"/>
            </g>
          </g>
        </g>
        <g id="Grupo_877844" data-name="Grupo 877844" transform="translate(0 0)">
          <g id="Grupo_877843" data-name="Grupo 877843" transform="translate(0 0)" clip-path="url(#clip-path)">
            <path id="Trazado_599603" data-name="Trazado 599603" d="M42.383,670.691A10.921,10.921,0,0,0,21.5,664.966a7.626,7.626,0,0,0-12.7,5.7H7.371a7.371,7.371,0,1,0,0,14.743H41.839a7.367,7.367,0,0,0,.544-14.715" transform="translate(0 -555.68)" fill="#b3d0ff"/>
            <path id="Trazado_599604" data-name="Trazado 599604" d="M765.294,112.738a10.921,10.921,0,0,1,20.882-5.725,7.626,7.626,0,0,1,12.7,5.7h1.425a7.371,7.371,0,1,1,0,14.743H765.839a7.367,7.367,0,0,1-.544-14.715" transform="translate(-640.241 -84.697)" fill="#b3d0ff"/>
          </g>
        </g>
      </g>
      <path id="Trazado_599657" data-name="Trazado 599657" d="M.632,1121.59H242.817a.632.632,0,0,0,0-1.263H.632a.632.632,0,1,0,0,1.263" transform="translate(520.776 7317.547)" fill="#0c3066"/>
      <g id="Grupo_877854" data-name="Grupo 877854" transform="translate(661.681 8292.461)">
        <g id="Grupo_877853" data-name="Grupo 877853" transform="translate(0 -0.003)" clip-path="url(#clip-path-3)">
          <path id="Trazado_599607" data-name="Trazado 599607" d="M321.882,234.794l24.233.887,20.846.686-.047,3.165c-7.363,2.484-13.084,3.083-20.32,3.307a109.11,109.11,0,0,1-24.663,3.5c-6.593.028-6.643-11.516-.049-11.544" transform="translate(-273.446 -202.559)" fill="#f7a594"/>
          <path id="Trazado_599608" data-name="Trazado 599608" d="M669.471,246.25H678.5s0,.357-.781.522-3.741.617-3.741.617c1.2.28.806.973.493,1.645,0,0-.822,1.686-1.48,1.809s-4.572-1.559-4.687-1.6c-1.392-.544-.514-3,1.168-2.989" transform="translate(-575.956 -212.442)" fill="#f7a594"/>
          <path id="Trazado_599609" data-name="Trazado 599609" d="M704.679,254.346a.048.048,0,0,1-.034-.083,5.168,5.168,0,0,0,1.41-2.2.731.731,0,0,0-.527-.37h-.007c-.145,0-.405.249-.635.468-.271.259-.529.506-.706.481a.175.175,0,0,1-.13-.089c-.236-.386.144-1.417.16-1.461l.01-.027.029,0,4.369-.594a.047.047,0,0,1,.054.041.048.048,0,0,1-.041.054l-4.34.59c-.058.165-.351,1.035-.159,1.349a.079.079,0,0,0,.06.044c.135.015.4-.234.627-.456.272-.26.533-.5.714-.495a.834.834,0,0,1,.616.437l.008.016,0,.017a5.186,5.186,0,0,1-1.441,2.269.049.049,0,0,1-.034.014" transform="translate(-607.325 -216.078)" fill="#d97b69"/>
          <path id="Trazado_599610" data-name="Trazado 599610" d="M302.351,226c-2.906-.181-11.473-1.465-16.864-1.065-4.94,1.783-4.1,10.3-1.936,11.728-.017.239,9.292,3.276,18.946.892,1.507-1.618,1.375-9.809-.146-11.554" transform="translate(-243.145 -193.985)" fill="#13305c"/>
          <path id="Trazado_599611" data-name="Trazado 599611" d="M412.875,241.891c-1.534.472-2.968.752-4.011.271-.631,0-.782-12.708-.151-12.711l3.973-.017c1.261-.006,1.45,12.451.189,12.457" transform="translate(-352.252 -197.935)" fill="#1d498c"/>
          <path id="Trazado_599612" data-name="Trazado 599612" d="M5.6,980.653H16.752a1.24,1.24,0,0,0,.479-.448,101.777,101.777,0,0,1,.814-12.292l-7.785-.316L8.8,973.769c-2.518,1.779-5.438,5.6-3.2,6.884" transform="translate(-4.139 -834.755)" fill="#231f20"/>
          <path id="Trazado_599613" data-name="Trazado 599613" d="M13.466,1052.231H.239c-.335,0-.311-1.839.025-1.839l13.151.074c.345,0,.4,1.765.051,1.765" transform="translate(0 -906.183)" fill="#231f20"/>
          <path id="Trazado_599614" data-name="Trazado 599614" d="M35.935,367.915c-.79,6.143-4.166,21.315-3.8,38-3.655,21.264-4.058,25.948-4.5,39.063l11.151.417c1.785-9.159,5.448-23.615,7.107-37.72,3.6-11.114,5.966-26.954,7.126-39.531,1.17-10.84-14.154-15.222-17.081-.228" transform="translate(-23.838 -309.08)" fill="#13305c"/>
          <path id="Trazado_599615" data-name="Trazado 599615" d="M65.908,532.49l-.228,0c.02-1.512,4.551-52.65,9.155-73.383l.223.05c-4.6,20.721-9.129,71.825-9.149,73.337" transform="translate(-56.663 -396.073)" fill="#231f20"/>
          <path id="Trazado_599616" data-name="Trazado 599616" d="M168.836,362.407a250,250,0,0,0,6.2,39.126c-.906,14.434,1.654,28.293,3.474,37.773l10.609-.1c.615-9.281-.7-59.524-3.443-76.563-1.308-15.066-18.734-15.872-16.842-.241" transform="translate(-145.532 -302.822)" fill="#13305c"/>
          <path id="Trazado_599617" data-name="Trazado 599617" d="M251.205,993.534a32.254,32.254,0,0,0-.389,9.181l17.349.337s1.636-1.671-.641-4.177-6.3-1.056-9.166-5.436Z" transform="translate(-216.218 -857.05)" fill="#231f20"/>
          <path id="Trazado_599618" data-name="Trazado 599618" d="M266.828,1052.231H248.412c-.335,0-.335-1.839,0-1.839l18.341.074c.345,0,.42,1.765.074,1.765" transform="translate(-214.091 -906.183)" fill="#231f20"/>
          <rect id="Rectángulo_297750" data-name="Rectángulo 297750" width="0.228" height="73.15" transform="translate(37.374 63.221) rotate(-2.847)" fill="#231f20"/>
          <path id="Trazado_599619" data-name="Trazado 599619" d="M123.829,239.238,99.243,226.574c.945-16.638,6.876-28.648,11.271-30.406,10.5-4.2,20.712.5,24.735,5.776,1.6,2.094,1.7,11.451-1.5,17.559a46.189,46.189,0,0,1-4.3,6.7c-1.608,2.017-5.62,13.035-5.62,13.035" transform="translate(-85.618 -167.839)" fill="#13305c"/>
          <path id="Trazado_599620" data-name="Trazado 599620" d="M268.423,167.617c-.558-1.539-4.09-5.557-4.664-7.218l4.914-7.4,4.538,2.218a14.94,14.94,0,0,1,3.046,3.008l-2.1,5.571-.452,1.21c-.169,1.361-1.918,2.051-5.282,2.609" transform="translate(-227.548 -131.994)" fill="#f7a594"/>
          <path id="Trazado_599621" data-name="Trazado 599621" d="M302.374,171.926a11.231,11.231,0,0,0,5.1,8.2l1.816-4.82Z" transform="translate(-260.861 -148.322)" fill="#e6836f"/>
          <path id="Trazado_599622" data-name="Trazado 599622" d="M305.136,61.973c-.137,1.787-.489,5.7-1.136,7.347-.984,2.514-4.265,4.628-6.476,4.359-2.5-.5-5.551-2.227-6.857-4.3a25.607,25.607,0,0,1-1.841-7.474c-.294-5.581,4.6-8.89,9.413-8.524s7.325,3.018,6.9,8.59" transform="translate(-249.162 -46.029)" fill="#f7a594"/>
          <path id="Trazado_599623" data-name="Trazado 599623" d="M285.2,59.876c-.43-1.939,1.022-2.225,1.994-.523.15-1.317-.148-5.4,1.481-6.227,1.852-.967,7.916,1.566,12.351-.9,0,0-.815-6.258-10.028-5.543-10.792,2.067-5.8,13.2-5.8,13.2" transform="translate(-245.052 -40.222)" fill="#4d261c"/>
          <path id="Trazado_599624" data-name="Trazado 599624" d="M284.015,125.307a1.7,1.7,0,1,1-2.331-1.339,1.92,1.92,0,0,1,2.331,1.339" transform="translate(-242.219 -106.864)" fill="#f7a594"/>
          <path id="Trazado_599625" data-name="Trazado 599625" d="M314.42,88.061c-.946-.641-14.9.477-14.857,1.5,0,0,8.991,2.81,16.047,1.9,3.852-.5-1.19-3.4-1.19-3.4" transform="translate(-258.436 -75.808)" fill="#13305c"/>
          <path id="Trazado_599626" data-name="Trazado 599626" d="M278.929,76.506l17.062-1.721.142-2.3L278.1,74.168a4.922,4.922,0,0,0,.828,2.338" transform="translate(-239.921 -62.534)" fill="#1d498c"/>
          <path id="Trazado_599627" data-name="Trazado 599627" d="M263.6,11.973c-1.846.122-2.421-1.16-.161-2.567C266.922,7.235,271.01.2,275.256,0c2.926-.137,3.971,3.562,6.88,6.554,1.319,1.357,1.928,2.539,1,3.424-2.223.8-17.609,1.866-19.542,1.994" transform="translate(-226.001 0.003)" fill="#13305c"/>
          <path id="Trazado_599628" data-name="Trazado 599628" d="M351.293,21.5l-.006-.095a4.214,4.214,0,0,1-1.116-.344,3.377,3.377,0,0,1-.89-.593l0,0a3.031,3.031,0,0,1-.363.367,3.828,3.828,0,0,1-.608.421c-.111.063-.225.123-.344.177a4.142,4.142,0,0,1-.553.2l.034.563c.005.082.011.175.017.28,0,.053.007.109.01.169.011.179.024.389.039.634a2.566,2.566,0,0,0,.212.882,2.629,2.629,0,0,0,.126.25,3,3,0,0,0,.48.624,3.774,3.774,0,0,0,.537.445,4.16,4.16,0,0,0,.592.339c.072.034.128.057.16.069a4.269,4.269,0,0,0,.544-.372,4.1,4.1,0,0,0,.315-.28c.054-.053.107-.109.16-.168a2.74,2.74,0,0,0,.75-2.022c-.06-.983-.085-1.389-.095-1.552" transform="translate(-299.715 -17.659)" fill="#f7bd0c"/>
          <path id="Trazado_599629" data-name="Trazado 599629" d="M355.563,32.266a1.263,1.263,0,1,1-1.332-1.185,1.259,1.259,0,0,1,1.332,1.185" transform="translate(-304.57 -26.812)" fill="#fff"/>
          <path id="Trazado_599630" data-name="Trazado 599630" d="M361.949,129.8a1.935,1.935,0,0,1-.769-.148.091.091,0,0,1,.078-.165,1.947,1.947,0,0,0,1.407,0,.193.193,0,0,0,.106-.117c.273-.658-.751-3.223-1.168-4.155a.091.091,0,1,1,.167-.075c.063.14,1.529,3.435,1.171,4.3a.37.37,0,0,1-.21.217,2.184,2.184,0,0,1-.78.145" transform="translate(-311.549 -107.909)" fill="#bf5847"/>
          <path id="Trazado_599631" data-name="Trazado 599631" d="M337.179,170.949a.093.093,0,0,1-.036-.007.091.091,0,0,1-.048-.12.4.4,0,0,0-.025-.4c-.6-.942-4.638-1.106-4.678-1.108a.091.091,0,0,1,.007-.183c.17.007,4.179.17,4.826,1.193a.581.581,0,0,1,.038.568.091.091,0,0,1-.084.055" transform="translate(-286.682 -145.912)" fill="#bf5847"/>
          <path id="Trazado_599632" data-name="Trazado 599632" d="M337.256,122.893c0,.3-.183.544-.408.544s-.408-.244-.408-.544.183-.544.408-.544.408.244.408.544" transform="translate(-290.249 -105.551)" fill="#4f241d"/>
          <path id="Trazado_599633" data-name="Trazado 599633" d="M328.824,112.448a12.385,12.385,0,0,1,2.961,1.385c.31-.277-1.4-1.83-2.275-2.042Z" transform="translate(-283.68 -96.444)" fill="#4f241d"/>
          <path id="Trazado_599634" data-name="Trazado 599634" d="M386.69,125.159c0,.3-.183.544-.408.544s-.408-.244-.408-.544.183-.544.408-.544.408.244.408.544" transform="translate(-332.897 -107.506)" fill="#4f241d"/>
          <path id="Trazado_599635" data-name="Trazado 599635" d="M380.276,117.287a12.384,12.384,0,0,0-3.2.688c-.24-.339,1.771-1.471,2.674-1.481Z" transform="translate(-325.294 -100.5)" fill="#4f241d"/>
          <path id="Trazado_599636" data-name="Trazado 599636" d="M291.045,243.8l-.2,1.919,1.079-1.509-.6,3.121a3.321,3.321,0,0,0-.561-1.433,3.428,3.428,0,0,0-2.149.561Z" transform="translate(-248.982 -210.33)" fill="#231f20"/>
          <path id="Trazado_599637" data-name="Trazado 599637" d="M261.089,192.978c.218,2.014,3.082,5.063,4.682,6.855l-2.441,2.658c-1.866-2.244-4.355-5.021-3.986-8.678.164-.957.794-1.156,1.745-.834" transform="translate(-223.706 -166.361)" fill="#1d498c"/>
          <path id="Trazado_599638" data-name="Trazado 599638" d="M312.709,230.851c-.41.432-1.688,2.328-3.76,2.188l-.6,3.121c2.917.093,3.734-.981,4.506-2.979.3-.8.535-1.708-.142-2.33" transform="translate(-266.012 -199.157)" fill="#1d498c"/>
          <path id="Trazado_599639" data-name="Trazado 599639" d="M201.347,289.583a.112.112,0,0,1-.049-.011.114.114,0,0,1-.054-.152c1.138-2.389,2.587-5.182,4.121-8.139,4.18-8.056,8.917-17.186,9.9-22.941a.114.114,0,1,1,.225.038c-.989,5.79-5.735,14.937-9.922,23.008-1.533,2.955-2.981,5.746-4.118,8.132a.114.114,0,0,1-.1.065" transform="translate(-173.605 -222.79)" fill="#231f20"/>
          <path id="Trazado_599640" data-name="Trazado 599640" d="M77.585,417.932c4.764,2.907,28.23,5.246,29.219,4.865,1.315.086,1.144,4.836.114,5.694-1.575,1.312-31.434-3.749-31.913-5.166s1.235-6.215,2.58-5.393" transform="translate(-64.636 -360.473)" fill="#231f20"/>
          <path id="Trazado_599641" data-name="Trazado 599641" d="M308.039,323.481l.039-.084a4.092,4.092,0,0,1-.8-.812,3.279,3.279,0,0,1-.486-.919h0l0,0a2.951,2.951,0,0,1-.48.146,3.736,3.736,0,0,1-.715.079c-.124,0-.25,0-.376-.008a4.036,4.036,0,0,1-.567-.083l-.232.5-.115.248-.069.149-.261.561a2.49,2.49,0,0,0-.227.852,2.56,2.56,0,0,0-.008.272,2.926,2.926,0,0,0,.122.756,3.679,3.679,0,0,0,.253.63,4.062,4.062,0,0,0,.349.564c.046.063.083.108.1.134a4.148,4.148,0,0,0,.638-.066,4.01,4.01,0,0,0,.4-.094q.106-.031.215-.07a2.667,2.667,0,0,0,1.58-1.383l.639-1.372" transform="translate(-262.039 -277.505)" fill="#f7bd0c"/>
          <rect id="Rectángulo_297751" data-name="Rectángulo 297751" width="0.979" height="5.338" transform="translate(39.176 49.636) rotate(-63.951)" fill="#1d498c"/>
          <path id="Trazado_599642" data-name="Trazado 599642" d="M200.069,473.617h-1.632l.033-.14c.732-3.1.833-10.635.834-10.711l.228,0c0,.075-.1,7.418-.808,10.621h1.158a48.01,48.01,0,0,0,.909-10.43l.228-.014a48.723,48.723,0,0,1-.932,10.581Z" transform="translate(-171.194 -399.233)" fill="#231f20"/>
          <path id="Trazado_599643" data-name="Trazado 599643" d="M113.665,339.9s-2.119,12.152.079,16.431c2.271,4.422,23.147,5.337,23.147,5.337l.734-6.284-14.393-3.617,3.1-9.31Z" transform="translate(-97.267 -293.237)" fill="#f7a594"/>
          <path id="Trazado_599644" data-name="Trazado 599644" d="M119.21,219.844a32.036,32.036,0,0,0-6.267,18.012c7.917,5.744,13.115,1.581,13.115,1.581s3.984-10.6,3.083-15.754-8.141-5.713-9.931-3.838" transform="translate(-97.437 -188.813)" fill="#13305c"/>
          <path id="Trazado_599645" data-name="Trazado 599645" d="M108.526,334.082c1.073,1.3,13.362,3.813,13.613,2.383a4.029,4.029,0,0,1-.824,3.943c-.308,1.987-13.63-.074-13.322-2.061q-1.165-1.841.533-4.265" transform="translate(-92.758 -288.216)" fill="#1d498c"/>
          <path id="Trazado_599646" data-name="Trazado 599646" d="M213.294,315.6a.114.114,0,0,1-.1-.172,18.642,18.642,0,0,0,2.027-5.572.114.114,0,0,1,.224.044,18.878,18.878,0,0,1-2.054,5.643.114.114,0,0,1-.1.056" transform="translate(-183.912 -267.236)" fill="#231f20"/>
          <path id="Trazado_599647" data-name="Trazado 599647" d="M224.734,344.793h0c0-.072,0-.1,0-.111v.111" transform="translate(-193.88 -297.36)" fill="#d9ffff"/>
          <path id="Trazado_599648" data-name="Trazado 599648" d="M224.734,344.793h0c0-.072,0-.1,0-.111v.111" transform="translate(-193.88 -297.36)" fill="#d9ffff"/>
          <path id="Trazado_599649" data-name="Trazado 599649" d="M540.33,347.545s0-.1,0-.111c0,.007,0,.039,0,.111" transform="translate(-466.148 -299.734)" fill="#d9ffff"/>
          <path id="Trazado_599650" data-name="Trazado 599650" d="M540.33,347.545s0-.1,0-.111c0,.007,0,.039,0,.111" transform="translate(-466.148 -299.734)" fill="#d9ffff"/>
          <path id="Trazado_599651" data-name="Trazado 599651" d="M245.671,261.3c-5.073,5.362-13.149,9.74-21.778,11.583-.005.573-.033,3.749-.162,18.385-.172,19.525,18.454,29.146,21.346,30.623,2.814-1.275,21.758-10.72,21.931-30.245.129-14.636.157-17.812.162-18.385-8.6-1.993-16.521-6.511-21.5-11.961" transform="translate(-193.014 -225.423)" fill="#fff"/>
          <path id="Trazado_599652" data-name="Trazado 599652" d="M260.417,287a45.929,45.929,0,0,1-19.37,9.915l-.146,16.543c-.067,7.569,2.925,14.43,8.892,20.393a42.947,42.947,0,0,0,10.146,7.451l.288-.146.234-54.117-.043-.039" transform="translate(-207.826 -247.597)" fill="#7fd452"/>
          <path id="Trazado_599653" data-name="Trazado 599653" d="M381.9,287.282l-.234,54.117a42.975,42.975,0,0,0,9.988-7.127c6.071-5.857,9.183-12.665,9.25-20.234l.146-16.543A45.938,45.938,0,0,1,381.9,287.282" transform="translate(-329.269 -247.841)" fill="#a9ef84"/>
          <path id="Trazado_599654" data-name="Trazado 599654" d="M318.523,460.69l-.055,12.816c-.006,1.427,17.5,1.5,17.5.075l.055-12.816Zm9.608,6.847-.016,3.632a.885.885,0,1,1-1.771-.008l.016-3.641a2.153,2.153,0,1,1,1.771.016" transform="translate(-274.746 -397.442)" fill="#fff"/>
          <path id="Trazado_599655" data-name="Trazado 599655" d="M344.508,403.756l-1.772-.008,0-.863a5.448,5.448,0,0,0-10.9-.046l0,.863-1.772-.008,0-.863a7.22,7.22,0,0,1,14.439.061Z" transform="translate(-284.754 -341.353)" fill="#fff"/>
        </g>
      </g>
      <path id="Trazado_599658" data-name="Trazado 599658" d="M318.583,460.69l-.115,26.558c-.013,2.956,36.261,3.111,36.274.155l.115-26.558Zm19.911,14.188-.033,7.527a1.835,1.835,0,1,1-3.67-.016l.033-7.544a4.462,4.462,0,1,1,3.67.033" transform="translate(305.837 7903.764)" fill="#fff"/>
      <path id="Trazado_599659" data-name="Trazado 599659" d="M359.991,412.42l-3.672-.016.008-1.788a11.289,11.289,0,0,0-22.578-.1l-.008,1.788-3.672-.016.008-1.788a14.961,14.961,0,0,1,29.922.127Z" transform="translate(297.537 7950.282)" fill="#fff"/>
    </g>
  </g>
</svg>
