<svg xmlns="http://www.w3.org/2000/svg" xmlns:xlink="http://www.w3.org/1999/xlink" width="201.353" height="25" viewBox="0 0 201.353 25">
  <defs>
    <clipPath id="clip-path">
      <rect id="Rectángulo_284102" data-name="Rectángulo 284102" width="201.353" height="25" fill="#fff"/>
    </clipPath>
  </defs>
  <g id="Grupo_852472" data-name="Grupo 852472" clip-path="url(#clip-path)">
    <path id="Trazado_597847" data-name="Trazado 597847" d="M6.9,3.452A3.452,3.452,0,1,1,3.452,0,3.452,3.452,0,0,1,6.9,3.452" transform="translate(0 0)" fill="#fff"/>
    <path id="Trazado_597848" data-name="Trazado 597848" d="M37.707,3.452A3.452,3.452,0,1,1,34.255,0a3.452,3.452,0,0,1,3.452,3.452" transform="translate(-7.945 0)" fill="#fff"/>
    <path id="Trazado_597849" data-name="Trazado 597849" d="M68.511,3.452A3.452,3.452,0,1,1,65.059,0a3.452,3.452,0,0,1,3.452,3.452" transform="translate(-15.89 0)" fill="#fff"/>
    <path id="Trazado_597850" data-name="Trazado 597850" d="M99.314,3.452A3.452,3.452,0,1,1,95.862,0a3.452,3.452,0,0,1,3.452,3.452" transform="translate(-23.835 0)" fill="#fff"/>
    <path id="Trazado_597851" data-name="Trazado 597851" d="M130.118,3.452A3.452,3.452,0,1,1,126.666,0a3.452,3.452,0,0,1,3.452,3.452" transform="translate(-31.78 0)" fill="#fff"/>
    <path id="Trazado_597852" data-name="Trazado 597852" d="M160.921,3.452A3.452,3.452,0,1,1,157.469,0a3.452,3.452,0,0,1,3.452,3.452" transform="translate(-39.725 0)" fill="#fff"/>
    <path id="Trazado_597853" data-name="Trazado 597853" d="M191.725,3.452A3.452,3.452,0,1,1,188.273,0a3.452,3.452,0,0,1,3.452,3.452" transform="translate(-47.67 0)" fill="#fff"/>
    <path id="Trazado_597854" data-name="Trazado 597854" d="M222.528,3.452A3.452,3.452,0,1,1,219.076,0a3.452,3.452,0,0,1,3.452,3.452" transform="translate(-55.615 0)" fill="#fff"/>
    <path id="Trazado_597855" data-name="Trazado 597855" d="M253.332,3.452A3.452,3.452,0,1,1,249.879,0a3.453,3.453,0,0,1,3.453,3.452" transform="translate(-63.56 0)" fill="#fff"/>
    <path id="Trazado_597856" data-name="Trazado 597856" d="M22.51,27.838a3.452,3.452,0,1,1-3.452-3.452,3.452,3.452,0,0,1,3.452,3.452" transform="translate(-4.025 -6.29)" fill="#fff"/>
    <path id="Trazado_597857" data-name="Trazado 597857" d="M53.314,27.838a3.452,3.452,0,1,1-3.452-3.452,3.452,3.452,0,0,1,3.452,3.452" transform="translate(-11.97 -6.29)" fill="#fff"/>
    <path id="Trazado_597858" data-name="Trazado 597858" d="M84.117,27.838a3.452,3.452,0,1,1-3.452-3.452,3.452,3.452,0,0,1,3.452,3.452" transform="translate(-19.915 -6.29)" fill="#fff"/>
    <path id="Trazado_597859" data-name="Trazado 597859" d="M114.921,27.838a3.452,3.452,0,1,1-3.452-3.452,3.452,3.452,0,0,1,3.452,3.452" transform="translate(-27.86 -6.29)" fill="#fff"/>
    <path id="Trazado_597860" data-name="Trazado 597860" d="M145.724,27.838a3.452,3.452,0,1,1-3.452-3.452,3.452,3.452,0,0,1,3.452,3.452" transform="translate(-35.805 -6.29)" fill="#fff"/>
    <path id="Trazado_597861" data-name="Trazado 597861" d="M176.527,27.838a3.452,3.452,0,1,1-3.452-3.452,3.452,3.452,0,0,1,3.452,3.452" transform="translate(-43.75 -6.29)" fill="#fff"/>
    <path id="Trazado_597862" data-name="Trazado 597862" d="M207.331,27.838a3.452,3.452,0,1,1-3.452-3.452,3.452,3.452,0,0,1,3.452,3.452" transform="translate(-51.695 -6.29)" fill="#fff"/>
    <path id="Trazado_597863" data-name="Trazado 597863" d="M238.134,27.838a3.452,3.452,0,1,1-3.452-3.452,3.452,3.452,0,0,1,3.452,3.452" transform="translate(-59.64 -6.29)" fill="#fff"/>
    <path id="Trazado_597864" data-name="Trazado 597864" d="M268.938,27.838a3.452,3.452,0,1,1-3.452-3.452,3.452,3.452,0,0,1,3.452,3.452" transform="translate(-67.585 -6.29)" fill="#fff"/>
  </g>
</svg>
