<svg xmlns="http://www.w3.org/2000/svg" xmlns:xlink="http://www.w3.org/1999/xlink" width="295" height="264.182" viewBox="0 0 295 264.182">
  <defs>
    <clipPath id="clip-path">
      <rect id="Rectángulo_297748" data-name="Rectángulo 297748" width="167.436" height="217.729" fill="none"/>
    </clipPath>
    <clipPath id="clip-path-3">
      <rect id="Rectángulo_297772" data-name="Rectángulo 297772" width="135.769" height="139.115" fill="none"/>
    </clipPath>
  </defs>
  <g id="Grupo_877998" data-name="Grupo 877998" transform="translate(-495 -8177.145)">
    <path id="Trazado_599849" data-name="Trazado 599849" d="M12,0H283a12,12,0,0,1,12,12V220.5a12,12,0,0,1-12,12H12a12,12,0,0,1-12-12V12A12,12,0,0,1,12,0Z" transform="translate(790 8441.326) rotate(180)" fill="#ebfee1"/>
    <g id="Grupo_877859" data-name="Grupo 877859" transform="translate(0 -43)">
      <g id="Grupo_877849" data-name="Grupo 877849" transform="translate(520.775 8264.985)">
        <path id="Trazado_599605" data-name="Trazado 599605" d="M567.963,172.892S608.871,157.65,605,129.339C599.682,90.463,568.262,87.2,567.015,67c-1.38-22.371,4.794-49.1-21.345-62.394-36.194-18.4-65.64,25.152-95.7,12.883-55.777-22.766-90.807,47.991-57.62,91.448,25.134,35,12.865,63.359,12.865,63.359Z" transform="translate(-361.809 -0.004)" fill="#fff"/>
      </g>
      <g id="Grupo_877852" data-name="Grupo 877852" transform="translate(558.782 8220.145)">
        <g id="Grupo_877842" data-name="Grupo 877842" transform="translate(0 0)">
          <g id="Grupo_877841" data-name="Grupo 877841" transform="translate(0 0)" clip-path="url(#clip-path)">
            <path id="Trazado_599577" data-name="Trazado 599577" d="M360.7,11.326c-1.731-10.254-17.522-14.883-17.212-8.191L271.1,3.559c-5.014.029-9.079,4.54-9.084,10.08l-.15,190.381c0,5.739,4.132,10.431,9.242,10.475l73.9.634a5.914,5.914,0,0,0,2.67,2.571c8.475.181,12.539-4,14.024-8.736a11.393,11.393,0,0,0,.735-4.153c-.3-2.478-1.2-191.081-1.732-193.485" transform="translate(-221.044 -0.002)" fill="#9bb0ff"/>
            <path id="Trazado_599578" data-name="Trazado 599578" d="M296.14,217.877l-84.823-.547c-5.293-.034-9.574-4.853-9.565-10.758l.318-195.79c.009-5.694,4.223-10.32,9.414-10.337l83.175-.27c5.232-.017,9.51,4.6,9.554,10.322l1.508,196.695c.046,5.933-4.245,10.719-9.581,10.685" transform="translate(-170.304 -0.149)" fill="#fff"/>
            <path id="Trazado_599579" data-name="Trazado 599579" d="M305.066,223.522a7.647,7.647,0,0,1-1.072.067l-84.8-.641c-4.548-.034-8.266-4.259-8.258-9.414l.293-195.575c.007-4.971,3.666-9.028,8.127-9.047l83.169-.362c.13,0,.262,0,.391.008a7.87,7.87,0,0,1,5.511,2.682,9.4,9.4,0,0,1,2.343,6.227l1.488,196.894c.035,4.667-3.047,8.6-7.2,9.161" transform="translate(-178.059 -7.217)"/>
            <path id="Trazado_599580" data-name="Trazado 599580" d="M323.135,72.106l1.43,196.209-95.527-.572.244-195.637Z" transform="translate(-193.337 -60.866)" fill="#fa4861"/>
            <path id="Trazado_599581" data-name="Trazado 599581" d="M459.691,662.9H434.117a3.934,3.934,0,1,1,0-7.868h25.573a3.934,3.934,0,1,1,0,7.868" transform="translate(-363.128 -552.928)" fill="#f7cc54"/>
            <path id="Trazado_599582" data-name="Trazado 599582" d="M364.9,475.528H298.771a3.934,3.934,0,1,1,0-7.868H364.9a3.934,3.934,0,1,1,0,7.868" transform="translate(-248.879 -394.764)" fill="#fff"/>
            <path id="Trazado_599583" data-name="Trazado 599583" d="M364.9,556.821H298.771a3.934,3.934,0,1,1,0-7.868H364.9a3.934,3.934,0,1,1,0,7.868" transform="translate(-248.879 -463.385)" fill="#fff"/>
            <g id="Grupo_877846" data-name="Grupo 877846" transform="translate(59.469 88.465)">
              <path id="Trazado_599584" data-name="Trazado 599584" d="M384.288,568.928a1.385,1.385,0,1,1-1.385-1.385,1.385,1.385,0,0,1,1.385,1.385" transform="translate(-381.518 -567.543)" fill="#e5e5e5"/>
              <path id="Trazado_599585" data-name="Trazado 599585" d="M414.755,568.928a1.385,1.385,0,1,1-1.385-1.385,1.385,1.385,0,0,1,1.385,1.385" transform="translate(-407.236 -567.543)" fill="#e5e5e5"/>
              <path id="Trazado_599586" data-name="Trazado 599586" d="M445.221,568.928a1.385,1.385,0,1,1-1.385-1.385,1.385,1.385,0,0,1,1.385,1.385" transform="translate(-432.954 -567.543)" fill="#e5e5e5"/>
              <path id="Trazado_599587" data-name="Trazado 599587" d="M475.688,568.928a1.385,1.385,0,1,1-1.385-1.385,1.385,1.385,0,0,1,1.385,1.385" transform="translate(-458.671 -567.543)" fill="#e5e5e5"/>
              <path id="Trazado_599588" data-name="Trazado 599588" d="M506.155,568.928a1.385,1.385,0,1,1-1.385-1.385,1.385,1.385,0,0,1,1.385,1.385" transform="translate(-484.389 -567.543)" fill="#e5e5e5"/>
              <path id="Trazado_599589" data-name="Trazado 599589" d="M536.622,568.928a1.385,1.385,0,1,1-1.385-1.385,1.385,1.385,0,0,1,1.385,1.385" transform="translate(-510.107 -567.543)" fill="#e5e5e5"/>
              <path id="Trazado_599590" data-name="Trazado 599590" d="M567.088,568.928a1.385,1.385,0,1,1-1.385-1.385,1.385,1.385,0,0,1,1.385,1.385" transform="translate(-535.825 -567.543)" fill="#e5e5e5"/>
              <path id="Trazado_599591" data-name="Trazado 599591" d="M597.555,568.928a1.385,1.385,0,1,1-1.385-1.385,1.385,1.385,0,0,1,1.385,1.385" transform="translate(-561.542 -567.543)" fill="#e5e5e5"/>
              <path id="Trazado_599592" data-name="Trazado 599592" d="M628.022,568.928a1.385,1.385,0,1,1-1.385-1.385,1.385,1.385,0,0,1,1.385,1.385" transform="translate(-587.26 -567.543)" fill="#e5e5e5"/>
            </g>
            <path id="Trazado_599593" data-name="Trazado 599593" d="M465.212,217.2a15.2,15.2,0,1,1-15.2-15.2,15.2,15.2,0,0,1,15.2,15.2" transform="translate(-367.035 -170.511)" fill="#fff"/>
            <path id="Trazado_599594" data-name="Trazado 599594" d="M506.5,243.657a4.8,4.8,0,0,0,3.729-1.827,4.68,4.68,0,0,0,1.028-2.968,4.776,4.776,0,1,0-9.552,0,4.676,4.676,0,0,0,1.028,2.968,4.818,4.818,0,0,0,3.767,1.827" transform="translate(-423.504 -197.582)" fill="#002ed9"/>
            <path id="Trazado_599595" data-name="Trazado 599595" d="M495.014,311.314c0,3.026-16.9,3.026-16.9,0l.005-3.526c.668-4.82,15.519-5.023,16.9,0Z" transform="translate(-403.591 -256.696)" fill="#002ed9"/>
            <path id="Trazado_599596" data-name="Trazado 599596" d="M323.077,560.013V559.8a1.548,1.548,0,1,0-3.1,0v.211h-.235v2.79c0,.482,3.576.482,3.576,0v-2.79Zm-2.544-.211a1,1,0,1,1,2,0v.211h-2Zm1.26,1.616v.806a.256.256,0,0,1-.269.248.238.238,0,0,1-.248-.248v-.806a.47.47,0,0,1-.248-.414.5.5,0,1,1,.765.414" transform="translate(-269.906 -471.237)" fill="#4d4d4d"/>
            <path id="Trazado_599597" data-name="Trazado 599597" d="M325.731,480.109a1.013,1.013,0,0,0,.787-.385.987.987,0,0,0,.217-.626,1.008,1.008,0,1,0-2.016,0,.986.986,0,0,0,.217.626,1.017,1.017,0,0,0,.795.385" transform="translate(-274.103 -403.565)" fill="#4d4d4d"/>
            <path id="Trazado_599598" data-name="Trazado 599598" d="M323.208,494.387c0,.638-3.584.638-3.584,0l.019-.744c.141-1.017,3.275-1.06,3.565,0Z" transform="translate(-269.803 -416.039)" fill="#4d4d4d"/>
            <g id="Grupo_877847" data-name="Grupo 877847" transform="translate(59.144 75.676)">
              <path id="Trazado_599599" data-name="Trazado 599599" d="M395.077,487.8H380.587a1.154,1.154,0,1,1,0-2.309h14.491a1.154,1.154,0,1,1,0,2.309" transform="translate(-379.432 -485.492)" fill="#e5e5e5"/>
              <path id="Trazado_599600" data-name="Trazado 599600" d="M517.689,487.8H503.2a1.154,1.154,0,1,1,0-2.309h14.491a1.154,1.154,0,1,1,0,2.309" transform="translate(-482.932 -485.492)" fill="#e5e5e5"/>
            </g>
          </g>
        </g>
        <g id="Grupo_877844" data-name="Grupo 877844" transform="translate(0 0)">
          <g id="Grupo_877843" data-name="Grupo 877843" transform="translate(0 0)" clip-path="url(#clip-path)">
            <path id="Trazado_599603" data-name="Trazado 599603" d="M42.383,670.691A10.921,10.921,0,0,0,21.5,664.966a7.626,7.626,0,0,0-12.7,5.7H7.371a7.371,7.371,0,1,0,0,14.743H41.839a7.367,7.367,0,0,0,.544-14.715" transform="translate(0 -555.68)" fill="#b3d0ff"/>
            <path id="Trazado_599604" data-name="Trazado 599604" d="M765.294,112.738a10.921,10.921,0,0,1,20.882-5.725,7.626,7.626,0,0,1,12.7,5.7h1.425a7.371,7.371,0,1,1,0,14.743H765.839a7.367,7.367,0,0,1-.544-14.715" transform="translate(-640.241 -84.697)" fill="#b3d0ff"/>
          </g>
        </g>
      </g>
      <path id="Trazado_599657" data-name="Trazado 599657" d="M.632,1121.59H242.817a.632.632,0,0,0,0-1.263H.632a.632.632,0,1,0,0,1.263" transform="translate(520.776 7317.547)" fill="#0c3066"/>
      <g id="Grupo_877861" data-name="Grupo 877861" transform="translate(614.449 8298.758)">
        <g id="Grupo_877860" data-name="Grupo 877860" clip-path="url(#clip-path-3)">
          <path id="Trazado_599683" data-name="Trazado 599683" d="M168.314,520.733l-5.976-2.188c-2.191-1.215-4.39,2.749-2.2,3.964l5.371,3.29c1.395.772,4.2-4.294,2.8-5.066" transform="translate(-132.016 -429.722)" fill="#b3b3b3"/>
          <path id="Trazado_599684" data-name="Trazado 599684" d="M231.454,416.612c-5.422,6.838-9.741,15.666-14.622,24.153-4.922-2.855-9.989-3.376-22.185-7.662-2.6-.142-5.024,4.47-2.941,6.486,0,0,19.347,16.081,27.322,14.832s24.061-24.349,26.814-27.968c5.053-6.64-5.123-19.049-14.388-9.842" transform="translate(-158.285 -342.682)" fill="#0d0d0d"/>
          <path id="Trazado_599685" data-name="Trazado 599685" d="M187.764,527.608l-2.384-.879c-1.16.051-3.008,3.3-2.118,4.807l2.283,1.431Z" transform="translate(-151.743 -436.697)" fill="#0d0d0d"/>
          <path id="Trazado_599686" data-name="Trazado 599686" d="M100.278,501.134l4.934-.624c.756-4.366,4.807-2.276,4.417-4.286s-3.358-5.294-3.358-5.294l-12.407,9.1s-.469,3.609,6.414,1.1" transform="translate(-77.814 -407.017)" fill="#0d0d0d"/>
          <path id="Trazado_599687" data-name="Trazado 599687" d="M131.423,539.951a12.2,12.2,0,0,1,5.2.439c1.214.57,2.28-1.942.465-2.476a5.52,5.52,0,0,0-5.667,2.037" transform="translate(-108.959 -445.835)" fill="#0d0d0d"/>
          <path id="Trazado_599688" data-name="Trazado 599688" d="M660.121,735.742l3.927,5.008c1.222,2.187,5.18-.024,3.958-2.211L665.023,733c-.779-1.391-5.682,1.354-4.9,2.745" transform="translate(-547.22 -607.391)" fill="#b3b3b3"/>
          <path id="Trazado_599689" data-name="Trazado 599689" d="M455.17,443.354c5.39,6.863,17.088,18.285,17.088,18.285s9.1,16.839,16.167,23c2.139,1.492,6.625-1.152,5.917-3.964,0,0-10.349-23.6-13.174-28.066s-10.2-17.441-13.082-20.96c-5.284-6.458-19.718.555-12.917,11.706" transform="translate(-375.888 -355.82)" fill="#0d0d0d"/>
          <path id="Trazado_599690" data-name="Trazado 599690" d="M659.947,736.114s.7,1.728,1.5,1.929,4.542-2.08,4.626-3.135a3.4,3.4,0,0,0-.952-2.136Z" transform="translate(-547.145 -607.522)" fill="#0d0d0d"/>
          <path id="Trazado_599691" data-name="Trazado 599691" d="M684.144,755.114l-4.971.162c-1.159,4.277-5,1.819-4.8,3.856s2.851,5.584,2.851,5.584l13.2-7.908s.8-3.549-6.284-1.694" transform="translate(-559.102 -625.6)" fill="#0d0d0d"/>
          <path id="Trazado_599692" data-name="Trazado 599692" d="M699.094,752.669a12.2,12.2,0,0,1-5.138-.921c-1.156-.681-2.451,1.722-.694,2.422a5.521,5.521,0,0,0,5.832-1.5" transform="translate(-574.052 -623.156)" fill="#0d0d0d"/>
          <path id="Trazado_599693" data-name="Trazado 599693" d="M429.035,307.006c2.79-8.718,5.357-19.255,5.335-24.7-.042-10.532-13.41-11.024-18.237-6.719-4.06,3.352-7.74,11.224-10.609,21.436a11.683,11.683,0,0,0-3.11,9.6c3.044,3.319,20.032,6.2,26.621.389" transform="translate(-333.546 -226.371)" fill="#002ed9"/>
          <path id="Trazado_599694" data-name="Trazado 599694" d="M544.96,307.768l9.782,7.418c.434-2.24,7.156-9.645,10.193-10.142l3.551,2.969c2.334,2.895-8.367,16.958-12.652,18.069-6.9,2.578-20.262-10.326-20.262-10.326-6.177-4.365,1.07-15.565,9.388-7.988" transform="translate(-442.111 -252.904)" fill="#002ed9"/>
          <path id="Trazado_599695" data-name="Trazado 599695" d="M714.888,306.627a1.255,1.255,0,0,0,1.2-1.473c-.126-1.043-4.643-4.757-6.036-2.757-.907,1.3,3.434,4.562,4.838,4.23" transform="translate(-588.582 -250.228)" fill="#577aff"/>
          <path id="Trazado_599696" data-name="Trazado 599696" d="M733.119,264.766a8.8,8.8,0,0,1-.8,1.077,4.068,4.068,0,0,1-.952.86c-1.569.57-3.657-.6-4.339-2.251a3,3,0,0,1-.147-1.282,9.784,9.784,0,0,1,.787-2.7l.012-.031c.134-.3.239-.53.3-.685.012-.031.018-.046.039-.056a.712.712,0,0,0,.057-.1c.642-.979,5.808,2.265,5.635,3.779a4.307,4.307,0,0,1-.587,1.391" transform="translate(-602.624 -215.075)" fill="#f7a594"/>
          <path id="Trazado_599697" data-name="Trazado 599697" d="M696.892,246.309l8.71,5.768a2.451,2.451,0,0,0,3.66,2.483l-1.83-1.242,1.244-1.834,1.8,1.22a2.449,2.449,0,0,0-3.668-2.4l-8.71-5.768a2.451,2.451,0,0,0-3.66-2.483l1.83,1.242-1.244,1.834-1.8-1.22a2.449,2.449,0,0,0,3.668,2.4" transform="translate(-574.721 -200.402)" fill="#d9d9d9"/>
          <path id="Trazado_599698" data-name="Trazado 599698" d="M731.562,262.122s-.741,1.337,1.929,2.969,3.666,1.158,3.937.493-5.258-5.471-5.865-3.462" transform="translate(-606.441 -216.914)" fill="#f7a594"/>
          <path id="Trazado_599699" data-name="Trazado 599699" d="M723.268,268.473c-.561-.957-1.167-2.873-.566-3.823.734-1.161,3.864.491,4.643,1.045.24,1-1.3,1.031-2.156.448,1.161,1.693,1.527,3.479.644,3.564a2.7,2.7,0,0,1-2.565-1.234" transform="translate(-598.967 -219.079)" fill="#f7a594"/>
          <path id="Trazado_599700" data-name="Trazado 599700" d="M724.548,289.4c-.695.5-4.4-2.019-3.751-2.729l3.029-3.533,3.152,2.293Z" transform="translate(-597.531 -234.741)" fill="#f7a594"/>
          <path id="Trazado_599701" data-name="Trazado 599701" d="M733.837,268.6a.083.083,0,0,1-.082-.077,5.984,5.984,0,0,0-1.1-2.532l-.006-.009a.083.083,0,0,1,.135-.1l.006.008c.027.033.258.281,1.031.334a1.068,1.068,0,0,0,.838-.185.634.634,0,0,0,.135-.511,9.4,9.4,0,0,0-3.194-1.372.083.083,0,0,1,.032-.163,9.554,9.554,0,0,1,3.289,1.423.083.083,0,0,1,.034.059.81.81,0,0,1-.178.679,1.2,1.2,0,0,1-.968.235,2.571,2.571,0,0,1-.789-.162,5.4,5.4,0,0,1,.9,2.279.083.083,0,0,1-.077.088h-.006" transform="translate(-606.497 -218.876)" fill="#cc6b58"/>
          <path id="Trazado_599702" data-name="Trazado 599702" d="M336.327,373.61a10.157,10.157,0,0,1,.424-1.259,4.4,4.4,0,0,1,.591-1.094c1.154-.992,3.1-.462,4.012.92a3.231,3.231,0,0,1,.393,1.185,11.6,11.6,0,0,1-.064,2.808l0,.033c-.044.329-.081.575-.1.741,0,.033,0,.049-.02.065a.818.818,0,0,0-.025.114c-.313,1.12-5.21-.515-5.392-2.014a5.112,5.112,0,0,1,.18-1.5" transform="translate(-278.684 -307.375)" fill="#f7a594"/>
          <path id="Trazado_599703" data-name="Trazado 599703" d="M353.5,375.687c.661.757,1.563,2.418,1.277,3.5-.349,1.32-3.249.629-4,.321-.409-.888.84-1.357,1.658-1.042-1.307-1.29-1.986-2.9-1.286-3.229a1.972,1.972,0,0,1,2.351.451" transform="translate(-290.75 -310.93)" fill="#f7a594"/>
          <path id="Trazado_599704" data-name="Trazado 599704" d="M342.916,353.188c.533-.674,4.784.751,4.35,1.611l-1.958,4.222-3.656-1.354Z" transform="translate(-283.255 -292.673)" fill="#f7a594"/>
          <path id="Trazado_599705" data-name="Trazado 599705" d="M367.266,246.528l-11.489-4.791c.25,2.268-4.476,10.674-7.229,12.049L344.277,252c-3.088-2.072,2.96-18.676,6.722-21.009,5.824-4.508,25.036,6.868,25.036,6.868,6.484,3.894.319,13.461-8.769,8.664" transform="translate(-284.727 -190.637)" fill="#002ed9"/>
          <path id="Trazado_599706" data-name="Trazado 599706" d="M342.385,350.893a1.255,1.255,0,0,0-.707,1.762c.43.959,5.845,3.165,6.582.842.48-1.513-4.633-3.338-5.875-2.6" transform="translate(-283.153 -290.777)" fill="#577aff"/>
          <path id="Trazado_599707" data-name="Trazado 599707" d="M538.5,228.853c1.116.926,1.783,2.1,1.233,3.088l-1.887,3-3.742,5.91c-1.142,1.921-8.326-3.6-7.18-5.531l5.694-7.265c.9-1.649,4.027-.753,5.882.8" transform="translate(-436.76 -188.341)" fill="#f7a594"/>
          <path id="Trazado_599708" data-name="Trazado 599708" d="M517.992,255.5s.127,1.379,3.79,3.02c3.076,1.378,3.912.888,3.912.888s.627.644-.328,1.88c-.708,2.747-1.839,5.187-4.556,5.828-2.856.674-9.973-3.763-7.329-7.474,1.592-1.415,2.565-2.425,2.565-2.425s.533-1.707,1.945-1.717" transform="translate(-425.234 -211.828)" fill="#1b49f4"/>
          <path id="Trazado_599709" data-name="Trazado 599709" d="M572.038,237.018c1.116.926,1.783,2.1,1.233,3.088l-2.388,3.775c-2.9-1.139-3.63-5.869-3.63-5.869Z" transform="translate(-470.295 -196.506)" fill="#f7785e"/>
          <path id="Trazado_599710" data-name="Trazado 599710" d="M573.847,147.369c1.5,5.951-2.574,13.8-7.76,15.1s-9.521-4.424-11.018-10.375,1.492-11.834,6.677-13.138,10.6,2.462,12.1,8.414" transform="translate(-459.873 -114.99)" fill="#f7a594"/>
          <path id="Trazado_599711" data-name="Trazado 599711" d="M556.622,195.189c7.836-1.458,14.962-2.02,18.992-3.92,0,0,1.272,2.792.107,4.572-8.651,4.157-18.931-.04-18.931-.04Z" transform="translate(-461.481 -158.576)" fill="#0e0e0e"/>
          <path id="Trazado_599712" data-name="Trazado 599712" d="M554.45,218.936a1.385,1.385,0,0,1-1.018,2.252,2.713,2.713,0,0,1-2.833-1.5,1.81,1.81,0,0,1,.671-2.622c.9-.471,2.583.731,3.181,1.87" transform="translate(-456.246 -179.877)" fill="#f7a594"/>
          <path id="Trazado_599713" data-name="Trazado 599713" d="M627.477,232.516A1.983,1.983,0,0,1,626.2,232a.131.131,0,0,1,.169-.2,1.478,1.478,0,0,0,1.6.345.773.773,0,0,0,.425-.787.7.7,0,0,0-.26-.522,1.545,1.545,0,0,0-1.016-.2.131.131,0,0,1-.138-.184l.3-.649a.131.131,0,1,1,.238.11l-.207.447a1.571,1.571,0,0,1,.985.27.962.962,0,0,1,.359.706,1.038,1.038,0,0,1-.565,1.042,1.341,1.341,0,0,1-.616.142" transform="translate(-519.131 -190.457)" fill="#803221"/>
          <path id="Trazado_599714" data-name="Trazado 599714" d="M541.308,140.461c6.357-5.147,10.623-7.258,18.241-8.775,0,0-7.532-10.4-16.444-4.684-7.584,4.867-1.8,13.459-1.8,13.459" transform="translate(-447.033 -103.87)" fill="#002ed9"/>
          <path id="Trazado_599715" data-name="Trazado 599715" d="M561.776,154.126c-4.9-.243-17.1,7.951-18.609,10.191-.527.544-2.55-2.763-1.029-4.913.92-1.3,9.508-7.618,17.573-8.712,2.4-.325,3.276,3.365,2.065,3.434" transform="translate(-449.011 -124.918)" fill="#002ed9"/>
          <path id="Trazado_599716" data-name="Trazado 599716" d="M537.635,133.232c.6,1.341-.584,3.183-2.652,4.114s-4.234.6-4.837-.743.583-3.183,2.652-4.113,4.234-.6,4.837.743" transform="translate(-439.4 -109.405)" fill="#002ed9"/>
          <path id="Trazado_599717" data-name="Trazado 599717" d="M543.565,158.5a.262.262,0,0,1-.185-.448c.076-.075,7.669-7.512,17.725-8.786a.262.262,0,1,1,.066.52c-9.875,1.251-17.347,8.564-17.422,8.638a.261.261,0,0,1-.185.076" transform="translate(-450.439 -123.748)" fill="#587cff"/>
          <path id="Trazado_599718" data-name="Trazado 599718" d="M592.557,159.887s.776,1.106,2.178.078,1.116-1.332,1.116-1.332a3.047,3.047,0,0,0,4.034.331,1.9,1.9,0,0,0,.7-2.151c3.338,2.067,8.539.536,7.89-2.922-1.629-3.388-4.5-1.111-5.247.154-.756-.018-7.734,2.685-10.674,5.843" transform="translate(-491.274 -126.115)" fill="#bd4a31"/>
          <path id="Trazado_599719" data-name="Trazado 599719" d="M609.47,209.692a1.359,1.359,0,1,1-2.354-.917,1.4,1.4,0,0,1,2.32.619,1.363,1.363,0,0,1,.035.3" transform="translate(-503.043 -172.783)" fill="#fff"/>
          <path id="Trazado_599720" data-name="Trazado 599720" d="M610.113,213.743a.384.384,0,1,1-.384-.423.4.4,0,0,1,.384.423" transform="translate(-505.196 -176.859)" fill="#0e0e0e"/>
          <path id="Trazado_599721" data-name="Trazado 599721" d="M648.1,203.59a1.316,1.316,0,0,1-2.493.6c-.605-1.049.365-2.4,1.845-1.725a1.316,1.316,0,0,1,.648,1.129" transform="translate(-535.102 -167.706)" fill="#fff"/>
          <path id="Trazado_599722" data-name="Trazado 599722" d="M647.7,208.25a.384.384,0,1,1-.384-.416.4.4,0,0,1,.384.416" transform="translate(-536.355 -172.31)" fill="#0e0e0e"/>
          <path id="Trazado_599723" data-name="Trazado 599723" d="M601.235,254.773c-.139-1.722,4.217-1.327,4.91-.594s-4.771,2.316-4.91.594" transform="translate(-498.466 -210.215)" fill="#bd3831"/>
          <rect id="Rectángulo_297754" data-name="Rectángulo 297754" width="13.797" height="11.053" transform="translate(74.821 68.186) rotate(-86.656)" fill="#d6d6d6"/>
          <rect id="Rectángulo_297755" data-name="Rectángulo 297755" width="1.007" height="6.655" transform="translate(78.748 57.3) rotate(-86.656)" fill="#b3b3b3"/>
          <rect id="Rectángulo_297756" data-name="Rectángulo 297756" width="1.007" height="8.624" transform="translate(76.645 59.548) rotate(-86.656)" fill="#b3b3b3"/>
          <rect id="Rectángulo_297757" data-name="Rectángulo 297757" width="1.007" height="8.624" transform="translate(76.507 61.911) rotate(-86.656)" fill="#b3b3b3"/>
          <rect id="Rectángulo_297758" data-name="Rectángulo 297758" width="1.007" height="8.624" transform="translate(76.369 64.274) rotate(-86.656)" fill="#b3b3b3"/>
          <rect id="Rectángulo_297759" data-name="Rectángulo 297759" width="1.007" height="8.624" transform="translate(76.231 66.637) rotate(-86.656)" fill="#b3b3b3"/>
          <rect id="Rectángulo_297760" data-name="Rectángulo 297760" width="13.797" height="11.053" transform="translate(77.158 66.687) rotate(-61.914)" fill="#fff"/>
          <rect id="Rectángulo_297761" data-name="Rectángulo 297761" width="1.007" height="6.655" transform="translate(85.281 58.444) rotate(-61.913)" fill="#d6d6d6"/>
          <rect id="Rectángulo_297762" data-name="Rectángulo 297762" width="1.007" height="8.624" transform="translate(82.431 59.605) rotate(-61.914)" fill="#d6d6d6"/>
          <rect id="Rectángulo_297763" data-name="Rectángulo 297763" width="1.007" height="8.624" transform="translate(81.316 61.694) rotate(-61.914)" fill="#d6d6d6"/>
          <rect id="Rectángulo_297764" data-name="Rectángulo 297764" width="1.007" height="8.624" transform="translate(80.202 63.782) rotate(-61.914)" fill="#d6d6d6"/>
          <rect id="Rectángulo_297765" data-name="Rectángulo 297765" width="1.007" height="8.624" transform="translate(79.088 65.87) rotate(-61.914)" fill="#d6d6d6"/>
          <rect id="Rectángulo_297766" data-name="Rectángulo 297766" width="13.632" height="10.921" transform="translate(74.982 70.65) rotate(-79.111)" fill="#fff"/>
          <rect id="Rectángulo_297767" data-name="Rectángulo 297767" width="0.995" height="6.576" transform="translate(80.242 60.497) rotate(-79.11)" fill="#d6d6d6"/>
          <rect id="Rectángulo_297768" data-name="Rectángulo 297768" width="0.995" height="8.521" transform="translate(77.89 62.426) rotate(-79.111)" fill="#d6d6d6"/>
          <rect id="Rectángulo_297769" data-name="Rectángulo 297769" width="0.995" height="8.521" transform="translate(77.449 64.722) rotate(-79.111)" fill="#d6d6d6"/>
          <rect id="Rectángulo_297770" data-name="Rectángulo 297770" width="0.995" height="8.521" transform="translate(77.007 67.019) rotate(-79.111)" fill="#d6d6d6"/>
          <rect id="Rectángulo_297771" data-name="Rectángulo 297771" width="0.995" height="8.521" transform="translate(76.565 69.315) rotate(-79.111)" fill="#d6d6d6"/>
          <path id="Trazado_599724" data-name="Trazado 599724" d="M411.3,298.964s-2.282,11.6-13.7,14.993c-10.157,3.02-10.733-5.064-10.576-6.983-2.351-.615-14.42,9.069-10.213,16.426s21.4,1.571,28.991-7.8c6.721-8.29,6.9-14.32,6.9-14.32.116-.878-.663-2.221-1.4-2.32" transform="translate(-311.67 -247.863)" fill="#0d0d0d"/>
          <path id="Trazado_599725" data-name="Trazado 599725" d="M165.858,347.222c-3.371.1-7.376-3.512-7.376-3.512,5.12-.95,8.21-2.67,9.642-5.359l7.8,5.191c-2.083,1.959-6.694,3.584-10.064,3.68" transform="translate(-131.393 -280.518)" fill="#fff3d3"/>
          <path id="Trazado_599726" data-name="Trazado 599726" d="M210.067,351.131l-.373.354L214.91,355c.187-.1.33-.192.48-.282Z" transform="translate(-173.852 -291.114)" fill="#f7cc54"/>
          <path id="Trazado_599727" data-name="Trazado 599727" d="M201.937,356.921l5.068,3.36c.183-.083.371-.163.538-.245l-5.144-3.41Z" transform="translate(-167.421 -295.669)" fill="#f7cc54"/>
          <path id="Trazado_599728" data-name="Trazado 599728" d="M192.936,362.844l4.727,3.12c.2-.069.4-.137.594-.209l-4.789-3.161Z" transform="translate(-159.958 -300.617)" fill="#f7cc54"/>
          <path id="Trazado_599729" data-name="Trazado 599729" d="M181.988,367.2l4.539,3.031c.226-.051.432-.113.65-.169l-4.526-3.023Z" transform="translate(-150.882 -304.306)" fill="#f7cc54"/>
          <path id="Trazado_599730" data-name="Trazado 599730" d="M64.12,293.685c2.507-.162,5.228-3.114,5.228-3.114a15.665,15.665,0,0,1-8.506-2.513l-4.46,3.382a13.468,13.468,0,0,0,7.739,2.245" transform="translate(-46.744 -238.821)" fill="#fff3d3"/>
          <path id="Trazado_599731" data-name="Trazado 599731" d="M744.632,282.079a7.608,7.608,0,0,1-3.179-1.253.083.083,0,0,1,.091-.138c.03.02,3.018,1.98,3.891.907a.083.083,0,0,1,.129.1,1.14,1.14,0,0,1-.933.38" transform="translate(-614.689 -232.7)" fill="#cc6b58"/>
          <path id="Trazado_599732" data-name="Trazado 599732" d="M467.489,11.124l-2.407,1.454L457.96,2.169,461.549,0Z" transform="translate(-369.061 2)" fill="#fa4861"/>
          <path id="Trazado_599733" data-name="Trazado 599733" d="M509.633,76.556a1.653,1.653,0,1,1-2.27-.56,1.653,1.653,0,0,1,2.27.56" transform="translate(-409.357 -60.808)" fill="#fa4861"/>
        </g>
      </g>
    </g>
  </g>
</svg>
