<svg xmlns="http://www.w3.org/2000/svg" xmlns:xlink="http://www.w3.org/1999/xlink" width="169" height="155" viewBox="0 0 169 155">
  <defs>
    <clipPath id="clip-path">
      <rect id="Rect치ngulo_284100" data-name="Rect치ngulo 284100" width="115" height="115" fill="#fff"/>
    </clipPath>
  </defs>
  <g id="Grupo_878002" data-name="Grupo 878002" transform="translate(-221 -10258.226)">
    <g id="Grupo_877572" data-name="Grupo 877572" transform="translate(221 10258.226)">
      <g id="Grupo_852467" data-name="Grupo 852467" clip-path="url(#clip-path)">
        <path id="Trazado_597841" data-name="Trazado 597841" d="M0,57.5A57.5,57.5,0,1,0,57.5,0,57.5,57.5,0,0,0,0,57.5m28.892,0A28.608,28.608,0,1,1,57.5,86.107,28.607,28.607,0,0,1,28.892,57.5" fill="#fff"/>
      </g>
    </g>
    <g id="Grupo_841677" data-name="Grupo 841677" transform="translate(1 8977.483)">
      <rect id="Rect치ngulo_38178" data-name="Rect치ngulo 38178" width="149" height="149" transform="translate(240 1286.742)" fill="none"/>
      <g id="Grupo_877344" data-name="Grupo 877344" transform="translate(-4206.588 1755.745)">
        <path id="Trazado_598003" data-name="Trazado 598003" d="M4590.288-361.1q.035,23.747.068,47.494.013,12.164-.008,24.328c-.008,2.645-1.04,3.759-3.575,3.759q-41.585.009-83.171-.026a10.209,10.209,0,0,1-.942-5.1q.045-35.2.017-70.4l7.417-.181c.922.037,1.845.1,2.768.1q24.4.01,48.8,0c2.463,0,4.928-.075,7.392-.115l10.663.1Zm-41.211,65.417c9.643.007,19.287-.022,28.929.05,2.084.015,2.99-.834,2.989-2.851q-.01-14.119,0-28.238c0-1.908-.882-2.841-2.817-2.833q-14.349.054-28.7.075c-2.623-.024-5.246,0-7.867-.084-1.962-.061-2.79.783-2.782,2.756q.058,14.238,0,28.476c-.009,2.02.926,2.761,2.835,2.709C4544.138-295.69,4546.607-295.668,4549.077-295.684Z" transform="translate(-17.756 -49.651)" fill="#fecf86"/>
        <path id="Trazado_598004" data-name="Trazado 598004" d="M4484.962-360.884q0,35.2-.016,70.4a10.209,10.209,0,0,0,.942,5.1c-4.246.012-8.492.055-12.737.026-2.34-.016-3.534-1.082-3.533-3.327q.01-36.125.087-72.251l10.586.007Z" transform="translate(-0.041 -49.809)" fill="#fec365"/>
        <path id="Trazado_598005" data-name="Trazado 598005" d="M4600.642-410.786l-10.663-.1q-.039-8.5-.079-16.993a83.961,83.961,0,0,0-8.328-8.394,56.958,56.958,0,0,0-6.482-6.459c-.791-.73-1.764-.4-2.652-.4q-15.368-.052-30.738-.047c.01-1.746.094-3.5.01-5.238a5.445,5.445,0,0,1,2.709-5.352q20.294-.038,40.588-.071c.45,0,.938-.057,1.208.45-.7.5-.466,1.248-.471,1.906-.023,2.839.043,5.68-.027,8.518a3.755,3.755,0,0,0,3.229,4.1,9.65,9.65,0,0,0,5.626-.107l5.807-.048c.608,3.9.1,7.83.261,11.743.059,1.464.068,2.929.1,4.395Q4600.69-416.834,4600.642-410.786Z" transform="translate(-38.686)" fill="#62dcfb"/>
        <path id="Trazado_598006" data-name="Trazado 598006" d="M4496.764-398.39l-4.669-.047c-.037-1.295-.035-2.592-.119-3.884-.179-2.794.446-5.622-.346-8.391a7,7,0,0,0,.5-3.373c-.01-4.143-.018-8.286,0-12.428.014-2.861,1.314-4.239,4.186-4.344,2.145-.078,4.3-.019,6.443-.022l3.314.152a9.161,9.161,0,0,0-1.921,6.823c.173,3.216.059,6.447.068,9.672-.762.016-1.525.007-2.285.056a1.827,1.827,0,0,0-1.865,1.671c-.155,1.17.729,1.642,1.633,1.859a14.227,14.227,0,0,0,2.494.173q0,1.378.007,2.756c-.691.008-1.383.011-2.074.026-1.152.026-1.99.574-2.045,1.74-.061,1.3.8,1.908,2.056,1.955.69.026,1.382.026,2.074.038l-.037,5.387Z" transform="translate(-11.842 -12.303)" fill="#b5dcfd"/>
        <path id="Trazado_598007" data-name="Trazado 598007" d="M4518.9-443.026l-3.315-.152c-.009-2.16-.068-4.322-.014-6.481.069-2.688,1.526-4.152,4.186-4.173,3.548-.027,7.1.038,10.645.063a5.445,5.445,0,0,0-2.71,5.352c.085,1.742,0,3.492-.01,5.238Z" transform="translate(-24.663 -0.004)" fill="#01d1fb"/>
        <path id="Trazado_598008" data-name="Trazado 598008" d="M4479.787-387.382c.792,2.768.167,5.6.346,8.391.083,1.292.082,2.589.118,3.884l-10.587-.008C4468.761-381.8,4472.875-386.782,4479.787-387.382Z" transform="translate(0 -35.633)" fill="#feaa12"/>
        <path id="Trazado_598009" data-name="Trazado 598009" d="M4668.764-375.005q.048-6.049.1-12.1c6.7,0,11.34,5.382,10.479,12.135Z" transform="translate(-106.808 -35.781)" fill="#feaa12"/>
        <path id="Trazado_598010" data-name="Trazado 598010" d="M4645.44-438.454a9.65,9.65,0,0,1-5.626.107,3.755,3.755,0,0,1-3.229-4.1c.07-2.838,0-5.678.027-8.518,0-.658-.226-1.406.471-1.906a74,74,0,0,1,6.081,6.269C4643.233-443.693,4642.152-440.464,4645.44-438.454Z" transform="translate(-89.553 -0.522)" fill="#04c3fa"/>
        <path id="Trazado_598011" data-name="Trazado 598011" d="M4652.914-431.208c-3.287-2.01-2.206-5.24-2.275-8.149l8.082,8.1Z" transform="translate(-97.028 -7.768)" fill="#01d1fb"/>
        <path id="Trazado_598012" data-name="Trazado 598012" d="M4520.521-430.734l8.783-.152q15.369.016,30.737.047c.888,0,1.861-.325,2.652.4q-.017,5.331-.031,10.662c0,2.191,1.142,3.347,3.25,3.795a21.334,21.334,0,0,0,5.063.328l6.528.068q.04,8.5.079,16.993c-2.464.039-4.928.112-7.392.114q-24.4.015-48.8,0c-.923,0-1.845-.067-2.767-.1q.017-2.694.036-5.388,22.463-.018,44.926-.037a14.8,14.8,0,0,0,2.081-.052,1.722,1.722,0,0,0,1.619-1.681,1.73,1.73,0,0,0-1.63-1.9,13.325,13.325,0,0,0-2.081-.053q-22.463-.019-44.926-.034,0-1.378-.007-2.756,18.634-.015,37.27-.036a7.291,7.291,0,0,0,2.286-.169,1.825,1.825,0,0,0,1.473-1.845,1.751,1.751,0,0,0-1.884-1.667c-.617.013-1.234-.006-1.852-.007l-37.27-.034c-.01-3.225.1-6.456-.068-9.672A9.158,9.158,0,0,1,4520.521-430.734Z" transform="translate(-26.288 -12.296)" fill="#daecfd"/>
        <path id="Trazado_598013" data-name="Trazado 598013" d="M4602.521-292.869q14.348-.035,28.7-.076c1.934-.007,2.818.926,2.816,2.833q-.015,14.119,0,28.238c0,2.016-.9,2.866-2.988,2.851-9.643-.071-19.287-.043-28.93-.05a13.314,13.314,0,0,1-.487-5.12l18.776-.016c1.545,0,3.091.023,4.635-.013,1.291-.031,2.415-.536,2.328-1.981-.075-1.243-1.035-1.812-2.322-1.7-.459.04-.927.006-1.391.005l-22.021-.017q-.015-1.4-.031-2.793c7.555-.005,15.109,0,22.663-.029,1.329-.006,2.8-.115,2.859-1.932.069-2.063-1.543-1.727-2.811-1.73q-11.333-.033-22.664-.031.008-1.572.017-3.144c1.234-.012,2.468-.032,3.7-.033q9.722-.006,19.443,0c.842,0,1.777.127,2.2-.861a1.849,1.849,0,0,0-.112-1.78c-.574-.874-1.5-.653-2.319-.655q-11.457-.034-22.915-.039,0-1.568-.006-3.136,11.562-.016,23.124-.031c1.116,0,2.252.033,2.36-1.517s-.982-1.946-2.191-2.131a12.446,12.446,0,0,0-1.848-.038q-10.752-.01-21.505-.015C4601.779-289.523,4601.1-291.389,4602.521-292.869Z" transform="translate(-70.794 -86.262)" fill="#daebfd"/>
        <path id="Trazado_598014" data-name="Trazado 598014" d="M4590.4-264.207a13.333,13.333,0,0,0,.487,5.12c-2.468.016-4.938-.006-7.406.06-1.909.051-2.844-.689-2.835-2.71q.062-14.238,0-28.476c-.008-1.973.819-2.817,2.781-2.756,2.621.081,5.244.061,7.867.084-1.423,1.481-.742,3.346-.924,5.053a6.379,6.379,0,0,0-1.374.074c-1.056.284-1.862.955-1.725,2.111.125,1.044.962,1.5,2.008,1.5.384,0,.767.029,1.151.045q0,1.568.006,3.136c-.3.017-.6.055-.9.047-1.187-.032-2.265.375-2.263,1.639s1.08,1.668,2.267,1.636c.3-.008.6.033.9.052q-.008,1.572-.017,3.144c-.46.015-.922.015-1.381.047a1.713,1.713,0,0,0-1.775,1.494,1.875,1.875,0,0,0,1.519,2.029,7.708,7.708,0,0,0,1.59.152q.015,1.4.031,2.793a9.655,9.655,0,0,0-1.6.061,1.76,1.76,0,0,0-1.6,1.913,1.759,1.759,0,0,0,1.593,1.692A10.771,10.771,0,0,0,4590.4-264.207Z" transform="translate(-59.564 -86.248)" fill="#b4dbfd"/>
        <path id="Trazado_598015" data-name="Trazado 598015" d="M4621.927-415.1a21.344,21.344,0,0,1-5.063-.328c-2.108-.448-3.253-1.6-3.25-3.8q.008-5.331.031-10.662a56.877,56.877,0,0,1,6.482,6.459C4620.082-420.51,4619.676-417.517,4621.927-415.1Z" transform="translate(-77.241 -12.846)" fill="#8bc9fe"/>
        <path id="Trazado_598016" data-name="Trazado 598016" d="M4629.388-407.634c-2.25-2.418-1.845-5.411-1.8-8.326a83.858,83.858,0,0,1,8.329,8.394Z" transform="translate(-84.703 -20.311)" fill="#b4dbfd"/>
        <path id="Trazado_598017" data-name="Trazado 598017" d="M4513.978-380.927q22.464.017,44.926.034a13.336,13.336,0,0,1,2.081.053,1.73,1.73,0,0,1,1.63,1.9,1.722,1.722,0,0,1-1.62,1.681,14.81,14.81,0,0,1-2.081.052q-22.463.021-44.926.037c-.691-.011-1.383-.012-2.073-.037-1.257-.047-2.118-.65-2.057-1.955.055-1.166.893-1.714,2.045-1.74C4512.6-380.916,4513.287-380.919,4513.978-380.927Z" transform="translate(-21.614 -39.093)" fill="#8dcafe"/>
        <path id="Trazado_598018" data-name="Trazado 598018" d="M4513.96-394.971l37.27.034c.617,0,1.234.02,1.851.007a1.75,1.75,0,0,1,1.884,1.667c.129.967-.68,1.576-1.472,1.845a7.291,7.291,0,0,1-2.286.169q-18.635.027-37.27.036a14.221,14.221,0,0,1-2.494-.173c-.9-.217-1.789-.689-1.633-1.859a1.828,1.828,0,0,1,1.865-1.671C4512.435-394.964,4513.2-394.955,4513.96-394.971Z" transform="translate(-21.579 -31.564)" fill="#8dcafe"/>
        <path id="Trazado_598019" data-name="Trazado 598019" d="M4597.972-235.267a10.767,10.767,0,0,1-1.6-.056,1.759,1.759,0,0,1-1.593-1.692,1.761,1.761,0,0,1,1.6-1.913,9.67,9.67,0,0,1,1.6-.061l22.021.017c.464,0,.931.035,1.391-.005,1.287-.112,2.247.456,2.321,1.7.088,1.445-1.036,1.95-2.327,1.981-1.544.036-3.091.012-4.636.013Z" transform="translate(-67.139 -115.188)" fill="#8dcafe"/>
        <path id="Trazado_598020" data-name="Trazado 598020" d="M4598.069-278.156c-.384-.016-.768-.043-1.151-.045-1.046-.007-1.883-.459-2.007-1.5-.138-1.156.668-1.827,1.724-2.111a6.387,6.387,0,0,1,1.374-.074q10.753.008,21.5.016a12.438,12.438,0,0,1,1.848.039c1.208.185,2.3.57,2.191,2.131s-1.244,1.516-2.36,1.517Q4609.63-278.175,4598.069-278.156Z" transform="translate(-67.205 -92.19)" fill="#8ac9fe"/>
        <path id="Trazado_598021" data-name="Trazado 598021" d="M4598.008-249.309a7.714,7.714,0,0,1-1.591-.152,1.875,1.875,0,0,1-1.519-2.029,1.714,1.714,0,0,1,1.775-1.494c.46-.033.921-.033,1.382-.047q11.331.011,22.663.03c1.267,0,2.88-.333,2.811,1.73-.062,1.818-1.53,1.927-2.858,1.933C4613.116-249.3,4605.562-249.314,4598.008-249.309Z" transform="translate(-67.2 -107.661)" fill="#8ac9fe"/>
        <path id="Trazado_598022" data-name="Trazado 598022" d="M4598.1-263.708c-.3-.019-.6-.059-.9-.051-1.187.032-2.266-.372-2.266-1.636s1.075-1.671,2.263-1.639c.3.008.6-.03.9-.047q11.458.015,22.915.039c.821,0,1.745-.219,2.319.655a1.849,1.849,0,0,1,.112,1.78c-.421.988-1.355.861-2.2.861q-9.721.006-19.443,0C4600.564-263.74,4599.33-263.719,4598.1-263.708Z" transform="translate(-67.223 -100.129)" fill="#8ac9fe"/>
      </g>
    </g>
  </g>
</svg>
